<svg width="32" height="32" viewBox="0 0 32 32" fill="none" xmlns="http://www.w3.org/2000/svg">
<g clip-path="url(#clip0_1807_2407)">
<path d="M21.4902 13.1144L12.4902 8.11444C12.3382 8.02667 12.1657 7.98047 11.9902 7.98047C11.8147 7.98047 11.6422 8.02667 11.4902 8.11444L2.4902 13.1144C2.33779 13.2057 2.21219 13.3356 2.12614 13.491C2.04009 13.6464 1.99665 13.8217 2.0002 13.9993V23.9944C2.0015 24.1726 2.05039 24.3472 2.14181 24.5002C2.23324 24.6532 2.36387 24.7789 2.5202 24.8644L11.5202 29.8644C11.6663 29.949 11.8314 29.9954 12.0002 29.9993C12.1721 29.9949 12.3403 29.9486 12.4902 29.8644L21.4902 24.8644C21.6445 24.7786 21.7731 24.6532 21.8627 24.5012C21.9524 24.3491 21.9998 24.1759 22.0002 23.9993V13.9993C22.0017 13.8198 21.9553 13.6431 21.8656 13.4875C21.7759 13.3319 21.6463 13.2031 21.4902 13.1144ZM11.0002 27.2944L4.0002 23.4044V15.6844L11.0002 19.5744V27.2944ZM12.0002 17.8444L5.0602 13.9993L12.0002 10.1344L18.9402 13.9944L12.0002 17.8444ZM20.0002 23.4044L13.0002 27.2944V19.5744L20.0002 15.6844V23.4044Z" fill="white"/>
<path d="M30 6H26V2H24V6H20V8H24V12H26V8H30V6Z" fill="white"/>
</g>
<defs>
<clipPath id="clip0_1807_2407">
<rect width="32" height="32" fill="white"/>
</clipPath>
</defs>
</svg>
