<svg width="98" height="286" viewBox="0 0 98 286" fill="none" xmlns="http://www.w3.org/2000/svg">
<path d="M49 43.6667C46.0545 43.6667 43.6667 46.0545 43.6667 49C43.6667 51.9455 46.0545 54.3333 49 54.3333C51.9455 54.3333 54.3333 51.9455 54.3333 49C54.3333 46.0545 51.9455 43.6667 49 43.6667ZM48 49L48 286H50L50 49H48Z" fill="black" fill-opacity="0.8"/>
<path d="M11.2129 90.7687L25.5242 53.1914H71.8251L86.1334 90.7687H11.2129Z" fill="#484746"/>
<path d="M0.390625 6.44699L21.7995 0.21875H75.5464L96.9553 6.44699H0.390625Z" fill="#484746"/>
<path d="M0 6.06445H97.3469L86.3689 91.0005H10.9779L0 6.06445ZM86.1337 90.7692L96.9558 6.44995H0.391086L11.2132 90.7692H86.1306" fill="#252423"/>
<path d="M96.9553 6.44531L86.1332 90.7679H11.2127L0.390625 6.44531H96.9553Z" fill="#252423"/>
<path d="M0 6.06398L21.5953 0H75.7516L97.3469 6.06398H0Z" fill="#484746"/>
<g clip-path="url(#clip0_966_6739)">
<path d="M68.6875 68.1598H29.3125V67.2148H30.1525V53.2498C30.1525 52.9887 30.3638 52.7773 30.625 52.7773H38.0275V51.9373C38.0275 51.6762 38.2388 51.4648 38.5 51.4648H59.5C59.7612 51.4648 59.9725 51.6762 59.9725 51.9373V52.7773H67.375C67.6362 52.7773 67.8475 52.9887 67.8475 53.2498V67.2148H68.6875V68.1598ZM59.9725 67.2148H66.9012V53.7223H59.9725V67.2148ZM38.9725 67.2148H59.0275V52.4098H38.9725V67.2148ZM31.0975 67.2148H38.0275V53.7223H31.0975V67.2148ZM63.91 66.3748H62.965V62.4373H63.9113L63.91 66.3748ZM54.7225 66.3748H53.7775V62.4373H54.7238L54.7225 66.3748ZM49.4725 66.3748H48.5275V62.4373H49.4725V66.3748ZM44.2225 66.3748H43.2775V62.4373H44.2225V66.3748ZM35.035 66.3748H34.09V62.4373H35.035V66.3748ZM63.91 59.8123H62.965V55.8748H63.9113L63.91 59.8123ZM54.7225 59.8123H53.7775V55.8748H54.7238L54.7225 59.8123ZM49.4725 59.8123H48.5275V55.8748H49.4725V59.8123ZM44.2225 59.8123H43.2775V55.8748H44.2225V59.8123ZM35.035 59.8123H34.09V55.8748H35.035V59.8123ZM57.3475 49.3123H56.4025V44.5348H41.5975V49.3123H40.6525V44.0623C40.6525 39.6182 44.1438 35.9734 48.5275 35.728V29.6248C48.5275 29.3637 48.7388 29.1523 49 29.1523H52.9375C53.1987 29.1523 53.41 29.3637 53.41 29.6248V32.2498C53.41 32.511 53.1987 32.7223 52.9375 32.7223H49.4725V35.728C53.8563 35.9747 57.3475 39.6182 57.3475 44.0623V49.3123ZM41.6132 43.5898H56.3881C56.1426 39.7272 52.9231 36.6598 49 36.6598C45.0769 36.6598 41.8574 39.7272 41.6132 43.5898ZM49.4725 31.7773H52.465V30.0973H49.4725V31.7773ZM53.41 49.3123H52.465V46.6873H53.4113L53.41 49.3123ZM49.4725 49.3123H48.5275V46.6873H49.4725V49.3123ZM45.535 49.3123H44.59V46.6873H45.535V49.3123Z" fill="white"/>
</g>
<defs>
<clipPath id="clip0_966_6739">
<rect width="42" height="42" fill="white" transform="translate(28 27)"/>
</clipPath>
</defs>
</svg>
