<svg width="98" height="286" viewBox="0 0 98 286" fill="none" xmlns="http://www.w3.org/2000/svg">
<path d="M49.1719 43.6667C46.2264 43.6667 43.8385 46.0545 43.8385 49C43.8385 51.9455 46.2264 54.3333 49.1719 54.3333C52.1174 54.3333 54.5052 51.9455 54.5052 49C54.5052 46.0545 52.1174 43.6667 49.1719 43.6667ZM48.1719 49L48.1719 286H50.1719L50.1719 49H48.1719Z" fill="black" fill-opacity="0.8"/>
<path d="M11.2109 90.7687L25.5222 53.1914H71.8232L86.1314 90.7687H11.2109Z" fill="#484746"/>
<path d="M0.390625 6.44601L21.7995 0.217773H75.5464L96.9553 6.44601H0.390625Z" fill="#484746"/>
<path d="M0 6.06396H97.3469L86.3689 91H10.9779L0 6.06396ZM86.1337 90.7687L96.9558 6.44946H0.391086L11.2132 90.7687H86.1306" fill="#E0E0E0"/>
<path d="M96.9553 6.44629L86.1332 90.7689H11.2127L0.390625 6.44629H96.9553Z" fill="#E0E0E0"/>
<path d="M0 6.06398L21.5953 0H75.7516L97.3469 6.06398H0Z" fill="white"/>
<g clip-path="url(#clip0_2193_2142)">
<path d="M58.375 66.1199C58.3156 66.1199 58.2562 66.1103 58.1969 66.0938L49 63.3974L39.8031 66.0951C39.6312 66.1433 39.4422 66.1199 39.2969 66.0264C39.15 65.9343 39.0625 65.783 39.0625 65.6249V62.8749C39.0625 62.7319 39.1312 62.5971 39.2547 62.5023L45.3125 57.8369V30.1073C45.3125 28.1561 46.2406 23.8799 49 23.8799C51.7594 23.8799 52.6875 28.1561 52.6875 30.1073V37.2105L56.2484 39.6291V36.7499H57.375V40.3936L60.9359 42.8123V39.4999H62.0625V43.5768L69.6547 48.733C69.7937 48.8265 69.875 48.9723 69.875 49.1249V55.3124C69.875 55.4884 69.7687 55.6506 69.5953 55.74C69.4203 55.8308 69.2094 55.8294 69.0344 55.7441L52.6937 47.6096L52.6875 57.8383L58.7453 62.5036C58.8672 62.5971 58.9375 62.7333 58.9375 62.8763V65.6263C58.9375 65.7844 58.85 65.9356 58.7047 66.0278C58.6062 66.0883 58.4906 66.1199 58.375 66.1199ZM49 62.3799C49.0609 62.3799 49.1203 62.3895 49.1781 62.406L57.8125 64.9401V63.1004L51.7547 58.435C51.6328 58.3415 51.5625 58.2054 51.5625 58.0624L51.5703 46.7599C51.5703 46.5839 51.6766 46.4216 51.85 46.3323C52.025 46.2443 52.2359 46.2429 52.4109 46.3295L68.75 54.464V49.3683L51.7828 37.8458C51.6437 37.7523 51.5625 37.6065 51.5625 37.4539V30.1073C51.5625 28.2785 50.6844 24.8685 49 24.8685C47.3172 24.8685 46.4375 28.2785 46.4375 30.1073V58.0624C46.4375 58.2054 46.3687 58.3401 46.2453 58.435L40.1875 63.1004V64.9401L48.8219 62.406C48.8797 62.3881 48.9391 62.3799 49 62.3799ZM28.6875 55.8074C28.5906 55.8074 28.4922 55.784 28.4062 55.74C28.2328 55.652 28.125 55.4884 28.125 55.311V49.1249C28.125 48.9709 28.2062 48.8251 28.3453 48.7316L35.9375 43.6153V39.4999H37.0625V42.8563L40.625 40.4555V36.7499H41.75V40.7003C41.75 40.8543 41.6687 41 41.5297 41.0935L29.25 49.3696V54.4558L42.4687 47.7403L43.0312 48.5969L28.9687 55.74C28.8828 55.7854 28.7844 55.8074 28.6875 55.8074Z" fill="black"/>
</g>
<defs>
<clipPath id="clip0_2193_2142">
<rect width="50" height="44" fill="white" transform="translate(24 23)"/>
</clipPath>
</defs>
</svg>
