<svg width="52" height="36" viewBox="0 0 52 36" fill="none" xmlns="http://www.w3.org/2000/svg">
<path d="M42.9257 35.72C39.9957 35.72 37.5752 33.8184 37.2705 31.385H16.4204C16.1157 33.8184 13.6953 35.72 10.7653 35.72C7.83529 35.72 5.4148 33.8184 5.11012 31.385H3.99466C1.79252 31.385 0 29.8548 0 27.9749V17.86C0 17.7617 0.0321604 17.6707 0.0863253 17.5927L6.92295 7.48502C7.03128 7.32462 7.23271 7.22492 7.45106 7.22492H20.3135V0.520194C20.3135 0.232642 20.586 0 20.9229 0H51.3906C51.7275 0 52 0.232642 52 0.520194V30.8649C52 31.1524 51.7275 31.385 51.3906 31.385H48.5825C48.2762 33.8184 45.8557 35.72 42.9257 35.72ZM42.9257 27.0501C40.4612 27.0501 38.4571 28.761 38.4571 30.8649C38.4571 32.9688 40.4612 34.6796 42.9257 34.6796C45.3902 34.6796 47.3943 32.9688 47.3943 30.8649C47.3943 28.761 45.3902 27.0501 42.9257 27.0501ZM10.7653 27.0501C8.30077 27.0501 6.29667 28.761 6.29667 30.8649C6.29667 32.9688 8.30077 34.6796 10.7653 34.6796C13.2298 34.6796 15.2339 32.9688 15.2339 30.8649C15.2339 28.761 13.2298 27.0501 10.7653 27.0501ZM48.5808 30.3447H50.7796V1.04039H21.5305V30.3447H37.2705C37.5752 27.9113 39.994 26.0097 42.9257 26.0097C45.8574 26.0097 48.2762 27.9113 48.5808 30.3447ZM16.4204 30.3447H20.3118V18.3802H1.21871V27.9749C1.21871 29.2812 2.4645 30.3447 3.99466 30.3447H5.11012C5.4148 27.9113 7.83529 26.0097 10.7653 26.0097C13.6953 26.0097 16.1157 27.9113 16.4204 30.3447ZM16.4526 17.3398H20.3118V8.26531H16.4526V17.3398ZM1.66557 17.3398H15.2339V8.26531H7.80313L1.66557 17.3398ZM17.5359 21.2702H14.1506V20.2298H17.5359V21.2702Z" fill="black"/>
<g clip-path="url(#clip0_1559_2080)">
<path d="M37.875 20.5H34.125C33.7936 20.4996 33.4759 20.3678 33.2415 20.1335C33.0072 19.8991 32.8754 19.5814 32.875 19.25V16.125H29.75C29.4186 16.1246 29.1009 15.9928 28.8665 15.7585C28.6322 15.5241 28.5004 15.2064 28.5 14.875V11.125C28.5003 10.7936 28.6321 10.4758 28.8665 10.2415C29.1008 10.0071 29.4186 9.87533 29.75 9.875H32.875V6.75C32.8753 6.41858 33.0071 6.10083 33.2415 5.86648C33.4758 5.63213 33.7936 5.50033 34.125 5.5H37.875C38.2064 5.50038 38.5241 5.6322 38.7585 5.86654C38.9928 6.10087 39.1246 6.4186 39.125 6.75V9.875H42.25C42.5814 9.87538 42.8991 10.0072 43.1335 10.2415C43.3678 10.4759 43.4996 10.7936 43.5 11.125V14.875C43.4996 15.2064 43.3677 15.5241 43.1334 15.7584C42.8991 15.9927 42.5814 16.1246 42.25 16.125H39.125V19.25C39.1246 19.5814 38.9927 19.8991 38.7584 20.1334C38.5241 20.3677 38.2064 20.4996 37.875 20.5ZM29.75 11.125V14.875H34.125V19.25H37.875V14.875H42.25V11.125H37.875V6.75H34.125V11.125H29.75Z" fill="black"/>
</g>
<defs>
<clipPath id="clip0_1559_2080">
<rect width="20" height="20" fill="white" transform="translate(26 3)"/>
</clipPath>
</defs>
</svg>
