<svg width="98" height="286" viewBox="0 0 98 286" fill="none" xmlns="http://www.w3.org/2000/svg">
<path d="M49 43.6667C46.0545 43.6667 43.6667 46.0545 43.6667 49C43.6667 51.9455 46.0545 54.3333 49 54.3333C51.9455 54.3333 54.3333 51.9455 54.3333 49C54.3333 46.0545 51.9455 43.6667 49 43.6667ZM48 49L48 286H50L50 49H48Z" fill="black" fill-opacity="0.8"/>
<path d="M11.2109 90.7687L25.5222 53.1914H71.8232L86.1314 90.7687H11.2109Z" fill="#484746"/>
<path d="M0.390625 6.44601L21.7995 0.217773H75.5464L96.9553 6.44601H0.390625Z" fill="#484746"/>
<path d="M0 6.06396H97.3469L86.3689 91H10.9779L0 6.06396ZM86.1337 90.7687L96.9558 6.44946H0.391086L11.2132 90.7687H86.1306" fill="#252423"/>
<path d="M96.9553 6.44629L86.1332 90.7689H11.2127L0.390625 6.44629H96.9553Z" fill="#252423"/>
<path d="M0 6.06398L21.5953 0H75.7516L97.3469 6.06398H0Z" fill="#484746"/>
<g clip-path="url(#clip0_1247_228)">
<path d="M61.5008 63.17C60.442 63.17 59.4395 63.3727 58.5483 63.7348L55.6533 59.6076C55.6458 59.5952 55.637 59.5839 55.6283 59.5716L52.177 54.6523H57.7508C58.8808 54.6523 59.8008 55.4094 59.8008 56.3394C59.8008 57.2693 58.882 58.0265 57.7508 58.0265V58.7671C59.3783 58.7671 60.7008 57.6777 60.7008 56.3394C60.7008 55.001 59.3783 53.9116 57.7508 53.9116H51.4045C51.3258 53.9116 51.2458 53.926 51.172 53.961C50.9558 54.0638 50.8833 54.2902 51.007 54.4671L54.4708 59.4039H43.0108L39.677 54.6523H41.5008C41.7495 54.6523 41.9508 54.4866 41.9508 54.2819C41.9508 54.0772 41.7495 53.9116 41.5008 53.9116H38.9045C38.8995 53.9116 38.892 53.9106 38.8883 53.9116H36.5008C36.252 53.9116 36.0508 54.0772 36.0508 54.2819C36.0508 54.4866 36.252 54.6523 36.5008 54.6523H38.637L42.2308 59.7753L39.452 63.7348C38.562 63.3727 37.5595 63.17 36.5008 63.17C32.8058 63.17 29.8008 65.6441 29.8008 68.684C29.8008 71.7238 32.8058 74.1979 36.5008 74.1979C40.0433 74.1979 42.9533 71.9224 43.1858 69.0543H46.0845C46.302 70.2178 47.527 71.1117 49.0008 71.1117C50.6283 71.1117 51.9508 70.0223 51.9508 68.684C51.9508 67.9206 51.5195 67.2376 50.847 66.7921L55.2508 60.5159L57.7695 64.1062C55.9808 65.0978 54.8008 66.7798 54.8008 68.684C54.8008 71.7238 57.807 74.1979 61.5008 74.1979C65.1945 74.1979 68.2008 71.7238 68.2008 68.684C68.2008 65.6441 65.1945 63.17 61.5008 63.17ZM36.5008 73.4572C33.302 73.4572 30.7008 71.3164 30.7008 68.684C30.7008 66.0515 33.302 63.9107 36.5008 63.9107C37.3958 63.9107 38.2445 64.0784 39.002 64.3777L36.1145 68.4926C36.0933 68.5214 36.077 68.5533 36.0658 68.5862C36.0508 68.6315 36.047 68.6768 36.052 68.721C36.0583 68.7745 36.0783 68.8239 36.1095 68.8681C36.1408 68.9134 36.1845 68.9535 36.2383 68.9854C36.2808 69.0101 36.3295 69.0296 36.382 69.0419C36.4233 69.0502 36.4595 69.0533 36.5083 69.0553H42.2833C42.0533 71.514 39.5483 73.4572 36.5008 73.4572ZM37.2808 68.3136L39.7808 64.7491C41.1858 65.5443 42.1458 66.8364 42.2833 68.3136H37.2808ZM46.0845 68.3136H43.1858C43.0433 66.5627 41.9045 65.033 40.232 64.1062L42.7508 60.5159L47.1533 66.7932C46.592 67.1635 46.1995 67.7015 46.0845 68.3136ZM51.0508 68.684C51.0508 69.6139 50.132 70.371 49.0008 70.371C47.8695 70.371 46.9508 69.6149 46.9508 68.684C46.9508 67.753 47.8708 66.9969 49.0008 66.9969C50.1308 66.9969 51.0508 67.754 51.0508 68.684ZM50.0683 66.4208C49.737 66.3138 49.377 66.2562 49.0008 66.2562C48.6245 66.2562 48.2645 66.3148 47.9333 66.4208L43.5308 60.1446H54.4733L50.0683 66.4208ZM61.5008 73.4572C58.302 73.4572 55.7008 71.3164 55.7008 68.684C55.7008 67.0534 56.6995 65.6112 58.2208 64.7491L61.1108 68.8691C61.2358 69.0481 61.512 69.1088 61.7245 69.0049C61.9408 68.902 62.0133 68.6768 61.8895 68.4998L58.9995 64.3788C59.757 64.0794 60.6058 63.9117 61.5008 63.9117C64.6995 63.9117 67.3008 66.0535 67.3008 68.685C67.3008 71.3164 64.6995 73.4572 61.5008 73.4572Z" fill="white"/>
</g>
<g clip-path="url(#clip1_1247_228)">
<path d="M54.8314 35.2495C54.2212 35.2522 53.6195 35.3784 53.0706 35.6188C52.5218 35.8592 52.0398 36.2076 51.6602 36.6382L45.701 33.2802C45.9182 32.6484 45.9182 31.9721 45.701 31.3403L51.6602 27.9823C52.2651 28.6574 53.1155 29.1177 54.0608 29.2817C55.0061 29.4458 55.9854 29.3029 56.8251 28.8785C57.6647 28.4541 58.3106 27.7755 58.6484 26.9629C58.9861 26.1503 58.9938 25.2562 58.6702 24.439C58.3466 23.6218 57.7126 22.9342 56.8804 22.498C56.0481 22.0618 55.0715 21.9051 54.1234 22.0558C53.1754 22.2065 52.3171 22.6548 51.7006 23.3213C51.0842 23.9878 50.7493 24.8294 50.7553 25.6971C50.7592 26.0257 50.8141 26.3522 50.9184 26.667L44.9591 30.0251C44.433 29.4281 43.7139 28.9934 42.9015 28.7813C42.0891 28.5692 41.2235 28.5902 40.4249 28.8413C39.6263 29.0924 38.9341 29.5613 38.4443 30.1828C37.9545 30.8044 37.6914 31.5479 37.6914 32.3103C37.6914 33.0727 37.9545 33.8162 38.4443 34.4377C38.9341 35.0593 39.6263 35.5281 40.4249 35.7792C41.2235 36.0304 42.0891 36.0513 42.9015 35.8392C43.7139 35.6271 44.433 35.1925 44.9591 34.5955L50.9184 37.9535C50.8141 38.2684 50.7592 38.5949 50.7553 38.9235C50.7553 39.6501 50.9944 40.3604 51.4423 40.9646C51.8902 41.5688 52.5268 42.0397 53.2716 42.3178C54.0164 42.5958 54.8359 42.6686 55.6266 42.5268C56.4173 42.3851 57.1436 42.0352 57.7136 41.5214C58.2837 41.0075 58.6719 40.3529 58.8292 39.6402C58.9865 38.9275 58.9057 38.1888 58.5972 37.5175C58.2887 36.8461 57.7663 36.2723 57.096 35.8686C56.4257 35.4649 55.6376 35.2495 54.8314 35.2495ZM54.8314 23.4927C55.3151 23.4927 55.788 23.622 56.1902 23.8642C56.5923 24.1064 56.9058 24.4507 57.0909 24.8535C57.276 25.2563 57.3244 25.6995 57.2301 26.1272C57.1357 26.5548 56.9028 26.9475 56.5608 27.2558C56.2187 27.5641 55.783 27.7741 55.3085 27.8591C54.8341 27.9442 54.3424 27.9005 53.8955 27.7337C53.4486 27.5668 53.0667 27.2843 52.7979 26.9218C52.5292 26.5593 52.3858 26.1331 52.3858 25.6971C52.3858 25.1125 52.6434 24.5518 53.1021 24.1384C53.5607 23.725 54.1828 23.4927 54.8314 23.4927ZM41.7879 34.5147C41.3042 34.5147 40.8314 34.3854 40.4292 34.1432C40.027 33.9009 39.7136 33.5567 39.5285 33.1539C39.3434 32.7511 39.2949 32.3078 39.3893 31.8802C39.4837 31.4526 39.7166 31.0598 40.0586 30.7515C40.4006 30.4432 40.8364 30.2333 41.3108 30.1482C41.7852 30.0632 42.277 30.1068 42.7239 30.2737C43.1707 30.4405 43.5527 30.7231 43.8214 31.0856C44.0902 31.4481 44.2336 31.8743 44.2336 32.3103C44.2336 32.8949 43.9759 33.4556 43.5173 33.869C43.0586 34.2824 42.4366 34.5147 41.7879 34.5147ZM54.8314 41.1278C54.3477 41.1278 53.8749 40.9986 53.4727 40.7563C53.0705 40.5141 52.757 40.1698 52.5719 39.767C52.3868 39.3642 52.3384 38.921 52.4328 38.4934C52.5271 38.0658 52.7601 37.673 53.1021 37.3647C53.4441 37.0564 53.8799 36.8465 54.3543 36.7614C54.8287 36.6764 55.3204 36.72 55.7673 36.8869C56.2142 37.0537 56.5962 37.3362 56.8649 37.6988C57.1336 38.0613 57.2771 38.4875 57.2771 38.9235C57.2771 39.5081 57.0194 40.0688 56.5608 40.4822C56.1021 40.8956 55.48 41.1278 54.8314 41.1278Z" fill="white"/>
</g>
<defs>
<clipPath id="clip0_1247_228">
<rect width="40" height="32.9189" fill="white" transform="translate(29 47.0811)"/>
</clipPath>
<clipPath id="clip1_1247_228">
<rect width="26.087" height="23.5135" fill="white" transform="translate(35.9531 22)"/>
</clipPath>
</defs>
</svg>
