<svg width="98" height="286" viewBox="0 0 98 286" fill="none" xmlns="http://www.w3.org/2000/svg">
<path d="M49.1719 43.6667C46.2264 43.6667 43.8385 46.0545 43.8385 49C43.8385 51.9455 46.2264 54.3333 49.1719 54.3333C52.1174 54.3333 54.5052 51.9455 54.5052 49C54.5052 46.0545 52.1174 43.6667 49.1719 43.6667ZM48.1719 49L48.1719 286H50.1719L50.1719 49H48.1719Z" fill="black" fill-opacity="0.8"/>
<path d="M11.2109 90.7687L25.5222 53.1914H71.8232L86.1314 90.7687H11.2109Z" fill="#484746"/>
<path d="M0.390625 6.44601L21.7995 0.217773H75.5464L96.9553 6.44601H0.390625Z" fill="#484746"/>
<path d="M0 6.06396H97.3469L86.3689 91H10.9779L0 6.06396ZM86.1337 90.7687L96.9558 6.44946H0.391086L11.2132 90.7687H86.1306" fill="#E0E0E0"/>
<path d="M96.9553 6.44629L86.1332 90.7689H11.2127L0.390625 6.44629H96.9553Z" fill="#E0E0E0"/>
<path d="M0 6.06398L21.5953 0H75.7516L97.3469 6.06398H0Z" fill="white"/>
<path d="M40.8125 39.0637L43.7348 38.8335V43.4335L40.8125 43.7893V39.0637Z" stroke="black" stroke-width="0.5" stroke-linejoin="round"/>
<path d="M25.8555 41.4449L40.467 41.1333V43.4333L25.8555 44.9666V41.4449Z" stroke="black" stroke-width="0.5" stroke-linejoin="round"/>
<path d="M53.6174 35L55.695 35.7667L57.1561 42.3748L52.1562 42.6667L53.6174 35Z" stroke="black" stroke-width="0.5" stroke-linejoin="round"/>
<path d="M26.5896 61.067L20.7767 47.0461C20.5171 46.4198 20.9419 45.723 21.6171 45.6677L77.0009 41.1336" stroke="black" stroke-width="0.5"/>
<path d="M76.9961 41.1333L73.3432 50.3333L69.6903 59.5333" stroke="black" stroke-width="0.5" stroke-linecap="round"/>
<line x1="0.5" y1="-0.5" x2="46.3575" y2="-0.5" transform="matrix(0.997856 -0.0654467 0.0594526 0.998231 24.3945 54.9331)" stroke="black" stroke-linecap="round"/>
<path d="M20.0117 59.9167L22.7387 60.9898C24.6966 61.7603 26.9054 61.5439 28.6766 60.408L28.9968 60.2027C31.0694 58.8736 33.7439 58.9468 35.7406 60.3873V60.3873C37.3294 61.5336 39.3781 61.8312 41.2275 61.1843L42.6537 60.6854C44.012 60.2103 45.5208 60.5021 46.604 61.4494V61.4494C48.1105 62.7668 50.3592 62.7668 51.8657 61.4494L53.196 60.286C54.7036 58.9676 56.9441 58.9351 58.4893 60.2091V60.2091C59.9238 61.3919 61.9755 61.4581 63.4833 60.3703L63.9447 60.0374C65.6309 58.8209 67.9065 58.8209 69.5927 60.0374L72.6133 62.2167" stroke="black" stroke-width="0.5" stroke-linecap="round"/>
</svg>
