<svg width="98" height="290" viewBox="0 0 98 290" fill="none" xmlns="http://www.w3.org/2000/svg">
<path d="M49 47.6667C46.0545 47.6667 43.6667 50.0545 43.6667 53C43.6667 55.9455 46.0545 58.3333 49 58.3333C51.9455 58.3333 54.3333 55.9455 54.3333 53C54.3333 50.0545 51.9455 47.6667 49 47.6667ZM48 53L48 290H50L50 53H48Z" fill="black" fill-opacity="0.8"/>
<path d="M11.2129 90.7687L25.5247 53.1914H71.8271L86.1358 90.7687H11.2129Z" fill="#8C52FF"/>
<path d="M0.390625 6.44601L21.8002 0.217773H75.5488L96.9584 6.44601H0.390625Z" fill="#8C52FF"/>
<path d="M0 6.06348H97.35L86.3717 90.9995H10.9783L0 6.06348ZM86.1365 90.7682L96.9589 6.44897H0.391099L11.2135 90.7682H86.1334" fill="#8C52FF"/>
<path d="M96.9584 6.44629L86.136 90.7689H11.2131L0.390625 6.44629H96.9584Z" fill="#8C52FF"/>
<path d="M0 6.06398L21.596 0H75.754L97.35 6.06398H0Z" fill="#B28AFF"/>
<path d="M65.9257 66.72C62.9957 66.72 60.5752 64.8184 60.2705 62.385H39.4204C39.1157 64.8184 36.6953 66.72 33.7653 66.72C30.8353 66.72 28.4148 64.8184 28.1101 62.385H26.9947C24.7925 62.385 23 60.8548 23 58.9749V48.86C23 48.7617 23.0322 48.6707 23.0863 48.5927L29.923 38.485C30.0313 38.3246 30.2327 38.2249 30.4511 38.2249H43.3135V31.5202C43.3135 31.2326 43.586 31 43.9229 31H74.3906C74.7275 31 75 31.2326 75 31.5202V61.8649C75 62.1524 74.7275 62.385 74.3906 62.385H71.5825C71.2762 64.8184 68.8557 66.72 65.9257 66.72ZM65.9257 58.0501C63.4612 58.0501 61.4571 59.761 61.4571 61.8649C61.4571 63.9688 63.4612 65.6796 65.9257 65.6796C68.3902 65.6796 70.3943 63.9688 70.3943 61.8649C70.3943 59.761 68.3902 58.0501 65.9257 58.0501ZM33.7653 58.0501C31.3008 58.0501 29.2967 59.761 29.2967 61.8649C29.2967 63.9688 31.3008 65.6796 33.7653 65.6796C36.2298 65.6796 38.2339 63.9688 38.2339 61.8649C38.2339 59.761 36.2298 58.0501 33.7653 58.0501ZM71.5808 61.3447H73.7796V32.0404H44.5305V61.3447H60.2705C60.5752 58.9113 62.994 57.0097 65.9257 57.0097C68.8574 57.0097 71.2762 58.9113 71.5808 61.3447ZM39.4204 61.3447H43.3118V49.3802H24.2187V58.9749C24.2187 60.2812 25.4645 61.3447 26.9947 61.3447H28.1101C28.4148 58.9113 30.8353 57.0097 33.7653 57.0097C36.6953 57.0097 39.1157 58.9113 39.4204 61.3447ZM39.4526 48.3398H43.3118V39.2653H39.4526V48.3398ZM24.6656 48.3398H38.2339V39.2653H30.8031L24.6656 48.3398ZM40.5359 52.2702H37.1506V51.2298H40.5359V52.2702Z" fill="white"/>
<g clip-path="url(#clip0_1561_230)" filter="url(#filter0_d_1561_230)">
<path d="M59.0004 55.5999C54.0185 55.5999 51.2754 53.5224 51.2754 49.7499C51.2754 46.9268 52.8291 45.1418 54.3323 43.4162C55.9023 41.6124 57.5254 39.7481 57.5254 36.6249C57.5254 36.5599 57.5535 36.4974 57.6029 36.4549C57.6523 36.4118 57.7166 36.3912 57.7823 36.4024C57.8279 36.4093 62.351 37.1143 62.351 42.2499H61.9004C61.9004 38.1412 58.8848 37.1149 57.9716 36.8987C57.8816 40.0243 56.251 41.8987 54.6723 43.7118C53.1566 45.4518 51.7254 47.0956 51.7254 49.7499C51.7254 52.2556 53.0216 53.6243 54.6429 54.3562C55.5841 53.9587 57.526 52.6362 57.5254 48.4999C57.5254 48.4399 57.5491 48.3831 57.591 48.3406C57.6329 48.2987 57.6904 48.2749 57.7498 48.2749C58.686 48.2749 62.3498 49.8018 62.3498 54.1249V54.7531C64.3435 54.2256 66.2741 53.0299 66.2741 50.3749C66.2741 49.1556 65.6685 48.2587 65.0835 47.3918C64.2454 46.1499 63.4541 44.9774 65.0904 43.3412L65.4091 43.6593C64.0348 45.0337 64.6316 45.9168 65.4566 47.1399C66.051 48.0206 66.7248 49.0187 66.7248 50.3756C66.7254 53.6462 63.8373 55.5999 59.0004 55.5999ZM55.206 54.5812C56.4885 55.0343 57.8966 55.1493 59.0004 55.1493C59.7391 55.1493 60.8085 55.0962 61.9004 54.8606V54.1249C61.9004 50.2731 58.9098 48.9718 57.9729 48.7581C57.9016 52.4712 56.2804 53.9849 55.206 54.5812Z" fill="white"/>
</g>
<rect x="33" y="36" width="6" height="3" fill="#FFFBFB"/>
<circle cx="36" cy="36" r="3" fill="white"/>
<line x1="36.5" y1="32" x2="36.5" y2="29" stroke="white"/>
<line x1="38.6464" y1="32.6464" x2="40.6464" y2="30.6464" stroke="white"/>
<line x1="40" y1="35.5" x2="42" y2="35.5" stroke="white"/>
<line x1="29" y1="35.5" x2="32" y2="35.5" stroke="white"/>
<line x1="33.6464" y1="32.3536" x2="31.6464" y2="30.3536" stroke="white"/>
<defs>
<filter id="filter0_d_1561_230" x="45" y="36" width="28" height="28" filterUnits="userSpaceOnUse" color-interpolation-filters="sRGB">
<feFlood flood-opacity="0" result="BackgroundImageFix"/>
<feColorMatrix in="SourceAlpha" type="matrix" values="0 0 0 0 0 0 0 0 0 0 0 0 0 0 0 0 0 0 127 0" result="hardAlpha"/>
<feOffset dy="4"/>
<feGaussianBlur stdDeviation="2"/>
<feComposite in2="hardAlpha" operator="out"/>
<feColorMatrix type="matrix" values="0 0 0 0 0 0 0 0 0 0 0 0 0 0 0 0 0 0 0.25 0"/>
<feBlend mode="normal" in2="BackgroundImageFix" result="effect1_dropShadow_1561_230"/>
<feBlend mode="normal" in="SourceGraphic" in2="effect1_dropShadow_1561_230" result="shape"/>
</filter>
<clipPath id="clip0_1561_230">
<rect width="20" height="20" fill="white" transform="translate(49 36)"/>
</clipPath>
</defs>
</svg>
