<svg width="68" height="66" viewBox="0 0 68 66" fill="none" xmlns="http://www.w3.org/2000/svg">
<g filter="url(#filter0_d_1832_210)">
<path d="M63.6198 29C63.6198 37.0081 60.2889 44.2581 54.9035 49.5061C49.5182 54.7541 42.0784 58 33.8607 58C25.6429 58 18.2031 54.7541 12.8178 49.5061C7.43246 44.2581 4.10156 37.0081 4.10156 29C4.10156 20.9919 7.43246 13.7419 12.8178 8.4939C18.2031 3.24594 25.6429 0 33.8607 0C42.0784 0 49.5182 3.24594 54.9035 8.4939C60.2889 13.7419 63.6198 20.9919 63.6198 29Z" fill="#E5E5E5"/>
</g>
<g clip-path="url(#clip0_1832_210)">
<path d="M51.7808 44.7915H15.2183V43.959H17.3255L18.2408 40.918L15.2805 41.3193C15.1147 41.3389 14.9514 41.273 14.8563 41.1424C14.7613 41.0129 14.754 40.8417 14.8356 40.7041C14.8832 40.6232 19.5936 32.5653 18.4443 27.1147C17.2463 21.4283 16.0324 17.948 16.0215 17.9133C15.9764 17.7861 15.9983 17.6462 16.0812 17.5387C16.1641 17.4311 16.2957 17.3652 16.4371 17.3652C16.6089 17.3652 33.6909 17.4057 43.4031 20.8606C43.575 20.9219 43.6883 21.0768 43.6883 21.2502V24.6473C47.2946 25.341 50.5401 25.459 50.5767 25.4601C50.8119 25.4682 51.0008 25.6521 51.0008 25.8764V42.0639C51.0008 42.294 50.8046 42.4801 50.5621 42.4801H47.3446V43.959H51.7808V44.7915ZM44.9071 43.959H46.4658V42.479H44.9071V43.959ZM38.8133 43.959H44.0283V42.479H38.8133V43.959ZM36.3758 43.959H37.9346V42.479H36.3758V43.959ZM29.0633 43.959H35.4983V42.479H32.2808C32.0383 42.479 31.8421 42.2928 31.8421 42.0627V40.1665H29.0633V43.959ZM26.6258 43.959H28.1858V40.1665H26.6258V43.959ZM20.6747 43.959H25.7483V40.1665H23.78L21.7337 40.444L20.6747 43.959ZM18.2372 43.959H19.7618L20.7807 40.5735L19.1914 40.7885L18.2372 43.959ZM32.7196 41.6465H50.1233V26.2707C48.9314 26.2036 45.4104 25.9492 41.9248 25.1225C37.9309 24.1755 33.8847 24.8265 32.7196 25.0531V41.6465ZM18.5638 34.3852C17.7509 36.9856 16.6138 39.2577 16.0105 40.3792L23.2864 39.3918L22.9562 34.3852H18.5638ZM24.1615 39.334H31.8421V21.6665H22.9976L24.1615 39.334ZM18.8087 33.5527H22.9013L22.5747 28.604H19.4973C19.551 30.2193 19.256 31.9305 18.8087 33.5527ZM19.4364 27.7715H22.5198L22.1944 22.8227H18.3481C18.6527 24.0218 18.9794 25.4058 19.3048 26.9494C19.3608 27.2188 19.4059 27.4928 19.4364 27.7715ZM37.3203 23.7847C38.7962 23.7847 40.4611 23.9177 42.1368 24.3143C42.3623 24.3675 42.5866 24.4184 42.8108 24.4669V21.5405C34.2381 18.5943 20.1092 18.244 17.0367 18.2035C17.2573 18.8869 17.657 20.1853 18.1336 21.9902H22.1408L22.0933 21.2757C22.0847 21.1612 22.1274 21.049 22.2115 20.9646C22.2944 20.8814 22.4089 20.834 22.5308 20.834H32.2808C32.5233 20.834 32.7196 21.0201 32.7196 21.2502V24.2021C33.5507 24.046 35.2497 23.7847 37.3203 23.7847ZM47.3446 39.7502H46.4671V37.4377H47.3458L47.3446 39.7502ZM40.0321 39.7502H39.1546V37.4377H40.0333L40.0321 39.7502ZM43.6883 38.594H42.8108V36.2815H43.6895L43.6883 38.594ZM36.3758 38.594H35.4983V36.2815H36.377L36.3758 38.594ZM29.6727 36.2815H28.7952V33.969H29.6727V36.2815ZM47.3446 35.1252H46.4671V32.8127H47.3458L47.3446 35.1252ZM40.0321 35.1252H39.1546V32.8127H40.0333L40.0321 35.1252ZM26.6258 35.1252H25.7483V32.8127H26.6258V35.1252ZM43.6883 33.969H42.8108V31.6565H43.6895L43.6883 33.969ZM36.3758 33.969H35.4983V31.6565H36.377L36.3758 33.969ZM29.6727 31.6565H28.7952V29.344H29.6727V31.6565ZM47.3446 30.5002H46.4671V28.1877H47.3458L47.3446 30.5002ZM40.0321 30.5002H39.1546V28.1877H40.0333L40.0321 30.5002ZM26.6258 30.5002H25.7483V28.1877H26.6258V30.5002ZM43.6883 29.344H42.8108V27.0315H43.6895L43.6883 29.344ZM36.3758 29.344H35.4983V27.0315H36.377L36.3758 29.344ZM29.6727 27.0315H28.7952V24.719H29.6727V27.0315ZM26.6258 25.8752H25.7483V23.5627H26.6258V25.8752Z" fill="black"/>
</g>
<defs>
<filter id="filter0_d_1832_210" x="0.101562" y="0" width="67.5176" height="66" filterUnits="userSpaceOnUse" color-interpolation-filters="sRGB">
<feFlood flood-opacity="0" result="BackgroundImageFix"/>
<feColorMatrix in="SourceAlpha" type="matrix" values="0 0 0 0 0 0 0 0 0 0 0 0 0 0 0 0 0 0 127 0" result="hardAlpha"/>
<feOffset dy="4"/>
<feGaussianBlur stdDeviation="2"/>
<feComposite in2="hardAlpha" operator="out"/>
<feColorMatrix type="matrix" values="0 0 0 0 0 0 0 0 0 0 0 0 0 0 0 0 0 0 0.25 0"/>
<feBlend mode="normal" in2="BackgroundImageFix" result="effect1_dropShadow_1832_210"/>
<feBlend mode="normal" in="SourceGraphic" in2="effect1_dropShadow_1832_210" result="shape"/>
</filter>
<clipPath id="clip0_1832_210">
<rect width="39" height="37" fill="white" transform="translate(14 12)"/>
</clipPath>
</defs>
</svg>
