<svg width="32" height="33" viewBox="0 0 32 33" fill="none" xmlns="http://www.w3.org/2000/svg">
<path d="M15 16H3C2.46975 15.9994 1.9614 15.7885 1.58646 15.4135C1.21152 15.0386 1.00061 14.5302 1 14V2C1.00061 1.46975 1.21152 0.9614 1.58646 0.586459C1.9614 0.211518 2.46975 0.000608734 3 0H15C15.5302 0.000608734 16.0386 0.211518 16.4135 0.586459C16.7885 0.9614 16.9994 1.46975 17 2V14C16.9994 14.5302 16.7885 15.0386 16.4135 15.4135C16.0386 15.7885 15.5302 15.9994 15 16ZM3 2V14H15V2H3Z" fill="white"/>
<g clip-path="url(#clip0_2007_209)">
<path d="M28.0004 12C28.0015 10.1616 27.6395 8.34107 26.935 6.64299C26.2305 4.94492 25.1975 3.40276 23.8953 2.1051L22.4817 3.5187C24.7353 5.76319 26.0052 8.81093 26.012 11.9916C26.0188 15.1723 24.762 18.2254 22.518 20.4795C20.274 22.7337 17.2265 24.0042 14.0458 24.0117C10.8652 24.0191 7.81176 22.763 5.55717 20.5194L5.51907 20.4813L4.10547 21.8949C5.40313 23.1971 6.94529 24.2302 8.64336 24.9347C10.3414 25.6391 12.162 26.0012 14.0004 26V29H10.0004V31H20.0004V29H16.0004V25.84C19.3288 25.3576 22.3725 23.694 24.5757 21.153C26.7789 18.612 27.9945 15.3632 28.0004 12Z" fill="white"/>
</g>
<defs>
<clipPath id="clip0_2007_209">
<rect width="32" height="32" fill="white" transform="translate(0 1)"/>
</clipPath>
</defs>
</svg>
