<svg width="32" height="36" viewBox="0 0 32 36" fill="none" xmlns="http://www.w3.org/2000/svg">
<path d="M19.49 5.13397L10.49 0.133975C10.338 0.0462062 10.1656 0 9.99005 0C9.81451 0 9.64207 0.0462062 9.49005 0.133975L0.490048 5.13397C0.339303 5.22334 0.21469 5.35075 0.128692 5.50344C0.0426939 5.65613 -0.00166887 5.82874 4.80056e-05 6.00397V16.004C0.000353363 16.1812 0.0477368 16.3551 0.137349 16.508C0.22696 16.6608 0.355582 16.7871 0.510048 16.874L9.51005 21.874C9.66207 21.9617 9.83451 22.0079 10.01 22.0079C10.1856 22.0079 10.358 21.9617 10.51 21.874L19.51 16.874C19.6608 16.7846 19.7854 16.6572 19.8714 16.5045C19.9574 16.3518 20.0018 16.1792 20 16.004V6.00397C19.9997 5.82678 19.9524 5.65285 19.8627 5.49998C19.7731 5.34711 19.6445 5.2208 19.49 5.13397ZM10 2.14397L16.94 6.00397L10 9.86397L3.06005 6.00397L10 2.14397ZM2.00005 7.70397L9.00005 11.594V19.304L2.00005 15.414V7.70397ZM11 19.304V11.594L18 7.70397V15.414L11 19.304Z" fill="white"/>
<g clip-path="url(#clip0_2007_210)">
<path d="M28.0004 15C28.0015 13.1616 27.6395 11.3411 26.935 9.64299C26.2305 7.94492 25.1975 6.40276 23.8953 5.1051L22.4817 6.5187C24.7353 8.76319 26.0052 11.8109 26.012 14.9916C26.0188 18.1723 24.762 21.2254 22.518 23.4795C20.274 25.7337 17.2265 27.0042 14.0458 27.0117C10.8652 27.0191 7.81176 25.763 5.55717 23.5194L5.51907 23.4813L4.10547 24.8949C5.40313 26.1971 6.94529 27.2302 8.64336 27.9347C10.3414 28.6391 12.162 29.0012 14.0004 29V32H10.0004V34H20.0004V32H16.0004V28.84C19.3288 28.3576 22.3725 26.694 24.5757 24.153C26.7789 21.612 27.9945 18.3632 28.0004 15Z" fill="white"/>
</g>
<defs>
<clipPath id="clip0_2007_210">
<rect width="32" height="32" fill="white" transform="translate(0 4)"/>
</clipPath>
</defs>
</svg>
