<svg width="26" height="25" viewBox="0 0 26 25" fill="none" xmlns="http://www.w3.org/2000/svg">
<g clip-path="url(#clip0_1807_2337)">
<path d="M23.0784 21.5518L17.1784 15.6517C18.5961 13.9497 19.3031 11.7665 19.1522 9.55649C19.0013 7.34646 18.0042 5.27967 16.3683 3.78607C14.7324 2.29247 12.5837 1.48706 10.3691 1.53738C8.15446 1.58771 6.0445 2.48989 4.47813 4.05626C2.91177 5.62263 2.00958 7.73258 1.95926 9.94719C1.90893 12.1618 2.71434 14.3105 4.20794 15.9465C5.70154 17.5824 7.76833 18.5795 9.97837 18.7303C12.1884 18.8812 14.3715 18.1742 16.0736 16.7565L21.9737 22.6566L23.0784 21.5518ZM3.54718 10.1566C3.54718 8.76591 3.95956 7.40649 4.73216 6.2502C5.50477 5.09392 6.6029 4.19271 7.88769 3.66053C9.17248 3.12835 10.5862 2.98911 11.9502 3.26041C13.3141 3.53171 14.5669 4.20137 15.5503 5.18471C16.5336 6.16805 17.2033 7.4209 17.4746 8.78483C17.7459 10.1488 17.6066 11.5625 17.0745 12.8473C16.5423 14.1321 15.6411 15.2302 14.4848 16.0028C13.3285 16.7754 11.9691 17.1878 10.5784 17.1878C8.71426 17.1857 6.92704 16.4443 5.60887 15.1261C4.2907 13.808 3.54925 12.0207 3.54718 10.1566Z" fill="white"/>
</g>
<defs>
<clipPath id="clip0_1807_2337">
<rect width="25" height="25" fill="white" transform="translate(0.421875)"/>
</clipPath>
</defs>
</svg>
