<svg width="68" height="66" viewBox="0 0 68 66" fill="none" xmlns="http://www.w3.org/2000/svg">
<g filter="url(#filter0_d_1658_274)">
<path d="M63.5182 29C63.5182 37.0081 60.1873 44.2581 54.802 49.5061C49.4166 54.7541 41.9768 58 33.7591 58C25.5414 58 18.1016 54.7541 12.7162 49.5061C7.3309 44.2581 4 37.0081 4 29C4 20.9919 7.3309 13.7419 12.7162 8.4939C18.1016 3.24594 25.5414 0 33.7591 0C41.9768 0 49.4166 3.24594 54.802 8.4939C60.1873 13.7419 63.5182 20.9919 63.5182 29Z" fill="black" fill-opacity="0.62" shape-rendering="crispEdges"/>
</g>
<g clip-path="url(#clip0_1658_274)">
<path d="M44 34H42V39H44V34Z" fill="white"/>
<path d="M40 29H38V39H40V29Z" fill="white"/>
<path d="M29 39C27.6744 38.9984 26.4035 38.4712 25.4662 37.5338C24.5288 36.5965 24.0016 35.3256 24 34H26C26 34.5933 26.1759 35.1734 26.5056 35.6667C26.8352 36.1601 27.3038 36.5446 27.8519 36.7716C28.4001 36.9987 29.0033 37.0581 29.5853 36.9424C30.1672 36.8266 30.7018 36.5409 31.1213 36.1213C31.5409 35.7018 31.8266 35.1672 31.9424 34.5853C32.0581 34.0033 31.9987 33.4001 31.7716 32.8519C31.5446 32.3038 31.1601 31.8352 30.6667 31.5056C30.1734 31.1759 29.5933 31 29 31V29C30.3261 29 31.5979 29.5268 32.5355 30.4645C33.4732 31.4021 34 32.6739 34 34C34 35.3261 33.4732 36.5979 32.5355 37.5355C31.5979 38.4732 30.3261 39 29 39Z" fill="white"/>
<path d="M46 15H22C21.4697 15.0005 20.9613 15.2114 20.5864 15.5864C20.2114 15.9613 20.0005 16.4697 20 17V41C20.0006 41.5302 20.2115 42.0386 20.5865 42.4135C20.9614 42.7885 21.4698 42.9994 22 43H46C46.5302 42.9993 47.0385 42.7883 47.4134 42.4134C47.7883 42.0385 47.9993 41.5302 48 41V17C47.9994 16.4698 47.7885 15.9614 47.4135 15.5865C47.0386 15.2115 46.5302 15.0006 46 15ZM46 24H32V17H46V24ZM30 17V24H22V17H30ZM22 41V26H46.0007L46.002 41H22Z" fill="white"/>
</g>
<defs>
<filter id="filter0_d_1658_274" x="0" y="0" width="67.5176" height="66" filterUnits="userSpaceOnUse" color-interpolation-filters="sRGB">
<feFlood flood-opacity="0" result="BackgroundImageFix"/>
<feColorMatrix in="SourceAlpha" type="matrix" values="0 0 0 0 0 0 0 0 0 0 0 0 0 0 0 0 0 0 127 0" result="hardAlpha"/>
<feOffset dy="4"/>
<feGaussianBlur stdDeviation="2"/>
<feComposite in2="hardAlpha" operator="out"/>
<feColorMatrix type="matrix" values="0 0 0 0 0 0 0 0 0 0 0 0 0 0 0 0 0 0 0.25 0"/>
<feBlend mode="normal" in2="BackgroundImageFix" result="effect1_dropShadow_1658_274"/>
<feBlend mode="normal" in="SourceGraphic" in2="effect1_dropShadow_1658_274" result="shape"/>
</filter>
<clipPath id="clip0_1658_274">
<rect width="32" height="32" fill="white" transform="translate(18 13)"/>
</clipPath>
</defs>
</svg>
