<svg width="68" height="66" viewBox="0 0 68 66" fill="none" xmlns="http://www.w3.org/2000/svg">
<g filter="url(#filter0_d_969_4229)">
<path d="M63.5182 29C63.5182 37.0081 60.1873 44.2581 54.802 49.5061C49.4166 54.7541 41.9768 58 33.7591 58C25.5414 58 18.1016 54.7541 12.7162 49.5061C7.3309 44.2581 4 37.0081 4 29C4 20.9919 7.3309 13.7419 12.7162 8.4939C18.1016 3.24593 25.5414 0 33.7591 0C41.9768 0 49.4166 3.24593 54.802 8.4939C60.1873 13.7419 63.5182 20.9919 63.5182 29Z" fill="#E5E5E5"/>
</g>
<g clip-path="url(#clip0_969_4229)">
<rect width="32" height="32" transform="translate(18 14)" fill="white" style="mix-blend-mode:multiply"/>
<path d="M22.0006 45.3601C20.1476 45.3601 18.6406 43.8521 18.6406 42.0001C18.6406 40.1481 20.1476 38.6401 22.0006 38.6401C23.8536 38.6401 25.3606 40.1471 25.3606 42.0001C25.3606 43.8531 23.8536 45.3601 22.0006 45.3601ZM22.0006 39.3601C20.5446 39.3601 19.3606 40.5441 19.3606 42.0001C19.3606 43.4561 20.5446 44.6401 22.0006 44.6401C23.4566 44.6401 24.6406 43.4561 24.6406 42.0001C24.6406 40.5441 23.4566 39.3601 22.0006 39.3601ZM46.0006 44.2391H40.0006C38.6986 44.2391 37.6406 43.1801 37.6406 41.8791C37.6406 40.5781 38.6996 39.5191 40.0006 39.5191H46.0006C47.3026 39.5191 48.3606 40.5781 48.3606 41.8791C48.3606 43.1801 47.3026 44.2391 46.0006 44.2391ZM43.3606 43.5191H46.0006C46.9046 43.5191 47.6406 42.7841 47.6406 41.8791C47.6406 40.9741 46.9056 40.2391 46.0006 40.2391H43.3606V43.5191ZM40.0006 40.2391C39.0966 40.2391 38.3606 40.9741 38.3606 41.8791C38.3606 42.7841 39.0956 43.5191 40.0006 43.5191H42.6406V40.2401L40.0006 40.2391ZM30.7576 42.3601C30.1276 42.3601 29.5346 42.1141 29.0886 41.6691C28.1686 40.7491 28.1686 39.2511 29.0886 38.3311L33.3316 34.0881C34.2516 33.1701 35.7476 33.1701 36.6686 34.0881C37.5886 35.0091 37.5886 36.5061 36.6686 37.4271L32.4256 41.6691C31.9806 42.1141 31.3886 42.3601 30.7576 42.3601ZM35.0006 34.1181C34.5806 34.1181 34.1606 34.2781 33.8406 34.5971L29.5976 38.8401C29.2876 39.1501 29.1176 39.5621 29.1176 39.9991C29.1176 40.4361 29.2886 40.8491 29.5976 41.1581C30.2176 41.7791 31.2966 41.7791 31.9166 41.1581L36.1586 36.9161C36.7986 36.2761 36.7986 35.2361 36.1586 34.5971C35.8406 34.2781 35.4206 34.1181 35.0006 34.1181ZM29.3436 38.5861H29.3526H29.3436ZM24.0006 35.3601C22.5686 35.3601 21.2226 34.8021 20.2106 33.7901C19.1976 32.7771 18.6406 31.4321 18.6406 30.0001C18.6406 28.5681 19.1986 27.2221 20.2106 26.2101C22.3006 24.1201 25.7006 24.1201 27.7906 26.2101C28.8036 27.2221 29.3606 28.5681 29.3606 30.0001C29.3606 31.4321 28.8026 32.7771 27.7906 33.7901C26.7786 34.8031 25.4326 35.3601 24.0006 35.3601ZM19.3746 30.3601C19.4586 31.4641 19.9286 32.4901 20.7196 33.2801C21.5956 34.1571 22.7616 34.6401 24.0006 34.6401C25.2396 34.6401 26.4056 34.1581 27.2816 33.2811C28.0726 32.4911 28.5426 31.4651 28.6266 30.3611L19.3746 30.3601ZM19.3746 29.6401H28.6276C28.5436 28.5361 28.0736 27.5101 27.2826 26.7191C26.4056 25.8431 25.2396 25.3601 24.0006 25.3601C22.7616 25.3601 21.5956 25.8431 20.7196 26.7191C19.9286 27.5101 19.4586 28.5361 19.3746 29.6401ZM44.0006 35.2601C42.5686 35.2601 41.2236 34.7021 40.2106 33.6901L35.2726 28.7521C35.2686 28.7491 35.2646 28.7451 35.2606 28.7411C35.2566 28.7381 35.2536 28.7341 35.2496 28.7301L30.3116 23.7901C28.2216 21.7001 28.2216 18.3001 30.3116 16.2101C31.3236 15.1971 32.6696 14.6401 34.1016 14.6401C35.5336 14.6401 36.8786 15.1981 37.8916 16.2101L42.8296 21.1481C42.8336 21.1511 42.8376 21.1551 42.8416 21.1591C42.8456 21.1621 42.8486 21.1661 42.8526 21.1701L47.7906 26.1081C48.8036 27.1201 49.3606 28.4661 49.3606 29.8981C49.3606 31.3301 48.8026 32.6751 47.7906 33.6881C46.7786 34.7011 45.4326 35.2601 44.0006 35.2601ZM36.0246 28.4851L40.7196 33.1801C41.5956 34.0571 42.7606 34.5391 43.9996 34.5391C45.2386 34.5391 46.4036 34.0571 47.2796 33.1801C48.1566 32.3041 48.6386 31.1391 48.6386 29.9001C48.6386 28.6611 48.1566 27.4951 47.2796 26.6191L42.5856 21.9241L36.0246 28.4851ZM34.1016 15.3601C32.8626 15.3601 31.6966 15.8431 30.8206 16.7191C29.9436 17.5951 29.4606 18.7611 29.4606 20.0001C29.4606 21.2391 29.9426 22.4051 30.8196 23.2811L35.5146 27.9761L42.0766 21.4141L37.3816 16.7191C36.5056 15.8421 35.3406 15.3601 34.1016 15.3601ZM22.0006 21.3601C20.1476 21.3601 18.6406 19.8531 18.6406 18.0001C18.6406 16.1471 20.1476 14.6401 22.0006 14.6401C23.8536 14.6401 25.3606 16.1471 25.3606 18.0001C25.3606 19.8531 23.8536 21.3601 22.0006 21.3601ZM22.0006 15.3601C20.5446 15.3601 19.3606 16.5441 19.3606 18.0001C19.3606 19.4561 20.5446 20.6401 22.0006 20.6401C23.4566 20.6401 24.6406 19.4561 24.6406 18.0001C24.6406 16.5441 23.4566 15.3601 22.0006 15.3601ZM46.5006 20.3601C44.9236 20.3601 43.6406 19.0771 43.6406 17.5001C43.6406 15.9231 44.9236 14.6401 46.5006 14.6401C48.0776 14.6401 49.3606 15.9231 49.3606 17.5001C49.3606 19.0771 48.0776 20.3601 46.5006 20.3601ZM46.5006 15.3601C45.3206 15.3601 44.3606 16.3201 44.3606 17.5001C44.3606 18.6801 45.3206 19.6401 46.5006 19.6401C47.6806 19.6401 48.6406 18.6801 48.6406 17.5001C48.6406 16.3201 47.6806 15.3601 46.5006 15.3601Z" fill="#161616"/>
</g>
<defs>
<filter id="filter0_d_969_4229" x="0" y="0" width="67.5176" height="66" filterUnits="userSpaceOnUse" color-interpolation-filters="sRGB">
<feFlood flood-opacity="0" result="BackgroundImageFix"/>
<feColorMatrix in="SourceAlpha" type="matrix" values="0 0 0 0 0 0 0 0 0 0 0 0 0 0 0 0 0 0 127 0" result="hardAlpha"/>
<feOffset dy="4"/>
<feGaussianBlur stdDeviation="2"/>
<feComposite in2="hardAlpha" operator="out"/>
<feColorMatrix type="matrix" values="0 0 0 0 0 0 0 0 0 0 0 0 0 0 0 0 0 0 0.25 0"/>
<feBlend mode="normal" in2="BackgroundImageFix" result="effect1_dropShadow_969_4229"/>
<feBlend mode="normal" in="SourceGraphic" in2="effect1_dropShadow_969_4229" result="shape"/>
</filter>
<clipPath id="clip0_969_4229">
<rect width="32" height="32" fill="white" transform="translate(18 14)"/>
</clipPath>
</defs>
</svg>
