<svg width="32" height="32" viewBox="0 0 32 32" fill="none" xmlns="http://www.w3.org/2000/svg">
<g clip-path="url(#clip0_2066_3362)">
<mask id="path-1-outside-1_2066_3362" maskUnits="userSpaceOnUse" x="-0.359375" y="-0.359985" width="33" height="33" fill="black">
<rect fill="white" x="-0.359375" y="-0.359985" width="33" height="33"/>
<path d="M18.9586 31.36H13.0436C12.8446 31.36 12.6836 31.199 12.6836 31V27.367L10.3156 26.377L7.73962 28.952C7.59863 29.093 7.37162 29.093 7.23063 28.952L3.04862 24.77C2.90762 24.629 2.90762 24.401 3.04862 24.26L5.61663 21.692L4.64263 19.317H1.00063C0.801625 19.317 0.640625 19.156 0.640625 18.957V13.042C0.640625 12.843 0.801625 12.682 1.00063 12.682H4.63263L5.62363 10.314L3.04862 7.73901C2.90762 7.59801 2.90762 7.37101 3.04862 7.23001L7.23063 3.04801C7.29862 2.98001 7.38963 2.94201 7.48563 2.94201C7.58163 2.94201 7.67263 2.98001 7.73962 3.04701L10.3076 5.61601L12.6826 4.64101V1.00001C12.6826 0.801015 12.8436 0.640015 13.0426 0.640015H18.9576C19.1566 0.640015 19.3176 0.801015 19.3176 1.00001V4.63201L21.6846 5.62301L24.2596 3.04801C24.4006 2.90701 24.6286 2.90701 24.7696 3.04801L28.9526 7.23001C29.0196 7.29701 29.0576 7.38902 29.0576 7.48401C29.0576 7.57901 29.0196 7.67101 28.9526 7.73801L26.3836 10.306L27.3586 12.681H31.0006C31.1996 12.681 31.3606 12.842 31.3606 13.041V18.956C31.3606 19.155 31.1996 19.316 31.0006 19.316H27.3676L26.3776 21.684L28.9536 24.259C29.0206 24.326 29.0586 24.418 29.0586 24.514C29.0586 24.61 29.0206 24.702 28.9536 24.769L24.7706 28.951C24.6296 29.092 24.4016 29.092 24.2606 28.951L21.6926 26.383L19.3186 27.357V31C19.3186 31.199 19.1576 31.36 18.9586 31.36ZM13.4036 30.64H18.5986V27.117C18.5986 26.971 18.6876 26.84 18.8226 26.784L21.6416 25.628C21.7756 25.571 21.9296 25.604 22.0336 25.706L24.5166 28.189L28.1906 24.516L25.6986 22.025C25.5956 21.921 25.5646 21.766 25.6216 21.631L26.7976 18.819C26.8536 18.685 26.9846 18.597 27.1296 18.597H30.6416V13.403H27.1196C26.9736 13.403 26.8426 13.315 26.7866 13.18L25.6296 10.36C25.5746 10.226 25.6056 10.071 25.7076 9.96901L28.1916 7.48601L24.5176 3.81301L22.0266 6.30401C21.9226 6.40701 21.7666 6.43801 21.6326 6.38201L18.8206 5.20601C18.6866 5.15001 18.5986 5.01901 18.5986 4.87401V1.36001H13.4036V4.88301C13.4036 5.02901 13.3156 5.16102 13.1806 5.21601L10.3606 6.37301C10.2256 6.42801 10.0716 6.39702 9.96962 6.29401L7.48563 3.81201L3.81262 7.48401L6.30363 9.97601C6.40763 10.079 6.43763 10.235 6.38163 10.37L5.20463 13.182C5.14862 13.316 5.01763 13.403 4.87263 13.403H1.36063V18.597H4.88462C5.03062 18.597 5.16263 18.686 5.21763 18.821L6.37463 21.641C6.42963 21.776 6.39863 21.93 6.29563 22.033L3.81262 24.516L7.48563 28.189L9.97762 25.698C10.0806 25.594 10.2376 25.565 10.3706 25.621L13.1826 26.797C13.3166 26.853 13.4036 26.984 13.4036 27.129V30.64ZM16.0006 23.36C11.9426 23.36 8.64062 20.058 8.64062 16C8.64062 11.942 11.9426 8.64001 16.0006 8.64001C20.0596 8.64001 23.3606 11.942 23.3606 16C23.3606 20.059 20.0596 23.36 16.0006 23.36ZM16.0006 9.36001C12.3396 9.36001 9.36062 12.339 9.36062 16C9.36062 19.661 12.3396 22.64 16.0006 22.64C19.6616 22.64 22.6406 19.661 22.6406 16C22.6406 12.339 19.6616 9.36001 16.0006 9.36001Z"/>
</mask>
<path d="M18.9586 31.36H13.0436C12.8446 31.36 12.6836 31.199 12.6836 31V27.367L10.3156 26.377L7.73962 28.952C7.59863 29.093 7.37162 29.093 7.23063 28.952L3.04862 24.77C2.90762 24.629 2.90762 24.401 3.04862 24.26L5.61663 21.692L4.64263 19.317H1.00063C0.801625 19.317 0.640625 19.156 0.640625 18.957V13.042C0.640625 12.843 0.801625 12.682 1.00063 12.682H4.63263L5.62363 10.314L3.04862 7.73901C2.90762 7.59801 2.90762 7.37101 3.04862 7.23001L7.23063 3.04801C7.29862 2.98001 7.38963 2.94201 7.48563 2.94201C7.58163 2.94201 7.67263 2.98001 7.73962 3.04701L10.3076 5.61601L12.6826 4.64101V1.00001C12.6826 0.801015 12.8436 0.640015 13.0426 0.640015H18.9576C19.1566 0.640015 19.3176 0.801015 19.3176 1.00001V4.63201L21.6846 5.62301L24.2596 3.04801C24.4006 2.90701 24.6286 2.90701 24.7696 3.04801L28.9526 7.23001C29.0196 7.29701 29.0576 7.38902 29.0576 7.48401C29.0576 7.57901 29.0196 7.67101 28.9526 7.73801L26.3836 10.306L27.3586 12.681H31.0006C31.1996 12.681 31.3606 12.842 31.3606 13.041V18.956C31.3606 19.155 31.1996 19.316 31.0006 19.316H27.3676L26.3776 21.684L28.9536 24.259C29.0206 24.326 29.0586 24.418 29.0586 24.514C29.0586 24.61 29.0206 24.702 28.9536 24.769L24.7706 28.951C24.6296 29.092 24.4016 29.092 24.2606 28.951L21.6926 26.383L19.3186 27.357V31C19.3186 31.199 19.1576 31.36 18.9586 31.36ZM13.4036 30.64H18.5986V27.117C18.5986 26.971 18.6876 26.84 18.8226 26.784L21.6416 25.628C21.7756 25.571 21.9296 25.604 22.0336 25.706L24.5166 28.189L28.1906 24.516L25.6986 22.025C25.5956 21.921 25.5646 21.766 25.6216 21.631L26.7976 18.819C26.8536 18.685 26.9846 18.597 27.1296 18.597H30.6416V13.403H27.1196C26.9736 13.403 26.8426 13.315 26.7866 13.18L25.6296 10.36C25.5746 10.226 25.6056 10.071 25.7076 9.96901L28.1916 7.48601L24.5176 3.81301L22.0266 6.30401C21.9226 6.40701 21.7666 6.43801 21.6326 6.38201L18.8206 5.20601C18.6866 5.15001 18.5986 5.01901 18.5986 4.87401V1.36001H13.4036V4.88301C13.4036 5.02901 13.3156 5.16102 13.1806 5.21601L10.3606 6.37301C10.2256 6.42801 10.0716 6.39702 9.96962 6.29401L7.48563 3.81201L3.81262 7.48401L6.30363 9.97601C6.40763 10.079 6.43763 10.235 6.38163 10.37L5.20463 13.182C5.14862 13.316 5.01763 13.403 4.87263 13.403H1.36063V18.597H4.88462C5.03062 18.597 5.16263 18.686 5.21763 18.821L6.37463 21.641C6.42963 21.776 6.39863 21.93 6.29563 22.033L3.81262 24.516L7.48563 28.189L9.97762 25.698C10.0806 25.594 10.2376 25.565 10.3706 25.621L13.1826 26.797C13.3166 26.853 13.4036 26.984 13.4036 27.129V30.64ZM16.0006 23.36C11.9426 23.36 8.64062 20.058 8.64062 16C8.64062 11.942 11.9426 8.64001 16.0006 8.64001C20.0596 8.64001 23.3606 11.942 23.3606 16C23.3606 20.059 20.0596 23.36 16.0006 23.36ZM16.0006 9.36001C12.3396 9.36001 9.36062 12.339 9.36062 16C9.36062 19.661 12.3396 22.64 16.0006 22.64C19.6616 22.64 22.6406 19.661 22.6406 16C22.6406 12.339 19.6616 9.36001 16.0006 9.36001Z" fill="white"/>
<path d="M18.9586 31.36H13.0436C12.8446 31.36 12.6836 31.199 12.6836 31V27.367L10.3156 26.377L7.73962 28.952C7.59863 29.093 7.37162 29.093 7.23063 28.952L3.04862 24.77C2.90762 24.629 2.90762 24.401 3.04862 24.26L5.61663 21.692L4.64263 19.317H1.00063C0.801625 19.317 0.640625 19.156 0.640625 18.957V13.042C0.640625 12.843 0.801625 12.682 1.00063 12.682H4.63263L5.62363 10.314L3.04862 7.73901C2.90762 7.59801 2.90762 7.37101 3.04862 7.23001L7.23063 3.04801C7.29862 2.98001 7.38963 2.94201 7.48563 2.94201C7.58163 2.94201 7.67263 2.98001 7.73962 3.04701L10.3076 5.61601L12.6826 4.64101V1.00001C12.6826 0.801015 12.8436 0.640015 13.0426 0.640015H18.9576C19.1566 0.640015 19.3176 0.801015 19.3176 1.00001V4.63201L21.6846 5.62301L24.2596 3.04801C24.4006 2.90701 24.6286 2.90701 24.7696 3.04801L28.9526 7.23001C29.0196 7.29701 29.0576 7.38902 29.0576 7.48401C29.0576 7.57901 29.0196 7.67101 28.9526 7.73801L26.3836 10.306L27.3586 12.681H31.0006C31.1996 12.681 31.3606 12.842 31.3606 13.041V18.956C31.3606 19.155 31.1996 19.316 31.0006 19.316H27.3676L26.3776 21.684L28.9536 24.259C29.0206 24.326 29.0586 24.418 29.0586 24.514C29.0586 24.61 29.0206 24.702 28.9536 24.769L24.7706 28.951C24.6296 29.092 24.4016 29.092 24.2606 28.951L21.6926 26.383L19.3186 27.357V31C19.3186 31.199 19.1576 31.36 18.9586 31.36ZM13.4036 30.64H18.5986V27.117C18.5986 26.971 18.6876 26.84 18.8226 26.784L21.6416 25.628C21.7756 25.571 21.9296 25.604 22.0336 25.706L24.5166 28.189L28.1906 24.516L25.6986 22.025C25.5956 21.921 25.5646 21.766 25.6216 21.631L26.7976 18.819C26.8536 18.685 26.9846 18.597 27.1296 18.597H30.6416V13.403H27.1196C26.9736 13.403 26.8426 13.315 26.7866 13.18L25.6296 10.36C25.5746 10.226 25.6056 10.071 25.7076 9.96901L28.1916 7.48601L24.5176 3.81301L22.0266 6.30401C21.9226 6.40701 21.7666 6.43801 21.6326 6.38201L18.8206 5.20601C18.6866 5.15001 18.5986 5.01901 18.5986 4.87401V1.36001H13.4036V4.88301C13.4036 5.02901 13.3156 5.16102 13.1806 5.21601L10.3606 6.37301C10.2256 6.42801 10.0716 6.39702 9.96962 6.29401L7.48563 3.81201L3.81262 7.48401L6.30363 9.97601C6.40763 10.079 6.43763 10.235 6.38163 10.37L5.20463 13.182C5.14862 13.316 5.01763 13.403 4.87263 13.403H1.36063V18.597H4.88462C5.03062 18.597 5.16263 18.686 5.21763 18.821L6.37463 21.641C6.42963 21.776 6.39863 21.93 6.29563 22.033L3.81262 24.516L7.48563 28.189L9.97762 25.698C10.0806 25.594 10.2376 25.565 10.3706 25.621L13.1826 26.797C13.3166 26.853 13.4036 26.984 13.4036 27.129V30.64ZM16.0006 23.36C11.9426 23.36 8.64062 20.058 8.64062 16C8.64062 11.942 11.9426 8.64001 16.0006 8.64001C20.0596 8.64001 23.3606 11.942 23.3606 16C23.3606 20.059 20.0596 23.36 16.0006 23.36ZM16.0006 9.36001C12.3396 9.36001 9.36062 12.339 9.36062 16C9.36062 19.661 12.3396 22.64 16.0006 22.64C19.6616 22.64 22.6406 19.661 22.6406 16C22.6406 12.339 19.6616 9.36001 16.0006 9.36001Z" stroke="white" mask="url(#path-1-outside-1_2066_3362)"/>
</g>
<defs>
<clipPath id="clip0_2066_3362">
<rect width="32" height="32" fill="white"/>
</clipPath>
</defs>
</svg>
