<svg width="98" height="286" viewBox="0 0 98 286" fill="none" xmlns="http://www.w3.org/2000/svg">
<path d="M49 43.6667C46.0545 43.6667 43.6667 46.0545 43.6667 49C43.6667 51.9455 46.0545 54.3333 49 54.3333C51.9455 54.3333 54.3333 51.9455 54.3333 49C54.3333 46.0545 51.9455 43.6667 49 43.6667ZM48 49L48 286H50L50 49H48Z" fill="black" fill-opacity="0.8"/>
<path d="M11.2129 90.7687L25.5242 53.1914H71.8251L86.1334 90.7687H11.2129Z" fill="#484746"/>
<path d="M0.390625 6.44601L21.7995 0.217773H75.5464L96.9553 6.44601H0.390625Z" fill="#484746"/>
<path d="M0 6.06445H97.3469L86.3689 91.0005H10.9779L0 6.06445ZM86.1337 90.7692L96.9558 6.44995H0.391086L11.2132 90.7692H86.1306" fill="#252423"/>
<path d="M96.9553 6.44629L86.1332 90.7689H11.2127L0.390625 6.44629H96.9553Z" fill="#252423"/>
<path d="M0 6.06398L21.5953 0H75.7516L97.3469 6.06398H0Z" fill="#484746"/>
<g clip-path="url(#clip0_966_6992)">
<path d="M66.6637 79.0662H66.2812V78.2311C66.2812 77.1947 65.6156 76.2639 64.6243 75.9154C64.552 75.8899 64.5026 75.8246 64.4968 75.7486C64.4915 75.6726 64.5313 75.6009 64.5993 75.5653C65.1693 75.2683 65.5237 74.6909 65.5237 74.0576C65.5237 73.1168 64.7582 72.3518 63.8162 72.3518C62.8743 72.3518 62.1088 73.1168 62.1088 74.0576C62.1088 74.6903 62.4632 75.2683 63.0332 75.5653C63.1012 75.6004 63.141 75.6726 63.1357 75.7486C63.1299 75.8251 63.0805 75.8904 63.0082 75.9154C62.0169 76.2639 61.3513 77.1947 61.3513 78.2311V79.0662H60.9688V78.2311C60.9688 77.1947 60.3031 76.2639 59.3118 75.9154C59.2395 75.8899 59.1901 75.8246 59.1843 75.7486C59.179 75.6726 59.2188 75.6009 59.2868 75.5653C59.8568 75.2683 60.2112 74.6909 60.2112 74.0576C60.2112 73.1168 59.4457 72.3518 58.5037 72.3518C57.5624 72.3518 56.7963 73.1168 56.7963 74.0576C56.7963 74.6903 57.1507 75.2683 57.7207 75.5653C57.7882 75.6004 57.8285 75.6726 57.8232 75.7486C57.8179 75.8251 57.768 75.8904 57.6962 75.9154C56.7049 76.2639 56.0387 77.1947 56.0387 78.2311V79.0662H55.6562V78.2311C55.6562 77.1947 54.9901 76.2639 53.9987 75.9154C53.927 75.8899 53.8771 75.8246 53.8718 75.7486C53.8665 75.6726 53.9063 75.6009 53.9743 75.5653C54.5443 75.2683 54.8987 74.6909 54.8987 74.0576C54.8987 73.1168 54.1326 72.3518 53.1913 72.3518C52.2499 72.3518 51.4838 73.1168 51.4838 74.0576C51.4838 74.6903 51.8382 75.2683 52.4082 75.5653C52.4757 75.6004 52.516 75.6726 52.5107 75.7486C52.5054 75.8251 52.4555 75.8904 52.3837 75.9154C51.3924 76.2639 50.7263 77.1947 50.7263 78.2311V79.0662H50.3438V78.2311C50.3438 77.1569 50.9611 76.1816 51.9131 75.7008C51.4052 75.3093 51.1018 74.7073 51.1018 74.0571C51.1018 72.9053 52.0395 71.9687 53.1918 71.9687C54.3441 71.9687 55.2817 72.9053 55.2817 74.0571C55.2817 74.7073 54.9784 75.3087 54.4705 75.7008C55.1085 76.0222 55.5962 76.5673 55.8486 77.2148C56.1009 76.5673 56.5886 76.0227 57.2266 75.7008C56.7187 75.3093 56.4154 74.7073 56.4154 74.0571C56.4154 72.9053 57.3531 71.9687 58.5053 71.9687C59.6576 71.9687 60.5958 72.9053 60.5958 74.0571C60.5958 74.7073 60.2919 75.3087 59.7841 75.7008C60.4221 76.0227 60.9098 76.5673 61.1621 77.2148C61.4145 76.5673 61.9022 76.0233 62.5402 75.7008C62.0323 75.3093 61.7284 74.7073 61.7284 74.0571C61.7284 72.9053 62.6666 71.9687 63.8189 71.9687C64.9712 71.9687 65.9094 72.9053 65.9094 74.0571C65.9094 74.7073 65.6055 75.3087 65.0976 75.7008C66.0496 76.181 66.6669 77.1564 66.6669 78.2311V79.0662H66.6637ZM66.6637 71.0975H66.2812V70.2624C66.2812 69.2259 65.6156 68.2952 64.6243 67.9467C64.552 67.9212 64.5026 67.8558 64.4968 67.7798C64.4915 67.7039 64.5318 67.6316 64.5993 67.5966C65.1693 67.2996 65.5237 66.7221 65.5237 66.0894C65.5237 65.1486 64.7582 64.383 63.8162 64.383C62.8743 64.383 62.1088 65.1486 62.1088 66.0894C62.1088 66.7227 62.4632 67.3001 63.0332 67.5966C63.1007 67.6316 63.141 67.7039 63.1357 67.7798C63.1299 67.8558 63.0805 67.9217 63.0082 67.9467C62.0169 68.2952 61.3513 69.2259 61.3513 70.2624V71.0975H60.9688V70.2624C60.9688 69.2259 60.3031 68.2952 59.3118 67.9467C59.2395 67.9212 59.1901 67.8558 59.1843 67.7798C59.179 67.7039 59.2193 67.6316 59.2868 67.5966C59.8568 67.2996 60.2112 66.7221 60.2112 66.0894C60.2112 65.1486 59.4457 64.383 58.5037 64.383C57.5624 64.383 56.7963 65.1486 56.7963 66.0894C56.7963 66.7227 57.1507 67.3001 57.7207 67.5966C57.7882 67.6316 57.8285 67.7039 57.8232 67.7798C57.8179 67.8558 57.768 67.9217 57.6962 67.9467C56.7049 68.2952 56.0387 69.2259 56.0387 70.2624V71.0975H55.6562V70.2624C55.6562 69.2254 54.9901 68.2946 53.9987 67.9467C53.927 67.9212 53.8771 67.8553 53.8718 67.7793C53.8665 67.7033 53.9063 67.6311 53.9743 67.596C54.5443 67.2996 54.8987 66.7216 54.8987 66.0889C54.8987 65.148 54.1326 64.3825 53.1913 64.3825C52.2499 64.3825 51.4838 65.148 51.4838 66.0889C51.4838 66.7221 51.8382 67.2996 52.4082 67.596C52.4757 67.6311 52.516 67.7033 52.5107 67.7793C52.5054 67.8553 52.4555 67.9212 52.3837 67.9461C51.3924 68.2946 50.7263 69.2254 50.7263 70.2618V71.0975H50.3438V70.2624C50.3438 69.1882 50.9611 68.2128 51.9131 67.732C51.4052 67.3405 51.1018 66.7386 51.1018 66.0889C51.1013 64.9371 52.039 64 53.1913 64C54.3435 64 55.2812 64.9371 55.2812 66.0889C55.2812 66.7386 54.9778 67.3405 54.47 67.732C55.108 68.054 55.5957 68.5985 55.848 69.2461C56.1004 68.5985 56.5881 68.054 57.2261 67.732C56.7182 67.3405 56.4149 66.7386 56.4149 66.0889C56.4149 64.9371 57.3525 64 58.5048 64C59.6571 64 60.5953 64.9371 60.5953 66.0889C60.5953 66.7386 60.2914 67.3405 59.7835 67.732C60.4216 68.054 60.9093 68.5985 61.1616 69.2461C61.4139 68.5985 61.9016 68.054 62.5397 67.732C62.0318 67.3405 61.7279 66.7386 61.7279 66.0889C61.7279 64.9371 62.6661 64 63.8184 64C64.9707 64 65.9088 64.9371 65.9088 66.0889C65.9088 66.7386 65.605 67.3405 65.0971 67.732C66.0491 68.2128 66.6664 69.1882 66.6664 70.2624V71.0975H66.6637Z" fill="white"/>
</g>
<g clip-path="url(#clip1_966_6992)">
<path d="M50.6637 79.0662H50.2812V78.2311C50.2812 77.1947 49.6156 76.2639 48.6243 75.9154C48.552 75.8899 48.5026 75.8246 48.4968 75.7486C48.4915 75.6726 48.5313 75.6009 48.5993 75.5653C49.1693 75.2683 49.5237 74.6909 49.5237 74.0576C49.5237 73.1168 48.7582 72.3518 47.8162 72.3518C46.8743 72.3518 46.1088 73.1168 46.1088 74.0576C46.1088 74.6903 46.4632 75.2683 47.0332 75.5653C47.1012 75.6004 47.141 75.6726 47.1357 75.7486C47.1299 75.8251 47.0805 75.8904 47.0082 75.9154C46.0169 76.2639 45.3513 77.1947 45.3513 78.2311V79.0662H44.9688V78.2311C44.9688 77.1947 44.3031 76.2639 43.3118 75.9154C43.2395 75.8899 43.1901 75.8246 43.1843 75.7486C43.179 75.6726 43.2188 75.6009 43.2868 75.5653C43.8568 75.2683 44.2112 74.6909 44.2112 74.0576C44.2112 73.1168 43.4457 72.3518 42.5037 72.3518C41.5624 72.3518 40.7963 73.1168 40.7963 74.0576C40.7963 74.6903 41.1507 75.2683 41.7207 75.5653C41.7882 75.6004 41.8285 75.6726 41.8232 75.7486C41.8179 75.8251 41.768 75.8904 41.6962 75.9154C40.7049 76.2639 40.0387 77.1947 40.0387 78.2311V79.0662H39.6562V78.2311C39.6562 77.1947 38.9901 76.2639 37.9987 75.9154C37.927 75.8899 37.8771 75.8246 37.8718 75.7486C37.8665 75.6726 37.9063 75.6009 37.9743 75.5653C38.5443 75.2683 38.8987 74.6909 38.8987 74.0576C38.8987 73.1168 38.1326 72.3518 37.1913 72.3518C36.2499 72.3518 35.4838 73.1168 35.4838 74.0576C35.4838 74.6903 35.8382 75.2683 36.4082 75.5653C36.4757 75.6004 36.516 75.6726 36.5107 75.7486C36.5054 75.8251 36.4555 75.8904 36.3837 75.9154C35.3924 76.2639 34.7263 77.1947 34.7263 78.2311V79.0662H34.3438V78.2311C34.3438 77.1569 34.9611 76.1816 35.9131 75.7008C35.4052 75.3093 35.1018 74.7073 35.1018 74.0571C35.1018 72.9053 36.0395 71.9687 37.1918 71.9687C38.3441 71.9687 39.2817 72.9053 39.2817 74.0571C39.2817 74.7073 38.9784 75.3087 38.4705 75.7008C39.1085 76.0222 39.5962 76.5673 39.8486 77.2148C40.1009 76.5673 40.5886 76.0227 41.2266 75.7008C40.7187 75.3093 40.4154 74.7073 40.4154 74.0571C40.4154 72.9053 41.3531 71.9687 42.5053 71.9687C43.6576 71.9687 44.5958 72.9053 44.5958 74.0571C44.5958 74.7073 44.2919 75.3087 43.7841 75.7008C44.4221 76.0227 44.9098 76.5673 45.1621 77.2148C45.4145 76.5673 45.9022 76.0233 46.5402 75.7008C46.0323 75.3093 45.7284 74.7073 45.7284 74.0571C45.7284 72.9053 46.6666 71.9687 47.8189 71.9687C48.9712 71.9687 49.9094 72.9053 49.9094 74.0571C49.9094 74.7073 49.6055 75.3087 49.0976 75.7008C50.0496 76.181 50.6669 77.1564 50.6669 78.2311V79.0662H50.6637ZM50.6637 71.0975H50.2812V70.2624C50.2812 69.2259 49.6156 68.2952 48.6243 67.9467C48.552 67.9212 48.5026 67.8558 48.4968 67.7798C48.4915 67.7039 48.5318 67.6316 48.5993 67.5966C49.1693 67.2996 49.5237 66.7221 49.5237 66.0894C49.5237 65.1486 48.7582 64.383 47.8162 64.383C46.8743 64.383 46.1088 65.1486 46.1088 66.0894C46.1088 66.7227 46.4632 67.3001 47.0332 67.5966C47.1007 67.6316 47.141 67.7039 47.1357 67.7798C47.1299 67.8558 47.0805 67.9217 47.0082 67.9467C46.0169 68.2952 45.3513 69.2259 45.3513 70.2624V71.0975H44.9688V70.2624C44.9688 69.2259 44.3031 68.2952 43.3118 67.9467C43.2395 67.9212 43.1901 67.8558 43.1843 67.7798C43.179 67.7039 43.2193 67.6316 43.2868 67.5966C43.8568 67.2996 44.2112 66.7221 44.2112 66.0894C44.2112 65.1486 43.4457 64.383 42.5037 64.383C41.5624 64.383 40.7963 65.1486 40.7963 66.0894C40.7963 66.7227 41.1507 67.3001 41.7207 67.5966C41.7882 67.6316 41.8285 67.7039 41.8232 67.7798C41.8179 67.8558 41.768 67.9217 41.6962 67.9467C40.7049 68.2952 40.0387 69.2259 40.0387 70.2624V71.0975H39.6562V70.2624C39.6562 69.2254 38.9901 68.2946 37.9987 67.9467C37.927 67.9212 37.8771 67.8553 37.8718 67.7793C37.8665 67.7033 37.9063 67.6311 37.9743 67.596C38.5443 67.2996 38.8987 66.7216 38.8987 66.0889C38.8987 65.148 38.1326 64.3825 37.1913 64.3825C36.2499 64.3825 35.4838 65.148 35.4838 66.0889C35.4838 66.7221 35.8382 67.2996 36.4082 67.596C36.4757 67.6311 36.516 67.7033 36.5107 67.7793C36.5054 67.8553 36.4555 67.9212 36.3837 67.9461C35.3924 68.2946 34.7263 69.2254 34.7263 70.2618V71.0975H34.3438V70.2624C34.3438 69.1882 34.9611 68.2128 35.9131 67.732C35.4052 67.3405 35.1018 66.7386 35.1018 66.0889C35.1013 64.9371 36.039 64 37.1913 64C38.3435 64 39.2812 64.9371 39.2812 66.0889C39.2812 66.7386 38.9778 67.3405 38.47 67.732C39.108 68.054 39.5957 68.5985 39.848 69.2461C40.1004 68.5985 40.5881 68.054 41.2261 67.732C40.7182 67.3405 40.4149 66.7386 40.4149 66.0889C40.4149 64.9371 41.3525 64 42.5048 64C43.6571 64 44.5953 64.9371 44.5953 66.0889C44.5953 66.7386 44.2914 67.3405 43.7835 67.732C44.4216 68.054 44.9093 68.5985 45.1616 69.2461C45.4139 68.5985 45.9016 68.054 46.5397 67.732C46.0318 67.3405 45.7279 66.7386 45.7279 66.0889C45.7279 64.9371 46.6661 64 47.8184 64C48.9707 64 49.9088 64.9371 49.9088 66.0889C49.9088 66.7386 49.605 67.3405 49.0971 67.732C50.0491 68.2128 50.6664 69.1882 50.6664 70.2624V71.0975H50.6637Z" fill="white"/>
</g>
<path d="M26.35 30.35H70.65V60.6845H26.35V30.35Z" fill="#252423" stroke="white" stroke-width="0.7"/>
<g clip-path="url(#clip2_966_6992)">
<path d="M44.0268 49.3816C44.5062 49.3816 44.8961 48.9971 44.8961 48.5243C44.8961 48.0515 44.5062 47.667 44.0268 47.667C43.5474 47.667 43.1575 48.0515 43.1575 48.5243C43.1575 48.9971 43.5474 49.3816 44.0268 49.3816ZM44.0268 48.1208C44.2524 48.1208 44.4359 48.3018 44.4359 48.5243C44.4359 48.7468 44.2524 48.9277 44.0268 48.9277C43.8012 48.9277 43.6177 48.7468 43.6177 48.5243C43.6177 48.3018 43.8012 48.1208 44.0268 48.1208ZM47.862 49.3816C48.3414 49.3816 48.7314 48.9971 48.7314 48.5243C48.7314 48.0515 48.3414 47.667 47.862 47.667C47.3826 47.667 46.9927 48.0515 46.9927 48.5243C46.9927 48.9971 47.3826 49.3816 47.862 49.3816ZM47.862 48.1208C48.0877 48.1208 48.2711 48.3018 48.2711 48.5243C48.2711 48.7468 48.0877 48.9277 47.862 48.9277C47.6364 48.9277 47.4529 48.7468 47.4529 48.5243C47.4529 48.3018 47.6364 48.1208 47.862 48.1208ZM51.6973 49.3816C52.1767 49.3816 52.5666 48.9971 52.5666 48.5243C52.5666 48.0515 52.1767 47.667 51.6973 47.667C51.2179 47.667 50.8279 48.0515 50.8279 48.5243C50.8279 48.9971 51.2179 49.3816 51.6973 49.3816ZM51.6973 48.1208C51.9229 48.1208 52.1064 48.3018 52.1064 48.5243C52.1064 48.7468 51.9229 48.9277 51.6973 48.9277C51.4716 48.9277 51.2882 48.7468 51.2882 48.5243C51.2882 48.3018 51.4716 48.1208 51.6973 48.1208ZM57.6131 45.842L56.3347 44.5812C56.2682 44.5156 56.1691 44.4961 56.0835 44.532C55.9978 44.5673 55.9416 44.6499 55.9416 44.742V46.0027C55.9416 47.1986 55.0058 48.1719 53.8207 48.2765C53.7651 47.8056 53.5612 47.3669 53.216 47.0265C52.4042 46.2259 50.9903 46.2259 50.1785 47.0265C50.0104 47.1923 49.8819 47.3845 49.7797 47.5882C49.6774 47.3845 49.5489 47.1923 49.3808 47.0265C49.0318 46.6817 48.569 46.4951 48.0922 46.4472V44.3385H49.1404C51.3821 44.3385 53.2058 42.54 53.2058 40.3292C53.2058 38.1185 51.3821 36.32 49.1404 36.32H48.0922V35.2861H47.6319V36.32H42.7484C42.6212 36.32 42.5183 36.4215 42.5183 36.5469C42.5183 36.6724 42.6212 36.7738 42.7484 36.7738C44.7363 36.7738 46.3535 38.3687 46.3535 40.3292C46.3535 42.2897 44.7363 43.8846 42.7484 43.8846C42.6212 43.8846 42.5183 43.9861 42.5183 44.1116C42.5183 44.237 42.6212 44.3385 42.7484 44.3385H47.6319V46.4472C47.1551 46.4951 46.6923 46.6817 46.3433 47.0265C46.1752 47.1923 46.0467 47.3852 45.9438 47.5894C45.5922 46.8916 44.8686 46.4062 44.0262 46.4062C42.928 46.4062 42.0299 47.2269 41.904 48.2772C40.7183 48.1725 39.7825 47.1986 39.7825 46.0027H39.3223V49.7851C39.3223 51.3005 40.5725 52.5335 42.1092 52.5335H43.4707L41.9462 54.037C41.8561 54.1259 41.8561 54.2696 41.9462 54.3585C41.9916 54.4026 42.0504 54.4247 42.1092 54.4247C42.168 54.4247 42.2268 54.4026 42.2716 54.3585L44.1221 52.5335H47.3059L45.7814 54.037C45.6913 54.1259 45.6913 54.2696 45.7814 54.3585C45.8262 54.4026 45.885 54.4247 45.9438 54.4247C46.0026 54.4247 46.0614 54.4026 46.1061 54.3585L47.9566 52.5335H53.6149C55.1515 52.5335 56.4018 51.3005 56.4018 49.7851V46.0027V45.2898L57.2871 46.1635C57.3319 46.2076 57.3913 46.2297 57.4501 46.2297C57.5089 46.2297 57.5684 46.2076 57.6131 46.1635C57.7032 46.0746 57.7032 45.9309 57.6131 45.842ZM46.8137 40.3292C46.8137 38.786 45.9252 37.444 44.6264 36.7738H49.1404C51.1284 36.7738 52.7456 38.3687 52.7456 40.3292C52.7456 42.2897 51.1284 43.8846 49.1404 43.8846H44.6264C45.9252 43.2145 46.8137 41.8724 46.8137 40.3292ZM50.5045 47.348C50.8228 47.0334 51.2466 46.8607 51.6973 46.8607C52.1479 46.8607 52.5717 47.0334 52.89 47.348C53.209 47.6619 53.3841 48.0799 53.3841 48.5243C53.3841 48.9687 53.209 49.3866 52.89 49.7006C52.2534 50.3297 51.1412 50.3297 50.5045 49.7006C50.1855 49.3866 50.0098 48.9687 50.0098 48.5243C50.0098 48.0799 50.1855 47.6619 50.5045 47.348ZM46.6693 47.348C46.9876 47.0334 47.4114 46.8607 47.862 46.8607C48.3127 46.8607 48.7365 47.0334 49.0554 47.348C49.3744 47.6619 49.5495 48.0799 49.5495 48.5243C49.5495 48.9687 49.3744 49.3866 49.0554 49.7006C48.4188 50.3297 47.3066 50.3297 46.6699 49.7006C46.3503 49.3866 46.1745 48.9687 46.1745 48.5243C46.1745 48.0799 46.3503 47.6619 46.6693 47.348ZM44.0268 46.8601C44.9575 46.8601 45.7143 47.6064 45.7143 48.5243C45.7143 49.4421 44.9575 50.1885 44.0268 50.1885C43.0961 50.1885 42.3393 49.4421 42.3393 48.5243C42.3393 47.6064 43.0961 46.8601 44.0268 46.8601ZM42.1092 52.0797C40.8263 52.0797 39.7825 51.0502 39.7825 49.7851V47.5087C40.2446 48.2009 41.0162 48.6649 41.9002 48.731C42.0076 49.8008 42.9146 50.6424 44.0268 50.6424C44.8693 50.6424 45.5922 50.157 45.9438 49.4591C46.0128 49.5966 46.0972 49.7245 46.1963 49.8456L43.9316 52.0797H42.1092ZM44.5829 52.0797L46.5223 50.1671C46.9026 50.4697 47.3667 50.643 47.8627 50.643C48.4367 50.643 48.9762 50.4224 49.3814 50.0227C49.5495 49.8569 49.678 49.6647 49.7803 49.461C49.8493 49.5978 49.9337 49.7258 50.0321 49.8462L47.7674 52.0797H44.5829ZM55.9416 49.7851C55.9416 51.0502 54.8978 52.0797 53.6149 52.0797H48.4181L50.3575 50.1671C50.7378 50.4697 51.2019 50.6424 51.6973 50.6424C52.2706 50.6424 52.8101 50.4217 53.216 50.0221C53.5695 49.6735 53.7747 49.2221 53.8239 48.738C54.7073 48.6724 55.4788 48.204 55.9409 47.5138L55.9416 49.7851Z" fill="white"/>
</g>
<defs>
<clipPath id="clip0_966_6992">
<rect width="17" height="9" fill="white" transform="translate(50 63)"/>
</clipPath>
<clipPath id="clip1_966_6992">
<rect width="18" height="8.41309" fill="white" transform="translate(34 63)"/>
</clipPath>
<clipPath id="clip2_966_6992">
<rect width="20.4545" height="20.1724" fill="white" transform="translate(38.2734 34.6553)"/>
</clipPath>
</defs>
</svg>
