<svg width="30" height="30" viewBox="0 0 30 30" fill="none" xmlns="http://www.w3.org/2000/svg">
<path d="M9.20909 19.1194C9.16813 19.9347 9.70063 20.5157 10.529 20.5223L11.1344 20.5485L15.8741 16.0074C19.9709 12.0822 20.6274 11.4047 20.7226 10.9741C20.9254 10.1008 20.0765 9.26517 19.0853 9.36613C18.825 9.39727 17.5281 10.5671 13.9863 13.9361L9.2466 18.4773L9.20909 19.1194Z" fill="#E5E5E5"/>
<path d="M11.1734 8.88604C10.3626 8.79252 9.74835 9.28638 9.68826 10.1126L9.62299 10.715L13.8485 15.7381C17.5009 20.0799 18.1346 20.7788 18.5582 20.9015C19.4166 21.1604 20.3052 20.3672 20.2685 19.3715C20.2542 19.1098 19.1706 17.74 16.0374 13.9881L11.8118 8.96496L11.1734 8.88604Z" fill="#E5E5E5"/>
<path d="M13.829 0.0224571C11.5635 0.299192 9.97288 0.738361 8.40032 1.52044C3.92965 3.74636 0.94118 7.81318 0.139835 12.7583C-0.0348947 13.8292 -0.046945 15.9649 0.109709 17.0417C0.579671 20.2182 1.97751 23.0999 4.15259 25.3559C5.40582 26.6553 6.647 27.5758 8.25571 28.3879C11.8768 30.2108 16.0583 30.4995 19.8602 29.1941C22.1738 28.3939 24.144 27.1366 25.8552 25.3559C28.0303 23.0999 29.4642 20.14 29.892 17.0417C30.0427 15.9047 30.0366 13.8352 29.8679 12.7824C28.8196 6.19488 23.8006 1.17151 17.2513 0.160824C16.48 0.0465202 14.3652 -0.0437202 13.829 0.0224571ZM16.6909 3.8727C20.7398 4.49836 24.1681 7.30182 25.584 11.14C26.4938 13.6307 26.4938 16.3679 25.584 18.8526C24.4393 21.9508 21.9629 24.4234 18.866 25.5604C16.3716 26.4688 13.6362 26.4688 11.1418 25.5604C8.05086 24.4234 5.56247 21.9388 4.42372 18.8526C3.50789 16.3619 3.50789 13.6307 4.42372 11.14C5.56247 8.05382 8.04483 5.56921 11.1478 4.43219C12.0636 4.09529 13.112 3.86668 14.2809 3.75238C14.7087 3.71027 16.0703 3.77644 16.6909 3.8727Z" fill="#E5E5E5"/>
</svg>
