<svg width="98" height="286" viewBox="0 0 98 286" fill="none" xmlns="http://www.w3.org/2000/svg">
<path d="M49 43.6667C46.0545 43.6667 43.6667 46.0545 43.6667 49C43.6667 51.9455 46.0545 54.3333 49 54.3333C51.9455 54.3333 54.3333 51.9455 54.3333 49C54.3333 46.0545 51.9455 43.6667 49 43.6667ZM48 49L48 286H50L50 49H48Z" fill="black" fill-opacity="0.8"/>
<path d="M11.2129 90.7687L25.5242 53.1914H71.8251L86.1334 90.7687H11.2129Z" fill="#484746"/>
<path d="M0.390625 6.44601L21.7995 0.217773H75.5464L96.9553 6.44601H0.390625Z" fill="#484746"/>
<path d="M0 6.06445H97.3469L86.3689 91.0005H10.9779L0 6.06445ZM86.1337 90.7692L96.9558 6.44995H0.391086L11.2132 90.7692H86.1306" fill="#252423"/>
<path d="M96.9553 6.44629L86.1332 90.7689H11.2127L0.390625 6.44629H96.9553Z" fill="#252423"/>
<path d="M0 6.06398L21.5953 0H75.7516L97.3469 6.06398H0Z" fill="#484746"/>
<g clip-path="url(#clip0_967_504)">
<path d="M55.5316 70.1004H41.4691V69.0879H47.9941V50.3988C43.2973 50.1359 39.5566 46.2321 39.5566 41.4691V27.4066C39.5566 27.1268 39.783 26.9004 40.0629 26.9004H54.1254C54.3307 26.9004 54.5149 27.0227 54.5937 27.2126C54.6724 27.401 54.6274 27.619 54.484 27.7638L50.6224 31.6254L53.0777 34.0807C53.276 34.279 53.276 34.5982 53.0777 34.7965L48.859 39.0152L48.1432 38.2995L52.0034 34.4379L49.548 31.9826C49.3498 31.7843 49.3498 31.4651 49.548 31.2668L52.902 27.9115H40.5691V41.4691C40.5691 45.8426 44.127 49.4004 48.5004 49.4004C52.8738 49.4004 56.4316 45.8426 56.4316 41.4691V30.2191H57.4455V41.4691C57.4455 46.2307 53.7049 50.1359 49.008 50.3988V69.0879H55.5316V70.1004Z" fill="white"/>
</g>
<defs>
<clipPath id="clip0_967_504">
<rect width="45" height="45" fill="white" transform="translate(26 26)"/>
</clipPath>
</defs>
</svg>
