<svg width="98" height="286" viewBox="0 0 98 286" fill="none" xmlns="http://www.w3.org/2000/svg">
<path d="M49.2969 43.6667C46.3514 43.6667 43.9635 46.0545 43.9635 49C43.9635 51.9455 46.3514 54.3333 49.2969 54.3333C52.2424 54.3333 54.6302 51.9455 54.6302 49C54.6302 46.0545 52.2424 43.6667 49.2969 43.6667ZM48.2969 49L48.2969 286H50.2969L50.2969 49H48.2969Z" fill="black" fill-opacity="0.8"/>
<path d="M11.5098 90.7687L25.8211 53.1914H72.122L86.4303 90.7687H11.5098Z" fill="#484746"/>
<path d="M0.6875 6.44626L22.0964 0.218018H75.8433L97.2522 6.44626H0.6875Z" fill="#484746"/>
<path d="M0.296875 6.06396H97.6437L86.6658 91H11.2748L0.296875 6.06396ZM86.4306 90.7687L97.2526 6.44946H0.687961L11.5101 90.7687H86.4275" fill="#252423"/>
<path d="M97.2522 6.44604L86.4301 90.7686H11.5096L0.6875 6.44604H97.2522Z" fill="#252423"/>
<path d="M0.296875 6.06398L21.8922 0H76.0484L97.6437 6.06398H0.296875Z" fill="#484746"/>
<g clip-path="url(#clip0_1194_3053)">
<path d="M70.5624 26.8401H27.4374C27.1514 26.8401 26.9199 27.0514 26.9199 27.3126V40.4376C26.9199 40.6988 27.1514 40.9101 27.4374 40.9101H29.7949V47.0001C29.7949 47.2613 30.0264 47.4726 30.3124 47.4726H31.7499C32.966 47.4726 34.0255 46.8807 34.6249 46C35.2244 46.8807 36.2838 47.4726 37.4999 47.4726C38.716 47.4726 39.7755 46.8807 40.3749 46C40.9744 46.8807 42.0338 47.4726 43.2499 47.4726C44.466 47.4726 45.5255 46.8807 46.1249 46C46.7244 46.8807 47.7838 47.4726 48.9999 47.4726C50.216 47.4726 51.2755 46.8807 51.8749 46.0013C52.4744 46.8807 53.5338 47.4726 54.7499 47.4726C55.9661 47.4726 57.0255 46.8807 57.6249 46.0013C58.2244 46.8807 59.2838 47.4726 60.4999 47.4726C61.716 47.4726 62.7755 46.8807 63.3749 46.0013C63.9744 46.8807 65.0338 47.4726 66.2499 47.4726H67.6874C67.9735 47.4726 68.2049 47.2613 68.2049 47.0001V40.9101H70.5624C70.8485 40.9101 71.0799 40.6988 71.0799 40.4376V27.3126C71.0799 27.0514 70.8485 26.8401 70.5624 26.8401ZM63.8924 44.3751C63.8924 44.1139 63.661 43.9026 63.3749 43.9026C63.0889 43.9026 62.8574 44.1139 62.8574 44.3751C62.8574 45.5616 61.8009 46.5276 60.4999 46.5276C59.199 46.5276 58.1424 45.5616 58.1424 44.3751C58.1424 44.1139 57.911 43.9026 57.6249 43.9026C57.3389 43.9026 57.1074 44.1139 57.1074 44.3751C57.1074 45.5616 56.0509 46.5276 54.7499 46.5276C53.449 46.5276 52.3924 45.5616 52.3924 44.3751C52.3924 44.1139 52.161 43.9026 51.8749 43.9026C51.5889 43.9026 51.3574 44.1139 51.3574 44.3751C51.3574 45.5616 50.3009 46.5276 48.9999 46.5276C47.699 46.5276 46.6424 45.5616 46.6424 44.3751C46.6424 44.1139 46.411 43.9026 46.1249 43.9026C45.8389 43.9026 45.6074 44.1139 45.6074 44.3751C45.6074 45.5616 44.5494 46.5276 43.2499 46.5276C41.9504 46.5276 40.8924 45.5616 40.8924 44.3751C40.8924 44.1139 40.661 43.9026 40.3749 43.9026C40.0889 43.9026 39.8574 44.1139 39.8574 44.3751C39.8574 45.5616 38.7994 46.5276 37.4999 46.5276C36.2004 46.5276 35.1424 45.5616 35.1424 44.3751C35.1424 44.1139 34.911 43.9026 34.6249 43.9026C34.3389 43.9026 34.1074 44.1139 34.1074 44.3751C34.1074 45.5616 33.0494 46.5276 31.7499 46.5276H30.8299V40.9101H67.1699V46.5276H66.2499C64.9504 46.5276 63.8924 45.5616 63.8924 44.3751ZM67.1699 39.9651H30.8299V34.3476H67.1699V39.9651ZM70.0449 39.9651H68.2049V33.8751C68.2049 33.6139 67.9735 33.4026 67.6874 33.4026H30.3124C30.0264 33.4026 29.7949 33.6139 29.7949 33.8751V39.9651H27.9549V27.7851H70.0449V39.9651ZM63.3749 63.2226C63.661 63.2226 63.8924 63.0113 63.8924 62.7501V50.9376C63.8924 50.6764 63.661 50.4651 63.3749 50.4651H48.9999C48.7139 50.4651 48.4824 50.6764 48.4824 50.9376V62.7501C48.4824 63.0113 48.7139 63.2226 48.9999 63.2226H63.3749ZM49.5174 51.4101H62.8574V62.2763H49.5174V51.4101ZM68.2049 50.9376C68.2049 50.6764 67.9735 50.4651 67.6874 50.4651C67.4014 50.4651 67.1699 50.6764 67.1699 50.9376V66.2151H42.3299V50.9376C42.3299 50.6764 42.0985 50.4651 41.8124 50.4651H34.6249C34.3389 50.4651 34.1074 50.6764 34.1074 50.9376V66.2151H30.8299V50.9376C30.8299 50.6764 30.5985 50.4651 30.3124 50.4651C30.0264 50.4651 29.7949 50.6764 29.7949 50.9376V66.2151H27.4374V67.1614H34.6249H41.8124H70.5624V66.2151H68.2049V50.9376ZM35.141 51.4101H41.2949V58.3388H35.141V51.4101ZM35.141 66.2151V59.2851H41.2949V66.2138L35.141 66.2151Z" fill="white"/>
</g>
<defs>
<clipPath id="clip0_1194_3053">
<rect width="46" height="42" fill="white" transform="translate(26 26)"/>
</clipPath>
</defs>
</svg>
