<svg width="32" height="32" viewBox="0 0 32 32" fill="none" xmlns="http://www.w3.org/2000/svg">
<g clip-path="url(#clip0_1193_2249)">
<path d="M31.0006 0.639893H1.00063C0.801625 0.639893 0.640625 0.800893 0.640625 0.999893V10.9999C0.640625 11.1989 0.801625 11.3599 1.00063 11.3599H2.64062V15.9999C2.64062 16.1989 2.80163 16.3599 3.00063 16.3599H4.00063C4.84663 16.3599 5.58363 15.9089 6.00063 15.2379C6.41762 15.9089 7.15462 16.3599 8.00063 16.3599C8.84663 16.3599 9.58362 15.9089 10.0006 15.2379C10.4176 15.9089 11.1546 16.3599 12.0006 16.3599C12.8466 16.3599 13.5836 15.9089 14.0006 15.2379C14.4176 15.9089 15.1546 16.3599 16.0006 16.3599C16.8466 16.3599 17.5836 15.9089 18.0006 15.2389C18.4176 15.9089 19.1546 16.3599 20.0006 16.3599C20.8466 16.3599 21.5836 15.9089 22.0006 15.2389C22.4176 15.9089 23.1546 16.3599 24.0006 16.3599C24.8466 16.3599 25.5836 15.9089 26.0006 15.2389C26.4176 15.9089 27.1546 16.3599 28.0006 16.3599H29.0006C29.1996 16.3599 29.3606 16.1989 29.3606 15.9999V11.3599H31.0006C31.1996 11.3599 31.3606 11.1989 31.3606 10.9999V0.999893C31.3606 0.800893 31.1996 0.639893 31.0006 0.639893ZM26.3606 13.9999C26.3606 13.8009 26.1996 13.6399 26.0006 13.6399C25.8016 13.6399 25.6406 13.8009 25.6406 13.9999C25.6406 14.9039 24.9056 15.6399 24.0006 15.6399C23.0956 15.6399 22.3606 14.9039 22.3606 13.9999C22.3606 13.8009 22.1996 13.6399 22.0006 13.6399C21.8016 13.6399 21.6406 13.8009 21.6406 13.9999C21.6406 14.9039 20.9056 15.6399 20.0006 15.6399C19.0956 15.6399 18.3606 14.9039 18.3606 13.9999C18.3606 13.8009 18.1996 13.6399 18.0006 13.6399C17.8016 13.6399 17.6406 13.8009 17.6406 13.9999C17.6406 14.9039 16.9056 15.6399 16.0006 15.6399C15.0956 15.6399 14.3606 14.9039 14.3606 13.9999C14.3606 13.8009 14.1996 13.6399 14.0006 13.6399C13.8016 13.6399 13.6406 13.8009 13.6406 13.9999C13.6406 14.9039 12.9046 15.6399 12.0006 15.6399C11.0966 15.6399 10.3606 14.9039 10.3606 13.9999C10.3606 13.8009 10.1996 13.6399 10.0006 13.6399C9.80162 13.6399 9.64062 13.8009 9.64062 13.9999C9.64062 14.9039 8.90462 15.6399 8.00063 15.6399C7.09663 15.6399 6.36063 14.9039 6.36063 13.9999C6.36063 13.8009 6.19963 13.6399 6.00063 13.6399C5.80163 13.6399 5.64062 13.8009 5.64062 13.9999C5.64062 14.9039 4.90462 15.6399 4.00063 15.6399H3.36062V11.3599H28.6406V15.6399H28.0006C27.0966 15.6399 26.3606 14.9039 26.3606 13.9999ZM28.6406 10.6399H3.36062V6.35989H28.6406V10.6399ZM30.6406 10.6399H29.3606V5.99989C29.3606 5.80089 29.1996 5.63989 29.0006 5.63989H3.00063C2.80163 5.63989 2.64062 5.80089 2.64062 5.99989V10.6399H1.36063V1.35989H30.6406V10.6399ZM26.0006 28.3599C26.1996 28.3599 26.3606 28.1989 26.3606 27.9999V18.9999C26.3606 18.8009 26.1996 18.6399 26.0006 18.6399H16.0006C15.8016 18.6399 15.6406 18.8009 15.6406 18.9999V27.9999C15.6406 28.1989 15.8016 28.3599 16.0006 28.3599H26.0006ZM16.3606 19.3599H25.6406V27.6389H16.3606V19.3599ZM29.3606 18.9999C29.3606 18.8009 29.1996 18.6399 29.0006 18.6399C28.8016 18.6399 28.6406 18.8009 28.6406 18.9999V30.6399H11.3606V18.9999C11.3606 18.8009 11.1996 18.6399 11.0006 18.6399H6.00063C5.80163 18.6399 5.64062 18.8009 5.64062 18.9999V30.6399H3.36062V18.9999C3.36062 18.8009 3.19963 18.6399 3.00063 18.6399C2.80163 18.6399 2.64062 18.8009 2.64062 18.9999V30.6399H1.00063V31.3609H6.00063H11.0006H31.0006V30.6399H29.3606V18.9999ZM6.35963 19.3599H10.6406V24.6389H6.35963V19.3599ZM6.35963 30.6399V25.3599H10.6406V30.6389L6.35963 30.6399Z" fill="black"/>
</g>
<defs>
<clipPath id="clip0_1193_2249">
<rect width="32" height="32" fill="white"/>
</clipPath>
</defs>
</svg>
