<svg width="98" height="286" viewBox="0 0 98 286" fill="none" xmlns="http://www.w3.org/2000/svg">
<path d="M49.1719 43.6667C46.2264 43.6667 43.8385 46.0545 43.8385 49C43.8385 51.9455 46.2264 54.3333 49.1719 54.3333C52.1174 54.3333 54.5052 51.9455 54.5052 49C54.5052 46.0545 52.1174 43.6667 49.1719 43.6667ZM48.1719 49L48.1719 286H50.1719L50.1719 49H48.1719Z" fill="black" fill-opacity="0.8"/>
<path d="M11.2129 90.7687L25.5242 53.1914H71.8251L86.1334 90.7687H11.2129Z" fill="#484746"/>
<path d="M0.390625 6.44601L21.7995 0.217773H75.5464L96.9553 6.44601H0.390625Z" fill="#484746"/>
<path d="M0 6.06396H97.3469L86.3689 91H10.9779L0 6.06396ZM86.1337 90.7687L96.9558 6.44946H0.391086L11.2132 90.7687H86.1306" fill="#E0E0E0"/>
<path d="M96.9553 6.44629L86.1332 90.7689H11.2127L0.390625 6.44629H96.9553Z" fill="#E0E0E0"/>
<path d="M0 6.06398L21.5953 0H75.7516L97.3469 6.06398H0Z" fill="white"/>
<g clip-path="url(#clip0_1994_235)">
<path d="M66.4519 68.6563H65.4844C65.4844 61.1972 59.9454 54.4663 52.3116 52.6536C52.11 52.6052 51.9609 52.4346 51.9421 52.2276C51.9219 52.022 52.0361 51.8259 52.2269 51.7412C55.5299 50.2671 57.6638 46.9816 57.6638 43.3683C57.6638 43.1654 57.657 42.9638 57.6449 42.765C55.4546 43.9837 52.7295 45.4914 48.4631 45.4914C44.2276 45.4914 41.5508 43.9945 39.4008 42.7905L39.3552 42.765C39.3417 42.9638 39.335 43.1654 39.335 43.367C39.335 46.9816 41.4742 50.2685 44.7852 51.7399C44.9747 51.8232 45.0903 52.0207 45.0701 52.2263C45.0513 52.4332 44.9022 52.6039 44.7006 52.6523C37.06 54.465 31.5144 61.1958 31.5144 68.6563H30.5469C30.5469 61.1515 35.8292 54.3494 43.2722 52.0409C40.2568 50.2228 38.3675 46.94 38.3675 43.367C38.3675 41.9117 38.6685 40.5142 39.2638 39.2067L39.1697 39.0898L35.9944 33.9728C35.9125 33.8411 35.9004 33.6799 35.9582 33.5361C36.0159 33.3936 36.1396 33.2861 36.2901 33.2485C36.321 33.2405 39.4788 32.4329 40.7473 30.1256C40.8319 29.9711 40.9945 29.8744 41.1706 29.8744C44.7302 29.8744 46.3077 29.4457 48.1997 27.9622C48.3758 27.8238 48.6203 27.8238 48.7963 27.9622C50.5956 29.3731 51.9031 29.8744 55.6508 29.8744C55.8268 29.8744 55.9894 29.9698 56.0741 30.1256C57.3466 32.4369 60.6697 33.2391 60.702 33.2472C60.8525 33.2821 60.9788 33.3883 61.0379 33.532C61.0984 33.6758 61.0849 33.8398 61.0043 33.9715L57.7471 39.2336C58.3329 40.533 58.6299 41.9211 58.6299 43.367C58.6299 46.9373 56.7446 50.2201 53.7346 52.0409C61.175 54.3494 66.4519 61.1528 66.4519 68.6563ZM40.2125 42.1347C42.2079 43.2447 44.6966 44.5226 48.4631 44.5226C52.2189 44.5226 54.7398 43.2621 56.7608 42.1455C54.6551 41.2129 52.3291 40.4295 48.5061 40.4295C44.3956 40.4309 41.8451 41.3339 40.2125 42.1347ZM48.5061 39.4634C52.6972 39.4634 55.1657 40.3596 57.4514 41.3957C57.2996 40.7023 57.0644 40.0291 56.75 39.3814C54.647 38.43 52.3761 37.605 48.5236 37.605C44.3055 37.605 41.7954 38.5926 40.242 39.3962C39.9316 40.0358 39.7005 40.701 39.5487 41.3849C42.1327 40.0761 44.9908 39.4634 48.5061 39.4634ZM48.5236 36.6388C52.54 36.6388 54.9118 37.4907 57.1021 38.4797L59.8487 34.0037C58.7589 33.6436 56.5444 32.7137 55.374 30.8405C52.0133 30.819 50.425 30.389 48.498 28.9512C46.5993 30.3554 44.8551 30.8177 41.4487 30.8405C40.2958 32.7003 38.1955 33.6301 37.146 33.997L39.9222 38.4757C42.4041 37.2233 45.1507 36.6388 48.5236 36.6388ZM55.89 67.7963C55.8457 67.7963 55.8013 67.7896 55.7556 67.7762C53.6755 67.1809 52.0455 65.0363 52.0455 62.8957V60.2592C52.0455 59.9918 52.2619 59.7755 52.5293 59.7755C54.2184 59.7755 54.8123 59.5108 55.5809 58.8765C55.7597 58.7274 56.019 58.7274 56.1977 58.8765C56.965 59.5108 57.5603 59.7755 59.2494 59.7755C59.5168 59.7755 59.7331 59.9918 59.7331 60.2592V62.8957C59.7331 65.0363 58.1032 67.1795 56.023 67.7762C55.9787 67.7896 55.9343 67.7963 55.89 67.7963ZM53.0144 60.7363V62.8957C53.0144 64.3778 54.0867 66.2174 55.89 66.8046C57.6933 66.2161 58.7656 64.3765 58.7656 62.8957V60.7363C57.4743 60.6933 56.707 60.4608 55.89 59.8628C55.0743 60.4608 54.3057 60.6933 53.0144 60.7363ZM44.4681 63.7651H37.7494V62.7976H44.4681V63.7651ZM48.4994 35.9495C48.455 35.9495 48.4093 35.9441 48.3663 35.9306C47.2094 35.5987 46.3359 34.4498 46.3359 33.2579V31.9397C46.3359 31.6723 46.5523 31.456 46.8197 31.456C47.6259 31.456 47.8665 31.3296 48.1917 31.0622C48.3704 30.9144 48.6284 30.9144 48.8071 31.0622C49.1323 31.3296 49.3728 31.456 50.1791 31.456C50.4465 31.456 50.6628 31.6723 50.6628 31.9397V33.2579C50.6628 34.4498 49.7907 35.5987 48.6324 35.9306C48.5894 35.9427 48.5451 35.9495 48.4994 35.9495ZM47.3034 32.406V33.2579C47.3034 33.876 47.7563 34.6715 48.4994 34.9551C49.2411 34.6715 49.6953 33.876 49.6953 33.2579V32.406C49.2008 32.367 48.8474 32.2568 48.4994 32.0351C48.1527 32.2568 47.7993 32.367 47.3034 32.406Z" fill="black"/>
</g>
<defs>
<clipPath id="clip0_1994_235">
<rect width="43" height="43" fill="white" transform="translate(27 27)"/>
</clipPath>
</defs>
</svg>
