<svg width="98" height="286" viewBox="0 0 98 286" fill="none" xmlns="http://www.w3.org/2000/svg">
<path d="M49 43.6667C46.0545 43.6667 43.6667 46.0545 43.6667 49C43.6667 51.9455 46.0545 54.3333 49 54.3333C51.9455 54.3333 54.3333 51.9455 54.3333 49C54.3333 46.0545 51.9455 43.6667 49 43.6667ZM48 49L48 286H50L50 49H48Z" fill="black" fill-opacity="0.8"/>
<path d="M11.2129 90.7687L25.5242 53.1914H71.8251L86.1334 90.7687H11.2129Z" fill="#484746"/>
<path d="M0.390625 6.44699L21.7995 0.21875H75.5464L96.9553 6.44699H0.390625Z" fill="#484746"/>
<path d="M0 6.06445H97.3469L86.3689 91.0005H10.9779L0 6.06445ZM86.1337 90.7692L96.9558 6.44995H0.391086L11.2132 90.7692H86.1306" fill="#252423"/>
<path d="M96.9553 6.44531L86.1332 90.7679H11.2127L0.390625 6.44531H96.9553Z" fill="#252423"/>
<path d="M0 6.06398L21.5953 0H75.7516L97.3469 6.06398H0Z" fill="#484746"/>
<g clip-path="url(#clip0_966_6802)">
<path d="M66.5348 68.6883H65.5898C65.5898 63.8373 63.1919 59.3026 59.3857 56.2891L55.1174 63.6746C54.9862 63.9043 54.6987 63.9791 54.473 63.8478L48.9998 60.69L43.5267 63.8465C43.301 63.9804 43.0109 63.9003 42.8823 63.6733L38.6167 56.2918C34.8091 59.3053 32.4098 63.8386 32.4098 68.6883H31.4648C31.4648 61.358 36.6243 54.7141 43.8942 52.4593C40.949 50.6835 39.1036 47.477 39.1036 43.9871C39.1036 42.5919 39.3871 41.2492 39.9475 39.9918L35.0348 37.1542V47.6883H34.0898V36.3352C34.0898 36.33 34.0898 36.3247 34.0898 36.3181C34.0964 36.1436 34.1988 35.9861 34.3563 35.91L48.7938 28.8881C48.9237 28.8238 49.0773 28.8238 49.2059 28.8881L63.6434 35.91C63.8009 35.9861 63.9033 36.1436 63.9085 36.3181C63.9151 36.4927 63.8245 36.6568 63.6723 36.7434L58.0508 39.9918C58.6113 41.2492 58.8961 42.5906 58.8961 43.9871C58.8961 47.4744 57.0547 50.6808 54.1147 52.4593C61.3807 54.7141 66.5348 61.3593 66.5348 68.6883ZM39.3766 55.7221L43.4624 62.7939L48.7636 59.7358C48.9093 59.6518 49.0891 59.6518 49.2348 59.7358L54.5347 62.7939L58.6231 55.7195C56.884 54.4923 54.889 53.5723 52.7221 53.0578C52.5252 53.0105 52.3795 52.8438 52.3612 52.6417C52.3415 52.4409 52.453 52.2493 52.6394 52.1666C55.8655 50.7268 57.9498 47.5177 57.9498 43.9884C57.9498 42.6864 57.6781 41.4382 57.1413 40.2714C55.3983 40.2661 46.1478 40.2688 40.8571 40.2727C40.3203 41.4395 40.0473 42.6864 40.0473 43.9871C40.0473 47.5177 42.1368 50.7281 45.3708 52.1653C45.5558 52.2466 45.6687 52.4396 45.649 52.6404C45.6307 52.8425 45.485 53.0092 45.2881 53.0565C43.1172 53.5723 41.1196 54.495 39.3766 55.7221ZM48.8463 39.3251C53.8495 39.3251 56.0099 39.333 56.9654 39.3605V37.5309L56.6097 37.3314C54.7985 36.309 52.5449 35.0358 49.0392 35.0358C45.481 35.0358 43.1789 36.3286 41.3283 37.3668L41.033 37.5309V39.3277C44.204 39.3264 46.7712 39.3251 48.8463 39.3251ZM49.0392 34.0908C52.793 34.0908 55.1673 35.4309 57.0757 36.5085L57.6676 36.8392C57.8185 36.9219 57.913 37.0807 57.913 37.2526V38.9812L62.432 36.3706L48.9998 29.8383L35.569 36.3706L40.088 38.9825V37.254C40.088 37.082 40.1812 36.9232 40.3334 36.8405L40.8663 36.5426C42.8114 35.4506 45.233 34.0908 49.0392 34.0908Z" fill="white"/>
</g>
<defs>
<clipPath id="clip0_966_6802">
<rect width="42" height="42" fill="white" transform="translate(28 28)"/>
</clipPath>
</defs>
</svg>
