<svg width="75" height="221" viewBox="0 0 75 221" fill="none" xmlns="http://www.w3.org/2000/svg">
<path d="M37.75 32.4186C34.8045 32.4186 32.4167 34.8064 32.4167 37.752C32.4167 40.6975 34.8045 43.0853 37.75 43.0853C40.6955 43.0853 43.0833 40.6975 43.0833 37.752C43.0833 34.8064 40.6955 32.4186 37.75 32.4186ZM36.75 37.752L36.75 220.346H38.75L38.75 37.752H36.75Z" fill="black" fill-opacity="0.8"/>
<path d="M8.64062 69.9315L19.6666 40.9805H55.3388L66.3624 69.9315H8.64062Z" fill="#484746"/>
<path d="M0.300781 4.96646L16.7951 0.167969H58.2039L74.6982 4.96646H0.300781Z" fill="#484746"/>
<path d="M0 4.67188H75L66.5422 70.11H8.45783L0 4.67188ZM66.3609 69.9318L74.6987 4.96888H0.301309L8.63909 69.9318H66.3586" fill="#252423"/>
<path d="M74.6982 4.9668L66.3604 69.9324H8.63856L0.300781 4.9668H74.6982Z" fill="#252423"/>
<path d="M0 4.67194L16.6379 0H58.3621L75 4.67194H0Z" fill="#484746"/>
<g clip-path="url(#clip0_966_7135)">
<path d="M37.9987 55.2797C32.9025 55.2797 28.1921 53.1051 24.9038 49.2745V54.8747H24.0938V47.7197H31.2487V48.5309H25.3346C28.4756 52.3154 33.0465 54.4697 37.9987 54.4697C47.0798 54.4697 54.4688 47.0819 54.4688 37.9997H55.2799C55.2788 47.5285 47.5275 55.2797 37.9987 55.2797ZM21.5288 37.9997H20.7188C20.7188 28.471 28.47 20.7197 37.9987 20.7197C43.095 20.7197 47.8054 22.8932 51.0938 26.7239V21.1247H51.9049V28.2797H44.7488V27.4697H50.6629C47.5219 23.6841 42.951 21.5297 37.9987 21.5297C28.9166 21.5297 21.5288 28.9176 21.5288 37.9997Z" fill="white"/>
<g clip-path="url(#clip1_966_7135)">
<path d="M44.1889 32.9404C41.7778 32.9404 39.8164 34.9019 39.8164 37.3129V44.1879C39.8164 46.3261 38.077 48.0654 35.9389 48.0654C33.8008 48.0654 32.0614 46.3261 32.0614 44.1879V40.2981C34.357 40.1688 36.1864 38.2651 36.1864 35.9379V30.4379C36.1864 30.3011 36.0757 30.1904 35.9389 30.1904H34.1239V27.6879C34.1239 27.5511 34.0132 27.4404 33.8764 27.4404C33.7396 27.4404 33.6289 27.5511 33.6289 27.6879V30.1904H29.9989V27.6879C29.9989 27.5511 29.8882 27.4404 29.7514 27.4404C29.6146 27.4404 29.5039 27.5511 29.5039 27.6879V30.1904H27.6889C27.5521 30.1904 27.4414 30.3011 27.4414 30.4379V35.9379C27.4414 38.2651 29.2708 40.1688 31.5664 40.2981V44.1879C31.5664 46.599 33.5278 48.5604 35.9389 48.5604C38.35 48.5604 40.3114 46.5983 40.3114 44.1879V37.3129C40.3114 35.1748 42.0501 33.4354 44.1889 33.4354C46.3277 33.4354 48.0664 35.1748 48.0664 37.3129V44.1879H48.5621V37.3129C48.5614 34.9019 46.6 32.9404 44.1889 32.9404ZM27.9364 30.6854H35.6914V32.9404H27.9364V30.6854ZM27.9364 35.9379V33.4354H35.6914V35.9379C35.6914 38.0761 33.952 39.8154 31.8139 39.8154C29.6758 39.8154 27.9364 38.0761 27.9364 35.9379Z" fill="white" stroke="white" stroke-width="0.2"/>
</g>
</g>
<defs>
<clipPath id="clip0_966_7135">
<rect width="36" height="36" fill="white" transform="translate(20 20)"/>
</clipPath>
<clipPath id="clip1_966_7135">
<rect width="22" height="22" fill="white" transform="translate(27 27)"/>
</clipPath>
</defs>
</svg>
