<svg width="98" height="286" viewBox="0 0 98 286" fill="none" xmlns="http://www.w3.org/2000/svg">
<path d="M49 43.6667C46.0545 43.6667 43.6667 46.0545 43.6667 49C43.6667 51.9455 46.0545 54.3333 49 54.3333C51.9455 54.3333 54.3333 51.9455 54.3333 49C54.3333 46.0545 51.9455 43.6667 49 43.6667ZM48 49L48 286H50L50 49H48Z" fill="black" fill-opacity="0.8"/>
<path d="M11.2109 90.7687L25.5222 53.1914H71.8232L86.1314 90.7687H11.2109Z" fill="#484746"/>
<path d="M0.390625 6.44601L21.7995 0.217773H75.5464L96.9553 6.44601H0.390625Z" fill="#484746"/>
<path d="M0 6.06445H97.3469L86.3689 91.0005H10.9779L0 6.06445ZM86.1337 90.7692L96.9558 6.44995H0.391086L11.2132 90.7692H86.1306" fill="#252423"/>
<path d="M96.9553 6.44629L86.1332 90.7689H11.2127L0.390625 6.44629H96.9553Z" fill="#252423"/>
<path d="M0 6.06398L21.5953 0H75.7516L97.3469 6.06398H0Z" fill="#484746"/>
<g clip-path="url(#clip0_966_7086)">
<path d="M56.9359 70.0998H53.4203C51.9789 70.0998 50.8047 68.9256 50.8047 67.4842V51.3123C50.8047 50.2577 51.6625 49.3998 52.7172 49.3998H63.0798C66.5575 49.3548 69.0859 47.0008 69.0859 43.8002C69.0859 40.4673 66.3916 37.7561 63.0798 37.7561C62.0364 37.7561 61.0014 38.0317 60.0916 38.5506L59.4109 38.9402L59.3364 38.1583C58.802 32.508 53.9856 27.9109 48.6011 27.9109C44.253 27.9109 40.2156 30.7769 38.5548 35.0406L38.3791 35.4934L37.9206 35.3373C37.2372 35.1053 36.1361 34.9436 35.2431 34.9436C31.2002 34.9436 27.9109 38.2328 27.9109 42.2758C27.9109 46.2273 31.1341 49.3562 35.2488 49.3998H37.2484V50.4123H35.2431C30.5617 50.3617 26.8984 46.7884 26.8984 42.2744C26.8984 37.6731 30.6419 33.9297 35.2431 33.9297C35.9477 33.9297 36.9461 34.0267 37.7898 34.2433C39.6995 29.8319 43.9886 26.8984 48.6025 26.8984C54.2612 26.8984 59.3448 31.518 60.2547 37.3356C61.1448 36.9461 62.1081 36.7422 63.0813 36.7422C66.9513 36.7422 70.0998 39.9077 70.0998 43.7987C70.0998 47.5787 67.1495 50.3589 63.0883 50.4109H52.7172C52.2208 50.4109 51.8172 50.8145 51.8172 51.3109V67.4828C51.8172 68.3673 52.5358 69.0859 53.4203 69.0859H56.9359V70.0998ZM42.1703 70.0998H38.6547V69.0873H42.1703C43.0534 69.0873 43.7734 68.3688 43.7734 67.4842V51.0705C43.7734 50.463 43.5273 49.8695 43.0984 49.4392L35.485 41.8258L36.2008 41.11L43.8142 48.7234C44.4316 49.3408 44.7859 50.1958 44.7859 51.0691V67.4842C44.7859 68.9256 43.6117 70.0998 42.1703 70.0998Z" fill="white"/>
</g>
<defs>
<clipPath id="clip0_966_7086">
<rect width="45" height="45" fill="white" transform="translate(26 26)"/>
</clipPath>
</defs>
</svg>
