<svg width="98" height="286" viewBox="0 0 98 286" fill="none" xmlns="http://www.w3.org/2000/svg">
<path d="M49 43.6667C46.0545 43.6667 43.6667 46.0545 43.6667 49C43.6667 51.9455 46.0545 54.3333 49 54.3333C51.9455 54.3333 54.3333 51.9455 54.3333 49C54.3333 46.0545 51.9455 43.6667 49 43.6667ZM48 49L48 286H50L50 49H48Z" fill="black" fill-opacity="0.8"/>
<path d="M11.2129 90.7687L25.5242 53.1914H71.8251L86.1334 90.7687H11.2129Z" fill="#484746"/>
<path d="M0.390625 6.44601L21.7995 0.217773H75.5464L96.9553 6.44601H0.390625Z" fill="#484746"/>
<path d="M0 6.06445H97.3469L86.3689 91.0005H10.9779L0 6.06445ZM86.1337 90.7692L96.9558 6.44995H0.391086L11.2132 90.7692H86.1306" fill="#252423"/>
<path d="M96.9553 6.44629L86.1332 90.7689H11.2127L0.390625 6.44629H96.9553Z" fill="#252423"/>
<path d="M0 6.06398L21.5953 0H75.7516L97.3469 6.06398H0Z" fill="#484746"/>
<g clip-path="url(#clip0_966_5647)">
<path d="M66.5348 73.5941H65.5898C65.5898 65.788 60.1797 58.7441 52.7234 56.8471C52.5265 56.7965 52.3808 56.6179 52.3625 56.4013C52.3428 56.1862 52.4543 55.9809 52.6407 55.8923C55.8668 54.3496 57.9511 50.9113 57.9511 47.1299H58.8974C58.8974 50.8663 57.056 54.3018 54.116 56.2073C55.565 56.6896 56.9326 57.359 58.19 58.1845C59.5235 57.2395 60.3398 55.6293 60.3398 53.9066V46.8754C60.3398 44.053 58.1965 41.7566 55.5623 41.7566H42.4373C39.8032 41.7566 37.6598 44.053 37.6598 46.8754V53.9066C37.6598 55.6307 38.4788 57.2423 39.8137 58.1859C41.0737 57.359 42.4413 56.6882 43.8942 56.2059C40.949 54.3032 39.1036 50.8677 39.1036 47.1285H40.0486C40.0486 50.9113 42.1381 54.351 45.3721 55.8909C45.5572 55.978 45.67 56.1848 45.6503 56.3999C45.632 56.6165 45.4863 56.7951 45.2894 56.8457C37.8265 58.7427 32.4098 65.7866 32.4098 73.5941H31.4648C31.4648 67.6696 34.3996 62.1627 38.9632 58.7793C37.5614 57.6276 36.7148 55.8234 36.7148 53.9066V46.8754C36.7148 44.5874 37.8908 42.5877 39.6299 41.5345C40.3019 38.6826 42.1342 36.2216 44.5898 34.866V34.2191C44.5898 32.3896 45.9785 30.9004 47.6847 30.9004H50.3123C52.0212 30.9004 53.4098 32.3896 53.4098 34.2191V34.8646C55.8629 36.2188 57.6952 38.6798 58.3672 41.5316C60.1075 42.5863 61.2848 44.586 61.2848 46.8754V53.9066C61.2848 55.822 60.4383 57.6262 59.0378 58.7765C63.6001 62.1613 66.5348 67.6696 66.5348 73.5941ZM47.686 31.9129C46.5008 31.9129 45.5348 32.9479 45.5348 34.2191V35.1796C45.5348 35.3751 45.4298 35.5523 45.2658 35.6366C43.1553 36.7124 41.5225 38.6798 40.7613 41.0127C41.2915 40.8384 41.8546 40.7441 42.4373 40.7441H55.5623C56.1438 40.7441 56.7068 40.837 57.2358 41.0113C56.4745 38.6784 54.8431 36.711 52.7339 35.6366C52.5685 35.5523 52.4635 35.3737 52.4635 35.1796V34.2191C52.4635 32.9479 51.4988 31.9129 50.311 31.9129H47.686ZM49.4723 73.5941H48.5273V59.5316H49.4723V73.5941ZM59.4998 69.8816H51.6248V68.8691H59.4998V69.8816ZM46.3748 69.8816H38.4998V68.8691H46.3748V69.8816ZM59.4998 67.0691H51.6248V66.0566H59.4998V67.0691ZM46.3748 67.0691H38.4998V66.0566H46.3748V67.0691ZM58.8961 47.1285H57.9498V46.8754C57.9498 45.6688 56.8118 44.5691 55.5623 44.5691H42.4373C41.1865 44.5691 40.0486 45.6688 40.0486 46.8754V47.1285H39.1036V46.8754C39.1036 45.1077 40.6615 43.5566 42.4373 43.5566H55.5623C57.3382 43.5566 58.8961 45.1077 58.8961 46.8754V47.1285ZM48.9998 38.9441C48.9565 38.9441 48.9119 38.9385 48.8699 38.9245C47.7398 38.5771 46.8867 37.3748 46.8867 36.1274V34.7479C46.8867 34.468 47.098 34.2416 47.3592 34.2416C48.1467 34.2416 48.3817 34.1095 48.6993 33.8296C48.8738 33.6749 49.1258 33.6749 49.3004 33.8296C49.618 34.1095 49.853 34.2416 50.6405 34.2416C50.9017 34.2416 51.113 34.468 51.113 34.7479V36.1274C51.113 37.3748 50.2598 38.5771 49.1298 38.9245C49.0878 38.9371 49.0432 38.9441 48.9998 38.9441ZM47.8317 35.2373V36.1274C47.8317 36.7743 48.2753 37.6068 48.9998 37.9049C49.7243 37.6082 50.168 36.7757 50.168 36.1274V35.2373C49.685 35.1951 49.3385 35.0798 48.9998 34.8477C48.6612 35.0798 48.3147 35.1951 47.8317 35.2373Z" fill="white"/>
</g>
<defs>
<clipPath id="clip0_966_5647">
<rect width="42" height="45" fill="white" transform="translate(28 30)"/>
</clipPath>
</defs>
</svg>
