<svg width="32" height="32" viewBox="0 0 32 32" fill="none" xmlns="http://www.w3.org/2000/svg">
<g id="home--garage 1" clip-path="url(#clip0_1193_2255)">
<path id="home--garage_1_" d="M30.9991 31.3599H0.999141V30.6399H2.63914V18.9999H3.35914V30.6399H7.63914V18.9999C7.63914 18.8009 7.80014 18.6399 7.99914 18.6399H23.9991C24.1981 18.6399 24.3591 18.8009 24.3591 18.9999V30.6399H28.6381V18.9999H29.3591V30.6399H30.9991V31.3599ZM8.35914 30.6399H23.6391V27.3599L8.35914 27.3629V30.6399ZM8.35914 23.3629V26.6419L23.6391 26.6399V23.3599L8.35914 23.3629ZM8.35914 19.3599V22.6419L23.6391 22.6399V19.3599H8.35914ZM7.99914 16.3629V15.6429L23.9991 15.6399V16.3599L7.99914 16.3629ZM30.7441 16.2539L15.9991 1.50891L1.25314 16.2539L0.744141 15.7449L15.7441 0.74491C15.8851 0.60391 16.1121 0.60391 16.2531 0.74491L28.6391 13.1309V8.99991H29.3601V13.8509L31.2551 15.7459L30.7441 16.2539Z" fill="black"/>
</g>
<defs>
<clipPath id="clip0_1193_2255">
<rect width="32" height="32" fill="white"/>
</clipPath>
</defs>
</svg>
