<svg width="98" height="286" viewBox="0 0 98 286" fill="none" xmlns="http://www.w3.org/2000/svg">
<path d="M49 43.6667C46.0545 43.6667 43.6667 46.0545 43.6667 49C43.6667 51.9455 46.0545 54.3333 49 54.3333C51.9455 54.3333 54.3333 51.9455 54.3333 49C54.3333 46.0545 51.9455 43.6667 49 43.6667ZM48 49L48 286H50L50 49H48Z" fill="black" fill-opacity="0.8"/>
<path d="M11.2129 90.7687L25.5242 53.1914H71.8251L86.1334 90.7687H11.2129Z" fill="#484746"/>
<path d="M0.390625 6.44626L21.7995 0.218018H75.5464L96.9553 6.44626H0.390625Z" fill="#484746"/>
<path d="M0 6.06396H97.3469L86.3689 91H10.9779L0 6.06396ZM86.1337 90.7687L96.9558 6.44946H0.391086L11.2132 90.7687H86.1306" fill="#252423"/>
<path d="M96.9553 6.44604L86.1332 90.7686H11.2127L0.390625 6.44604H96.9553Z" fill="#252423"/>
<path d="M0 6.06398L21.5953 0H75.7516L97.3469 6.06398H0Z" fill="#484746"/>
<g clip-path="url(#clip0_1197_3395)">
<path d="M69.3272 70.1H28.0772V69.0875H30.3322V52.7187H31.3222V69.0875H37.2072V52.7187C37.2072 52.4389 37.4286 52.2125 37.7022 52.2125H59.7022C59.9758 52.2125 60.1972 52.4389 60.1972 52.7187V69.0875H66.0808V52.7187H67.0722V69.0875H69.3272V70.1ZM38.1972 69.0875H59.2072V64.475L38.1972 64.4792V69.0875ZM38.1972 58.8542V63.4653L59.2072 63.4625V58.85L38.1972 58.8542ZM38.1972 53.225V57.8403L59.2072 57.8375V53.225H38.1972ZM37.7022 49.0105V47.9979L59.7022 47.9937V49.0062L37.7022 49.0105ZM68.9766 48.8572L48.7022 28.122L28.4264 48.8572L27.7266 48.1414L48.3516 27.0476C48.5454 26.8494 48.8576 26.8494 49.0514 27.0476L66.0822 44.4654V38.6562H67.0736V45.4779L69.6792 48.1428L68.9766 48.8572Z" fill="white"/>
</g>
<defs>
<clipPath id="clip0_1197_3395">
<rect width="44" height="45" fill="white" transform="translate(26.7031 26)"/>
</clipPath>
</defs>
</svg>
