<svg width="98" height="286" viewBox="0 0 98 286" fill="none" xmlns="http://www.w3.org/2000/svg">
<path d="M49.1719 43.6667C46.2264 43.6667 43.8385 46.0545 43.8385 49C43.8385 51.9455 46.2264 54.3333 49.1719 54.3333C52.1174 54.3333 54.5052 51.9455 54.5052 49C54.5052 46.0545 52.1174 43.6667 49.1719 43.6667ZM48.1719 49L48.1719 286H50.1719L50.1719 49H48.1719Z" fill="black" fill-opacity="0.8"/>
<path d="M11.2109 90.7687L25.5222 53.1914H71.8232L86.1314 90.7687H11.2109Z" fill="#484746"/>
<path d="M0.390625 6.44601L21.7995 0.217773H75.5464L96.9553 6.44601H0.390625Z" fill="#484746"/>
<path d="M0 6.06396H97.3469L86.3689 91H10.9779L0 6.06396ZM86.1337 90.7687L96.9558 6.44946H0.391086L11.2132 90.7687H86.1306" fill="#E0E0E0"/>
<path d="M96.9553 6.44629L86.1332 90.7689H11.2127L0.390625 6.44629H96.9553Z" fill="#E0E0E0"/>
<path d="M0 6.06398L21.5953 0H75.7516L97.3469 6.06398H0Z" fill="white"/>
<path d="M41.9962 40.5856C42.1996 39.6706 43.0112 39.0195 43.9486 39.0195H52.5965C53.5339 39.0195 54.3455 39.6705 54.5489 40.5855L56.3281 48.5881C56.3916 48.8739 56.3916 49.1703 56.3281 49.4562L54.5489 57.4587C54.3455 58.3737 53.5339 59.0247 52.5965 59.0247H43.9486C43.0112 59.0247 42.1996 58.3737 41.9962 57.4586L40.2175 49.456C40.154 49.1702 40.154 48.874 40.2175 48.5882L41.9962 40.5856Z" stroke="black" stroke-width="0.5"/>
<path d="M37.543 61.8325H40.5072V66.0003H37.543V61.8325Z" stroke="black" stroke-width="0.5" stroke-linejoin="round"/>
<path d="M56.4648 61.8325H59.4291V66.0003H56.4648V61.8325Z" fill="#E0E6E4" stroke="black" stroke-width="0.5" stroke-linejoin="round"/>
<path d="M43.6998 42.5877C43.7699 42.0948 44.1919 41.7285 44.6898 41.7285H51.847C52.3448 41.7285 52.7669 42.0948 52.837 42.5877L54.0346 51.007C54.1203 51.6093 53.6529 52.1479 53.0446 52.1479H43.4922C42.8838 52.1479 42.4165 51.6093 42.5021 51.007L43.6998 42.5877Z" stroke="black" stroke-width="0.5"/>
<path d="M29 32.8774H68.0586" stroke="black" stroke-width="0.5" stroke-linecap="round"/>
<path d="M39.3716 61.8323L41.2024 58.3226" stroke="black" stroke-width="0.5" stroke-linecap="round"/>
<path d="M55.2422 58.3228L57.6833 61.8324" stroke="black" stroke-width="0.5" stroke-linecap="round"/>
<line x1="48.6406" y1="38.5195" x2="48.6406" y2="32.5002" stroke="black" stroke-linecap="round"/>
<path d="M50.3047 43.9629L51.3192 45.2221" stroke="black" stroke-width="0.3"/>
<line y1="-0.15" x2="3.23417" y2="-0.15" transform="matrix(0.627369 0.778722 -0.627369 0.778722 48.2773 44.5928)" stroke="black" stroke-width="0.3"/>
</svg>
