<svg width="98" height="286" viewBox="0 0 98 286" fill="none" xmlns="http://www.w3.org/2000/svg">
<path d="M49 43.6667C46.0545 43.6667 43.6667 46.0545 43.6667 49C43.6667 51.9455 46.0545 54.3333 49 54.3333C51.9455 54.3333 54.3333 51.9455 54.3333 49C54.3333 46.0545 51.9455 43.6667 49 43.6667ZM48 49L48 286H50L50 49H48Z" fill="black" fill-opacity="0.8"/>
<path d="M11.2129 90.7687L25.5242 53.1914H71.8251L86.1334 90.7687H11.2129Z" fill="#484746"/>
<path d="M0.390625 6.44601L21.7995 0.217773H75.5464L96.9553 6.44601H0.390625Z" fill="#484746"/>
<path d="M0 6.06445H97.3469L86.3689 91.0005H10.9779L0 6.06445ZM86.1337 90.7692L96.9558 6.44995H0.391086L11.2132 90.7692H86.1306" fill="#252423"/>
<path d="M96.9553 6.44629L86.1332 90.7689H11.2127L0.390625 6.44629H96.9553Z" fill="#252423"/>
<path d="M0 6.06398L21.5953 0H75.7516L97.3469 6.06398H0Z" fill="#484746"/>
<path d="M48.5 26L49.3419 28.1444H52.0665L49.8623 29.4698L50.7042 31.6142L48.5 30.2889L46.2958 31.6142L47.1377 29.4698L44.9335 28.1444H47.6581L48.5 26Z" fill="white"/>
<path d="M56 26L56.8419 28.1444H59.5665L57.3623 29.4698L58.2042 31.6142L56 30.2889L53.7958 31.6142L54.6377 29.4698L52.4335 28.1444H55.1581L56 26Z" fill="white"/>
<path d="M41 26L41.8419 28.1444H44.5665L42.3623 29.4698L43.2042 31.6142L41 30.2889L38.7958 31.6142L39.6377 29.4698L37.4335 28.1444H40.1581L41 26Z" fill="white"/>
<path d="M33.5 26L34.3419 28.1444H37.0665L34.8623 29.4698L35.7042 31.6142L33.5 30.2889L31.2958 31.6142L32.1377 29.4698L29.9335 28.1444H32.6581L33.5 26Z" fill="white"/>
<path d="M63.5 26L64.3419 28.1444H67.0665L64.8623 29.4698L65.7042 31.6142L63.5 30.2889L61.2958 31.6142L62.1377 29.4698L59.9335 28.1444H62.6581L63.5 26Z" fill="white"/>
<g clip-path="url(#clip0_966_7014)">
<path d="M69.5938 34.5039V35.3418H27.4062V34.5039H69.5938ZM67.2875 69.4177H69.5938V70.2568H27.4062V69.4177H29.7125V37.2505H30.725V69.4177H43.775V60.5263C43.775 60.2947 44.0014 60.1074 44.2812 60.1074H52.7188C52.9986 60.1074 53.225 60.2947 53.225 60.5263V69.4177H66.2736V37.2505H67.2875V69.4177ZM44.7875 69.4177H52.2125V60.9453H44.7875V69.4177ZM34.9438 39.578H33.9312V41.9056H34.9438V39.578ZM33.9312 48.8884H34.9438V46.5608H33.9312V48.8884ZM33.9312 55.8711H34.9438V53.5436H33.9312V55.8711ZM41.975 39.578H40.9625V41.9056H41.975V39.578ZM40.9625 48.8884H41.975V46.5608H40.9625V48.8884ZM40.9625 55.8711H41.975V53.5436H40.9625V55.8711ZM49.0063 39.578H47.9937V41.9056H49.0063V39.578ZM47.9937 48.8884H49.0063V46.5608H47.9937V48.8884ZM47.9937 55.8711H49.0063V53.5436H47.9937V55.8711ZM56.0375 39.578H55.025V41.9056H56.0389L56.0375 39.578ZM55.025 48.8884H56.0389V46.5608H55.025V48.8884ZM55.025 55.8711H56.0389V53.5436H55.025V55.8711ZM63.0688 39.578H62.0562V41.9056H63.0702L63.0688 39.578ZM62.0562 48.8884H63.0702V46.5608H62.0562V48.8884ZM62.0562 55.8711H63.0702V53.5436H62.0562V55.8711Z" fill="white"/>
</g>
<defs>
<clipPath id="clip0_966_7014">
<rect width="45" height="37.2414" fill="white" transform="translate(26 33.7588)"/>
</clipPath>
</defs>
</svg>
