<svg width="98" height="286" viewBox="0 0 98 286" fill="none" xmlns="http://www.w3.org/2000/svg">
<path d="M49.2969 43.6667C46.3514 43.6667 43.9635 46.0545 43.9635 49C43.9635 51.9455 46.3514 54.3333 49.2969 54.3333C52.2424 54.3333 54.6302 51.9455 54.6302 49C54.6302 46.0545 52.2424 43.6667 49.2969 43.6667ZM48.2969 49L48.2969 286H50.2969L50.2969 49H48.2969Z" fill="black" fill-opacity="0.8"/>
<path d="M11.5098 90.7687L25.8211 53.1914H72.122L86.4303 90.7687H11.5098Z" fill="#484746"/>
<path d="M0.6875 6.44626L22.0964 0.218018H75.8433L97.2522 6.44626H0.6875Z" fill="#484746"/>
<path d="M0.296875 6.06396H97.6437L86.6658 91H11.2748L0.296875 6.06396ZM86.4306 90.7687L97.2526 6.44946H0.687961L11.5101 90.7687H86.4275" fill="#252423"/>
<path d="M97.2522 6.44604L86.4301 90.7686H11.5096L0.6875 6.44604H97.2522Z" fill="#252423"/>
<path d="M0.296875 6.06398L21.8922 0H76.0484L97.6437 6.06398H0.296875Z" fill="#484746"/>
<g clip-path="url(#clip0_954_4547)">
<path d="M71.7655 71.08H25.828V70.045H28.3392V53.3125H29.4417V70.045H43.6517V53.3125C43.6517 53.0265 43.8983 52.795 44.203 52.795H53.3905C53.6952 52.795 53.9417 53.0265 53.9417 53.3125V70.045H68.1502V53.3125H69.2542V70.045H71.7655V71.08ZM44.7542 70.045H52.8392V53.83H44.7542V70.045ZM44.203 49.5218V48.4868L53.3905 48.4825V49.5175L44.203 49.5218ZM71.375 49.3651L48.7967 28.1692L26.2169 49.3651L25.4375 48.6335L48.4063 27.071C48.6222 26.8683 48.9698 26.8683 49.1857 27.071L68.1517 44.8758V38.9375H69.2558V45.9108L72.1575 48.6349L71.375 49.3651Z" fill="white"/>
</g>
<defs>
<clipPath id="clip0_954_4547">
<rect width="49" height="46" fill="white" transform="translate(24.2969 26)"/>
</clipPath>
</defs>
</svg>
