<svg width="98" height="290" viewBox="0 0 98 290" fill="none" xmlns="http://www.w3.org/2000/svg">
<path d="M49 47.6667C46.0545 47.6667 43.6667 50.0545 43.6667 53C43.6667 55.9455 46.0545 58.3333 49 58.3333C51.9455 58.3333 54.3333 55.9455 54.3333 53C54.3333 50.0545 51.9455 47.6667 49 47.6667ZM48 53L48 290H50L50 53H48Z" fill="black" fill-opacity="0.8"/>
<path d="M11.2129 90.7687L25.5247 53.1914H71.8271L86.1358 90.7687H11.2129Z" fill="#E0E0E0"/>
<path d="M0.390625 6.4465L21.8002 0.218262H75.5488L96.9584 6.4465H0.390625Z" fill="#E0E0E0"/>
<path d="M0 6.06396H97.35L86.3717 91H10.9783L0 6.06396ZM86.1365 90.7687L96.9589 6.44946H0.391099L11.2135 90.7687H86.1334" fill="#E0E0E0"/>
<path d="M96.9584 6.44629L86.136 90.7689H11.2131L0.390625 6.44629H96.9584Z" fill="#E0E0E0"/>
<path d="M0 6.06398L21.596 0H75.754L97.35 6.06398H0Z" fill="white"/>
<path d="M65.9257 66.72C62.9957 66.72 60.5752 64.8184 60.2705 62.385H39.4204C39.1157 64.8184 36.6953 66.72 33.7653 66.72C30.8353 66.72 28.4148 64.8184 28.1101 62.385H26.9947C24.7925 62.385 23 60.8548 23 58.9749V48.86C23 48.7617 23.0322 48.6707 23.0863 48.5927L29.923 38.485C30.0313 38.3246 30.2327 38.2249 30.4511 38.2249H43.3135V31.5202C43.3135 31.2326 43.586 31 43.9229 31H74.3906C74.7275 31 75 31.2326 75 31.5202V61.8649C75 62.1524 74.7275 62.385 74.3906 62.385H71.5825C71.2762 64.8184 68.8557 66.72 65.9257 66.72ZM65.9257 58.0501C63.4612 58.0501 61.4571 59.761 61.4571 61.8649C61.4571 63.9688 63.4612 65.6796 65.9257 65.6796C68.3902 65.6796 70.3943 63.9688 70.3943 61.8649C70.3943 59.761 68.3902 58.0501 65.9257 58.0501ZM33.7653 58.0501C31.3008 58.0501 29.2967 59.761 29.2967 61.8649C29.2967 63.9688 31.3008 65.6796 33.7653 65.6796C36.2298 65.6796 38.2339 63.9688 38.2339 61.8649C38.2339 59.761 36.2298 58.0501 33.7653 58.0501ZM71.5808 61.3447H73.7796V32.0404H44.5305V61.3447H60.2705C60.5752 58.9113 62.994 57.0097 65.9257 57.0097C68.8574 57.0097 71.2762 58.9113 71.5808 61.3447ZM39.4204 61.3447H43.3118V49.3802H24.2187V58.9749C24.2187 60.2812 25.4645 61.3447 26.9947 61.3447H28.1101C28.4148 58.9113 30.8353 57.0097 33.7653 57.0097C36.6953 57.0097 39.1157 58.9113 39.4204 61.3447ZM39.4526 48.3398H43.3118V39.2653H39.4526V48.3398ZM24.6656 48.3398H38.2339V39.2653H30.8031L24.6656 48.3398ZM40.5359 52.2702H37.1506V51.2298H40.5359V52.2702Z" fill="black"/>
<g clip-path="url(#clip0_1559_2072)">
<path d="M60.875 51.5H57.125C56.7936 51.4996 56.4759 51.3678 56.2415 51.1335C56.0072 50.8991 55.8754 50.5814 55.875 50.25V47.125H52.75C52.4186 47.1246 52.1009 46.9928 51.8665 46.7585C51.6322 46.5241 51.5004 46.2064 51.5 45.875V42.125C51.5003 41.7936 51.6321 41.4758 51.8665 41.2415C52.1008 41.0071 52.4186 40.8753 52.75 40.875H55.875V37.75C55.8753 37.4186 56.0071 37.1008 56.2415 36.8665C56.4758 36.6321 56.7936 36.5003 57.125 36.5H60.875C61.2064 36.5004 61.5241 36.6322 61.7585 36.8665C61.9928 37.1009 62.1246 37.4186 62.125 37.75V40.875H65.25C65.5814 40.8754 65.8991 41.0072 66.1335 41.2415C66.3678 41.4759 66.4996 41.7936 66.5 42.125V45.875C66.4996 46.2064 66.3677 46.5241 66.1334 46.7584C65.8991 46.9927 65.5814 47.1246 65.25 47.125H62.125V50.25C62.1246 50.5814 61.9927 50.8991 61.7584 51.1334C61.5241 51.3677 61.2064 51.4996 60.875 51.5ZM52.75 42.125V45.875H57.125V50.25H60.875V45.875H65.25V42.125H60.875V37.75H57.125V42.125H52.75Z" fill="black"/>
</g>
<defs>
<clipPath id="clip0_1559_2072">
<rect width="20" height="20" fill="white" transform="translate(49 34)"/>
</clipPath>
</defs>
</svg>
