<svg width="32" height="32" viewBox="0 0 32 32" fill="none" xmlns="http://www.w3.org/2000/svg">
<g clip-path="url(#clip0_941_9361)">
<path d="M30.36 27.6396V9.99965C30.36 9.80065 30.199 9.63965 30 9.63965H16C15.801 9.63965 15.64 9.80065 15.64 9.99965V15.6396H13.259L11.341 9.88565C11.292 9.73865 11.155 9.63965 11 9.63965H9.259L7.341 3.88565C7.292 3.73865 7.155 3.63965 7 3.63965H2C1.801 3.63965 1.64 3.80065 1.64 3.99965V9.63965H1V10.3596H1.64V15.6396H1V16.3596H1.64V21.6396H1V22.3606H1.64V27.6396H1V28.3606H31V27.6396H30.36ZM16.36 10.3596H29.64V27.6396H28.36V24.9996C28.36 24.2496 27.75 23.6396 27 23.6396C26.25 23.6396 25.64 24.2496 25.64 24.9996V25.7786L24.361 21.9406V18.9996C24.361 18.2496 23.751 17.6396 23.001 17.6396C22.251 17.6396 21.641 18.2496 21.641 18.9996V21.6396H21.261L19.343 15.8866C19.293 15.7386 19.155 15.6396 19 15.6396H16.36V10.3596ZM27.64 27.6396H26.36V24.9996C26.36 24.6466 26.647 24.3596 27 24.3596C27.353 24.3596 27.64 24.6466 27.64 24.9996V27.6396ZM22.36 18.9996C22.36 18.6466 22.647 18.3596 23 18.3596C23.353 18.3596 23.64 18.6466 23.64 18.9996V21.6396H22.36V18.9996ZM2.36 4.35965H6.741L8.501 9.63965H2.36V4.35965ZM2.36 10.3596H10.741L12.501 15.6396H10.36V12.9996C10.36 12.2496 9.75 11.6396 9 11.6396C8.25 11.6396 7.64 12.2496 7.64 12.9996V15.6396H6.36V12.9996C6.36 12.2496 5.75 11.6396 5 11.6396C4.25 11.6396 3.64 12.2496 3.64 12.9996V15.6396H2.36V10.3596ZM8.36 15.6396V12.9996C8.36 12.6466 8.647 12.3596 9 12.3596C9.353 12.3596 9.64 12.6466 9.64 12.9996V15.6396H8.36ZM4.36 15.6396V12.9996C4.36 12.6466 4.647 12.3596 5 12.3596C5.353 12.3596 5.64 12.6466 5.64 12.9996V15.6396H4.36ZM2.36 16.3596H18.74L20.5 21.6396H18.36V18.9996C18.36 18.2496 17.75 17.6396 17 17.6396C16.25 17.6396 15.64 18.2496 15.64 18.9996V21.6396H14.36V18.9996C14.36 18.2496 13.75 17.6396 13 17.6396C12.25 17.6396 11.64 18.2496 11.64 18.9996V21.6396H10.36V18.9996C10.36 18.2496 9.75 17.6396 9 17.6396C8.25 17.6396 7.64 18.2496 7.64 18.9996V21.6396H6.36V18.9996C6.36 18.2496 5.75 17.6396 5 17.6396C4.25 17.6396 3.64 18.2496 3.64 18.9996V21.6396H2.36V16.3596ZM16.36 21.6396V18.9996C16.36 18.6466 16.647 18.3596 17 18.3596C17.353 18.3596 17.64 18.6466 17.64 18.9996V21.6396H16.36ZM12.36 21.6396V18.9996C12.36 18.6466 12.647 18.3596 13 18.3596C13.353 18.3596 13.64 18.6466 13.64 18.9996V21.6396H12.36ZM8.36 21.6396V18.9996C8.36 18.6466 8.647 18.3596 9 18.3596C9.353 18.3596 9.64 18.6466 9.64 18.9996V21.6396H8.36ZM4.36 21.6396V18.9996C4.36 18.6466 4.647 18.3596 5 18.3596C5.353 18.3596 5.64 18.6466 5.64 18.9996V21.6396H4.36ZM2.36 22.3596H22H23.74L25.5 27.6386H22.36V24.9996C22.36 24.2496 21.75 23.6396 21 23.6396C20.25 23.6396 19.64 24.2496 19.64 24.9996V27.6396H18.36V24.9996C18.36 24.2496 17.75 23.6396 17 23.6396C16.25 23.6396 15.64 24.2496 15.64 24.9996V27.6396H14.36V24.9996C14.36 24.2496 13.75 23.6396 13 23.6396C12.25 23.6396 11.64 24.2496 11.64 24.9996V27.6396H10.36V24.9996C10.36 24.2496 9.75 23.6396 9 23.6396C8.25 23.6396 7.64 24.2496 7.64 24.9996V27.6396H6.36V24.9996C6.36 24.2496 5.75 23.6396 5 23.6396C4.25 23.6396 3.64 24.2496 3.64 24.9996V27.6396H2.36V22.3596ZM20.36 24.9996C20.36 24.6466 20.647 24.3596 21 24.3596C21.353 24.3596 21.64 24.6466 21.64 24.9996V27.6396H20.36V24.9996ZM16.36 24.9996C16.36 24.6466 16.647 24.3596 17 24.3596C17.353 24.3596 17.64 24.6466 17.64 24.9996V27.6396H16.36V24.9996ZM12.36 24.9996C12.36 24.6466 12.647 24.3596 13 24.3596C13.353 24.3596 13.64 24.6466 13.64 24.9996V27.6396H12.36V24.9996ZM8.36 24.9996C8.36 24.6466 8.647 24.3596 9 24.3596C9.353 24.3596 9.64 24.6466 9.64 24.9996V27.6396H8.36V24.9996ZM4.36 24.9996C4.36 24.6466 4.647 24.3596 5 24.3596C5.353 24.3596 5.64 24.6466 5.64 24.9996V27.6396H4.36V24.9996ZM26 22.3596H28C28.199 22.3596 28.36 22.1986 28.36 21.9996V18.9996C28.36 18.2496 27.75 17.6396 27 17.6396C26.25 17.6396 25.64 18.2496 25.64 18.9996V21.9996C25.64 22.1986 25.801 22.3596 26 22.3596ZM27 18.3596C27.353 18.3596 27.64 18.6466 27.64 18.9996V21.6396H26.36V18.9996C26.36 18.6466 26.647 18.3596 27 18.3596ZM4.64 5.99965H5.36V7.99965H4.64V5.99965ZM23.36 13.9996H22.64V11.9996H23.361L23.36 13.9996ZM19.36 13.9996H18.64V11.9996H19.361L19.36 13.9996ZM27.36 13.9996H26.64V11.9996H27.361L27.36 13.9996Z" fill="black"/>
</g>
<defs>
<clipPath id="clip0_941_9361">
<rect width="32" height="32" fill="white"/>
</clipPath>
</defs>
</svg>
