<svg width="32" height="32" viewBox="0 0 32 32" fill="none" xmlns="http://www.w3.org/2000/svg">
<g clip-path="url(#clip0_969_4231)">
<rect width="32" height="32" fill="white" style="mix-blend-mode:multiply"/>
<path d="M4.00063 31.3601C2.14763 31.3601 0.640625 29.8521 0.640625 28.0001C0.640625 26.1481 2.14763 24.6401 4.00063 24.6401C5.85363 24.6401 7.36063 26.1471 7.36063 28.0001C7.36063 29.8531 5.85363 31.3601 4.00063 31.3601ZM4.00063 25.3601C2.54463 25.3601 1.36063 26.5441 1.36063 28.0001C1.36063 29.4561 2.54463 30.6401 4.00063 30.6401C5.45662 30.6401 6.64062 29.4561 6.64062 28.0001C6.64062 26.5441 5.45662 25.3601 4.00063 25.3601ZM28.0006 30.2391H22.0006C20.6986 30.2391 19.6406 29.1801 19.6406 27.8791C19.6406 26.5781 20.6996 25.5191 22.0006 25.5191H28.0006C29.3026 25.5191 30.3606 26.5781 30.3606 27.8791C30.3606 29.1801 29.3026 30.2391 28.0006 30.2391ZM25.3606 29.5191H28.0006C28.9046 29.5191 29.6406 28.7841 29.6406 27.8791C29.6406 26.9741 28.9056 26.2391 28.0006 26.2391H25.3606V29.5191ZM22.0006 26.2391C21.0966 26.2391 20.3606 26.9741 20.3606 27.8791C20.3606 28.7841 21.0956 29.5191 22.0006 29.5191H24.6406V26.2401L22.0006 26.2391ZM12.7576 28.3601C12.1276 28.3601 11.5346 28.1141 11.0886 27.6691C10.1686 26.7491 10.1686 25.2511 11.0886 24.3311L15.3316 20.0881C16.2516 19.1701 17.7476 19.1701 18.6686 20.0881C19.5886 21.0091 19.5886 22.5061 18.6686 23.4271L14.4256 27.6691C13.9806 28.1141 13.3886 28.3601 12.7576 28.3601ZM17.0006 20.1181C16.5806 20.1181 16.1606 20.2781 15.8406 20.5971L11.5976 24.8401C11.2876 25.1501 11.1176 25.5621 11.1176 25.9991C11.1176 26.4361 11.2886 26.8491 11.5976 27.1581C12.2176 27.7791 13.2966 27.7791 13.9166 27.1581L18.1586 22.9161C18.7986 22.2761 18.7986 21.2361 18.1586 20.5971C17.8406 20.2781 17.4206 20.1181 17.0006 20.1181ZM11.3436 24.5861H11.3526H11.3436ZM6.00063 21.3601C4.56862 21.3601 3.22263 20.8021 2.21063 19.7901C1.19763 18.7771 0.640625 17.4321 0.640625 16.0001C0.640625 14.5681 1.19863 13.2221 2.21063 12.2101C4.30062 10.1201 7.70062 10.1201 9.79062 12.2101C10.8036 13.2221 11.3606 14.5681 11.3606 16.0001C11.3606 17.4321 10.8026 18.7771 9.79062 19.7901C8.77862 20.8031 7.43263 21.3601 6.00063 21.3601ZM1.37462 16.3601C1.45862 17.4641 1.92862 18.4901 2.71962 19.2801C3.59562 20.1571 4.76163 20.6401 6.00063 20.6401C7.23962 20.6401 8.40562 20.1581 9.28162 19.2811C10.0726 18.4911 10.5426 17.4651 10.6266 16.3611L1.37462 16.3601ZM1.37462 15.6401H10.6276C10.5436 14.5361 10.0736 13.5101 9.28262 12.7191C8.40562 11.8431 7.23962 11.3601 6.00063 11.3601C4.76163 11.3601 3.59562 11.8431 2.71962 12.7191C1.92862 13.5101 1.45862 14.5361 1.37462 15.6401ZM26.0006 21.2601C24.5686 21.2601 23.2236 20.7021 22.2106 19.6901L17.2726 14.7521C17.2686 14.7491 17.2646 14.7451 17.2606 14.7411C17.2566 14.7381 17.2536 14.7341 17.2496 14.7301L12.3116 9.79014C10.2216 7.70014 10.2216 4.30014 12.3116 2.21014C13.3236 1.19714 14.6696 0.640137 16.1016 0.640137C17.5336 0.640137 18.8786 1.19814 19.8916 2.21014L24.8296 7.14814C24.8336 7.15114 24.8376 7.15514 24.8416 7.15914C24.8456 7.16214 24.8486 7.16614 24.8526 7.17014L29.7906 12.1081C30.8036 13.1201 31.3606 14.4661 31.3606 15.8981C31.3606 17.3301 30.8026 18.6751 29.7906 19.6881C28.7786 20.7011 27.4326 21.2601 26.0006 21.2601ZM18.0246 14.4851L22.7196 19.1801C23.5956 20.0571 24.7606 20.5391 25.9996 20.5391C27.2386 20.5391 28.4036 20.0571 29.2796 19.1801C30.1566 18.3041 30.6386 17.1391 30.6386 15.9001C30.6386 14.6611 30.1566 13.4951 29.2796 12.6191L24.5856 7.92414L18.0246 14.4851ZM16.1016 1.36014C14.8626 1.36014 13.6966 1.84314 12.8206 2.71914C11.9436 3.59514 11.4606 4.76114 11.4606 6.00014C11.4606 7.23914 11.9426 8.40514 12.8196 9.28114L17.5146 13.9761L24.0766 7.41414L19.3816 2.71914C18.5056 1.84214 17.3406 1.36014 16.1016 1.36014ZM4.00063 7.36014C2.14763 7.36014 0.640625 5.85314 0.640625 4.00014C0.640625 2.14714 2.14763 0.640137 4.00063 0.640137C5.85363 0.640137 7.36063 2.14714 7.36063 4.00014C7.36063 5.85314 5.85363 7.36014 4.00063 7.36014ZM4.00063 1.36014C2.54463 1.36014 1.36063 2.54414 1.36063 4.00014C1.36063 5.45614 2.54463 6.64014 4.00063 6.64014C5.45662 6.64014 6.64062 5.45614 6.64062 4.00014C6.64062 2.54414 5.45662 1.36014 4.00063 1.36014ZM28.5006 6.36014C26.9236 6.36014 25.6406 5.07714 25.6406 3.50014C25.6406 1.92314 26.9236 0.640137 28.5006 0.640137C30.0776 0.640137 31.3606 1.92314 31.3606 3.50014C31.3606 5.07714 30.0776 6.36014 28.5006 6.36014ZM28.5006 1.36014C27.3206 1.36014 26.3606 2.32014 26.3606 3.50014C26.3606 4.68014 27.3206 5.64014 28.5006 5.64014C29.6806 5.64014 30.6406 4.68014 30.6406 3.50014C30.6406 2.32014 29.6806 1.36014 28.5006 1.36014Z" fill="#161616"/>
</g>
<defs>
<clipPath id="clip0_969_4231">
<rect width="32" height="32" fill="white"/>
</clipPath>
</defs>
</svg>
