<svg width="32" height="32" viewBox="0 0 32 32" fill="none" xmlns="http://www.w3.org/2000/svg">
<g clip-path="url(#clip0_969_2528)">
<path d="M25.0006 29.36C24.8016 29.36 24.6406 29.199 24.6406 29V27C24.6406 26.801 24.8016 26.64 25.0006 26.64C25.1996 26.64 25.3606 26.801 25.3606 27V29C25.3606 29.199 25.1996 29.36 25.0006 29.36ZM19.0006 29.36C18.8016 29.36 18.6406 29.199 18.6406 29V27C18.6406 26.801 18.8016 26.64 19.0006 26.64C19.1996 26.64 19.3606 26.801 19.3606 27V29C19.3606 29.199 19.1996 29.36 19.0006 29.36ZM28.0006 25.36C27.8016 25.36 27.6406 25.199 27.6406 25V23C27.6406 22.801 27.8016 22.64 28.0006 22.64C28.1996 22.64 28.3606 22.801 28.3606 23V25C28.3606 25.199 28.1996 25.36 28.0006 25.36ZM25.0006 25.36C24.8016 25.36 24.6406 25.199 24.6406 25V21C24.6406 20.801 24.8016 20.64 25.0006 20.64C25.1996 20.64 25.3606 20.801 25.3606 21V25C25.3606 25.199 25.1996 25.36 25.0006 25.36ZM22.0006 25.36C21.8016 25.36 21.6406 25.199 21.6406 25V23C21.6406 22.801 21.8016 22.64 22.0006 22.64C22.1996 22.64 22.3606 22.801 22.3606 23V25C22.3606 25.199 22.1996 25.36 22.0006 25.36ZM19.0006 25.36C18.8016 25.36 18.6406 25.199 18.6406 25V21C18.6406 20.801 18.8016 20.64 19.0006 20.64C19.1996 20.64 19.3606 20.801 19.3606 21V25C19.3606 25.199 19.1996 25.36 19.0006 25.36ZM16.0006 25.36C15.8016 25.36 15.6406 25.199 15.6406 25V23C15.6406 22.801 15.8016 22.64 16.0006 22.64C16.1996 22.64 16.3606 22.801 16.3606 23V25C16.3606 25.199 16.1996 25.36 16.0006 25.36ZM28.0006 21.36C27.8016 21.36 27.6406 21.199 27.6406 21V17C27.6406 16.801 27.8016 16.64 28.0006 16.64C28.1996 16.64 28.3606 16.801 28.3606 17V21C28.3606 21.199 28.1996 21.36 28.0006 21.36ZM22.0006 21.36C21.8016 21.36 21.6406 21.199 21.6406 21V17C21.6406 16.801 21.8016 16.64 22.0006 16.64C22.1996 16.64 22.3606 16.801 22.3606 17V21C22.3606 21.199 22.1996 21.36 22.0006 21.36ZM16.0006 21.36C15.8016 21.36 15.6406 21.199 15.6406 21V17C15.6406 16.801 15.8016 16.64 16.0006 16.64C16.1996 16.64 16.3606 16.801 16.3606 17V21C16.3606 21.199 16.1996 21.36 16.0006 21.36ZM25.0006 19.36C24.8016 19.36 24.6406 19.199 24.6406 19V17C24.6406 16.801 24.8016 16.64 25.0006 16.64C25.1996 16.64 25.3606 16.801 25.3606 17V19C25.3606 19.199 25.1996 19.36 25.0006 19.36ZM19.0006 19.36C18.8016 19.36 18.6406 19.199 18.6406 19V17C18.6406 16.801 18.8016 16.64 19.0006 16.64C19.1996 16.64 19.3606 16.801 19.3606 17V19C19.3606 19.199 19.1996 19.36 19.0006 19.36ZM1.36063 31H0.640625V1H1.36063V3.64H21.0006C22.3026 3.64 23.3606 4.699 23.3606 6V11.64H30.0006C30.1996 11.64 30.3606 11.801 30.3606 12V15C30.3606 15.199 30.1996 15.36 30.0006 15.36H14.0006C13.8016 15.36 13.6406 15.199 13.6406 15V12C13.6406 11.801 13.8016 11.64 14.0006 11.64H20.6406V7C20.6406 6.647 20.3536 6.36 20.0006 6.36H1.36063V31ZM14.3606 14.64H29.6406V12.36H23.0006C22.8016 12.36 22.6406 12.199 22.6406 12V10.36H21.3606V12C21.3606 12.199 21.1996 12.36 21.0006 12.36H14.3606V14.64ZM21.3606 9.64H22.6396V6C22.6396 5.096 21.9046 4.36 20.9996 4.36H1.36063V5.64H20.0006C20.7506 5.64 21.3606 6.25 21.3606 7V9.64Z" fill="black"/>
</g>
<defs>
<clipPath id="clip0_969_2528">
<rect width="32" height="32" fill="white"/>
</clipPath>
</defs>
</svg>
