<svg width="40" height="33" viewBox="0 0 40 33" fill="none" xmlns="http://www.w3.org/2000/svg">
<path d="M16 22V33" stroke="black" stroke-width="0.7"/>
<line x1="24.35" y1="22" x2="24.35" y2="33" stroke="black" stroke-width="0.7"/>
<path d="M33.65 14C33.65 21.5387 27.5387 27.65 20 27.65C12.4613 27.65 6.35 21.5387 6.35 14C6.35 6.46131 12.4613 0.35 20 0.35C27.5387 0.35 33.65 6.46131 33.65 14Z" stroke="black" stroke-width="0.7"/>
<path d="M16.5 22.5005C14.4594 21.5876 12.1934 20.6454 11.1499 18.6684C10.1064 16.6914 9.75545 14.4218 10.1531 12.2219C10.5507 10.0221 11.6739 8.0189 13.3435 6.53226C15.013 5.04563 17.1325 4.16128 19.3636 4.02044C21.5947 3.8796 23.8086 4.49039 25.6518 5.75528C27.495 7.02017 28.8613 8.8662 29.5324 10.9986C30.2035 13.131 30.1407 15.4267 29.3541 17.5193C28.5675 19.6118 25.9096 21.3382 24 22.5005" stroke="black" stroke-width="0.7"/>
<path d="M16.3281 22H24V33H16.3281V22Z" fill="#E5E5E5"/>
<path d="M19 27L19 29M21.3516 30L21.3516 32M21.3516 25L21.3516 27M18 23L18 25M17 30.5L17 32.5M22 21.5L22 23.5M23 27.5L23 29.5" stroke="black" stroke-width="0.7"/>
<path d="M30.5 23L40 23" stroke="black" stroke-width="0.7"/>
<path d="M0 23L9.5 23" stroke="black" stroke-width="0.7"/>
<path d="M30.5 5L40 5" stroke="black" stroke-width="0.7"/>
<path d="M0 5L9.5 5" stroke="black" stroke-width="0.7"/>
</svg>
