<svg width="46" height="25" viewBox="0 0 46 25" fill="none" xmlns="http://www.w3.org/2000/svg">
<g clip-path="url(#clip0_959_2065)">
<path d="M43.562 23.8212H41.1245C40.9628 23.8212 40.832 23.7055 40.832 23.5625V20.9462H25.167V23.5625C25.167 23.7055 25.0362 23.8212 24.8745 23.8212H22.437C22.2753 23.8212 22.1445 23.7055 22.1445 23.5625V20.6875C22.1445 20.6709 22.1462 20.6544 22.1494 20.6393C21.6554 20.3317 21.332 19.8235 21.332 19.25V13.5C21.332 12.631 22.0747 11.9122 23.0277 11.8152L25.2328 5.3134C25.3742 4.89652 25.8 4.61621 26.2915 4.61621H39.7075C40.1991 4.61621 40.6248 4.89652 40.7662 5.31268L42.9713 11.8145C43.9252 11.9115 44.6678 12.6303 44.6678 13.4992V19.2492C44.6678 19.8228 44.3445 20.331 43.8497 20.6386C43.8529 20.6537 43.8553 20.6702 43.8553 20.6867V23.5617C43.8545 23.7055 43.7237 23.8212 43.562 23.8212ZM41.417 23.3037H43.2687V20.883C43.1038 20.9247 42.9291 20.9469 42.7487 20.9469H41.4162L41.417 23.3037ZM22.7295 23.3037H24.582V20.9462H23.2495C23.0692 20.9462 22.8945 20.9239 22.7295 20.8822V23.3037ZM41.1245 20.4287H42.7495C43.484 20.4287 44.082 19.9004 44.082 19.25V13.5C44.082 12.8516 43.4881 12.3241 42.756 12.3212C42.7495 12.3205 42.7463 12.3212 42.7422 12.3212H23.256C23.2528 12.3212 23.2471 12.3212 23.243 12.3212C22.5118 12.3241 21.917 12.8516 21.917 13.5V19.25C21.917 19.8997 22.515 20.4287 23.2495 20.4287H41.1245ZM23.6428 11.8037H42.3571L40.5818 6.57121H25.4173L23.6428 11.8037ZM25.5928 6.05371H40.4063L40.2056 5.46146C40.1398 5.26812 39.935 5.13299 39.7075 5.13299H26.2915C26.06 5.13299 25.8601 5.26524 25.7935 5.46146L25.5928 6.05371ZM40.312 17.3525C39.2542 17.3525 38.3945 16.5913 38.3945 15.6562C38.3945 14.7211 39.255 13.96 40.312 13.96C41.3691 13.96 42.2295 14.7204 42.2295 15.6562C42.2295 16.592 41.3699 17.3525 40.312 17.3525ZM40.312 14.4775C39.5775 14.4775 38.9795 15.0057 38.9795 15.6562C38.9795 16.3067 39.5767 16.835 40.312 16.835C41.0473 16.835 41.6445 16.3067 41.6445 15.6562C41.6445 15.0057 41.0465 14.4775 40.312 14.4775ZM25.687 17.3525C24.63 17.3525 23.7695 16.5913 23.7695 15.6562C23.7695 14.7211 24.63 13.96 25.687 13.96C26.7441 13.96 27.6045 14.7204 27.6045 15.6562C27.6045 16.592 26.7441 17.3525 25.687 17.3525ZM25.687 14.4775C24.9525 14.4775 24.3545 15.0057 24.3545 15.6562C24.3545 16.3067 24.9525 16.835 25.687 16.835C26.4215 16.835 27.0195 16.306 27.0195 15.6562C27.0195 15.0065 26.4215 14.4775 25.687 14.4775ZM37.8745 10.8837C37.7868 10.8837 37.699 10.8485 37.6413 10.7809L35.2038 7.9318C35.1063 7.81752 35.1315 7.65581 35.2607 7.56956C35.3867 7.4833 35.5711 7.50415 35.6702 7.61987L38.1077 10.469C38.2052 10.5833 38.18 10.745 38.0508 10.8312C37.998 10.8665 37.9363 10.8837 37.8745 10.8837ZM38.687 9.57559C38.5985 9.57559 38.5099 9.53965 38.453 9.47137L36.828 7.54512C36.7313 7.43084 36.7573 7.2684 36.8873 7.18287C37.0157 7.09805 37.1993 7.12034 37.296 7.23534L38.921 9.16159C39.0177 9.27587 38.9917 9.43831 38.8617 9.52384C38.8089 9.55906 38.748 9.57559 38.687 9.57559ZM44.3745 19.5087H21.6245V18.9912H44.3745V19.5087ZM37.062 16.6337H28.937V16.1162H37.062V16.6337ZM37.062 15.1962H28.937V14.6787H37.062V15.1962ZM43.8545 10.625H43.2695V8.46871H43.8553L43.8545 10.625ZM22.7295 10.625H22.1445V8.46871H22.7295V10.625Z" fill="black"/>
<rect x="29" y="3" width="8" height="2" fill="black"/>
<path d="M31.9063 5L31.4533 3.95H31.7158L32.1118 4.88H31.9573L32.3593 3.95H32.6008L32.1463 5H31.9063ZM32.885 5V4.148H32.549V3.95H33.464V4.148H33.128V5H32.885ZM34.0601 5.018C33.9791 5.018 33.9036 5.005 33.8336 4.979C33.7646 4.952 33.7046 4.914 33.6536 4.865C33.6026 4.816 33.5626 4.7585 33.5336 4.6925C33.5056 4.6265 33.4916 4.554 33.4916 4.475C33.4916 4.396 33.5056 4.3235 33.5336 4.2575C33.5626 4.1915 33.6026 4.134 33.6536 4.085C33.7056 4.036 33.7661 3.9985 33.8351 3.9725C33.9041 3.9455 33.9796 3.932 34.0616 3.932C34.1526 3.932 34.2346 3.948 34.3076 3.98C34.3816 4.011 34.4436 4.057 34.4936 4.118L34.3376 4.262C34.3016 4.221 34.2616 4.1905 34.2176 4.1705C34.1736 4.1495 34.1256 4.139 34.0736 4.139C34.0246 4.139 33.9796 4.147 33.9386 4.163C33.8976 4.179 33.8621 4.202 33.8321 4.232C33.8021 4.262 33.7786 4.2975 33.7616 4.3385C33.7456 4.3795 33.7376 4.425 33.7376 4.475C33.7376 4.525 33.7456 4.5705 33.7616 4.6115C33.7786 4.6525 33.8021 4.688 33.8321 4.718C33.8621 4.748 33.8976 4.771 33.9386 4.787C33.9796 4.803 34.0246 4.811 34.0736 4.811C34.1256 4.811 34.1736 4.801 34.2176 4.781C34.2616 4.76 34.3016 4.7285 34.3376 4.6865L34.4936 4.8305C34.4436 4.8915 34.3816 4.938 34.3076 4.97C34.2346 5.002 34.1521 5.018 34.0601 5.018Z" fill="white"/>
<path d="M25.7098 5.16381C25.8046 5.05948 25.939 5 26.08 5H40.0984C40.3083 5 40.4959 5.13119 40.568 5.3284L40.7507 5.8284C40.8699 6.15462 40.6284 6.5 40.2811 6.5H25.6258C25.1918 6.5 24.9639 5.98504 25.2557 5.66381L25.7098 5.16381Z" fill="black"/>
<path d="M22.0636 19.7519C21.8692 19.4186 22.1096 19 22.4955 19H43.5665C43.9659 19 44.2041 19.4451 43.9826 19.7773L43.6492 20.2774C43.5565 20.4164 43.4004 20.5 43.2332 20.5H33.5008H22.7872C22.6094 20.5 22.4449 20.4055 22.3553 20.2519L22.0636 19.7519Z" fill="black"/>
</g>
<g clip-path="url(#clip1_959_2065)">
<path d="M18.7505 24.5H5.25047C5.10122 24.5 4.98047 24.3742 4.98047 24.2187V0.78125C4.98047 0.625781 5.10122 0.5 5.25047 0.5H18.7505C18.8997 0.5 19.0205 0.625781 19.0205 0.78125V24.2187C19.0205 24.3742 18.8997 24.5 18.7505 24.5ZM5.52047 23.9375H18.4805V19.0312H5.52047V23.9375ZM5.52047 18.4687H18.4805V1.0625H5.52047V18.4687ZM12.7505 21.4844C12.7505 21.0531 12.4145 20.7031 12.0005 20.7031C11.5865 20.7031 11.2505 21.0531 11.2505 21.4844C11.2505 21.9156 11.5865 22.2656 12.0005 22.2656C12.4145 22.2656 12.7505 21.9156 12.7505 21.4844Z" fill="black"/>
</g>
<defs>
<clipPath id="clip0_959_2065">
<rect width="26" height="23" fill="white" transform="translate(20 2)"/>
</clipPath>
<clipPath id="clip1_959_2065">
<rect width="24" height="25" fill="white"/>
</clipPath>
</defs>
</svg>
