<svg width="24" height="21" viewBox="0 0 24 21" fill="none" xmlns="http://www.w3.org/2000/svg">
<path d="M22.8627 20.0951H20.3558C20.1895 20.0951 20.055 19.974 20.055 19.8244V17.0869H3.94415V19.8244C3.94415 19.974 3.80962 20.0951 3.64333 20.0951H1.13645C0.970161 20.0951 0.835626 19.974 0.835626 19.8244V16.8161C0.835626 16.7988 0.837297 16.7815 0.840639 16.7657C0.332579 16.4439 0 15.9121 0 15.312V9.2955C0 8.38626 0.763762 7.63419 1.74395 7.53266L4.01184 0.729501C4.15724 0.293307 4.5951 0 5.10066 0H18.8985C19.4041 0 19.8419 0.293307 19.9873 0.728749L22.2552 7.53191C23.2362 7.63344 24 8.38551 24 9.29475V15.3113C24 15.9114 23.6674 16.4431 23.1585 16.765C23.1619 16.7808 23.1644 16.7981 23.1644 16.8154V19.8236C23.1635 19.974 23.029 20.0951 22.8627 20.0951ZM20.6567 19.5536H22.5611V17.0207C22.3914 17.0643 22.2118 17.0876 22.0263 17.0876H20.6558L20.6567 19.5536ZM1.43728 19.5536H3.3425V17.0869H1.97208C1.78657 17.0869 1.60691 17.0636 1.43728 17.0199V19.5536ZM20.3558 16.5454H22.0271C22.7825 16.5454 23.3975 15.9926 23.3975 15.312V9.2955C23.3975 8.61714 22.7867 8.06512 22.0338 8.06212C22.0271 8.06136 22.0237 8.06212 22.0196 8.06212H1.97876C1.97542 8.06212 1.96957 8.06212 1.96539 8.06212C1.21333 8.06512 0.60165 8.61714 0.60165 9.2955V15.312C0.60165 15.9919 1.21667 16.5454 1.97208 16.5454H20.3558ZM2.37652 7.52063H21.6235L19.7976 2.04561H4.20153L2.37652 7.52063ZM4.38202 1.50413H19.6171L19.4107 0.884426C19.3431 0.682122 19.1325 0.540733 18.8985 0.540733H5.10066C4.8625 0.540733 4.65694 0.679114 4.58842 0.884426L4.38202 1.50413ZM19.5202 13.3266C18.4322 13.3266 17.5481 12.5301 17.5481 11.5517C17.5481 10.5733 18.4331 9.77682 19.5202 9.77682C20.6074 9.77682 21.4923 10.5725 21.4923 11.5517C21.4923 12.5309 20.6082 13.3266 19.5202 13.3266ZM19.5202 10.3183C18.7648 10.3183 18.1498 10.8711 18.1498 11.5517C18.1498 12.2323 18.764 12.7851 19.5202 12.7851C20.2765 12.7851 20.8906 12.2323 20.8906 11.5517C20.8906 10.8711 20.2756 10.3183 19.5202 10.3183ZM4.47895 13.3266C3.3918 13.3266 2.50688 12.5301 2.50688 11.5517C2.50688 10.5733 3.3918 9.77682 4.47895 9.77682C5.5661 9.77682 6.45103 10.5725 6.45103 11.5517C6.45103 12.5309 5.5661 13.3266 4.47895 13.3266ZM4.47895 10.3183C3.72355 10.3183 3.10853 10.8711 3.10853 11.5517C3.10853 12.2323 3.72355 12.7851 4.47895 12.7851C5.23436 12.7851 5.84938 12.2316 5.84938 11.5517C5.84938 10.8718 5.23436 10.3183 4.47895 10.3183ZM23.6983 15.5827H0.300825V15.0413H23.6983V15.5827ZM16.1777 12.5745H7.82145V12.033H16.1777V12.5745ZM16.1777 11.0704H7.82145V10.5289H11.9996H16.1777V11.0704ZM23.1635 6.28725H22.5619V4.03106H23.1644L23.1635 6.28725ZM1.43728 6.28725H0.835626V4.03106H1.43728V6.28725Z" fill="black"/>
</svg>
