<svg width="18" height="35" viewBox="0 0 18 35" fill="none" xmlns="http://www.w3.org/2000/svg">
<path d="M17.1 34.03H15.225C15.1006 34.03 15 33.9394 15 33.8275V31.78H2.95V33.8275C2.95 33.9394 2.84937 34.03 2.725 34.03H0.85C0.725625 34.03 0.625 33.9394 0.625 33.8275V31.5775C0.625 31.5646 0.62625 31.5516 0.62875 31.5398C0.24875 31.2991 0 30.9014 0 30.4525V25.9525C0 25.2724 0.57125 24.7099 1.30437 24.634L3.00062 19.5456C3.10937 19.2194 3.43687 19 3.815 19H14.135C14.5131 19 14.8406 19.2194 14.9494 19.5451L16.6456 24.6334C17.3794 24.7094 17.9506 25.2719 17.9506 25.9519V30.4519C17.9506 30.9008 17.7019 31.2985 17.3212 31.5393C17.3237 31.5511 17.3256 31.564 17.3256 31.5769V33.8269C17.325 33.9394 17.2244 34.03 17.1 34.03ZM15.45 33.625H16.8744V31.7305C16.7475 31.7631 16.6131 31.7806 16.4744 31.7806H15.4494L15.45 33.625ZM1.075 33.625H2.5V31.78H1.475C1.33625 31.78 1.20187 31.7626 1.075 31.7299V33.625ZM15.225 31.375H16.475C17.04 31.375 17.5 30.9616 17.5 30.4525V25.9525C17.5 25.4451 17.0431 25.0323 16.48 25.03C16.475 25.0294 16.4725 25.03 16.4694 25.03H1.48C1.4775 25.03 1.47312 25.03 1.47 25.03C0.9075 25.0323 0.45 25.4451 0.45 25.9525V30.4525C0.45 30.961 0.91 31.375 1.475 31.375H15.225ZM1.7775 24.625H16.1731L14.8075 20.53H3.1425L1.7775 24.625ZM3.2775 20.125H14.6725L14.5181 19.6615C14.4675 19.5102 14.31 19.4044 14.135 19.4044H3.815C3.63687 19.4044 3.48312 19.5079 3.43187 19.6615L3.2775 20.125ZM14.6 28.9675C13.7862 28.9675 13.125 28.3718 13.125 27.64C13.125 26.9082 13.7869 26.3125 14.6 26.3125C15.4131 26.3125 16.075 26.9076 16.075 27.64C16.075 28.3724 15.4137 28.9675 14.6 28.9675ZM14.6 26.7175C14.035 26.7175 13.575 27.1309 13.575 27.64C13.575 28.1491 14.0344 28.5625 14.6 28.5625C15.1656 28.5625 15.625 28.1491 15.625 27.64C15.625 27.1309 15.165 26.7175 14.6 26.7175ZM3.35 28.9675C2.53687 28.9675 1.875 28.3718 1.875 27.64C1.875 26.9082 2.53687 26.3125 3.35 26.3125C4.16312 26.3125 4.825 26.9076 4.825 27.64C4.825 28.3724 4.16312 28.9675 3.35 28.9675ZM3.35 26.7175C2.785 26.7175 2.325 27.1309 2.325 27.64C2.325 28.1491 2.785 28.5625 3.35 28.5625C3.915 28.5625 4.375 28.1485 4.375 27.64C4.375 27.1315 3.915 26.7175 3.35 26.7175ZM12.725 23.905C12.6575 23.905 12.59 23.8774 12.5456 23.8246L10.6706 21.5948C10.5956 21.5054 10.615 21.3788 10.7144 21.3113C10.8112 21.2438 10.9531 21.2601 11.0294 21.3507L12.9044 23.5804C12.9794 23.6699 12.96 23.7964 12.8606 23.8639C12.82 23.8915 12.7725 23.905 12.725 23.905ZM13.35 22.8813C13.2819 22.8813 13.2137 22.8531 13.17 22.7997L11.92 21.2922C11.8456 21.2028 11.8656 21.0756 11.9656 21.0087C12.0644 20.9423 12.2056 20.9598 12.28 21.0498L13.53 22.5573C13.6044 22.6467 13.5844 22.7738 13.4844 22.8408C13.4437 22.8683 13.3969 22.8813 13.35 22.8813ZM17.725 30.655H0.225V30.25H17.725V30.655ZM12.1 28.405H5.85V28H12.1V28.405ZM12.1 27.28H5.85V26.875H12.1V27.28ZM17.325 23.7025H16.875V22.015H17.3256L17.325 23.7025ZM1.075 23.7025H0.625V22.015H1.075V23.7025Z" fill="black"/>
<g clip-path="url(#clip0_959_2068)">
<path d="M12.7813 9.3751C12.4304 9.37686 12.0844 9.45738 11.7688 9.61071C11.4532 9.76405 11.1761 9.98629 10.9579 10.261L7.53129 8.11885C7.65617 7.7158 7.65617 7.28439 7.53129 6.88135L10.9579 4.73916C11.3056 5.16981 11.7946 5.46346 12.3382 5.5681C12.8818 5.67274 13.4448 5.58161 13.9276 5.31086C14.4104 5.0401 14.7818 4.6072 14.976 4.08884C15.1702 3.57047 15.1747 3.0001 14.9886 2.47877C14.8025 1.95743 14.438 1.51878 13.9594 1.24052C13.4809 0.962252 12.9193 0.862338 12.3742 0.958472C11.8291 1.05461 11.3356 1.34058 10.9811 1.76575C10.6266 2.19091 10.4341 2.72781 10.4375 3.28135C10.4398 3.49096 10.4713 3.69923 10.5313 3.9001L7.10473 6.04228C6.80222 5.66146 6.38873 5.38418 5.92158 5.24887C5.45443 5.11357 4.95676 5.12694 4.49755 5.28713C4.03834 5.44733 3.64033 5.74641 3.35871 6.14293C3.07708 6.53944 2.92578 7.01374 2.92578 7.5001C2.92578 7.98645 3.07708 8.46075 3.35871 8.85727C3.64033 9.25378 4.03834 9.55286 4.49755 9.71306C4.95676 9.87325 5.45443 9.88662 5.92158 9.75132C6.38873 9.61601 6.80222 9.33873 7.10473 8.95791L10.5313 11.1001C10.4713 11.301 10.4398 11.5092 10.4375 11.7188C10.4375 12.1824 10.575 12.6355 10.8325 13.021C11.0901 13.4064 11.4561 13.7068 11.8844 13.8842C12.3126 14.0616 12.7839 14.108 13.2385 14.0176C13.6932 13.9271 14.1108 13.7039 14.4386 13.3761C14.7664 13.0483 14.9896 12.6307 15.08 12.1761C15.1704 11.7214 15.124 11.2502 14.9466 10.8219C14.7692 10.3937 14.4688 10.0276 14.0834 9.77009C13.698 9.51255 13.2448 9.3751 12.7813 9.3751ZM12.7813 1.8751C13.0594 1.8751 13.3313 1.95757 13.5626 2.11209C13.7938 2.26661 13.9741 2.48624 14.0805 2.7432C14.1869 3.00016 14.2148 3.28291 14.1605 3.55569C14.1063 3.82848 13.9723 4.07905 13.7757 4.27571C13.579 4.47238 13.3284 4.60631 13.0556 4.66058C12.7829 4.71484 12.5001 4.68699 12.2431 4.58055C11.9862 4.47412 11.7666 4.29387 11.612 4.06262C11.4575 3.83136 11.375 3.55948 11.375 3.28135C11.375 2.90838 11.5232 2.5507 11.7869 2.28698C12.0506 2.02325 12.4083 1.8751 12.7813 1.8751ZM5.28129 8.90635C5.00316 8.90635 4.73128 8.82387 4.50002 8.66935C4.26876 8.51483 4.08852 8.2952 3.98208 8.03824C3.87565 7.78129 3.8478 7.49854 3.90206 7.22575C3.95632 6.95296 4.09025 6.70239 4.28692 6.50573C4.48359 6.30906 4.73416 6.17513 5.00694 6.12087C5.27973 6.06661 5.56248 6.09445 5.81944 6.20089C6.0764 6.30733 6.29602 6.48757 6.45054 6.71882C6.60507 6.95008 6.68754 7.22197 6.68754 7.5001C6.68754 7.87306 6.53938 8.23074 6.27566 8.49446C6.01194 8.75819 5.65425 8.90635 5.28129 8.90635ZM12.7813 13.1251C12.5032 13.1251 12.2313 13.0426 12 12.8881C11.7688 12.7336 11.5885 12.514 11.4821 12.257C11.3756 12 11.3478 11.7173 11.4021 11.4445C11.4563 11.1717 11.5903 10.9211 11.7869 10.7245C11.9836 10.5278 12.2342 10.3939 12.5069 10.3396C12.7797 10.2854 13.0625 10.3132 13.3194 10.4196C13.5764 10.5261 13.796 10.7063 13.9505 10.9376C14.1051 11.1688 14.1875 11.4407 14.1875 11.7188C14.1875 12.0918 14.0394 12.4495 13.7757 12.7132C13.5119 12.9769 13.1543 13.1251 12.7813 13.1251Z" fill="black"/>
</g>
<defs>
<clipPath id="clip0_959_2068">
<rect width="15" height="15" fill="white" transform="translate(2)"/>
</clipPath>
</defs>
</svg>
