<svg width="23" height="37" viewBox="0 0 23 37" fill="none" xmlns="http://www.w3.org/2000/svg">
<g clip-path="url(#clip0_959_2070)">
<path d="M18.6884 26.264C18.0797 26.264 17.5032 26.3932 16.9908 26.6242L15.3261 23.9914C15.3218 23.9835 15.3168 23.9763 15.3118 23.9684L13.3273 20.8302H16.5322C17.1819 20.8302 17.7109 21.3132 17.7109 21.9065C17.7109 22.4997 17.1827 22.9827 16.5322 22.9827V23.4552C17.468 23.4552 18.2284 22.7602 18.2284 21.9065C18.2284 21.0527 17.468 20.3577 16.5322 20.3577H12.8831C12.8378 20.3577 12.7918 20.3669 12.7494 20.3892C12.6251 20.4548 12.5834 20.5992 12.6545 20.7121L14.6462 23.8614H8.05669L6.13978 20.8302H7.18844C7.33147 20.8302 7.44719 20.7246 7.44719 20.594C7.44719 20.4634 7.33147 20.3577 7.18844 20.3577H5.69559C5.69272 20.3577 5.68841 20.3571 5.68625 20.3577H4.31344C4.17041 20.3577 4.05469 20.4634 4.05469 20.594C4.05469 20.7246 4.17041 20.8302 4.31344 20.8302H5.54178L7.60819 24.0983L6.01041 26.6242C5.49866 26.3932 4.92222 26.264 4.31344 26.264C2.18881 26.264 0.460938 27.8422 0.460938 29.7815C0.460938 31.7207 2.18881 33.299 4.31344 33.299C6.35038 33.299 8.02362 31.8473 8.15731 30.0177H9.82409C9.94916 30.7599 10.6535 31.3302 11.5009 31.3302C12.4368 31.3302 13.1972 30.6352 13.1972 29.7815C13.1972 29.2945 12.9492 28.8588 12.5625 28.5746L15.0947 24.5708L16.543 26.8612C15.5144 27.4938 14.8359 28.5667 14.8359 29.7815C14.8359 31.7207 16.5645 33.299 18.6884 33.299C20.8123 33.299 22.5409 31.7207 22.5409 29.7815C22.5409 27.8422 20.8123 26.264 18.6884 26.264ZM4.31344 32.8265C2.47416 32.8265 0.978438 31.4608 0.978438 29.7815C0.978438 28.1021 2.47416 26.7365 4.31344 26.7365C4.82806 26.7365 5.31609 26.8434 5.75166 27.0344L4.09134 29.6594C4.07913 29.6778 4.06978 29.6981 4.06331 29.7191C4.05469 29.748 4.05253 29.7769 4.05541 29.8051C4.059 29.8392 4.0705 29.8707 4.08847 29.8989C4.10644 29.9278 4.13159 29.9534 4.1625 29.9737C4.18694 29.9895 4.21497 30.002 4.24516 30.0098C4.26888 30.0151 4.28972 30.0171 4.31775 30.0184H7.63838C7.50613 31.5868 6.06575 32.8265 4.31344 32.8265ZM4.76194 29.5452L6.19944 27.2713C7.00731 27.7786 7.55931 28.6028 7.63838 29.5452H4.76194ZM9.82409 29.5452H8.15731C8.07538 28.4283 7.42059 27.4524 6.45891 26.8612L7.90719 24.5708L10.4386 28.5753C10.1159 28.8115 9.89022 29.1547 9.82409 29.5452ZM12.6797 29.7815C12.6797 30.3747 12.1514 30.8577 11.5009 30.8577C10.8505 30.8577 10.3222 30.3754 10.3222 29.7815C10.3222 29.1876 10.8512 28.7052 11.5009 28.7052C12.1507 28.7052 12.6797 29.1882 12.6797 29.7815ZM12.1148 28.3377C11.9243 28.2695 11.7173 28.2327 11.5009 28.2327C11.2846 28.2327 11.0776 28.2701 10.8871 28.3377L8.35569 24.3339H14.6476L12.1148 28.3377ZM18.6884 32.8265C16.8492 32.8265 15.3534 31.4608 15.3534 29.7815C15.3534 28.7413 15.9277 27.8212 16.8024 27.2713L18.4642 29.8996C18.5361 30.0138 18.6949 30.0525 18.8171 29.9862C18.9414 29.9206 18.9831 29.7769 18.912 29.664L17.2502 27.0351C17.6858 26.8441 18.1738 26.7371 18.6884 26.7371C20.5277 26.7371 22.0234 28.1034 22.0234 29.7821C22.0234 31.4608 20.5277 32.8265 18.6884 32.8265Z" fill="black"/>
</g>
<g clip-path="url(#clip1_959_2070)">
<path d="M14.8555 8.45224C14.5046 8.45401 14.1586 8.53453 13.843 8.68786C13.5275 8.8412 13.2503 9.06344 13.0321 9.33818L9.60551 7.19599C9.73039 6.79295 9.73039 6.36154 9.60551 5.95849L13.0321 3.81631C13.3799 4.24695 13.8688 4.54061 14.4124 4.64525C14.956 4.74989 15.519 4.65876 16.0018 4.38801C16.4847 4.11725 16.8561 3.68435 17.0503 3.16599C17.2444 2.64762 17.2489 2.07725 17.0628 1.55592C16.8768 1.03458 16.5122 0.595928 16.0336 0.317665C15.5551 0.0394008 14.9936 -0.0605137 14.4484 0.0356204C13.9033 0.131755 13.4098 0.417732 13.0553 0.842894C12.7008 1.26806 12.5083 1.80496 12.5118 2.35849C12.514 2.56811 12.5455 2.77638 12.6055 2.97724L9.17895 5.11943C8.87644 4.73861 8.46295 4.46133 7.9958 4.32602C7.52865 4.19072 7.03098 4.20409 6.57176 4.36428C6.11255 4.52448 5.71455 4.82356 5.43292 5.22007C5.1513 5.61659 5 6.09089 5 6.57724C5 7.06359 5.1513 7.5379 5.43292 7.93441C5.71455 8.33093 6.11255 8.63001 6.57176 8.79021C7.03098 8.9504 7.52865 8.96377 7.9958 8.82847C8.46295 8.69316 8.87644 8.41588 9.17895 8.03506L12.6055 10.1772C12.5455 10.3781 12.514 10.5864 12.5118 10.796C12.5118 11.2595 12.6492 11.7127 12.9068 12.0981C13.1643 12.4835 13.5303 12.7839 13.9586 12.9613C14.3869 13.1387 14.8581 13.1851 15.3128 13.0947C15.7674 13.0043 16.185 12.7811 16.5128 12.4533C16.8406 12.1255 17.0638 11.7079 17.1542 11.2532C17.2447 10.7986 17.1982 10.3273 17.0209 9.89908C16.8435 9.47082 16.5431 9.10477 16.1576 8.84724C15.7722 8.5897 15.3191 8.45224 14.8555 8.45224ZM14.8555 0.952244C15.1336 0.952244 15.4055 1.03472 15.6368 1.18924C15.868 1.34376 16.0483 1.56339 16.1547 1.82035C16.2612 2.0773 16.289 2.36005 16.2347 2.63284C16.1805 2.90563 16.0465 3.1562 15.8499 3.35286C15.6532 3.54953 15.4026 3.68346 15.1299 3.73772C14.8571 3.79198 14.5743 3.76414 14.3174 3.6577C14.0604 3.55126 13.8408 3.37102 13.6863 3.13976C13.5317 2.90851 13.4493 2.63662 13.4493 2.35849C13.4493 1.98553 13.5974 1.62785 13.8611 1.36413C14.1249 1.1004 14.4825 0.952244 14.8555 0.952244ZM7.35551 7.98349C7.07738 7.98349 6.8055 7.90102 6.57424 7.7465C6.34298 7.59198 6.16274 7.37235 6.0563 7.11539C5.94987 6.85843 5.92202 6.57568 5.97628 6.3029C6.03054 6.03011 6.16447 5.77954 6.36114 5.58288C6.55781 5.38621 6.80838 5.25227 7.08116 5.19801C7.35395 5.14375 7.6367 5.1716 7.89366 5.27804C8.15062 5.38447 8.37024 5.56472 8.52476 5.79597C8.67928 6.02723 8.76176 6.29911 8.76176 6.57724C8.76176 6.9502 8.6136 7.30789 8.34988 7.57161C8.08616 7.83534 7.72847 7.98349 7.35551 7.98349ZM14.8555 12.2022C14.5774 12.2022 14.3055 12.1198 14.0742 11.9652C13.843 11.8107 13.6627 11.5911 13.5563 11.3341C13.4499 11.0772 13.422 10.7944 13.4763 10.5216C13.5305 10.2489 13.6645 9.99829 13.8611 9.80163C14.0578 9.60496 14.3084 9.47103 14.5812 9.41676C14.8539 9.3625 15.1367 9.39035 15.3937 9.49679C15.6506 9.60322 15.8702 9.78347 16.0248 10.0147C16.1793 10.246 16.2618 10.5179 16.2618 10.796C16.2618 11.169 16.1136 11.5266 15.8499 11.7904C15.5862 12.0541 15.2285 12.2022 14.8555 12.2022Z" fill="black"/>
</g>
<defs>
<clipPath id="clip0_959_2070">
<rect width="23" height="21" fill="white" transform="translate(0 16)"/>
</clipPath>
<clipPath id="clip1_959_2070">
<rect width="15" height="15" fill="white" transform="translate(4)"/>
</clipPath>
</defs>
</svg>
