<svg width="39" height="30" viewBox="0 0 39 30" fill="none" xmlns="http://www.w3.org/2000/svg">
<line y1="29.65" x2="39" y2="29.65" stroke="black" stroke-width="0.7"/>
<path d="M19.5 5.3501V25.6501" stroke="black" stroke-width="0.7"/>
<path d="M14.4453 9.7002H24.5564" stroke="black" stroke-width="0.5"/>
<path d="M28.8891 11.15C28.8891 9.81708 28.6463 8.49722 28.1744 7.26576C27.7026 6.03431 27.011 4.91538 26.1392 3.97287C25.2673 3.03035 24.2323 2.28271 23.0932 1.77262C21.9541 1.26254 20.7332 1 19.5002 1C18.2673 1 17.0464 1.26254 15.9072 1.77262C14.7681 2.28271 13.7331 3.03035 12.8613 3.97287C11.9894 4.91538 11.2979 6.03431 10.826 7.26576C10.3542 8.49722 10.1113 9.81708 10.1113 11.15" stroke="black" stroke-width="0.7"/>
<path d="M10.1113 11.1499V29.9999M28.8891 11.1499V29.9999" stroke="black" stroke-width="0.7"/>
</svg>
