<svg width="25" height="28" viewBox="0 0 25 28" fill="none" xmlns="http://www.w3.org/2000/svg">
<path d="M22.3144 0.786296L22.3087 0.286328L21.3088 0.297721L21.3145 0.797689L22.3144 0.786296ZM22.0008 17.1511L24.8304 12.1186L19.0573 12.1843L22.0008 17.1511ZM21.3145 0.797689L21.4496 12.6571L22.4495 12.6457L22.3144 0.786296L21.3145 0.797689Z" fill="black"/>
<path d="M7.92148 4.13753C7.8575 4.17118 7.71968 4.33939 7.62125 4.50761C5.77062 7.60281 2.01523 13.8701 1.71007 14.3796C0.789682 15.8935 0.5239 16.4414 0.28765 17.2873C-0.450631 19.9404 0.253197 22.7664 2.15796 24.7995C3.3146 26.0347 4.84039 26.8757 6.58273 27.241C7.03062 27.3371 7.24226 27.3516 8.18234 27.3516C9.12242 27.3516 9.33406 27.3371 9.78195 27.241C11.6769 26.8469 13.2765 25.9097 14.4774 24.5015C16.3182 22.3435 16.8547 19.3636 15.8851 16.7106C15.6882 16.1675 15.3929 15.5667 15.1271 15.163C15.0041 14.9707 9.98375 6.5887 8.73851 4.498C8.49734 4.08947 8.22664 3.96931 7.92148 4.13753ZM9.93945 8.49196C12.74 13.178 13.9409 15.1822 14.1624 15.5331C14.6891 16.3694 15.0434 17.2345 15.2255 18.1284C15.3486 18.7292 15.3486 20.0749 15.2305 20.6661C14.6595 23.4441 12.5382 25.6021 9.77211 26.2077C5.84937 27.0728 2.00539 24.6505 1.15882 20.7815C1.01609 20.1182 1.00624 18.7725 1.13421 18.1284C1.33601 17.1528 1.62148 16.4847 2.34499 15.3072C2.73382 14.6631 5.98718 9.23212 7.4096 6.84343C8.06914 5.73319 8.18234 5.56978 8.23156 5.64188C8.26601 5.68994 9.03382 6.9732 9.93945 8.49196Z" fill="black"/>
<path d="M13.2917 20.5139C13.085 20.634 13.0505 20.7109 13.0111 21.1195C12.9127 22.2057 12.3172 23.3063 11.5444 23.8446C11.131 24.1282 10.9735 24.2099 10.4518 24.3829C9.95958 24.5463 9.80701 24.6809 9.81685 24.9548C9.82669 25.3441 10.1417 25.522 10.5896 25.397C12.4993 24.8539 13.7445 23.3832 14.0152 21.3502C14.0841 20.8071 14.0201 20.6004 13.7494 20.4899C13.523 20.3985 13.4787 20.3985 13.2917 20.5139Z" fill="black"/>
</svg>
