<svg width="30" height="30" viewBox="0 0 30 30" fill="none" xmlns="http://www.w3.org/2000/svg">
<circle cx="15" cy="15" r="14.65" stroke="black" stroke-width="0.7"/>
<path d="M25 25.5C23.1182 23.8273 21.6936 22.2233 20.8549 19.8784C20.0162 17.5334 19.79 15.0213 20.1967 12.5696C20.6034 10.1178 21.6302 7.80368 23.1841 5.83649C24.7381 3.8693 24.5937 4.00187 24.5937 4.00187" stroke="black" stroke-width="0.7" stroke-linecap="round"/>
<path d="M5 25C6.88177 23.3662 8.30644 21.7996 9.14511 19.5091C9.98379 17.2186 10.21 14.765 9.80332 12.3703C9.39662 9.97556 8.36984 7.71522 6.81587 5.79378C5.26189 3.87234 5.40635 4.00183 5.40635 4.00183" stroke="black" stroke-width="0.7" stroke-linecap="round"/>
<path d="M15.3516 0L15.35 29.5" stroke="black" stroke-width="0.7"/>
<path d="M29.5 15.0381L2.48072e-05 14.9997" stroke="black" stroke-width="0.7"/>
<path d="M20.8549 19.8784C20.0162 17.5334 19.79 15.0213 20.1967 12.5696C20.6034 10.1178 21.6302 7.80368 23.1841 5.83649C24.7381 3.8693 24.5937 4.00187 24.5937 4.00187" stroke="black" stroke-width="0.7" stroke-linecap="round"/>
</svg>
