<svg width="32" height="32" viewBox="0 0 32 32" fill="none" xmlns="http://www.w3.org/2000/svg">
<g clip-path="url(#clip0_941_2130)">
<path d="M30.3606 15.0001V17.0001H29.6406V15.0001H30.3606ZM17.0006 22.8601H23.0006V22.1401H17.0006V22.8601ZM10.3606 15.0001H9.64062V17.0001H10.3606V15.0001ZM17.0006 20.8601H23.0006V20.1401H17.0006V20.8601ZM28.3606 21.5001C28.3606 22.5251 27.5256 23.3601 26.5006 23.3601C25.4756 23.3601 24.6406 22.5251 24.6406 21.5001C24.6406 20.4751 25.4756 19.6401 26.5006 19.6401C27.5256 19.6401 28.3606 20.4751 28.3606 21.5001ZM27.6406 21.5001C27.6406 20.8711 27.1296 20.3601 26.5006 20.3601C25.8716 20.3601 25.3606 20.8711 25.3606 21.5001C25.3606 22.1291 25.8716 22.6401 26.5006 22.6401C27.1296 22.6401 27.6406 22.1291 27.6406 21.5001ZM15.3606 21.5001C15.3606 22.5251 14.5266 23.3601 13.5006 23.3601C12.4746 23.3601 11.6406 22.5251 11.6406 21.5001C11.6406 20.4751 12.4746 19.6401 13.5006 19.6401C14.5266 19.6401 15.3606 20.4751 15.3606 21.5001ZM14.6406 21.5001C14.6406 20.8711 14.1286 20.3601 13.5006 20.3601C12.8726 20.3601 12.3606 20.8711 12.3606 21.5001C12.3606 22.1291 12.8726 22.6401 13.5006 22.6401C14.1286 22.6401 14.6406 22.1291 14.6406 21.5001ZM30.3606 19.0001V26.0001C30.3606 26.6251 29.9356 27.1531 29.3606 27.3121V30.0001C29.3606 30.1991 29.1996 30.3601 29.0006 30.3601H27.0006C26.8016 30.3601 26.6406 30.1991 26.6406 30.0001V27.3601H13.3606V30.0001C13.3606 30.1991 13.1996 30.3601 13.0006 30.3601H11.0006C10.8016 30.3601 10.6406 30.1991 10.6406 30.0001V27.3121C10.0646 27.1541 9.64062 26.6251 9.64062 26.0001V20.3771C7.40063 20.6001 7.36063 22.8981 7.36063 23.0011V25.0001C7.36063 26.3021 6.30163 27.3601 5.00063 27.3601C3.69963 27.3601 2.64062 26.3021 2.64062 25.0001V9.32314C1.51063 9.14814 0.640625 8.17814 0.640625 7.00014V4.00014C0.640625 3.80114 0.801625 3.64014 1.00063 3.64014H1.64062V2.00014C1.64062 1.80114 1.80163 1.64014 2.00063 1.64014C2.19963 1.64014 2.36062 1.80114 2.36062 2.00014V3.64014H3.64062V2.00014C3.64062 1.80114 3.80163 1.64014 4.00063 1.64014C4.19963 1.64014 4.36063 1.80114 4.36063 2.00014V3.64014H5.00063C5.19963 3.64014 5.36063 3.80114 5.36063 4.00014V7.00014C5.36063 8.17814 4.49062 9.14914 3.36062 9.32314V25.0001C3.36062 25.9041 4.09663 26.6401 5.00063 26.6401C5.90462 26.6401 6.64062 25.9041 6.64062 25.0001V23.0001C6.64062 21.8931 7.27863 19.8431 9.64062 19.6541V19.0001C9.64062 18.3501 10.0996 17.8041 10.7116 17.6711L12.4616 10.6701C12.6126 10.0641 13.1546 9.64114 13.7806 9.64114H26.2186C26.8436 9.64114 27.3866 10.0641 27.5386 10.6701L29.2886 17.6711C29.9006 17.8041 30.3606 18.3501 30.3606 19.0001ZM1.36063 5.64014H4.64062V4.36014H1.36063V5.64014ZM4.64062 7.00014V6.36014H1.36063V7.00014C1.36063 7.90414 2.09663 8.64014 3.00063 8.64014C3.90463 8.64014 4.64062 7.90414 4.64062 7.00014ZM13.0866 11.1401H26.9146L26.8406 10.8441C26.7696 10.5591 26.5146 10.3601 26.2196 10.3601H13.7816C13.4876 10.3601 13.2326 10.5591 13.1606 10.8441L13.0866 11.1401ZM11.4616 17.6401H28.5396L27.0946 11.8601H12.9066L11.4616 17.6401ZM12.6406 27.3601H11.3606V29.6391H12.6406V27.3601ZM28.6406 27.3601H27.3606V29.6391H28.6396L28.6406 27.3601ZM29.6406 25.3601H10.3606V26.0001C10.3606 26.3531 10.6476 26.6401 11.0006 26.6401H29.0006C29.3536 26.6401 29.6406 26.3531 29.6406 26.0001V25.3601ZM29.6406 19.0001C29.6406 18.6471 29.3536 18.3601 29.0006 18.3601H11.0006C10.6476 18.3601 10.3606 18.6471 10.3606 19.0001V24.6401H29.6406V19.0001Z" fill="black"/>
</g>
<defs>
<clipPath id="clip0_941_2130">
<rect width="32" height="32" fill="white"/>
</clipPath>
</defs>
</svg>
