<svg width="32" height="32" viewBox="0 0 32 32" fill="none" xmlns="http://www.w3.org/2000/svg">
<g clip-path="url(#clip0_969_2141)">
<path d="M29.3606 30.9996H28.6406C28.6406 25.4486 24.5186 20.4396 18.8376 19.0906C18.6876 19.0546 18.5766 18.9276 18.5626 18.7736C18.5476 18.6206 18.6326 18.4746 18.7746 18.4116C21.2326 17.3146 22.8206 14.8696 22.8206 12.1806H23.5416C23.5416 14.8376 22.1386 17.2806 19.8986 18.6356C21.0026 18.9786 22.0446 19.4546 23.0026 20.0416C24.0186 19.3696 24.6406 18.2246 24.6406 16.9996V11.9996C24.6406 9.99265 23.0076 8.35965 21.0006 8.35965H11.0006C8.99362 8.35965 7.36063 9.99265 7.36063 11.9996V16.9996C7.36063 18.2256 7.98462 19.3716 9.00163 20.0426C9.96163 19.4546 11.0036 18.9776 12.1106 18.6346C9.86662 17.2816 8.46062 14.8386 8.46062 12.1796H9.18062C9.18062 14.8696 10.7726 17.3156 13.2366 18.4106C13.3776 18.4726 13.4636 18.6196 13.4486 18.7726C13.4346 18.9266 13.3236 19.0536 13.1736 19.0896C7.48763 20.4386 3.36062 25.4476 3.36062 30.9996H2.64062C2.64062 26.7866 4.87662 22.8706 8.35362 20.4646C7.28562 19.6456 6.64062 18.3626 6.64062 16.9996V11.9996C6.64062 10.3726 7.53662 8.95065 8.86162 8.20165C9.37362 6.17365 10.7696 4.42365 12.6406 3.45965V2.99965C12.6406 1.69865 13.6986 0.639648 14.9986 0.639648H17.0006C18.3026 0.639648 19.3606 1.69865 19.3606 2.99965V3.45865C21.2296 4.42165 22.6256 6.17165 23.1376 8.19965C24.4636 8.94965 25.3606 10.3716 25.3606 11.9996V16.9996C25.3606 18.3616 24.7156 19.6446 23.6486 20.4626C27.1246 22.8696 29.3606 26.7866 29.3606 30.9996ZM14.9996 1.35965C14.0966 1.35965 13.3606 2.09565 13.3606 2.99965V3.68265C13.3606 3.82165 13.2806 3.94765 13.1556 4.00765C11.5476 4.77265 10.3036 6.17165 9.72362 7.83065C10.1276 7.70665 10.5566 7.63965 11.0006 7.63965H21.0006C21.4436 7.63965 21.8726 7.70565 22.2756 7.82965C21.6956 6.17065 20.4526 4.77165 18.8456 4.00765C18.7196 3.94765 18.6396 3.82065 18.6396 3.68265V2.99965C18.6396 2.09565 17.9046 1.35965 16.9996 1.35965H14.9996ZM16.3606 30.9996H15.6406V20.9996H16.3606V30.9996ZM24.0006 28.3596H18.0006V27.6396H24.0006V28.3596ZM14.0006 28.3596H8.00062V27.6396H14.0006V28.3596ZM24.0006 26.3596H18.0006V25.6396H24.0006V26.3596ZM14.0006 26.3596H8.00062V25.6396H14.0006V26.3596ZM23.5406 12.1796H22.8196V11.9996C22.8196 11.1416 21.9526 10.3596 21.0006 10.3596H11.0006C10.0476 10.3596 9.18062 11.1416 9.18062 11.9996V12.1796H8.46062V11.9996C8.46062 10.7426 9.64762 9.63965 11.0006 9.63965H21.0006C22.3536 9.63965 23.5406 10.7426 23.5406 11.9996V12.1796ZM16.0006 6.35965C15.9676 6.35965 15.9336 6.35565 15.9016 6.34565C15.0406 6.09865 14.3906 5.24365 14.3906 4.35665V3.37565C14.3906 3.17665 14.5516 3.01565 14.7506 3.01565C15.3506 3.01565 15.5296 2.92165 15.7716 2.72265C15.9046 2.61265 16.0966 2.61265 16.2296 2.72265C16.4716 2.92165 16.6506 3.01565 17.2506 3.01565C17.4496 3.01565 17.6106 3.17665 17.6106 3.37565V4.35665C17.6106 5.24365 16.9606 6.09865 16.0996 6.34565C16.0676 6.35465 16.0336 6.35965 16.0006 6.35965ZM15.1106 3.72365V4.35665C15.1106 4.81665 15.4486 5.40865 16.0006 5.62065C16.5526 5.40965 16.8906 4.81765 16.8906 4.35665V3.72365C16.5226 3.69365 16.2586 3.61165 16.0006 3.44665C15.7426 3.61165 15.4786 3.69365 15.1106 3.72365Z" fill="black"/>
</g>
<defs>
<clipPath id="clip0_969_2141">
<rect width="32" height="32" fill="white"/>
</clipPath>
</defs>
</svg>
