<svg width="32" height="32" viewBox="0 0 32 32" fill="none" xmlns="http://www.w3.org/2000/svg">
<g clip-path="url(#clip0_969_4915)">
<path d="M30.4282 12.1236C29.9872 10.7676 29.1392 9.60565 27.9742 8.76565C26.8172 7.93065 25.4602 7.48965 24.0502 7.48965C24.0412 7.48965 24.0322 7.48965 24.0242 7.48965C23.5842 7.49065 23.1262 7.54465 22.6562 7.64765C22.6082 7.15565 22.5112 6.68765 22.3682 6.25265C21.9262 4.90765 21.0812 3.75465 19.9262 2.91765C18.8152 2.11265 17.4862 1.70565 16.1502 1.67565C16.1022 1.65365 16.0522 1.63965 15.9982 1.63965C15.9442 1.63965 15.8932 1.65365 15.8472 1.67565C14.5112 1.70465 13.1832 2.11265 12.0712 2.91665C10.9162 3.75365 10.0712 4.90765 9.62919 6.25165C9.48619 6.68565 9.39019 7.15365 9.34119 7.64765C8.85719 7.54165 8.41319 7.46165 7.92419 7.49065C6.50919 7.49565 5.15119 7.94165 3.99819 8.78265C2.84719 9.62165 2.00819 10.7766 1.57019 12.1226C1.13219 13.4686 1.13319 14.8966 1.57119 16.2516C2.01019 17.6096 2.84619 18.7696 3.98819 19.6046C4.35719 19.8756 4.77319 20.1117 5.22719 20.3106C4.97619 20.7386 4.77919 21.1736 4.63919 21.6086C4.20719 22.9576 4.21219 24.3866 4.65519 25.7436C5.09819 27.0976 5.93719 28.2536 7.08219 29.0846C8.22719 29.9166 9.58519 30.3566 11.0092 30.3596C11.0122 30.3596 11.0162 30.3596 11.0192 30.3596C12.4412 30.3596 13.7992 29.9226 14.9452 29.0966C15.3162 28.8286 15.6692 28.5076 15.9982 28.1366C16.3172 28.4966 16.6572 28.8096 17.0112 29.0686C18.1562 29.9076 19.5202 30.3536 20.9572 30.3596C20.9642 30.3596 20.9712 30.3596 20.9782 30.3596C22.4062 30.3596 23.7672 29.9186 24.9162 29.0846C26.0692 28.2466 26.9112 27.0806 27.3512 25.7146C27.7902 24.3466 27.7892 22.9106 27.3442 21.5626C27.2072 21.1456 27.0152 20.7256 26.7712 20.3116C27.2112 20.1196 27.6132 19.8936 27.9702 19.6366C29.1212 18.8056 29.9682 17.6456 30.4162 16.2816C30.8632 14.9176 30.8672 13.4796 30.4282 12.1236ZM29.7322 16.0566C29.3312 17.2756 28.5762 18.3116 27.5482 19.0526C27.1362 19.3486 26.6532 19.6006 26.1112 19.8006L25.6832 19.9596L25.9362 20.3386C26.2572 20.8186 26.5002 21.3067 26.6592 21.7866C27.0552 22.9896 27.0562 24.2716 26.6642 25.4936C26.3102 26.5966 25.6482 27.5416 24.7662 28.2676L23.7502 26.8696C23.6332 26.7087 23.4082 26.6716 23.2472 26.7906C23.0872 26.9066 23.0512 27.1327 23.1682 27.2936L24.1842 28.6906C23.2252 29.3026 22.1292 29.6386 20.9772 29.6386C20.9712 29.6386 20.9652 29.6386 20.9582 29.6386C19.6752 29.6346 18.4562 29.2367 17.4362 28.4876C17.0272 28.1887 16.6382 27.8066 16.2802 27.3536L15.9982 26.9956L15.7152 27.3536C15.3492 27.8166 14.9482 28.2066 14.5242 28.5126C13.5022 29.2496 12.2902 29.6386 11.0192 29.6386C11.0162 29.6386 11.0132 29.6386 11.0102 29.6386C9.86119 29.6366 8.76819 29.3006 7.81219 28.6906L8.82719 27.2926C8.94419 27.1316 8.90919 26.9056 8.74719 26.7896C8.58519 26.6707 8.36119 26.7076 8.24419 26.8686L7.22919 28.2666C6.35419 27.5466 5.69619 26.6116 5.33919 25.5186C4.94319 24.3066 4.93919 23.0306 5.32419 21.8286C5.48419 21.3296 5.73219 20.8277 6.05919 20.3356L6.31119 19.9566L5.88419 19.7996C5.33119 19.5956 4.83619 19.3346 4.41219 19.0256C3.39319 18.2796 2.64719 17.2446 2.25519 16.0306C1.90119 14.9366 1.88419 13.7936 2.16919 12.6966L3.81219 13.2306C3.84919 13.2426 3.88719 13.2486 3.92319 13.2486C4.07519 13.2486 4.21619 13.1516 4.26519 12.9996C4.32719 12.8106 4.22319 12.6076 4.03419 12.5456L2.39019 12.0116C2.80519 10.9566 3.49119 10.0406 4.41919 9.36465C5.45019 8.61465 6.66219 8.21565 7.92419 8.21065C8.48419 8.20265 9.00419 8.28965 9.57019 8.44865L10.0092 8.57265L10.0282 8.11665C10.0522 7.52565 10.1472 6.97365 10.3102 6.47665C10.7052 5.27765 11.4592 4.24765 12.4912 3.49965C13.4212 2.82665 14.5212 2.47365 15.6362 2.40865V4.11565C15.6362 4.31465 15.7972 4.47565 15.9962 4.47565C16.1952 4.47565 16.3562 4.31465 16.3562 4.11565V2.40865C17.4712 2.47365 18.5712 2.82665 19.5012 3.49965C20.5322 4.24765 21.2872 5.27765 21.6822 6.47765C21.8462 6.97665 21.9412 7.52765 21.9642 8.11565L21.9822 8.57165L22.4212 8.44765C22.9782 8.29065 23.5172 8.21065 24.0242 8.20865C24.0332 8.20865 24.0412 8.20865 24.0482 8.20865C25.3062 8.20865 26.5172 8.60265 27.5502 9.34865C28.4912 10.0276 29.1852 10.9476 29.6022 12.0116L27.9592 12.5456C27.7702 12.6076 27.6662 12.8106 27.7282 12.9996C27.7782 13.1516 27.9192 13.2486 28.0712 13.2486C28.1082 13.2486 28.1452 13.2436 28.1822 13.2306L29.8252 12.6966C30.1132 13.8026 30.0942 14.9556 29.7322 16.0566ZM23.6092 12.8466C22.9842 13.0496 22.6012 13.6486 22.6362 14.2756L16.9392 16.1266L18.5972 13.8446C18.7592 13.9076 18.9282 13.9496 19.1042 13.9496C19.1782 13.9496 19.2532 13.9436 19.3292 13.9316C19.7032 13.8726 20.0322 13.6716 20.2542 13.3656C20.4772 13.0586 20.5672 12.6846 20.5082 12.3096C20.4492 11.9356 20.2482 11.6066 19.9422 11.3836C19.3062 10.9246 18.4212 11.0656 17.9612 11.6976C17.5772 12.2276 17.6342 12.9216 18.0262 13.4076L16.3592 15.7026V9.71265C16.9662 9.55265 17.4172 9.00365 17.4172 8.34665C17.4172 7.56465 16.7812 6.92865 15.9992 6.92865C15.2172 6.92865 14.5822 7.56465 14.5822 8.34665C14.5822 9.00365 15.0332 9.55165 15.6402 9.71265V15.7026L13.9732 13.4086C14.1292 13.2176 14.2512 13.0026 14.2912 12.7526C14.3502 12.3786 14.2602 12.0036 14.0382 11.6976C13.8152 11.3906 13.4872 11.1896 13.1132 11.1306C12.7382 11.0706 12.3642 11.1606 12.0572 11.3836C11.7512 11.6066 11.5502 11.9346 11.4902 12.3086C11.4312 12.6836 11.5212 13.0576 11.7432 13.3636C12.0202 13.7446 12.4532 13.9476 12.8922 13.9476C13.0642 13.9476 13.2342 13.9056 13.3992 13.8416L15.0582 16.1246L9.36119 14.2736C9.39619 13.6466 9.01419 13.0476 8.38919 12.8446C8.02919 12.7266 7.64519 12.7576 7.30719 12.9296C6.96919 13.1016 6.71919 13.3946 6.60219 13.7546C6.36019 14.4986 6.76919 15.2996 7.51219 15.5416C7.65719 15.5886 7.80419 15.6116 7.94919 15.6116C8.42719 15.6116 8.87019 15.3596 9.13219 14.9556L14.8352 16.8086L12.1572 17.6786C11.8172 17.1516 11.1582 16.8926 10.5312 17.0936C9.78819 17.3356 9.38019 18.1367 9.62119 18.8806C9.81619 19.4796 10.3732 19.8606 10.9712 19.8606C11.1162 19.8606 11.2632 19.8386 11.4092 19.7916C12.0332 19.5886 12.4152 18.9907 12.3812 18.3636L15.0592 17.4926L11.5272 22.3546C11.2962 22.2656 11.0542 22.2156 10.8052 22.2546C10.4302 22.3136 10.1022 22.5156 9.87919 22.8206C9.42019 23.4536 9.56019 24.3417 10.1932 24.8016C10.4442 24.9846 10.7352 25.0716 11.0242 25.0716C11.4632 25.0716 11.8972 24.8696 12.1742 24.4886C12.3962 24.1817 12.4862 23.8067 12.4272 23.4326C12.3872 23.1826 12.2652 22.9676 12.1092 22.7766L15.6412 17.9146V20.7306C15.0342 20.8916 14.5832 21.4406 14.5832 22.0966C14.5832 22.8786 15.2192 23.5156 16.0002 23.5156C16.7812 23.5156 17.4182 22.8786 17.4182 22.0966C17.4182 21.4406 16.9672 20.8916 16.3602 20.7306V17.9146L19.8922 22.7766C19.7372 22.9676 19.6142 23.1816 19.5752 23.4316C19.5152 23.8066 19.6052 24.1807 19.8292 24.4876C20.1052 24.8696 20.5382 25.0726 20.9772 25.0726C21.2662 25.0726 21.5572 24.9846 21.8092 24.8016C22.4412 24.3417 22.5812 23.4526 22.1222 22.8206C21.7372 22.2916 21.0592 22.1327 20.4752 22.3556L16.9422 17.4926L19.6192 18.3636C19.5842 18.9896 19.9672 19.5886 20.5922 19.7916C20.7372 19.8386 20.8842 19.8606 21.0302 19.8606C21.6282 19.8606 22.1842 19.4786 22.3802 18.8806C22.6212 18.1376 22.2132 17.3356 21.4692 17.0936C20.8492 16.8926 20.1862 17.1507 19.8442 17.6786L17.1652 16.8086L22.8682 14.9556C23.1302 15.3596 23.5722 15.6116 24.0502 15.6116C24.1962 15.6116 24.3422 15.5896 24.4882 15.5416C25.2322 15.2996 25.6402 14.4986 25.3992 13.7546C25.1532 13.0136 24.3522 12.6066 23.6092 12.8466ZM18.5422 12.1216C18.7692 11.8096 19.2092 11.7406 19.5182 11.9666C19.6692 12.0766 19.7682 12.2376 19.7972 12.4226C19.8262 12.6066 19.7812 12.7906 19.6722 12.9426C19.5632 13.0936 19.4012 13.1926 19.2172 13.2216C19.0342 13.2496 18.8482 13.2066 18.6972 13.0966C18.3862 12.8706 18.3162 12.4326 18.5422 12.1216ZM15.3002 8.34765C15.3002 7.96265 15.6132 7.64965 15.9982 7.64965C16.3832 7.64965 16.6962 7.96265 16.6962 8.34765C16.6962 8.73265 16.3832 9.04565 15.9982 9.04565C15.6132 9.04565 15.3002 8.73165 15.3002 8.34765ZM12.3242 12.9416C12.2152 12.7916 12.1702 12.6066 12.1992 12.4226C12.2282 12.2386 12.3272 12.0766 12.4782 11.9666C12.5992 11.8786 12.7412 11.8326 12.8872 11.8326C12.9242 11.8326 12.9612 11.8356 12.9982 11.8416C13.1822 11.8706 13.3442 11.9696 13.4532 12.1206C13.5622 12.2706 13.6072 12.4556 13.5782 12.6396C13.5492 12.8236 13.4502 12.9856 13.2992 13.0946C12.9892 13.3216 12.5502 13.2546 12.3242 12.9416ZM7.73319 14.8596C7.36719 14.7406 7.16619 14.3456 7.28519 13.9796C7.34319 13.8026 7.46619 13.6586 7.63219 13.5736C7.73219 13.5226 7.84019 13.4966 7.94919 13.4966C8.02119 13.4966 8.09419 13.5076 8.16519 13.5306C8.53119 13.6496 8.73219 14.0446 8.61319 14.4106C8.49419 14.7776 8.09919 14.9756 7.73319 14.8596ZM11.1832 19.1086C10.8182 19.2266 10.4232 19.0266 10.3032 18.6606C10.1842 18.2946 10.3862 17.8996 10.7512 17.7816C11.1152 17.6606 11.5112 17.8636 11.6312 18.2296C11.7502 18.5966 11.5492 18.9906 11.1832 19.1086ZM11.5882 24.0676C11.3622 24.3806 10.9242 24.4476 10.6132 24.2226C10.3012 23.9956 10.2322 23.5586 10.4592 23.2466C10.5682 23.0956 10.7302 22.9966 10.9142 22.9676C10.9512 22.9616 10.9882 22.9586 11.0242 22.9586C11.1702 22.9586 11.3132 23.0047 11.4342 23.0926C11.5852 23.2016 11.6842 23.3636 11.7132 23.5476C11.7422 23.7326 11.6982 23.9177 11.5882 24.0676ZM16.6962 22.1006C16.6962 22.4856 16.3832 22.7986 15.9982 22.7986C15.6132 22.7986 15.3002 22.4856 15.3002 22.1006C15.3002 21.7156 15.6132 21.4036 15.9982 21.4036C16.3832 21.4036 16.6962 21.7156 16.6962 22.1006ZM21.5382 23.2466C21.7642 23.5586 21.6942 23.9967 21.3842 24.2236C21.2322 24.3316 21.0462 24.3756 20.8632 24.3476C20.6792 24.3186 20.5172 24.2196 20.4082 24.0696C20.2992 23.9196 20.2542 23.7326 20.2832 23.5486C20.3122 23.3636 20.4112 23.2026 20.5622 23.0936C20.6852 23.0036 20.8302 22.9606 20.9722 22.9606C21.1882 22.9606 21.4012 23.0606 21.5382 23.2466ZM21.0292 17.7476C21.1002 17.7476 21.1732 17.7586 21.2442 17.7816C21.6102 17.9006 21.8112 18.2946 21.6922 18.6606C21.5732 19.0266 21.1772 19.2276 20.8132 19.1086C20.4472 18.9896 20.2462 18.5956 20.3652 18.2296C20.4612 17.9356 20.7352 17.7476 21.0292 17.7476ZM24.2632 14.8596C23.8972 14.9746 23.5032 14.7766 23.3842 14.4116C23.2652 14.0456 23.4662 13.6506 23.8322 13.5316C23.9032 13.5086 23.9762 13.4976 24.0472 13.4976C24.3412 13.4976 24.6152 13.6856 24.7112 13.9796C24.8302 14.3456 24.6292 14.7406 24.2632 14.8596Z" fill="black"/>
</g>
<defs>
<clipPath id="clip0_969_4915">
<rect width="32" height="32" fill="white"/>
</clipPath>
</defs>
</svg>
