<svg width="32" height="32" viewBox="0 0 32 32" fill="none" xmlns="http://www.w3.org/2000/svg">
<g clip-path="url(#clip0_941_9308)">
<path d="M23.0007 30.3603H1.00075C0.875747 30.3603 0.759747 30.2953 0.694747 30.1893C0.628747 30.0833 0.622747 29.9503 0.678747 29.8383C1.98275 27.2313 3.21775 25.8793 4.52575 24.4473C5.24475 23.6613 5.98775 22.8473 6.77475 21.7853C7.69175 20.5473 8.27175 19.1783 8.50075 17.7163C9.27375 12.7773 5.88475 8.12929 0.945747 7.35529C0.783747 7.33129 0.659747 7.20029 0.642747 7.03829C0.625747 6.87529 0.719747 6.72229 0.872747 6.66429L10.6357 2.92829C11.5057 2.59629 12.4787 2.55229 13.3737 2.80329L27.0987 6.65429C27.2317 6.69229 27.3317 6.80229 27.3557 6.93929C27.3797 7.07629 27.3227 7.21429 27.2097 7.29429C25.1887 8.73029 23.8667 10.8563 23.4867 13.2843C23.1127 15.6763 23.6947 18.0713 25.1267 20.0293C26.5577 21.9863 28.6637 23.2703 31.0577 23.6453C31.2307 23.6723 31.3607 23.8223 31.3607 24.0003V28.0003C31.3607 28.1093 31.3107 28.2133 31.2257 28.2813C31.1407 28.3493 31.0297 28.3753 30.9217 28.3513L12.9607 24.3603H5.57975C5.40375 24.5543 5.22975 24.7453 5.05775 24.9343C4.84275 25.1693 4.62975 25.4023 4.41775 25.6393H13.0007V26.3603H3.79375C3.46475 26.7543 3.13775 27.1723 2.81075 27.6393H18.0007V28.3603H2.33275C2.08675 28.7503 1.83975 29.1723 1.59175 29.6393H23.0007V30.3603ZM16.2797 24.3603L30.6397 27.5503V24.3603H16.2797ZM13.3607 23.6403H28.5017C24.5387 21.8923 22.0747 17.6423 22.7747 13.1723C23.1467 10.7933 24.3577 8.68029 26.2107 7.15229L13.1787 3.49629C12.4297 3.28529 11.6187 3.32229 10.8917 3.60129L2.24975 6.90829C6.92175 8.24929 9.98275 12.9053 9.21175 17.8283C8.96475 19.4053 8.33975 20.8813 7.35375 22.2143C6.96275 22.7423 6.58375 23.2093 6.21375 23.6403H8.80775L10.7017 20.8013C10.7677 20.7003 10.8797 20.6403 11.0007 20.6403H13.0007C13.1997 20.6403 13.3607 20.8013 13.3607 21.0003V23.6403ZM9.67375 23.6403H12.6407V21.3603H11.1937L9.67375 23.6403ZM18.3607 17.0003H17.6407V16.0003H18.3617L18.3607 17.0003ZM21.3607 15.0003H20.6407V14.0003H21.3617L21.3607 15.0003ZM19.3607 15.0003H18.6407V14.0003H19.3617L19.3607 15.0003ZM17.3597 15.0003H16.6397V14.0003H17.3597V15.0003ZM20.3607 13.0003H19.6407V12.0003H20.3617L20.3607 13.0003ZM18.3607 13.0003H17.6407V12.0003H18.3617L18.3607 13.0003ZM21.3607 11.0003H20.6407V10.0003H21.3617L21.3607 11.0003ZM19.3607 11.0003H18.6407V10.0003H19.3617L19.3607 11.0003ZM17.3607 11.0003H16.6407V10.0003H17.3607V11.0003ZM22.3607 9.00029H21.6407V8.00029H22.3617L22.3607 9.00029ZM20.3607 9.00029H19.6407V8.00029H20.3617L20.3607 9.00029ZM18.3607 9.00029H17.6407V8.00029H18.3617L18.3607 9.00029ZM16.3607 9.00029H15.6407V8.00029H16.3607V9.00029ZM17.3607 7.00029H16.6407V6.00029H17.3607V7.00029ZM15.3607 7.00029H14.6407V6.00029H15.3607V7.00029Z" fill="black"/>
</g>
<defs>
<clipPath id="clip0_941_9308">
<rect width="32" height="32" fill="white"/>
</clipPath>
</defs>
</svg>
