<svg width="34" height="34" viewBox="0 0 34 34" fill="none" xmlns="http://www.w3.org/2000/svg">
<g clip-path="url(#clip0_2094_2698)">
<path d="M27.6247 30.1332C25.7855 30.1332 24.2661 28.7349 24.0749 26.9457H10.987C10.7958 28.7349 9.27638 30.1332 7.43719 30.1332C5.598 30.1332 4.07863 28.7349 3.88738 26.9457H3.18719C1.80488 26.9457 0.679688 25.8205 0.679688 24.4382V17.0007C0.679688 16.9284 0.699875 16.8615 0.733875 16.8041L5.02532 9.37191C5.09332 9.25397 5.21975 9.18066 5.35682 9.18066H13.4308V4.25066C13.4308 4.03923 13.6018 3.86816 13.8133 3.86816H32.9383C33.1497 3.86816 33.3208 4.03923 33.3208 4.25066V26.5632C33.3208 26.7746 33.1497 26.9457 32.9383 26.9457H31.1756C30.9833 28.7349 29.4639 30.1332 27.6247 30.1332ZM27.6247 23.7582C26.0777 23.7582 24.8197 25.0162 24.8197 26.5632C24.8197 28.1102 26.0777 29.3682 27.6247 29.3682C29.1717 29.3682 30.4297 28.1102 30.4297 26.5632C30.4297 25.0162 29.1717 23.7582 27.6247 23.7582ZM7.43719 23.7582C5.89019 23.7582 4.63219 25.0162 4.63219 26.5632C4.63219 28.1102 5.89019 29.3682 7.43719 29.3682C8.98419 29.3682 10.2422 28.1102 10.2422 26.5632C10.2422 25.0162 8.98419 23.7582 7.43719 23.7582ZM31.1745 26.1807H32.5547V4.63316H14.1947V26.1807H24.0749C24.2661 24.3914 25.7845 22.9932 27.6247 22.9932C29.465 22.9932 30.9833 24.3914 31.1745 26.1807ZM10.987 26.1807H13.4297V17.3832H1.44469V24.4382C1.44469 25.3987 2.22669 26.1807 3.18719 26.1807H3.88738C4.07863 24.3914 5.598 22.9932 7.43719 22.9932C9.27638 22.9932 10.7958 24.3914 10.987 26.1807ZM11.0072 16.6182H13.4297V9.94566H11.0072V16.6182ZM1.72519 16.6182H10.2422V9.94566H5.57782L1.72519 16.6182ZM11.6872 19.5082H9.56219V18.7432H11.6872V19.5082ZM30.8122 17.3832H22.3122V16.6182H30.8122V17.3832ZM30.8122 14.1957H20.1872V13.4307H30.8122V14.1957ZM30.8122 11.0082H18.0622V10.2432H30.8122V11.0082ZM30.8122 7.82066H15.9372V7.05566H30.8122V7.82066Z" fill="black"/>
</g>
<defs>
<clipPath id="clip0_2094_2698">
<rect width="34" height="34" fill="white"/>
</clipPath>
</defs>
</svg>
