<svg width="32" height="32" viewBox="0 0 32 32" fill="none" xmlns="http://www.w3.org/2000/svg">
<g clip-path="url(#clip0_969_2126)">
<path d="M15.3606 16.3047C15.8196 16.1777 16.1796 15.8187 16.3066 15.3587H29.0006C29.1996 15.3587 29.3606 15.1977 29.3606 14.9987C29.3606 7.08067 22.9186 0.638672 15.0006 0.638672C10.3536 0.638672 6.01463 2.89767 3.31663 6.67967C3.21463 6.65567 3.10963 6.63967 3.00063 6.63967C2.25063 6.63967 1.64062 7.24967 1.64062 7.99967C1.64062 8.36067 1.78462 8.68767 2.01462 8.93067C1.11162 10.8547 0.640625 12.8927 0.640625 14.9997C0.640625 22.9177 7.08262 29.3597 15.0006 29.3597H17.0006V28.6397H15.3606V22.3597H17.0006V21.6397H15.3606V16.3047ZM9.30562 21.6397C9.15263 21.0867 8.66263 20.6767 8.06862 20.6467C7.63263 18.9607 7.39962 17.1867 7.37162 15.3597H13.6946C13.8216 15.8187 14.1806 16.1787 14.6406 16.3057V21.6397H9.30562ZM6.69563 21.6397H3.09662C2.05062 19.7717 1.43863 17.6347 1.37863 15.3597H6.65263C6.67963 17.2387 6.91963 19.0657 7.36663 20.8037C7.04063 20.9777 6.79563 21.2767 6.69563 21.6397ZM22.0006 8.63967C21.6476 8.63967 21.3606 8.35267 21.3606 7.99967C21.3606 7.64667 21.6476 7.35967 22.0006 7.35967C22.3536 7.35967 22.6406 7.64667 22.6406 7.99967C22.6406 8.35267 22.3536 8.63967 22.0006 8.63967ZM20.6946 7.63967H15.3606V1.39867C17.6436 1.59467 19.7696 3.62567 21.1446 6.95167C20.9296 7.12767 20.7706 7.36467 20.6946 7.63967ZM14.6406 7.63967H8.57863C9.87763 4.03867 12.0976 1.60467 14.6416 1.39167L14.6406 7.63967ZM14.6406 8.35967V13.6947C14.1816 13.8217 13.8216 14.1807 13.6946 14.6407H7.37063C7.40462 12.3657 7.74662 10.2287 8.33262 8.36067H14.6406V8.35967ZM8.00063 21.3597C8.35363 21.3597 8.64062 21.6467 8.64062 21.9997C8.64062 22.3527 8.35363 22.6397 8.00063 22.6397C7.64762 22.6397 7.36063 22.3527 7.36063 21.9997C7.36063 21.6467 7.64762 21.3597 8.00063 21.3597ZM15.0006 15.6397C14.6476 15.6397 14.3606 15.3527 14.3606 14.9997C14.3606 14.6467 14.6476 14.3597 15.0006 14.3597C15.3536 14.3597 15.6406 14.6467 15.6406 14.9997C15.6406 15.3527 15.3536 15.6397 15.0006 15.6397ZM15.3606 13.6947V8.35967H20.6946C20.8476 8.91267 21.3386 9.32267 21.9316 9.35267C22.3676 11.0407 22.6006 12.8147 22.6286 14.6397H16.3056C16.1786 14.1807 15.8196 13.8217 15.3606 13.6947ZM23.3496 14.6397C23.3226 12.7617 23.0816 10.9347 22.6356 9.19467C22.9616 9.02067 23.2066 8.72167 23.3066 8.35867H26.9096C27.9556 10.2267 28.5776 12.3637 28.6366 14.6387H23.3496V14.6397ZM26.4626 7.63967H23.3066C23.1476 7.06467 22.6256 6.63967 22.0006 6.63967C21.9326 6.63967 21.8666 6.64967 21.8006 6.65967C20.8846 4.45267 19.6416 2.77467 18.2206 1.75967C21.6646 2.59767 24.5946 4.74067 26.4626 7.63967ZM11.7816 1.74967C10.1286 2.93967 8.75063 5.02367 7.83563 7.63967H4.30562C4.24163 7.40667 4.12163 7.19667 3.95363 7.03167C5.87763 4.36967 8.65662 2.51067 11.7816 1.74967ZM3.00063 7.35967C3.35363 7.35967 3.64062 7.64667 3.64062 7.99967C3.64062 8.35267 3.35363 8.63967 3.00063 8.63967C2.64763 8.63967 2.36062 8.35267 2.36062 7.99967C2.36062 7.64667 2.64763 7.35967 3.00063 7.35967ZM2.63662 9.30367C2.75262 9.33667 2.87363 9.35967 3.00063 9.35967C3.62563 9.35967 4.14663 8.93467 4.30562 8.35967H7.59462C7.01863 10.2467 6.68363 12.3787 6.65063 14.6397H1.36563C1.41363 12.7907 1.84962 11.0017 2.63662 9.30367ZM3.53463 22.3597H6.69563C6.85463 22.9347 7.37663 23.3597 8.00063 23.3597C8.06862 23.3597 8.13462 23.3497 8.20062 23.3397C9.11563 25.5457 10.3586 27.2237 11.7796 28.2387C8.33562 27.4007 5.40263 25.2597 3.53463 22.3597ZM14.6406 28.5997C12.3576 28.4037 10.2316 26.3727 8.85662 23.0477C9.07062 22.8717 9.22962 22.6347 9.30562 22.3597H14.6406V28.5997ZM31.0006 22.6397H28.3636V20.0027C28.3636 18.1487 26.8546 16.6397 25.0006 16.6397C23.1466 16.6397 21.6376 18.1477 21.6376 20.0027V22.6397H19.0006C18.8016 22.6397 18.6406 22.8007 18.6406 22.9997V30.9997C18.6406 31.1987 18.8016 31.3597 19.0006 31.3597H31.0006C31.1996 31.3597 31.3606 31.1987 31.3606 30.9997V22.9997C31.3606 22.8007 31.1996 22.6397 31.0006 22.6397ZM22.3576 20.0027C22.3576 18.5457 23.5436 17.3597 25.0006 17.3597C26.4576 17.3597 27.6436 18.5457 27.6436 20.0027V22.6397H22.3586L22.3576 20.0027ZM30.6406 30.6397H19.3606V23.3597H30.6406V30.6397Z" fill="black"/>
</g>
<defs>
<clipPath id="clip0_969_2126">
<rect width="32" height="32" fill="white"/>
</clipPath>
</defs>
</svg>
