<svg width="15" height="34" viewBox="0 0 15 34" fill="none" xmlns="http://www.w3.org/2000/svg">
<g clip-path="url(#clip0_959_2069)">
<path d="M10.8555 8.45224C10.5046 8.45401 10.1586 8.53453 9.84305 8.68786C9.52745 8.8412 9.25031 9.06344 9.03207 9.33818L5.60551 7.19599C5.73039 6.79295 5.73039 6.36154 5.60551 5.95849L9.03207 3.81631C9.37986 4.24695 9.86884 4.54061 10.4124 4.64525C10.956 4.74989 11.519 4.65876 12.0018 4.38801C12.4847 4.11725 12.8561 3.68435 13.0503 3.16599C13.2444 2.64762 13.2489 2.07725 13.0628 1.55592C12.8768 1.03458 12.5122 0.595928 12.0336 0.317665C11.5551 0.0394008 10.9936 -0.0605137 10.4484 0.0356204C9.90329 0.131755 9.40977 0.417732 9.0553 0.842894C8.70083 1.26806 8.50828 1.80496 8.51176 2.35849C8.51397 2.56811 8.54553 2.77638 8.60551 2.97724L5.17895 5.11943C4.87644 4.73861 4.46295 4.46133 3.9958 4.32602C3.52865 4.19072 3.03098 4.20409 2.57176 4.36428C2.11255 4.52448 1.71455 4.82356 1.43292 5.22007C1.1513 5.61659 1 6.09089 1 6.57724C1 7.06359 1.1513 7.5379 1.43292 7.93441C1.71455 8.33093 2.11255 8.63001 2.57176 8.79021C3.03098 8.9504 3.52865 8.96377 3.9958 8.82847C4.46295 8.69316 4.87644 8.41588 5.17895 8.03506L8.60551 10.1772C8.54553 10.3781 8.51397 10.5864 8.51176 10.796C8.51176 11.2595 8.64922 11.7127 8.90675 12.0981C9.16429 12.4835 9.53033 12.7839 9.95859 12.9613C10.3869 13.1387 10.8581 13.1851 11.3128 13.0947C11.7674 13.0043 12.185 12.7811 12.5128 12.4533C12.8406 12.1255 13.0638 11.7079 13.1542 11.2532C13.2447 10.7986 13.1982 10.3273 13.0209 9.89908C12.8435 9.47082 12.5431 9.10477 12.1576 8.84724C11.7722 8.5897 11.3191 8.45224 10.8555 8.45224ZM10.8555 0.952244C11.1336 0.952244 11.4055 1.03472 11.6368 1.18924C11.868 1.34376 12.0483 1.56339 12.1547 1.82035C12.2612 2.0773 12.289 2.36005 12.2347 2.63284C12.1805 2.90563 12.0465 3.1562 11.8499 3.35286C11.6532 3.54953 11.4026 3.68346 11.1299 3.73772C10.8571 3.79198 10.5743 3.76414 10.3174 3.6577C10.0604 3.55126 9.84078 3.37102 9.68625 3.13976C9.53173 2.90851 9.44926 2.63662 9.44926 2.35849C9.44926 1.98553 9.59742 1.62785 9.86114 1.36413C10.1249 1.1004 10.4825 0.952244 10.8555 0.952244ZM3.35551 7.98349C3.07738 7.98349 2.8055 7.90102 2.57424 7.7465C2.34298 7.59198 2.16274 7.37235 2.0563 7.11539C1.94987 6.85843 1.92202 6.57568 1.97628 6.3029C2.03054 6.03011 2.16447 5.77954 2.36114 5.58288C2.55781 5.38621 2.80838 5.25227 3.08116 5.19801C3.35395 5.14375 3.6367 5.1716 3.89366 5.27804C4.15062 5.38447 4.37024 5.56472 4.52476 5.79597C4.67928 6.02723 4.76176 6.29911 4.76176 6.57724C4.76176 6.9502 4.6136 7.30789 4.34988 7.57161C4.08616 7.83534 3.72847 7.98349 3.35551 7.98349ZM10.8555 12.2022C10.5774 12.2022 10.3055 12.1198 10.0742 11.9652C9.84298 11.8107 9.66274 11.5911 9.5563 11.3341C9.44987 11.0772 9.42202 10.7944 9.47628 10.5216C9.53054 10.2489 9.66447 9.99829 9.86114 9.80163C10.0578 9.60496 10.3084 9.47103 10.5812 9.41676C10.8539 9.3625 11.1367 9.39035 11.3937 9.49679C11.6506 9.60322 11.8702 9.78347 12.0248 10.0147C12.1793 10.246 12.2618 10.5179 12.2618 10.796C12.2618 11.169 12.1136 11.5266 11.8499 11.7904C11.5862 12.0541 11.2285 12.2022 10.8555 12.2022Z" fill="black"/>
</g>
<rect x="3" y="20.2002" width="7.99957" height="9.6" rx="2" stroke="black" stroke-width="0.5"/>
<path d="M6 29H8V33H6V29Z" stroke="black" stroke-width="0.5" stroke-linejoin="round"/>
<path d="M6 29H8V33H6V29Z" stroke="black" stroke-width="0.5" stroke-linejoin="round"/>
<rect x="5" y="27" width="4" height="3" rx="1" stroke="black" stroke-width="0.5"/>
<rect x="9" y="18.0669" width="3.99978" height="1.06667" rx="0.533333" stroke="black" stroke-width="0.5"/>
<rect x="1" y="18.0669" width="3.99978" height="1.06667" rx="0.533333" stroke="black" stroke-width="0.5"/>
<path d="M5.5 18C5.5 17.1716 6.17157 16.5 7 16.5V16.5C7.82843 16.5 8.5 17.1716 8.5 18V18C8.5 18.8284 7.82843 19.5 7 19.5V19.5C6.17157 19.5 5.5 18.8284 5.5 18V18Z" stroke="black" stroke-width="0.5"/>
<line x1="5" y1="22.0835" x2="8.99978" y2="22.0835" stroke="black" stroke-width="0.5"/>
<line x1="5" y1="23.1499" x2="8.99978" y2="23.1499" stroke="black" stroke-width="0.5"/>
<line x1="5" y1="24.2168" x2="8.99978" y2="24.2168" stroke="black" stroke-width="0.5"/>
<defs>
<clipPath id="clip0_959_2069">
<rect width="15" height="15" fill="white"/>
</clipPath>
</defs>
</svg>
