<svg width="41" height="20" viewBox="0 0 41 20" fill="none" xmlns="http://www.w3.org/2000/svg">
<path d="M15.2344 3.65014L17.2344 3.5V6.5L15.2344 6.73206V3.65014Z" stroke="black" stroke-width="0.5" stroke-linejoin="round"/>
<path d="M5 5.20323L15 5V6.5L5 7.5V5.20323Z" stroke="black" stroke-width="0.5" stroke-linejoin="round"/>
<path d="M24 1L25.4219 1.5L26.4219 5.80968L23 6L24 1Z" stroke="black" stroke-width="0.5" stroke-linejoin="round"/>
<path d="M5.50052 18.0002L1.72272 9.31692C1.44861 8.68687 1.87691 7.97444 2.56192 7.921L40.0015 5.0002" stroke="black" stroke-width="0.5"/>
<path d="M40 5L37.5 11L35 17" stroke="black" stroke-width="0.5" stroke-linecap="round"/>
<line x1="4.46784" y1="13.4698" x2="35.4698" y2="11.5322" stroke="black" stroke-linecap="round"/>
<path d="M1 17.25L2.881 17.9554C4.21842 18.4569 5.71226 18.3147 6.93106 17.5699L7.15689 17.4319C8.58218 16.5609 10.3864 16.6094 11.7628 17.5557V17.5557C12.8569 18.3078 14.2404 18.5032 15.4999 18.0834L16.5157 17.7448C17.4385 17.4372 18.4547 17.6289 19.2019 18.2516V18.2516C20.2435 19.1196 21.7565 19.1196 22.7981 18.2516L23.7086 17.4928C24.7533 16.6223 26.2643 16.6005 27.3336 17.4407V17.4407C28.3249 18.2196 29.7075 18.2636 30.7463 17.5494L31.0674 17.3287C32.2315 16.5283 33.7685 16.5283 34.9326 17.3287L37 18.75" stroke="black" stroke-width="0.5" stroke-linecap="round"/>
</svg>
