<svg width="32" height="32" viewBox="0 0 32 32" fill="none" xmlns="http://www.w3.org/2000/svg">
<g clip-path="url(#clip0_969_4900)">
<path d="M19.0006 31.3596H13.0006V30.6396H19.0006V31.3596ZM20.0006 29.3596H12.0006V28.6396H20.0006V29.3596ZM20.0006 27.3596H12.0006V26.6396H20.0006V27.3596ZM20.0006 25.3596H12.0006C11.8016 25.3596 11.6406 25.1986 11.6406 24.9996V23.5466C11.6406 21.9246 11.6406 19.4736 9.59963 17.3516C7.69163 15.3656 6.64062 12.8486 6.64062 10.2646C6.64062 4.86763 10.7516 0.640625 16.0006 0.640625C21.2496 0.640625 25.3606 4.86763 25.3606 10.2646C25.3606 12.8486 24.3096 15.3666 22.4016 17.3506C20.3606 19.4736 20.3606 21.9246 20.3606 23.5466V24.9996C20.3606 25.1986 20.1996 25.3596 20.0006 25.3596ZM12.3606 24.6396H19.6406V23.5466C19.6406 21.9146 19.6406 19.1836 21.8826 16.8516C23.6606 15.0006 24.6406 12.6616 24.6406 10.2636C24.6406 5.27063 20.8456 1.35963 16.0006 1.35963C11.1556 1.35963 7.36063 5.27063 7.36063 10.2636C7.36063 12.6616 8.33963 15.0006 10.1186 16.8516C12.3606 19.1836 12.3606 21.9146 12.3606 23.5466V24.6396Z" fill="black"/>
</g>
<defs>
<clipPath id="clip0_969_4900">
<rect width="32" height="32" fill="white"/>
</clipPath>
</defs>
</svg>
