<svg width="32" height="32" viewBox="0 0 32 32" fill="none" xmlns="http://www.w3.org/2000/svg">
<g clip-path="url(#clip0_941_2065)">
<path d="M25.6886 31.1791L22.2656 25.1791L22.8906 24.8221L26.3136 30.8221L25.6886 31.1791ZM6.31262 31.1791L5.68762 30.8221L9.11062 24.8221L9.73562 25.1791L6.31262 31.1791ZM26.0006 23.3601H6.00063C5.80163 23.3601 5.64062 23.1991 5.64062 23.0001V9.00014C5.64062 5.49314 8.49363 2.64014 12.0006 2.64014H20.0006C23.5076 2.64014 26.3606 5.49314 26.3606 9.00014V23.0001C26.3606 23.1991 26.1996 23.3601 26.0006 23.3601ZM6.36063 22.6401H25.6406V9.00014C25.6406 5.89014 23.1116 3.36014 20.0006 3.36014H12.0006C8.89063 3.36014 6.36063 5.89014 6.36063 9.00014V22.6401ZM22.5006 20.3601C21.4756 20.3601 20.6406 19.5251 20.6406 18.5001C20.6406 17.4751 21.4756 16.6401 22.5006 16.6401C23.5256 16.6401 24.3606 17.4741 24.3606 18.5001C24.3606 19.5261 23.5256 20.3601 22.5006 20.3601ZM22.5006 17.3601C21.8716 17.3601 21.3606 17.8711 21.3606 18.5001C21.3606 19.1291 21.8716 19.6401 22.5006 19.6401C23.1296 19.6401 23.6406 19.1291 23.6406 18.5001C23.6406 17.8711 23.1296 17.3601 22.5006 17.3601ZM9.50063 20.3601C8.47563 20.3601 7.64062 19.5251 7.64062 18.5001C7.64062 17.4751 8.47463 16.6401 9.50063 16.6401C10.5266 16.6401 11.3606 17.4741 11.3606 18.5001C11.3606 19.5261 10.5256 20.3601 9.50063 20.3601ZM9.50063 17.3601C8.87263 17.3601 8.36062 17.8711 8.36062 18.5001C8.36062 19.1291 8.87263 19.6401 9.50063 19.6401C10.1286 19.6401 10.6406 19.1291 10.6406 18.5001C10.6406 17.8711 10.1286 17.3601 9.50063 17.3601ZM24.0006 15.3601H8.00063C7.80163 15.3601 7.64062 15.1991 7.64062 15.0001V9.00014C7.64062 6.59614 9.59663 4.64014 12.0006 4.64014H20.0006C22.4046 4.64014 24.3606 6.59614 24.3606 9.00014V15.0001C24.3606 15.1991 24.1996 15.3601 24.0006 15.3601ZM8.36062 14.6401H23.6406V9.00014C23.6406 6.99314 22.0076 5.36014 20.0006 5.36014H12.0006C9.99363 5.36014 8.36062 6.99314 8.36062 9.00014V14.6401Z" fill="black"/>
</g>
<defs>
<clipPath id="clip0_941_2065">
<rect width="32" height="32" fill="white"/>
</clipPath>
</defs>
</svg>
