<svg width="27" height="31" viewBox="0 0 27 31" fill="none" xmlns="http://www.w3.org/2000/svg">
<path d="M25.36 30.72H1.36C1.161 30.72 1 30.559 1 30.36V13.72H0.36C0.161 13.72 0 13.559 0 13.36V7.36C0 7.161 0.161 7 0.36 7H7.617C6.639 6.299 6 5.152 6 3.86C6 1.732 7.731 0 9.86 0C11.407 0 12.745 0.915 13.36 2.232C13.975 0.915 15.313 0 16.86 0C18.988 0 20.72 1.731 20.72 3.86C20.72 5.152 20.08 6.299 19.103 7H26.36C26.559 7 26.72 7.161 26.72 7.36V13.36C26.72 13.559 26.559 13.72 26.36 13.72H25.72V30.36C25.72 30.559 25.559 30.72 25.36 30.72ZM13.72 30H25V13.72H13.72V30ZM1.72 30H13V13.72H1.72V30ZM13.72 13H26V7.72H13.72V13ZM0.72 13H13V7.72H0.72V13ZM13.72 7H16.86C18.591 7 20 5.591 20 3.86C20 2.129 18.592 0.72 16.86 0.72C15.128 0.72 13.72 2.129 13.72 3.86V7ZM9.86 7H13V3.86C13 2.129 11.591 0.72 9.86 0.72C8.129 0.72 6.72 2.129 6.72 3.86C6.72 5.591 8.129 7 9.86 7Z" fill="black"/>
</svg>
