<svg width="32" height="32" viewBox="0 0 32 32" fill="none" xmlns="http://www.w3.org/2000/svg">
<g clip-path="url(#clip0_969_4224)">
<path fill-rule="evenodd" clip-rule="evenodd" d="M9 3.50014C8.724 3.50014 8.5 3.72414 8.5 4.00014C8.5 4.27614 8.724 4.50014 9 4.50014C9.276 4.50014 9.5 4.27614 9.5 4.00014C9.5 3.72414 9.276 3.50014 9 3.50014ZM5 3.50014C4.724 3.50014 4.5 3.72414 4.5 4.00014C4.5 4.27614 4.724 4.50014 5 4.50014C5.276 4.50014 5.5 4.27614 5.5 4.00014C5.5 3.72414 5.276 3.50014 5 3.50014ZM7 6.50014C6.724 6.50014 6.5 6.72414 6.5 7.00014C6.5 7.27614 6.724 7.50014 7 7.50014C7.276 7.50014 7.5 7.27614 7.5 7.00014C7.5 6.72414 7.276 6.50014 7 6.50014ZM2 4.50014C1.724 4.50014 1.5 4.72414 1.5 5.00014C1.5 5.27614 1.724 5.50014 2 5.50014C2.276 5.50014 2.5 5.27614 2.5 5.00014C2.5 4.72414 2.276 4.50014 2 4.50014ZM4 8.50014C3.724 8.50014 3.5 8.72414 3.5 9.00014C3.5 9.27614 3.724 9.50014 4 9.50014C4.276 9.50014 4.5 9.27614 4.5 9.00014C4.5 8.72414 4.276 8.50014 4 8.50014ZM2 9.50014C1.724 9.50014 1.5 9.72414 1.5 10.0001C1.5 10.2761 1.724 10.5001 2 10.5001C2.276 10.5001 2.5 10.2761 2.5 10.0001C2.5 9.72414 2.276 9.50014 2 9.50014ZM5 10.5001C4.724 10.5001 4.5 10.7241 4.5 11.0001C4.5 11.2761 4.724 11.5001 5 11.5001C5.276 11.5001 5.5 11.2761 5.5 11.0001C5.5 10.7241 5.276 10.5001 5 10.5001ZM3 11.5001C2.724 11.5001 2.5 11.7241 2.5 12.0001C2.5 12.2761 2.724 12.5001 3 12.5001C3.276 12.5001 3.5 12.2761 3.5 12.0001C3.5 11.7241 3.276 11.5001 3 11.5001ZM6 12.5001C5.724 12.5001 5.5 12.7241 5.5 13.0001C5.5 13.2761 5.724 13.5001 6 13.5001C6.276 13.5001 6.5 13.2761 6.5 13.0001C6.5 12.7241 6.276 12.5001 6 12.5001ZM1.5 13.5001C1.224 13.5001 1 13.7241 1 14.0001C1 14.2761 1.224 14.5001 1.5 14.5001C1.776 14.5001 2 14.2761 2 14.0001C2 13.7241 1.776 13.5001 1.5 13.5001ZM4 14.5001C3.724 14.5001 3.5 14.7241 3.5 15.0001C3.5 15.2761 3.724 15.5001 4 15.5001C4.276 15.5001 4.5 15.2761 4.5 15.0001C4.5 14.7241 4.276 14.5001 4 14.5001ZM2.5 15.5001C2.224 15.5001 2 15.7241 2 16.0001C2 16.2761 2.224 16.5001 2.5 16.5001C2.776 16.5001 3 16.2761 3 16.0001C3 15.7241 2.776 15.5001 2.5 15.5001ZM4 17.5001C3.724 17.5001 3.5 17.7241 3.5 18.0001C3.5 18.2761 3.724 18.5001 4 18.5001C4.276 18.5001 4.5 18.2761 4.5 18.0001C4.5 17.7241 4.276 17.5001 4 17.5001ZM7 17.5001C6.724 17.5001 6.5 17.7241 6.5 18.0001C6.5 18.2761 6.724 18.5001 7 18.5001C7.276 18.5001 7.5 18.2761 7.5 18.0001C7.5 17.7241 7.276 17.5001 7 17.5001ZM7 20.5001C6.724 20.5001 6.5 20.7241 6.5 21.0001C6.5 21.2761 6.724 21.5001 7 21.5001C7.276 21.5001 7.5 21.2761 7.5 21.0001C7.5 20.7241 7.276 20.5001 7 20.5001ZM3 20.5001C2.724 20.5001 2.5 20.7241 2.5 21.0001C2.5 21.2761 2.724 21.5001 3 21.5001C3.276 21.5001 3.5 21.2761 3.5 21.0001C3.5 20.7241 3.276 20.5001 3 20.5001ZM6 22.5001C5.724 22.5001 5.5 22.7241 5.5 23.0001C5.5 23.2761 5.724 23.5001 6 23.5001C6.276 23.5001 6.5 23.2761 6.5 23.0001C6.5 22.7241 6.276 22.5001 6 22.5001ZM4 23.5001C3.724 23.5001 3.5 23.7241 3.5 24.0001C3.5 24.2761 3.724 24.5001 4 24.5001C4.276 24.5001 4.5 24.2761 4.5 24.0001C4.5 23.7241 4.276 23.5001 4 23.5001ZM11 23.5001C10.724 23.5001 10.5 23.7241 10.5 24.0001C10.5 24.2761 10.724 24.5001 11 24.5001C11.276 24.5001 11.5 24.2761 11.5 24.0001C11.5 23.7241 11.276 23.5001 11 23.5001ZM8 25.5001C7.724 25.5001 7.5 25.7241 7.5 26.0001C7.5 26.2761 7.724 26.5001 8 26.5001C8.276 26.5001 8.5 26.2761 8.5 26.0001C8.5 25.7241 8.276 25.5001 8 25.5001ZM5 26.5001C4.724 26.5001 4.5 26.7241 4.5 27.0001C4.5 27.2761 4.724 27.5001 5 27.5001C5.276 27.5001 5.5 27.2761 5.5 27.0001C5.5 26.7241 5.276 26.5001 5 26.5001ZM4 28.5001C3.724 28.5001 3.5 28.7241 3.5 29.0001C3.5 29.2761 3.724 29.5001 4 29.5001C4.276 29.5001 4.5 29.2761 4.5 29.0001C4.5 28.7241 4.276 28.5001 4 28.5001ZM12 27.5001C11.724 27.5001 11.5 27.7241 11.5 28.0001C11.5 28.2761 11.724 28.5001 12 28.5001C12.276 28.5001 12.5 28.2761 12.5 28.0001C12.5 27.7241 12.276 27.5001 12 27.5001ZM14 30.0001C13.724 30.0001 13.5 30.2241 13.5 30.5001C13.5 30.7761 13.724 31.0001 14 31.0001C14.276 31.0001 14.5 30.7761 14.5 30.5001C14.5 30.2241 14.276 30.0001 14 30.0001ZM19 26.5001C18.724 26.5001 18.5 26.7241 18.5 27.0001C18.5 27.2761 18.724 27.5001 19 27.5001C19.276 27.5001 19.5 27.2761 19.5 27.0001C19.5 26.7241 19.276 26.5001 19 26.5001ZM19.5 0.640137C12.96 0.640137 7.64 5.96014 7.64 12.5001C7.64 19.0401 12.96 24.3601 19.5 24.3601C26.04 24.3601 31.36 19.0401 31.36 12.5001C31.36 5.96014 26.04 0.640137 19.5 0.640137ZM19.5 23.6401C13.357 23.6401 8.36 18.6431 8.36 12.5001C8.36 6.35714 13.357 1.36014 19.5 1.36014C25.643 1.36014 30.64 6.35714 30.64 12.5001C30.64 18.6431 25.643 23.6401 19.5 23.6401ZM15.254 15.2541L14.009 16.5001L15.254 17.7451L14.745 18.2551L13.5 17.0091L12.254 18.2551L11.745 17.7451L12.99 16.5001L11.745 15.2541L12.254 14.7451L13.5 15.9901L14.746 14.7451L15.254 15.2541ZM26.255 13.2541L25.009 14.5001L26.255 15.7461L25.745 16.2551L24.5 15.0091L23.255 16.2541L22.745 15.7451L23.991 14.4991L22.745 13.2531L23.255 12.7441L24.5 13.9891L25.745 12.7441L26.255 13.2541ZM20.255 6.25414L19.009 7.50014L20.255 8.74614L19.745 9.25514L18.5 8.00914L17.255 9.25414L16.746 8.74514L17.991 7.50014L16.746 6.25414L17.255 5.74514L18.5 6.99114L19.745 5.74614L20.255 6.25414Z" fill="black"/>
</g>
<defs>
<clipPath id="clip0_969_4224">
<rect width="32" height="32" fill="white"/>
</clipPath>
</defs>
</svg>
