<svg width="32" height="32" viewBox="0 0 32 32" fill="none" xmlns="http://www.w3.org/2000/svg">
<g clip-path="url(#clip0_969_4951)">
<path d="M16.3926 21.6786C18.6116 21.8806 20.3606 23.7296 20.3606 25.9996C20.3606 26.1986 20.1996 26.3596 20.0006 26.3596C19.8016 26.3596 19.6406 26.1986 19.6406 25.9996C19.6406 24.1156 18.1966 22.5806 16.3606 22.3966V30.9996C16.3606 31.1986 16.1996 31.3596 16.0006 31.3596C15.8016 31.3596 15.6406 31.1986 15.6406 30.9996V22.3966C13.8046 22.5806 12.3606 24.1166 12.3606 25.9996C12.3606 26.1986 12.1996 26.3596 12.0006 26.3596C11.8016 26.3596 11.6406 26.1986 11.6406 25.9996C11.6406 23.7296 13.3896 21.8806 15.6086 21.6786C15.4436 19.8237 13.8986 18.3596 12.0006 18.3596C9.99362 18.3596 8.36062 19.9926 8.36062 21.9996C8.36062 22.1986 8.19963 22.3596 8.00063 22.3596C7.80163 22.3596 7.64062 22.1986 7.64062 21.9996C7.64062 19.5956 9.59662 17.6396 12.0006 17.6396C13.5226 17.6396 14.8606 18.4256 15.6406 19.6116V17.9996C15.6406 14.8896 13.1106 12.3596 10.0006 12.3596C6.89062 12.3596 4.36063 14.8896 4.36063 17.9996C4.36063 18.1986 4.19963 18.3596 4.00063 18.3596C3.80163 18.3596 3.64062 18.1986 3.64062 17.9996C3.64062 14.4926 6.49362 11.6396 10.0006 11.6396C12.4516 11.6396 14.5796 13.0356 15.6406 15.0716V11.9996C15.6406 9.99265 14.0076 8.35965 12.0006 8.35965C11.8016 8.35965 11.6406 8.19865 11.6406 7.99965C11.6406 7.80065 11.8016 7.63965 12.0006 7.63965C13.5226 7.63965 14.8606 8.42565 15.6406 9.61065V3.99965C15.6406 3.80065 15.8016 3.63965 16.0006 3.63965C16.1996 3.63965 16.3606 3.80065 16.3606 3.99965V9.61065C17.1406 8.42565 18.4786 7.63965 20.0006 7.63965C20.1996 7.63965 20.3606 7.80065 20.3606 7.99965C20.3606 8.19865 20.1996 8.35965 20.0006 8.35965C17.9936 8.35965 16.3606 9.99265 16.3606 11.9996V15.0726C17.4216 13.0366 19.5496 11.6406 22.0006 11.6406C25.5076 11.6406 28.3606 14.4936 28.3606 18.0006C28.3606 18.1996 28.1996 18.3606 28.0006 18.3606C27.8016 18.3606 27.6406 18.1996 27.6406 18.0006C27.6406 14.8906 25.1116 12.3606 22.0006 12.3606C18.8896 12.3606 16.3606 14.8906 16.3606 18.0006V19.6116C17.1406 18.4266 18.4786 17.6396 20.0006 17.6396C22.4046 17.6396 24.3606 19.5956 24.3606 21.9996C24.3606 22.1986 24.1996 22.3596 24.0006 22.3596C23.8016 22.3596 23.6406 22.1986 23.6406 21.9996C23.6406 19.9926 22.0076 18.3596 20.0006 18.3596C18.1036 18.3596 16.5586 19.8246 16.3926 21.6786ZM16.0006 0.639648C7.53062 0.639648 0.640625 7.52965 0.640625 15.9996C0.640625 21.6656 3.74563 26.8536 8.74463 29.5376C8.79862 29.5666 8.85762 29.5806 8.91462 29.5806C9.04262 29.5806 9.16763 29.5117 9.23263 29.3906C9.32662 29.2157 9.26062 28.9976 9.08562 28.9036C4.32062 26.3446 1.36063 21.3996 1.36063 15.9996C1.36063 7.92665 7.92762 1.35965 16.0006 1.35965C24.0726 1.35965 30.6406 7.92665 30.6406 15.9996C30.6406 21.2006 27.8286 26.0536 23.3016 28.6626C23.1296 28.7617 23.0706 28.9816 23.1696 29.1536C23.2706 29.3266 23.4906 29.3856 23.6606 29.2856C28.4096 26.5486 31.3606 21.4576 31.3606 15.9996C31.3606 7.52965 24.4706 0.639648 16.0006 0.639648Z" fill="black"/>
</g>
<defs>
<clipPath id="clip0_969_4951">
<rect width="32" height="32" fill="white"/>
</clipPath>
</defs>
</svg>
