<svg width="32" height="32" viewBox="0 0 32 32" fill="none" xmlns="http://www.w3.org/2000/svg">
<g clip-path="url(#clip0_941_2083)">
<path d="M28.0006 31.3601H25.0006C24.8016 31.3601 24.6406 31.1991 24.6406 31.0001V27.3601H7.36063V31.0001C7.36063 31.1991 7.19963 31.3601 7.00063 31.3601H4.00063C3.80163 31.3601 3.64062 31.1991 3.64062 31.0001V27.0001H3.74862C3.08262 26.5821 2.64062 25.8421 2.64062 25.0001V3.00014C2.64062 1.69914 3.69963 0.640137 5.00063 0.640137H27.0006C28.3026 0.640137 29.3606 1.69914 29.3606 3.00014V25.0001C29.3606 25.8421 28.9176 26.5821 28.2526 27.0001H28.3606V31.0001C28.3606 31.1991 28.1996 31.3601 28.0006 31.3601ZM25.3606 30.6401H27.6396V27.2721C27.4366 27.3301 27.2216 27.3611 26.9996 27.3611H25.3596L25.3606 30.6401ZM4.36063 30.6401H6.64062V27.3601H5.00063C4.77863 27.3601 4.56363 27.3291 4.36063 27.2711V30.6401ZM3.36062 16.3601V25.0001C3.36062 25.9041 4.09663 26.6401 5.00063 26.6401H27.0006C27.9046 26.6401 28.6406 25.9051 28.6406 25.0001V16.3601H3.36062ZM3.36062 15.6401H28.6406V4.36014H3.36062V15.6401ZM3.36062 3.64014H28.6406V3.00014C28.6406 2.09614 27.9056 1.36014 27.0006 1.36014H5.00063C4.09663 1.36014 3.36062 2.09614 3.36062 3.00014V3.64014ZM25.0006 24.3601C23.6986 24.3601 22.6406 23.3011 22.6406 22.0001C22.6406 20.6991 23.6996 19.6401 25.0006 19.6401C26.3016 19.6401 27.3606 20.6991 27.3606 22.0001C27.3606 23.3011 26.3026 24.3601 25.0006 24.3601ZM25.0006 20.3601C24.0966 20.3601 23.3606 21.0951 23.3606 22.0001C23.3606 22.9051 24.0956 23.6401 25.0006 23.6401C25.9056 23.6401 26.6406 22.9051 26.6406 22.0001C26.6406 21.0951 25.9046 20.3601 25.0006 20.3601ZM7.00063 24.3601C5.69963 24.3601 4.64062 23.3011 4.64062 22.0001C4.64062 20.6991 5.69963 19.6401 7.00063 19.6401C8.30163 19.6401 9.36062 20.6981 9.36062 22.0001C9.36062 23.3021 8.30163 24.3601 7.00063 24.3601ZM7.00063 20.3601C6.09663 20.3601 5.36063 21.0951 5.36063 22.0001C5.36063 22.9051 6.09663 23.6401 7.00063 23.6401C7.90462 23.6401 8.64062 22.9041 8.64062 22.0001C8.64062 21.0961 7.90462 20.3601 7.00063 20.3601ZM21.0006 23.3601H11.0006V22.6401H21.0006V23.3601ZM21.0006 21.3601H11.0006V20.6401H21.0006V21.3601ZM21.6886 13.6441L17.6886 6.71614L18.3116 6.35614L22.3116 13.2841L21.6886 13.6441ZM31.3606 11.0001H30.6406V5.00014H31.3616L31.3606 11.0001ZM1.36063 11.0001H0.640625V5.00014H1.36063V11.0001ZM22.6886 10.9121L20.6886 7.44814L21.3116 7.08814L23.3116 10.5521L22.6886 10.9121Z" fill="black"/>
</g>
<defs>
<clipPath id="clip0_941_2083">
<rect width="32" height="32" fill="white"/>
</clipPath>
</defs>
</svg>
