<svg width="32" height="32" viewBox="0 0 32 32" fill="none" xmlns="http://www.w3.org/2000/svg">
<g clip-path="url(#clip0_941_9319)">
<path d="M21.0006 31.3596H11.0006V30.6396H15.6406V17.3496C12.3006 17.1626 9.64062 14.3866 9.64062 10.9996V0.999648C9.64062 0.800648 9.80162 0.639648 10.0006 0.639648H20.0006C20.1466 0.639648 20.2776 0.726648 20.3336 0.861648C20.3896 0.995648 20.3576 1.15065 20.2556 1.25365L17.5096 3.99965L19.2556 5.74565C19.3966 5.88665 19.3966 6.11365 19.2556 6.25465L16.2556 9.25465L15.7466 8.74565L18.4916 5.99965L16.7456 4.25365C16.6046 4.11265 16.6046 3.88565 16.7456 3.74465L19.1306 1.35865H10.3606V10.9996C10.3606 14.1096 12.8906 16.6396 16.0006 16.6396C19.1106 16.6396 21.6406 14.1096 21.6406 10.9996V2.99965H22.3616V10.9996C22.3616 14.3856 19.7016 17.1626 16.3616 17.3496V30.6396H21.0006V31.3596Z" fill="black"/>
</g>
<defs>
<clipPath id="clip0_941_9319">
<rect width="32" height="32" fill="white"/>
</clipPath>
</defs>
</svg>
