<svg width="33" height="29" viewBox="0 0 33 29" fill="none" xmlns="http://www.w3.org/2000/svg">
<g clip-path="url(#clip0_941_9343)">
<path d="M32.6637 37.0662H32.2812V36.2311C32.2812 35.1947 31.6156 34.2639 30.6243 33.9154C30.552 33.8899 30.5026 33.8246 30.4968 33.7486C30.4915 33.6726 30.5313 33.6009 30.5993 33.5653C31.1693 33.2683 31.5237 32.6909 31.5237 32.0576C31.5237 31.1168 30.7582 30.3518 29.8162 30.3518C28.8743 30.3518 28.1088 31.1168 28.1088 32.0576C28.1088 32.6903 28.4632 33.2683 29.0332 33.5653C29.1012 33.6004 29.141 33.6726 29.1357 33.7486C29.1299 33.8251 29.0805 33.8904 29.0082 33.9154C28.0169 34.2639 27.3513 35.1947 27.3513 36.2311V37.0662H26.9688V36.2311C26.9688 35.1947 26.3031 34.2639 25.3118 33.9154C25.2395 33.8899 25.1901 33.8246 25.1843 33.7486C25.179 33.6726 25.2188 33.6009 25.2868 33.5653C25.8568 33.2683 26.2112 32.6909 26.2112 32.0576C26.2112 31.1168 25.4457 30.3518 24.5037 30.3518C23.5624 30.3518 22.7963 31.1168 22.7963 32.0576C22.7963 32.6903 23.1507 33.2683 23.7207 33.5653C23.7882 33.6004 23.8285 33.6726 23.8232 33.7486C23.8179 33.8251 23.768 33.8904 23.6962 33.9154C22.7049 34.2639 22.0387 35.1947 22.0387 36.2311V37.0662H21.6562V36.2311C21.6562 35.1947 20.9901 34.2639 19.9987 33.9154C19.927 33.8899 19.8771 33.8246 19.8718 33.7486C19.8665 33.6726 19.9063 33.6009 19.9743 33.5653C20.5443 33.2683 20.8987 32.6909 20.8987 32.0576C20.8987 31.1168 20.1326 30.3518 19.1913 30.3518C18.2499 30.3518 17.4838 31.1168 17.4838 32.0576C17.4838 32.6903 17.8382 33.2683 18.4082 33.5653C18.4757 33.6004 18.516 33.6726 18.5107 33.7486C18.5054 33.8251 18.4555 33.8904 18.3837 33.9154C17.3924 34.2639 16.7263 35.1947 16.7263 36.2311V37.0662H16.3438V36.2311C16.3438 35.1569 16.9611 34.1816 17.9131 33.7008C17.4052 33.3093 17.1018 32.7073 17.1018 32.0571C17.1018 30.9053 18.0395 29.9687 19.1918 29.9687C20.3441 29.9687 21.2817 30.9053 21.2817 32.0571C21.2817 32.7073 20.9784 33.3087 20.4705 33.7008C21.1085 34.0222 21.5962 34.5673 21.8486 35.2148C22.1009 34.5673 22.5886 34.0227 23.2266 33.7008C22.7187 33.3093 22.4154 32.7073 22.4154 32.0571C22.4154 30.9053 23.3531 29.9687 24.5053 29.9687C25.6576 29.9687 26.5958 30.9053 26.5958 32.0571C26.5958 32.7073 26.2919 33.3087 25.7841 33.7008C26.4221 34.0227 26.9098 34.5673 27.1621 35.2148C27.4145 34.5673 27.9022 34.0233 28.5402 33.7008C28.0323 33.3093 27.7284 32.7073 27.7284 32.0571C27.7284 30.9053 28.6666 29.9687 29.8189 29.9687C30.9712 29.9687 31.9094 30.9053 31.9094 32.0571C31.9094 32.7073 31.6055 33.3087 31.0976 33.7008C32.0496 34.181 32.6669 35.1564 32.6669 36.2311V37.0662H32.6637ZM32.6637 29.0975H32.2812V28.2624C32.2812 27.2259 31.6156 26.2952 30.6243 25.9467C30.552 25.9212 30.5026 25.8558 30.4968 25.7798C30.4915 25.7039 30.5318 25.6316 30.5993 25.5966C31.1693 25.2996 31.5237 24.7221 31.5237 24.0894C31.5237 23.1486 30.7582 22.383 29.8162 22.383C28.8743 22.383 28.1088 23.1486 28.1088 24.0894C28.1088 24.7227 28.4632 25.3001 29.0332 25.5966C29.1007 25.6316 29.141 25.7039 29.1357 25.7798C29.1299 25.8558 29.0805 25.9217 29.0082 25.9467C28.0169 26.2952 27.3513 27.2259 27.3513 28.2624V29.0975H26.9688V28.2624C26.9688 27.2259 26.3031 26.2952 25.3118 25.9467C25.2395 25.9212 25.1901 25.8558 25.1843 25.7798C25.179 25.7039 25.2193 25.6316 25.2868 25.5966C25.8568 25.2996 26.2112 24.7221 26.2112 24.0894C26.2112 23.1486 25.4457 22.383 24.5037 22.383C23.5624 22.383 22.7963 23.1486 22.7963 24.0894C22.7963 24.7227 23.1507 25.3001 23.7207 25.5966C23.7882 25.6316 23.8285 25.7039 23.8232 25.7798C23.8179 25.8558 23.768 25.9217 23.6962 25.9467C22.7049 26.2952 22.0387 27.2259 22.0387 28.2624V29.0975H21.6562V28.2624C21.6562 27.2254 20.9901 26.2946 19.9987 25.9467C19.927 25.9212 19.8771 25.8553 19.8718 25.7793C19.8665 25.7033 19.9063 25.6311 19.9743 25.596C20.5443 25.2996 20.8987 24.7216 20.8987 24.0889C20.8987 23.148 20.1326 22.3825 19.1913 22.3825C18.2499 22.3825 17.4838 23.148 17.4838 24.0889C17.4838 24.7221 17.8382 25.2996 18.4082 25.596C18.4757 25.6311 18.516 25.7033 18.5107 25.7793C18.5054 25.8553 18.4555 25.9212 18.3837 25.9461C17.3924 26.2946 16.7263 27.2254 16.7263 28.2618V29.0975H16.3438V28.2624C16.3438 27.1882 16.9611 26.2128 17.9131 25.732C17.4052 25.3405 17.1018 24.7386 17.1018 24.0889C17.1013 22.9371 18.039 22 19.1913 22C20.3435 22 21.2812 22.9371 21.2812 24.0889C21.2812 24.7386 20.9778 25.3405 20.47 25.732C21.108 26.054 21.5957 26.5985 21.848 27.2461C22.1004 26.5985 22.5881 26.054 23.2261 25.732C22.7182 25.3405 22.4149 24.7386 22.4149 24.0889C22.4149 22.9371 23.3525 22 24.5048 22C25.6571 22 26.5953 22.9371 26.5953 24.0889C26.5953 24.7386 26.2914 25.3405 25.7835 25.732C26.4216 26.054 26.9093 26.5985 27.1616 27.2461C27.4139 26.5985 27.9016 26.054 28.5397 25.732C28.0318 25.3405 27.7279 24.7386 27.7279 24.0889C27.7279 22.9371 28.6661 22 29.8184 22C30.9707 22 31.9088 22.9371 31.9088 24.0889C31.9088 24.7386 31.605 25.3405 31.0971 25.732C32.0491 26.2128 32.6664 27.1882 32.6664 28.2624V29.0975H32.6637Z" fill="black"/>
</g>
<g clip-path="url(#clip1_941_9343)">
<path d="M16.6637 37.0662H16.2812V36.2311C16.2812 35.1947 15.6156 34.2639 14.6243 33.9154C14.552 33.8899 14.5026 33.8246 14.4968 33.7486C14.4915 33.6726 14.5313 33.6009 14.5993 33.5653C15.1693 33.2683 15.5237 32.6909 15.5237 32.0576C15.5237 31.1168 14.7582 30.3518 13.8162 30.3518C12.8743 30.3518 12.1088 31.1168 12.1088 32.0576C12.1088 32.6903 12.4632 33.2683 13.0332 33.5653C13.1012 33.6004 13.141 33.6726 13.1357 33.7486C13.1299 33.8251 13.0805 33.8904 13.0082 33.9154C12.0169 34.2639 11.3513 35.1947 11.3513 36.2311V37.0662H10.9688V36.2311C10.9688 35.1947 10.3031 34.2639 9.31178 33.9154C9.23953 33.8899 9.19013 33.8246 9.18428 33.7486C9.17897 33.6726 9.21881 33.6009 9.28681 33.5653C9.85684 33.2683 10.2112 32.6909 10.2112 32.0576C10.2112 31.1168 9.44566 30.3518 8.50375 30.3518C7.56238 30.3518 6.79631 31.1168 6.79631 32.0576C6.79631 32.6903 7.15066 33.2683 7.72069 33.5653C7.78816 33.6004 7.82853 33.6726 7.82322 33.7486C7.81791 33.8251 7.76797 33.8904 7.69625 33.9154C6.70494 34.2639 6.03875 35.1947 6.03875 36.2311V37.0662H5.65625V36.2311C5.65625 35.1947 4.99006 34.2639 3.99875 33.9154C3.92703 33.8899 3.87709 33.8246 3.87178 33.7486C3.86647 33.6726 3.90631 33.6009 3.97431 33.5653C4.54434 33.2683 4.89869 32.6909 4.89869 32.0576C4.89869 31.1168 4.13263 30.3518 3.19125 30.3518C2.24988 30.3518 1.48381 31.1168 1.48381 32.0576C1.48381 32.6903 1.83816 33.2683 2.40819 33.5653C2.47566 33.6004 2.51603 33.6726 2.51072 33.7486C2.50541 33.8251 2.45547 33.8904 2.38375 33.9154C1.39244 34.2639 0.72625 35.1947 0.72625 36.2311V37.0662H0.34375V36.2311C0.34375 35.1569 0.961062 34.1816 1.91306 33.7008C1.40519 33.3093 1.10184 32.7073 1.10184 32.0571C1.10184 30.9053 2.0395 29.9687 3.19178 29.9687C4.34406 29.9687 5.28172 30.9053 5.28172 32.0571C5.28172 32.7073 4.97837 33.3087 4.4705 33.7008C5.10853 34.0222 5.59622 34.5673 5.84856 35.2148C6.10091 34.5673 6.58859 34.0227 7.22662 33.7008C6.71875 33.3093 6.41541 32.7073 6.41541 32.0571C6.41541 30.9053 7.35306 29.9687 8.50534 29.9687C9.65762 29.9687 10.5958 30.9053 10.5958 32.0571C10.5958 32.7073 10.2919 33.3087 9.78406 33.7008C10.4221 34.0227 10.9098 34.5673 11.1621 35.2148C11.4145 34.5673 11.9022 34.0233 12.5402 33.7008C12.0323 33.3093 11.7284 32.7073 11.7284 32.0571C11.7284 30.9053 12.6666 29.9687 13.8189 29.9687C14.9712 29.9687 15.9094 30.9053 15.9094 32.0571C15.9094 32.7073 15.6055 33.3087 15.0976 33.7008C16.0496 34.181 16.6669 35.1564 16.6669 36.2311V37.0662H16.6637ZM16.6637 29.0975H16.2812V28.2624C16.2812 27.2259 15.6156 26.2952 14.6243 25.9467C14.552 25.9212 14.5026 25.8558 14.4968 25.7798C14.4915 25.7039 14.5318 25.6316 14.5993 25.5966C15.1693 25.2996 15.5237 24.7221 15.5237 24.0894C15.5237 23.1486 14.7582 22.383 13.8162 22.383C12.8743 22.383 12.1088 23.1486 12.1088 24.0894C12.1088 24.7227 12.4632 25.3001 13.0332 25.5966C13.1007 25.6316 13.141 25.7039 13.1357 25.7798C13.1299 25.8558 13.0805 25.9217 13.0082 25.9467C12.0169 26.2952 11.3513 27.2259 11.3513 28.2624V29.0975H10.9688V28.2624C10.9688 27.2259 10.3031 26.2952 9.31178 25.9467C9.23953 25.9212 9.19013 25.8558 9.18428 25.7798C9.17897 25.7039 9.21935 25.6316 9.28681 25.5966C9.85684 25.2996 10.2112 24.7221 10.2112 24.0894C10.2112 23.1486 9.44566 22.383 8.50375 22.383C7.56238 22.383 6.79631 23.1486 6.79631 24.0894C6.79631 24.7227 7.15066 25.3001 7.72069 25.5966C7.78816 25.6316 7.82853 25.7039 7.82322 25.7798C7.81791 25.8558 7.76797 25.9217 7.69625 25.9467C6.70494 26.2952 6.03875 27.2259 6.03875 28.2624V29.0975H5.65625V28.2624C5.65625 27.2254 4.99006 26.2946 3.99875 25.9467C3.92703 25.9212 3.87709 25.8553 3.87178 25.7793C3.86647 25.7033 3.90631 25.6311 3.97431 25.596C4.54434 25.2996 4.89869 24.7216 4.89869 24.0889C4.89869 23.148 4.13263 22.3825 3.19125 22.3825C2.24988 22.3825 1.48381 23.148 1.48381 24.0889C1.48381 24.7221 1.83816 25.2996 2.40819 25.596C2.47566 25.6311 2.51603 25.7033 2.51072 25.7793C2.50541 25.8553 2.45547 25.9212 2.38375 25.9461C1.39244 26.2946 0.72625 27.2254 0.72625 28.2618V29.0975H0.34375V28.2624C0.34375 27.1882 0.961062 26.2128 1.91306 25.732C1.40519 25.3405 1.10184 24.7386 1.10184 24.0889C1.10131 22.9371 2.03897 22 3.19125 22C4.34353 22 5.28119 22.9371 5.28119 24.0889C5.28119 24.7386 4.97784 25.3405 4.46997 25.732C5.108 26.054 5.59569 26.5985 5.84803 27.2461C6.10037 26.5985 6.58806 26.054 7.22609 25.732C6.71822 25.3405 6.41487 24.7386 6.41487 24.0889C6.41487 22.9371 7.35253 22 8.50481 22C9.65709 22 10.5953 22.9371 10.5953 24.0889C10.5953 24.7386 10.2914 25.3405 9.78353 25.732C10.4216 26.054 10.9093 26.5985 11.1616 27.2461C11.4139 26.5985 11.9016 26.054 12.5397 25.732C12.0318 25.3405 11.7279 24.7386 11.7279 24.0889C11.7279 22.9371 12.6661 22 13.8184 22C14.9707 22 15.9088 22.9371 15.9088 24.0889C15.9088 24.7386 15.605 25.3405 15.0971 25.732C16.0491 26.2128 16.6664 27.1882 16.6664 28.2624V29.0975H16.6637Z" fill="black"/>
</g>
<path d="M0.35 0.35H32.65V19.65H0.35V0.35Z" stroke="black" stroke-width="0.7"/>
<g clip-path="url(#clip2_941_9343)">
<path d="M13.2195 12.49C13.5711 12.49 13.857 12.2422 13.857 11.9375C13.857 11.6328 13.5711 11.385 13.2195 11.385C12.868 11.385 12.582 11.6328 12.582 11.9375C12.582 12.2422 12.868 12.49 13.2195 12.49ZM13.2195 11.6775C13.385 11.6775 13.5195 11.7941 13.5195 11.9375C13.5195 12.0809 13.385 12.1975 13.2195 12.1975C13.0541 12.1975 12.9195 12.0809 12.9195 11.9375C12.9195 11.7941 13.0541 11.6775 13.2195 11.6775ZM16.032 12.49C16.3836 12.49 16.6695 12.2422 16.6695 11.9375C16.6695 11.6328 16.3836 11.385 16.032 11.385C15.6805 11.385 15.3945 11.6328 15.3945 11.9375C15.3945 12.2422 15.6805 12.49 16.032 12.49ZM16.032 11.6775C16.1975 11.6775 16.332 11.7941 16.332 11.9375C16.332 12.0809 16.1975 12.1975 16.032 12.1975C15.8666 12.1975 15.732 12.0809 15.732 11.9375C15.732 11.7941 15.8666 11.6775 16.032 11.6775ZM18.8445 12.49C19.1961 12.49 19.482 12.2422 19.482 11.9375C19.482 11.6328 19.1961 11.385 18.8445 11.385C18.493 11.385 18.207 11.6328 18.207 11.9375C18.207 12.2422 18.493 12.49 18.8445 12.49ZM18.8445 11.6775C19.01 11.6775 19.1445 11.7941 19.1445 11.9375C19.1445 12.0809 19.01 12.1975 18.8445 12.1975C18.6791 12.1975 18.5445 12.0809 18.5445 11.9375C18.5445 11.7941 18.6791 11.6775 18.8445 11.6775ZM23.1828 10.2089L22.2453 9.39641C22.1966 9.35416 22.1239 9.34156 22.0611 9.36472C21.9983 9.38747 21.957 9.44069 21.957 9.5V10.3125C21.957 11.0832 21.2708 11.7104 20.4017 11.7778C20.3609 11.4744 20.2114 11.1916 19.9583 10.9722C19.363 10.4563 18.3261 10.4563 17.7308 10.9722C17.6075 11.0791 17.5133 11.203 17.4383 11.3342C17.3633 11.203 17.2691 11.0791 17.1458 10.9722C16.8898 10.75 16.5505 10.6298 16.2008 10.5989V9.24H16.9695C18.6134 9.24 19.9508 8.08097 19.9508 6.65625C19.9508 5.23153 18.6134 4.0725 16.9695 4.0725H16.2008V3.40625H15.8633V4.0725H12.282C12.1887 4.0725 12.1133 4.13791 12.1133 4.21875C12.1133 4.29959 12.1887 4.365 12.282 4.365C13.7398 4.365 14.9258 5.39281 14.9258 6.65625C14.9258 7.91969 13.7398 8.9475 12.282 8.9475C12.1887 8.9475 12.1133 9.01291 12.1133 9.09375C12.1133 9.17459 12.1887 9.24 12.282 9.24H15.8633V10.5989C15.5136 10.6298 15.1742 10.75 14.9183 10.9722C14.795 11.0791 14.7008 11.2034 14.6253 11.335C14.3675 10.8853 13.8369 10.5725 13.2191 10.5725C12.4137 10.5725 11.7552 11.1014 11.6628 11.7782C10.7933 11.7108 10.107 11.0832 10.107 10.3125H9.76953V12.75C9.76953 13.7266 10.6864 14.5212 11.8133 14.5212H12.8117L11.6937 15.4902C11.6277 15.5474 11.6277 15.6401 11.6937 15.6973C11.727 15.7258 11.7702 15.74 11.8133 15.74C11.8564 15.74 11.8995 15.7258 11.9323 15.6973L13.2894 14.5212H15.6242L14.5062 15.4902C14.4402 15.5474 14.4402 15.6401 14.5062 15.6973C14.5391 15.7258 14.5822 15.74 14.6253 15.74C14.6684 15.74 14.7116 15.7258 14.7444 15.6973L16.1014 14.5212H20.2508C21.3777 14.5212 22.2945 13.7266 22.2945 12.75V10.3125V9.85303L22.9437 10.4161C22.9766 10.4445 23.0202 10.4587 23.0633 10.4587C23.1064 10.4587 23.15 10.4445 23.1828 10.4161C23.2489 10.3588 23.2489 10.2662 23.1828 10.2089ZM15.2633 6.65625C15.2633 5.66175 14.6117 4.79684 13.6592 4.365H16.9695C18.4273 4.365 19.6133 5.39281 19.6133 6.65625C19.6133 7.91969 18.4273 8.9475 16.9695 8.9475H13.6592C14.6117 8.51566 15.2633 7.65075 15.2633 6.65625ZM17.9698 11.1794C18.2033 10.9767 18.5141 10.8654 18.8445 10.8654C19.175 10.8654 19.4858 10.9767 19.7192 11.1794C19.9531 11.3817 20.0816 11.6511 20.0816 11.9375C20.0816 12.2239 19.9531 12.4932 19.7192 12.6956C19.2523 13.101 18.4367 13.101 17.9698 12.6956C17.7359 12.4932 17.607 12.2239 17.607 11.9375C17.607 11.6511 17.7359 11.3817 17.9698 11.1794ZM15.1573 11.1794C15.3908 10.9767 15.7016 10.8654 16.032 10.8654C16.3625 10.8654 16.6733 10.9767 16.9072 11.1794C17.1411 11.3817 17.2695 11.6511 17.2695 11.9375C17.2695 12.2239 17.1411 12.4932 16.9072 12.6956C16.4403 13.101 15.6247 13.101 15.1578 12.6956C14.9234 12.4932 14.7945 12.2239 14.7945 11.9375C14.7945 11.6511 14.9234 11.3817 15.1573 11.1794ZM13.2195 10.865C13.902 10.865 14.457 11.346 14.457 11.9375C14.457 12.529 13.902 13.01 13.2195 13.01C12.537 13.01 11.982 12.529 11.982 11.9375C11.982 11.346 12.537 10.865 13.2195 10.865ZM11.8133 14.2287C10.8725 14.2287 10.107 13.5653 10.107 12.75V11.283C10.4459 11.7291 11.0117 12.0281 11.66 12.0707C11.7387 12.7602 12.4039 13.3025 13.2195 13.3025C13.8373 13.3025 14.3675 12.9897 14.6253 12.54C14.6759 12.6285 14.7378 12.711 14.8105 12.789L13.1497 14.2287H11.8133ZM13.6273 14.2287L15.0495 12.9962C15.3284 13.1912 15.6687 13.3029 16.0325 13.3029C16.4534 13.3029 16.8491 13.1607 17.1462 12.9032C17.2695 12.7963 17.3637 12.6724 17.4387 12.5412C17.4894 12.6293 17.5512 12.7118 17.6234 12.7894L15.9627 14.2287H13.6273ZM21.957 12.75C21.957 13.5653 21.1916 14.2287 20.2508 14.2287H16.4398L17.862 12.9962C18.1409 13.1912 18.4812 13.3025 18.8445 13.3025C19.265 13.3025 19.6606 13.1603 19.9583 12.9027C20.2175 12.6781 20.368 12.3872 20.4041 12.0752C21.0519 12.033 21.6177 11.7311 21.9566 11.2863L21.957 12.75Z" fill="black"/>
</g>
<defs>
<clipPath id="clip0_941_9343">
<rect width="16.9998" height="8" fill="white" transform="translate(16 21)"/>
</clipPath>
<clipPath id="clip1_941_9343">
<rect width="16.9998" height="8" fill="white" transform="translate(0 21)"/>
</clipPath>
<clipPath id="clip2_941_9343">
<rect width="15" height="13" fill="white" transform="translate(9 3)"/>
</clipPath>
</defs>
</svg>
