<svg width="32" height="32" viewBox="0 0 32 32" fill="none" xmlns="http://www.w3.org/2000/svg">
<path d="M31.0006 31.3601H1.00063C0.801625 31.3601 0.640625 31.1991 0.640625 31.0001V8.00014C0.640625 7.80114 0.801625 7.64014 1.00063 7.64014H22.6406V1.00014C22.6406 0.801137 22.8016 0.640137 23.0006 0.640137H31.0006C31.1996 0.640137 31.3606 0.801137 31.3606 1.00014V31.0001C31.3606 31.1991 31.1996 31.3601 31.0006 31.3601ZM16.3606 30.6401H30.6406V1.36014H23.3606V8.00014C23.3606 8.19914 23.1996 8.36014 23.0006 8.36014H1.36063V30.6401H10.1406V24.0001C10.1406 23.8011 10.3016 23.6401 10.5006 23.6401H16.0006C16.1996 23.6401 16.3606 23.8011 16.3606 24.0001V30.6401ZM10.8606 30.6401H15.6406V24.3601H10.8606V30.6401ZM27.3606 25.0001H26.6406V23.0001H27.3616L27.3606 25.0001ZM21.8606 25.0001H21.1406V23.0001H21.8616L21.8606 25.0001ZM5.36063 25.0001H4.64062V23.0001H5.36063V25.0001ZM27.3606 21.0001H26.6406V19.0001H27.3616L27.3606 21.0001ZM21.8606 21.0001H21.1406V19.0001H21.8616L21.8606 21.0001ZM16.3606 21.0001H15.6406V19.0001H16.3606V21.0001ZM10.8606 21.0001H10.1406V19.0001H10.8606V21.0001ZM5.36063 21.0001H4.64062V19.0001H5.36063V21.0001ZM27.3606 17.0001H26.6406V15.0001H27.3616L27.3606 17.0001ZM21.8606 17.0001H21.1406V15.0001H21.8616L21.8606 17.0001ZM16.3606 17.0001H15.6406V15.0001H16.3606V17.0001ZM10.8606 17.0001H10.1406V15.0001H10.8606V17.0001ZM5.36063 17.0001H4.64062V15.0001H5.36063V17.0001ZM27.3606 13.0001H26.6406V11.0001H27.3616L27.3606 13.0001ZM21.8606 13.0001H21.1406V11.0001H21.8616L21.8606 13.0001ZM16.3606 13.0001H15.6406V11.0001H16.3606V13.0001ZM10.8606 13.0001H10.1406V11.0001H10.8606V13.0001ZM5.36063 13.0001H4.64062V11.0001H5.36063V13.0001ZM27.3606 6.50014H26.6406V4.86014H25.0006V4.14014H26.6406V2.50014H27.3616V4.14014H29.0006V4.86014H27.3606V6.50014Z" fill="black"/>
</svg>
