<svg width="32" height="32" viewBox="0 0 32 32" fill="none" xmlns="http://www.w3.org/2000/svg">
<g clip-path="url(#clip0_969_5404)">
<path d="M29.3606 30.9994H28.6406C28.6406 27.3034 26.8136 23.8484 23.9136 21.5524L20.6616 27.1794C20.5616 27.3544 20.3426 27.4114 20.1706 27.3114L16.0006 24.9054L11.8306 27.3104C11.6586 27.4124 11.4376 27.3514 11.3396 27.1784L8.08962 21.5544C5.18862 23.8504 3.36062 27.3044 3.36062 30.9994H2.64062C2.64062 25.4144 6.57162 20.3524 12.1106 18.6344C9.86662 17.2814 8.46062 14.8384 8.46062 12.1794C8.46062 11.1164 8.67662 10.0934 9.10362 9.13542L5.36063 6.97342V14.9994H4.64062V6.34942C4.64062 6.34542 4.64062 6.34142 4.64062 6.33642C4.64562 6.20342 4.72362 6.08342 4.84362 6.02542L15.8436 0.675422C15.9426 0.626422 16.0596 0.626422 16.1576 0.675422L27.1576 6.02542C27.2776 6.08342 27.3556 6.20342 27.3596 6.33642C27.3646 6.46942 27.2956 6.59442 27.1796 6.66042L22.8966 9.13542C23.3236 10.0934 23.5406 11.1154 23.5406 12.1794C23.5406 14.8364 22.1376 17.2794 19.8976 18.6344C25.4336 20.3524 29.3606 25.4154 29.3606 30.9994ZM8.66862 21.1204L11.7816 26.5084L15.8206 24.1784C15.9316 24.1144 16.0686 24.1144 16.1796 24.1784L20.2176 26.5084L23.3326 21.1184C22.0076 20.1834 20.4876 19.4824 18.8366 19.0904C18.6866 19.0544 18.5756 18.9274 18.5616 18.7734C18.5466 18.6204 18.6316 18.4744 18.7736 18.4114C21.2316 17.3144 22.8196 14.8694 22.8196 12.1804C22.8196 11.1884 22.6126 10.2374 22.2036 9.34842C20.8756 9.34442 13.8276 9.34642 9.79662 9.34942C9.38762 10.2384 9.17962 11.1884 9.17962 12.1794C9.17962 14.8694 10.7716 17.3154 13.2356 18.4104C13.3766 18.4724 13.4626 18.6194 13.4476 18.7724C13.4336 18.9264 13.3226 19.0534 13.1726 19.0894C11.5186 19.4824 9.99662 20.1854 8.66862 21.1204ZM15.8836 8.62742C19.6956 8.62742 21.3416 8.63342 22.0696 8.65442V7.26042L21.7986 7.10842C20.4186 6.32942 18.7016 5.35942 16.0306 5.35942C13.3196 5.35942 11.5656 6.34442 10.1556 7.13542L9.93062 7.26042V8.62942C12.3466 8.62842 14.3026 8.62742 15.8836 8.62742ZM16.0306 4.63942C18.8906 4.63942 20.6996 5.66042 22.1536 6.48142L22.6046 6.73342C22.7196 6.79642 22.7916 6.91742 22.7916 7.04842V8.36542L26.2346 6.37642L16.0006 1.39942L5.76763 6.37642L9.21062 8.36642V7.04942C9.21062 6.91842 9.28162 6.79742 9.39762 6.73442L9.80363 6.50742C11.2856 5.67542 13.1306 4.63942 16.0306 4.63942Z" fill="black"/>
</g>
<defs>
<clipPath id="clip0_969_5404">
<rect width="32" height="32" fill="white"/>
</clipPath>
</defs>
</svg>
