<svg width="32" height="32" viewBox="0 0 32 32" fill="none" xmlns="http://www.w3.org/2000/svg">
<g clip-path="url(#clip0_969_2504)">
<path d="M16.0006 31.3601C15.9416 31.3601 15.8836 31.3451 15.8296 31.3171L2.82962 24.3171C2.71362 24.2541 2.64062 24.1331 2.64062 24.0001V8.00015C2.64062 7.86815 2.71362 7.74615 2.82962 7.68315L15.8296 0.683148C15.9366 0.625148 16.0636 0.625148 16.1716 0.683148L29.1716 7.68315C29.2876 7.74615 29.3606 7.86815 29.3606 8.00015V24.0001C29.3606 24.1331 29.2876 24.2541 29.1716 24.3171L16.1716 31.3171C16.1176 31.3461 16.0596 31.3601 16.0006 31.3601ZM3.36062 23.7851L16.0006 30.5911L28.6406 23.7851V8.21515L16.0006 1.40915L3.36062 8.21515V23.7851ZM16.3606 27.0001H15.6406V16.3331C14.5096 16.1591 13.6406 15.1791 13.6406 14.0001C13.6406 12.6991 14.6996 11.6401 16.0006 11.6401C17.3026 11.6401 18.3606 12.6991 18.3606 14.0001C18.3606 15.1791 17.4916 16.1591 16.3606 16.3331V27.0001ZM16.0006 12.3601C15.0966 12.3601 14.3606 13.0961 14.3606 14.0001C14.3606 14.9041 15.0966 15.6401 16.0006 15.6401C16.9046 15.6401 17.6406 14.9041 17.6406 14.0001C17.6406 13.0961 16.9046 12.3601 16.0006 12.3601ZM10.0896 19.9121C8.51062 18.3331 7.64062 16.2331 7.64062 14.0001C7.64062 11.7671 8.51062 9.66715 10.0896 8.08915L10.5986 8.59815C9.15562 10.0411 8.36062 11.9591 8.36062 14.0001C8.36062 16.0411 9.15562 17.9601 10.5986 19.4021L10.0896 19.9121ZM21.9126 19.9121L21.4026 19.4021C24.3816 16.4231 24.3816 11.5761 21.4026 8.59715L21.9126 8.08815C25.1716 11.3481 25.1716 16.6521 21.9126 19.9121ZM20.4976 18.4971L19.9876 17.9871C21.0526 16.9221 21.6396 15.5061 21.6396 14.0001C21.6396 12.4941 21.0526 11.0771 19.9876 10.0121L20.4976 9.50315C21.6986 10.7041 22.3606 12.3011 22.3606 14.0001C22.3606 15.6991 21.6986 17.2961 20.4976 18.4971ZM11.5036 18.4971C10.3016 17.2961 9.64062 15.6991 9.64062 14.0001C9.64062 12.3011 10.3026 10.7041 11.5036 9.50315L12.0126 10.0121C10.9476 11.0771 10.3606 12.4941 10.3606 14.0001C10.3606 15.5061 10.9476 16.9221 12.0126 17.9871L11.5036 18.4971ZM19.0836 17.0831L18.5736 16.5741C19.9936 15.1551 19.9936 12.8451 18.5736 11.4261L19.0836 10.9171C20.7836 12.6171 20.7836 15.3831 19.0836 17.0831ZM12.9176 17.0831C11.2176 15.3831 11.2176 12.6171 12.9176 10.9171L13.4266 11.4261C12.0076 12.8451 12.0076 15.1551 13.4266 16.5741L12.9176 17.0831Z" fill="black"/>
</g>
<defs>
<clipPath id="clip0_969_2504">
<rect width="32" height="32" fill="white"/>
</clipPath>
</defs>
</svg>
