<svg width="32" height="32" viewBox="0 0 32 32" fill="none" xmlns="http://www.w3.org/2000/svg">
<g clip-path="url(#clip0_969_4920)">
<path d="M2.185 19.3091L12.057 13.3861L15.912 14.3501C16.017 14.3781 16.128 14.3541 16.215 14.2891L20.086 11.3861L24.756 12.3201L27.677 18.1631C27.712 18.2321 27.769 18.2891 27.838 18.3241L29.838 19.3241L30.16 18.6791L28.267 17.7331L25.321 11.8401C25.271 11.7411 25.178 11.6701 25.069 11.6481L20.069 10.6481C19.968 10.6271 19.865 10.6521 19.783 10.7131L16.215 13.3891L15.32 9.84012L13.32 5.84012C13.278 5.75512 13.203 5.69012 13.112 5.66012L10.112 4.66012C10.022 4.62912 9.924 4.63612 9.837 4.68012L7.837 5.68012C7.77 5.71312 7.713 5.77012 7.678 5.83912L5.651 9.91312L3.746 17.5331L1.815 18.6911L2.185 19.3091ZM6.322 10.1611L8.269 6.26812L10.028 5.38812L12.745 6.29412L14.651 10.0871L15.505 13.5051L12.087 12.6501C11.994 12.6271 11.896 12.6411 11.815 12.6911L4.617 17.0101L6.322 10.1611ZM19.254 7.25512L18.746 6.74512C18.889 6.60212 19.054 6.47712 19.234 6.37212C19.415 6.26812 19.605 6.18912 19.803 6.13612C19.895 6.11212 19.987 6.09212 20.078 6.07912C20.092 5.98812 20.111 5.89612 20.136 5.80512C20.191 5.60112 20.27 5.40912 20.371 5.23412C20.476 5.05212 20.602 4.88812 20.744 4.74612L21.254 5.25512C21.155 5.35312 21.068 5.46812 20.994 5.59612C20.924 5.71712 20.869 5.85012 20.831 5.99112C20.792 6.13812 20.773 6.27712 20.773 6.41512V6.77512H20.413C20.274 6.77512 20.132 6.79512 19.988 6.83312C19.851 6.87012 19.718 6.92512 19.593 6.99712C19.468 7.06912 19.354 7.15612 19.254 7.25512ZM26.005 2.59612C25.931 2.46712 25.844 2.35212 25.745 2.25412L26.255 1.74512C26.397 1.88712 26.523 2.05212 26.628 2.23412C26.73 2.40812 26.809 2.60012 26.863 2.80312C26.887 2.89512 26.907 2.98712 26.921 3.07812C27.013 3.09112 27.105 3.11012 27.196 3.13512C27.394 3.18812 27.585 3.26712 27.764 3.37012C27.946 3.47512 28.111 3.60112 28.253 3.74412L27.745 4.25412C27.645 4.15512 27.531 4.06812 27.403 3.99412C27.279 3.92212 27.146 3.86712 27.009 3.83012C26.865 3.79212 26.723 3.77212 26.584 3.77212H26.224V3.41212C26.224 3.27412 26.205 3.13512 26.166 2.98712C26.13 2.84912 26.075 2.71612 26.005 2.59612ZM31 20.6401V21.3611H1V20.6401H3.64V20.0001H4.36V20.6401H5.64V19.0001H6.36V20.6401H7.64V20.0001H8.36V20.6401H9.64V20.0001H10.36V20.6401H11.64V20.0001H12.36V20.6401H13.64V19.0001H14.36V20.6401H16.64V20.0001H17.36V20.6401H19.639V20.0001H20.36V20.6401H21.639V20.0001H22.36V20.6401H23.639V20.0001H24.36V20.6401H25.639V19.0001H26.36V20.6401H31ZM5 24.5041C4.435 25.0491 3.742 25.3601 3 25.3601C2.801 25.3601 2.64 25.1991 2.64 25.0001C2.64 24.8011 2.801 24.6401 3 24.6401C3.646 24.6401 4.258 24.3311 4.723 23.7711C4.731 23.7611 4.745 23.7631 4.754 23.7541C4.763 23.7451 4.761 23.7311 4.771 23.7231C4.8 23.6991 4.838 23.7051 4.872 23.6921C4.917 23.6731 4.953 23.6521 5.001 23.6521C5.048 23.6521 5.084 23.6731 5.127 23.6911C5.161 23.7051 5.2 23.6981 5.23 23.7231C5.24 23.7311 5.238 23.7451 5.247 23.7541C5.256 23.7631 5.27 23.7611 5.278 23.7711C6.207 24.8921 7.795 24.8921 8.723 23.7711C8.731 23.7611 8.745 23.7631 8.754 23.7541C8.763 23.7451 8.761 23.7311 8.77 23.7231C8.799 23.6991 8.837 23.7061 8.87 23.6921C8.915 23.6731 8.952 23.6511 9 23.6521C9.047 23.6521 9.083 23.6731 9.127 23.6921C9.161 23.7061 9.199 23.6991 9.229 23.7241C9.239 23.7321 9.237 23.7461 9.246 23.7551C9.255 23.7641 9.269 23.7621 9.277 23.7721C10.206 24.8931 11.794 24.8931 12.722 23.7721C12.73 23.7621 12.744 23.7641 12.753 23.7551C12.762 23.7461 12.76 23.7321 12.769 23.7241C12.798 23.7001 12.836 23.7061 12.869 23.6931C12.914 23.6741 12.95 23.6531 12.998 23.6531C13.045 23.6531 13.081 23.6741 13.125 23.6921C13.159 23.7061 13.198 23.6991 13.228 23.7241C13.238 23.7321 13.236 23.7461 13.245 23.7551C13.254 23.7641 13.268 23.7621 13.276 23.7721C13.74 24.3331 14.352 24.6411 14.999 24.6411C15.198 24.6411 15.359 24.8021 15.359 25.0011C15.359 25.2001 15.198 25.3611 14.999 25.3611C14.257 25.3611 13.564 25.0501 12.999 24.5051C12.433 25.0491 11.741 25.3601 10.999 25.3601C10.257 25.3601 9.565 25.0491 8.999 24.5051C8.433 25.0491 7.741 25.3601 6.999 25.3601C6.258 25.3591 5.566 25.0481 5 24.5041ZM29.36 29.0001C29.36 29.1991 29.199 29.3601 29 29.3601C28.258 29.3601 27.566 29.0491 27 28.5041C26.435 29.0481 25.742 29.3591 25 29.3591C24.258 29.3591 23.565 29.0481 23 28.5041C22.435 29.0481 21.742 29.3591 21 29.3591C20.258 29.3591 19.565 29.0481 19 28.5041C18.435 29.0481 17.742 29.3591 17 29.3591C16.258 29.3591 15.566 29.0481 15 28.5041C14.434 29.0481 13.742 29.3591 13 29.3591C12.258 29.3591 11.566 29.0481 11 28.5041C10.434 29.0481 9.742 29.3591 9 29.3591C8.258 29.3591 7.566 29.0481 7 28.5041C6.435 29.0491 5.742 29.3601 5 29.3601C4.801 29.3601 4.64 29.1991 4.64 29.0001C4.64 28.8011 4.801 28.6401 5 28.6401C5.646 28.6401 6.258 28.3311 6.723 27.7711C6.731 27.7611 6.745 27.7631 6.754 27.7541C6.763 27.7451 6.761 27.7311 6.771 27.7231C6.8 27.6991 6.839 27.7051 6.872 27.6921C6.917 27.6741 6.953 27.6521 7.001 27.6521C7.048 27.6521 7.083 27.6731 7.127 27.6911C7.161 27.7051 7.2 27.6981 7.23 27.7231C7.24 27.7311 7.238 27.7451 7.247 27.7541C7.256 27.7631 7.27 27.7611 7.278 27.7711C8.207 28.8921 9.795 28.8921 10.723 27.7711C10.731 27.7611 10.745 27.7631 10.754 27.7541C10.763 27.7451 10.761 27.7311 10.771 27.7231C10.8 27.6991 10.839 27.7051 10.872 27.6921C10.916 27.6741 10.953 27.6521 11.001 27.6521C11.048 27.6521 11.083 27.6731 11.127 27.6911C11.161 27.7051 11.2 27.6981 11.23 27.7231C11.24 27.7311 11.238 27.7451 11.247 27.7541C11.256 27.7631 11.27 27.7611 11.278 27.7711C12.207 28.8921 13.795 28.8921 14.723 27.7711C14.731 27.7611 14.745 27.7631 14.754 27.7541C14.763 27.7451 14.761 27.7311 14.771 27.7231C14.8 27.6991 14.839 27.7051 14.872 27.6921C14.917 27.6741 14.953 27.6521 15.001 27.6521C15.048 27.6521 15.083 27.6731 15.127 27.6911C15.161 27.7051 15.2 27.6981 15.23 27.7231C15.24 27.7311 15.238 27.7451 15.247 27.7541C15.256 27.7631 15.27 27.7611 15.278 27.7711C16.207 28.8921 17.794 28.8921 18.723 27.7711C18.731 27.7611 18.745 27.7631 18.754 27.7541C18.763 27.7451 18.761 27.7311 18.771 27.7231C18.8 27.6991 18.838 27.7061 18.871 27.6921C18.916 27.6731 18.953 27.6521 19.001 27.6521C19.048 27.6521 19.084 27.6731 19.128 27.6911C19.162 27.7051 19.2 27.6981 19.23 27.7231C19.24 27.7311 19.238 27.7451 19.247 27.7541C19.256 27.7631 19.27 27.7611 19.278 27.7711C20.208 28.8921 21.794 28.8921 22.723 27.7711C22.731 27.7611 22.745 27.7631 22.754 27.7541C22.763 27.7451 22.761 27.7311 22.771 27.7231C22.8 27.6991 22.838 27.7061 22.871 27.6921C22.916 27.6731 22.953 27.6521 23.001 27.6521C23.048 27.6521 23.084 27.6731 23.128 27.6911C23.162 27.7051 23.2 27.6981 23.23 27.7231C23.24 27.7311 23.238 27.7451 23.247 27.7541C23.256 27.7631 23.27 27.7611 23.278 27.7711C24.208 28.8921 25.794 28.8921 26.723 27.7711C26.731 27.7611 26.745 27.7631 26.754 27.7541C26.763 27.7451 26.761 27.7311 26.771 27.7231C26.8 27.6991 26.838 27.7061 26.871 27.6921C26.916 27.6731 26.952 27.6521 27 27.6521C27.047 27.6521 27.083 27.6731 27.127 27.6911C27.161 27.7051 27.2 27.6981 27.23 27.7231C27.24 27.7311 27.238 27.7451 27.247 27.7541C27.256 27.7631 27.27 27.7611 27.278 27.7711C27.743 28.3321 28.354 28.6401 29.001 28.6401C29.199 28.6401 29.36 28.8011 29.36 29.0001Z" fill="black"/>
</g>
<defs>
<clipPath id="clip0_969_4920">
<rect width="32" height="32" fill="white"/>
</clipPath>
</defs>
</svg>
