<svg width="32" height="32" viewBox="0 0 32 32" fill="none" xmlns="http://www.w3.org/2000/svg">
<g clip-path="url(#clip0_969_4910)">
<path d="M22.0006 31.3597H19.5006C18.4756 31.3597 17.6406 30.5247 17.6406 29.4997V17.9997C17.6406 17.2497 18.2506 16.6397 19.0006 16.6397H26.3696C28.8426 16.6077 30.6406 14.9337 30.6406 12.6577C30.6406 10.2877 28.7246 8.35967 26.3696 8.35967C25.6276 8.35967 24.8916 8.55567 24.2446 8.92467L23.7606 9.20167L23.7076 8.64567C23.3276 4.62767 19.9026 1.35867 16.0736 1.35867C12.9816 1.35867 10.1106 3.39667 8.92962 6.42867L8.80462 6.75067L8.47862 6.63967C7.99262 6.47467 7.20963 6.35967 6.57463 6.35967C3.69963 6.35967 1.36063 8.69867 1.36063 11.5737C1.36063 14.3837 3.65263 16.6087 6.57863 16.6397H8.00063V17.3597H6.57463C3.24563 17.3237 0.640625 14.7827 0.640625 11.5727C0.640625 8.30067 3.30262 5.63867 6.57463 5.63867C7.07562 5.63867 7.78563 5.70767 8.38563 5.86167C9.74363 2.72467 12.7936 0.638672 16.0746 0.638672C20.0986 0.638672 23.7136 3.92367 24.3606 8.06067C24.9936 7.78367 25.6786 7.63867 26.3706 7.63867C29.1226 7.63867 31.3616 9.88967 31.3616 12.6567C31.3616 15.3447 29.2636 17.3217 26.3756 17.3587H19.0006C18.6476 17.3587 18.3606 17.6457 18.3606 17.9987V29.4987C18.3606 30.1277 18.8716 30.6387 19.5006 30.6387H22.0006V31.3597ZM11.5006 31.3597H9.00062V30.6397H11.5006C12.1286 30.6397 12.6406 30.1287 12.6406 29.4997V17.8277C12.6406 17.3957 12.4656 16.9737 12.1606 16.6677L6.74662 11.2537L7.25563 10.7447L12.6696 16.1587C13.1086 16.5977 13.3606 17.2057 13.3606 17.8267V29.4997C13.3606 30.5247 12.5256 31.3597 11.5006 31.3597Z" fill="black"/>
</g>
<defs>
<clipPath id="clip0_969_4910">
<rect width="32" height="32" fill="white"/>
</clipPath>
</defs>
</svg>
