<svg width="32" height="32" viewBox="0 0 32 32" fill="none" xmlns="http://www.w3.org/2000/svg">
<g clip-path="url(#clip0_2094_2706)">
<path d="M16.0008 22.5004L10.4998 15.0004C9.503 13.8235 8.71231 12.0281 8.50002 10.5004C8.28773 8.97273 8.86189 7.90453 9.50004 6.5004C10.1382 5.09626 11.2096 4.34509 12.5 3.5004C13.4132 2.90269 15 2.69979 16 2.7002C18.5 2.70122 20.269 3.75743 21 4.5004C22.2178 5.7379 23.5132 7.99259 23.4998 10.1304C23.5006 11.9953 22.8461 13.5448 21.6802 15.0004L16.0008 22.5004ZM16.0008 4.0004C14.3926 4.01886 12.8575 4.67477 11.7326 5.8241C10.6076 6.97343 9.98477 8.52222 10.0008 10.1304C10.0075 11.5982 10.5356 13.0159 11.4908 14.1304L16.0008 20.5204L20.6308 14.0004C21.5109 12.9018 21.9937 11.538 22.0008 10.1304C22.0168 8.52222 21.3939 6.97343 20.269 5.8241C19.144 4.67477 17.6089 4.01886 16.0008 4.0004Z" fill="black" fill-opacity="0.65"/>
<path d="M16 11C17.1046 11 18 10.1046 18 9C18 7.89543 17.1046 7 16 7C14.8954 7 14 7.89543 14 9C14 10.1046 14.8954 11 16 11Z" fill="black" fill-opacity="0.65"/>
<path d="M28 13H26V14H28V28H4V14H6L6.00008 13.0003L4 13C3.46957 13 3.25 13.25 3.25 13.25C3.25 13.25 3.00025 13.4696 3.00025 14L3 28C3 28.5304 3.25 28.75 3.25 28.75C3.25 28.75 3.5 29 4 29H28C28.5 29 28.75 28.75 28.75 28.75C28.75 28.75 29 28.5 29 28V14C29 13.4696 28.75 13.25 28.75 13.25C28.75 13.25 28.5304 13 28 13Z" fill="black" fill-opacity="0.65"/>
</g>
<defs>
<clipPath id="clip0_2094_2706">
<rect width="32" height="32" fill="white"/>
</clipPath>
</defs>
</svg>
