<svg width="32" height="32" viewBox="0 0 32 32" fill="none" xmlns="http://www.w3.org/2000/svg">
<g clip-path="url(#clip0_2094_2686)">
<path d="M31.0006 31.3596H1.00063V30.6396H4.64063V9.35965H1.00063C0.801625 9.35965 0.640625 9.19865 0.640625 8.99965V6.99965C0.640625 6.80065 0.801625 6.63965 1.00063 6.63965H2.64063V3.99965C2.64063 3.80065 2.80163 3.63965 3.00063 3.63965H6.93563L14.8666 0.665648C14.9076 0.648648 14.9536 0.639648 15.0006 0.639648H17.0006C17.0616 0.639648 17.1176 0.654648 17.1686 0.680648L29.0856 6.63965H31.0006C31.1996 6.63965 31.3606 6.80065 31.3606 6.99965V8.99965C31.3606 9.19865 31.1996 9.35965 31.0006 9.35965H27.3606V15.6396H28.0006C28.1996 15.6396 28.3606 15.8006 28.3606 15.9996V17.9996C28.3606 18.1986 28.1996 18.3596 28.0006 18.3596H26.3606V20.6386H31.0006C31.1996 20.6386 31.3606 20.7996 31.3606 20.9986V25.9986C31.3606 26.1976 31.1996 26.3586 31.0006 26.3586H21.0006C20.8016 26.3586 20.6406 26.1976 20.6406 25.9986V20.9986C20.6406 20.7996 20.8016 20.6386 21.0006 20.6386H25.6406V18.3596H24.0006C23.8016 18.3596 23.6406 18.1986 23.6406 17.9996V15.9996C23.6406 15.8006 23.8016 15.6396 24.0006 15.6396H24.6406V9.35965H17.3606V30.6396H31.0006V31.3596ZM15.3606 30.6396H16.6406V1.35965H15.3606V20.9996C15.3606 21.1986 15.1996 21.3596 15.0006 21.3596H7.00063C6.80163 21.3596 6.64063 21.1986 6.64063 20.9996V9.35965H5.36063V30.6396H6.64063V22.9996C6.64063 22.8006 6.80163 22.6396 7.00063 22.6396H15.0006C15.1996 22.6396 15.3606 22.8006 15.3606 22.9996V30.6396ZM7.36063 30.6396H14.6406V23.3596H7.36063V30.6396ZM21.3606 25.6396H30.6396V21.3596H21.3606V25.6396ZM7.36063 20.6396H14.3276L7.36063 10.1886V20.6396ZM7.67363 9.35965L14.6406 19.8106V9.35965H7.67363ZM24.3606 17.6396H27.6396V16.3596H24.3606V17.6396ZM25.3606 15.6396H26.6396V9.35965H25.3606V15.6396ZM17.3606 8.63965H30.6406V7.35965H17.3606V8.63965ZM1.36063 8.63965H14.6406V7.35965H1.36063V8.63965ZM17.3606 6.63965H27.4746L17.3606 1.58265V6.63965ZM7.36063 6.63965H14.6406V1.51965L7.36063 4.24965V6.63965ZM3.36063 6.63965H6.64063V4.35965H3.36063V6.63965ZM29.3606 24.9996H28.6406V21.9996H29.3616L29.3606 24.9996ZM27.3606 24.9996H26.6406V21.9996H27.3616L27.3606 24.9996ZM25.3606 24.9996H24.6406V21.9996H25.3616L25.3606 24.9996ZM23.3606 24.9996H22.6406V21.9996H23.3616L23.3606 24.9996Z" fill="black"/>
</g>
<defs>
<clipPath id="clip0_2094_2686">
<rect width="32" height="32" fill="white"/>
</clipPath>
</defs>
</svg>
