<svg width="36" height="36" viewBox="0 0 36 36" fill="none" xmlns="http://www.w3.org/2000/svg">
<g clip-path="url(#clip0_1344_211)">
<path d="M24.187 12.9404C21.7759 12.9404 19.8145 14.9019 19.8145 17.3129V24.1879C19.8145 26.3261 18.0751 28.0654 15.937 28.0654C13.7988 28.0654 12.0595 26.3261 12.0595 24.1879V20.2981C14.355 20.1688 16.1845 18.2651 16.1845 15.9379V10.4379C16.1845 10.3011 16.0738 10.1904 15.937 10.1904H14.122V7.68793C14.122 7.55112 14.0113 7.44043 13.8745 7.44043C13.7376 7.44043 13.627 7.55112 13.627 7.68793V10.1904H9.99695V7.68793C9.99695 7.55112 9.88627 7.44043 9.74945 7.44043C9.61264 7.44043 9.50195 7.55112 9.50195 7.68793V10.1904H7.68695C7.55014 10.1904 7.43945 10.3011 7.43945 10.4379V15.9379C7.43945 18.2651 9.26889 20.1688 11.5645 20.2981V24.1879C11.5645 26.599 13.5259 28.5604 15.937 28.5604C18.348 28.5604 20.3095 26.5983 20.3095 24.1879V17.3129C20.3095 15.1748 22.0481 13.4354 24.187 13.4354C26.3258 13.4354 28.0645 15.1748 28.0645 17.3129V24.1879H28.5601V17.3129C28.5595 14.9019 26.598 12.9404 24.187 12.9404ZM7.93445 10.6854H15.6895V12.9404H7.93445V10.6854ZM7.93445 15.9379V13.4354H15.6895V15.9379C15.6895 18.0761 13.9501 19.8154 11.812 19.8154C9.67383 19.8154 7.93445 18.0761 7.93445 15.9379Z" fill="black" stroke="black" stroke-width="0.2"/>
</g>
<g clip-path="url(#clip1_1344_211)">
<path d="M18.0007 35.2797C12.9045 35.2797 8.19408 33.1051 4.9057 29.2745V34.8747H4.0957V27.7197H11.2507V28.5309H5.33658C8.47758 32.3154 13.0485 34.4697 18.0007 34.4697C27.0817 34.4697 34.4707 27.0819 34.4707 17.9997H35.2818C35.2807 27.5285 27.5295 35.2797 18.0007 35.2797ZM1.5307 17.9997H0.720703C0.720703 8.47098 8.47195 0.719727 18.0007 0.719727C23.097 0.719727 27.8073 2.89323 31.0957 6.72385V1.12473H31.9068V8.27973H24.7507V7.46973H30.6648C27.5238 3.6841 22.953 1.52973 18.0007 1.52973C8.91858 1.52973 1.5307 8.9176 1.5307 17.9997Z" fill="black"/>
</g>
<defs>
<clipPath id="clip0_1344_211">
<rect width="22" height="22" fill="white" transform="translate(7 7)"/>
</clipPath>
<clipPath id="clip1_1344_211">
<rect width="36" height="36" fill="white"/>
</clipPath>
</defs>
</svg>
