<svg width="32" height="32" viewBox="0 0 32 32" fill="none" xmlns="http://www.w3.org/2000/svg">
<g clip-path="url(#clip0_969_4905)">
<path d="M19.9994 30.3596C19.8924 30.3596 19.7874 30.3106 19.7184 30.2236L15.7184 25.2236C15.6134 25.0926 15.6134 24.9056 15.7184 24.7746L19.7184 19.7746C19.8134 19.6546 19.9734 19.6076 20.1184 19.6596C20.2634 19.7106 20.3594 19.8466 20.3594 19.9996V21.6396H24.5004L21.3884 16.0246C21.3414 15.9416 21.3304 15.8426 21.3574 15.7516C21.3844 15.6606 21.4454 15.5826 21.5284 15.5356L26.7804 12.6246C26.8644 12.5786 26.9624 12.5676 27.0544 12.5936C27.1464 12.6196 27.2234 12.6816 27.2704 12.7656L30.5554 18.6996C30.9674 19.4446 30.9594 20.3356 30.5344 21.0826C30.5334 21.0836 30.5334 21.0836 30.5334 21.0836L27.0974 27.1576C26.6764 27.9006 25.8834 28.3616 25.0264 28.3616C25.0234 28.3616 25.0204 28.3616 25.0174 28.3616H20.3594V29.9996C20.3594 30.1526 20.2624 30.2886 20.1184 30.3396C20.0794 30.3536 20.0394 30.3596 19.9994 30.3596ZM16.4604 24.9996L19.6394 28.9736V27.9996C19.6394 27.8006 19.8004 27.6396 19.9994 27.6396H25.0194C25.0214 27.6396 25.0244 27.6396 25.0264 27.6396C25.6344 27.6396 26.1744 27.3276 26.4714 26.8006L29.0294 22.2796C28.8334 22.3326 28.6294 22.3606 28.4204 22.3606C28.4164 22.3606 28.4114 22.3606 28.4064 22.3606H19.9994C19.8004 22.3606 19.6394 22.1996 19.6394 22.0006V21.0266L16.4604 24.9996ZM25.3234 21.6396H28.4074C28.4104 21.6396 28.4144 21.6396 28.4174 21.6396C29.0264 21.6396 29.5814 21.2986 29.9074 20.7266C30.2124 20.1916 30.2194 19.5786 29.9244 19.0476L26.8144 13.4276L22.1924 15.9896L25.3234 21.6396ZM13.9934 28.3596L7.21043 28.3556C6.35943 28.3546 5.58443 27.9166 5.13643 27.1826L1.48943 21.2326C1.04143 20.5016 1.02343 19.5806 1.44443 18.8286L3.70243 14.7546L2.26943 13.9596C2.13543 13.8856 2.06343 13.7346 2.08843 13.5846C2.11443 13.4346 2.23243 13.3156 2.38243 13.2906L8.69443 12.2156C8.86343 12.1866 9.02443 12.2776 9.08843 12.4336L11.5224 18.3556C11.5804 18.4976 11.5434 18.6596 11.4284 18.7606C11.3144 18.8636 11.1484 18.8816 11.0144 18.8066L9.58043 18.0116L7.57243 21.6336H13.9924C14.1914 21.6336 14.3524 21.7946 14.3524 21.9936V27.9996C14.3524 28.0956 14.3144 28.1876 14.2474 28.2546C14.1804 28.3216 14.0884 28.3596 13.9934 28.3596ZM5.75043 26.8076C6.07143 27.3336 6.60443 27.6356 7.21043 27.6356L13.6324 27.6396V22.3556H7.17443L5.67943 25.0526C5.37843 25.5866 5.40643 26.2416 5.75043 26.8076ZM3.51643 13.8276L4.36743 14.2996C4.45043 14.3456 4.51343 14.4236 4.53943 14.5156C4.56543 14.6076 4.55443 14.7056 4.50843 14.7886L2.07443 19.1796C1.77543 19.7126 1.78743 20.3396 2.10443 20.8566L4.81843 25.2866C4.86843 25.0846 4.94543 24.8886 5.05043 24.7016L9.12643 17.3486C9.17243 17.2656 9.25043 17.2036 9.34243 17.1776C9.43443 17.1516 9.53243 17.1616 9.61543 17.2086L10.4674 17.6806L8.53343 12.9736L3.51643 13.8276ZM23.6174 13.2206C23.5984 13.2206 23.5794 13.2196 23.5594 13.2166L17.2384 12.1976C17.0884 12.1736 16.9684 12.0556 16.9414 11.9056C16.9144 11.7556 16.9854 11.6046 17.1184 11.5286L18.5464 10.7206L16.5064 7.11662L13.1524 12.5906C13.0484 12.7596 12.8264 12.8126 12.6574 12.7096L7.53743 9.57162C7.45543 9.52162 7.39743 9.44163 7.37543 9.34863C7.35343 9.25563 7.36843 9.15762 7.41843 9.07662L10.9664 3.29562C11.4104 2.57162 12.1874 2.14062 13.0454 2.14062C13.0464 2.14062 13.0474 2.14062 13.0484 2.14062H20.0284C20.0294 2.14062 20.0304 2.14062 20.0314 2.14062C20.8864 2.14062 21.6794 2.60663 22.1004 3.35763L24.3944 7.41162L25.8214 6.60363C25.9544 6.52863 26.1204 6.54563 26.2364 6.64563C26.3514 6.74662 26.3894 6.90862 26.3334 7.05062L23.9514 12.9936C23.8954 13.1326 23.7634 13.2206 23.6174 13.2206ZM18.3664 11.6496L23.3904 12.4596L25.2834 7.73662L24.4364 8.21562C24.3534 8.26262 24.2544 8.27362 24.1634 8.24862C24.0704 8.22362 23.9924 8.16263 23.9454 8.07963L21.4734 3.70963C21.1794 3.18463 20.6274 2.85962 20.0314 2.85962C20.0304 2.85962 20.0294 2.85962 20.0284 2.85962H14.8334C14.9794 3.00762 15.1054 3.17562 15.2104 3.36162L19.3504 10.6786C19.4484 10.8516 19.3874 11.0716 19.2144 11.1696L18.3664 11.6496ZM8.22043 9.14563L12.7264 11.9066L16.1014 6.39962L14.5824 3.71462C14.2834 3.17962 13.7094 2.86062 13.0474 2.85962C13.0464 2.85962 13.0464 2.85962 13.0454 2.85962C12.4304 2.85962 11.8964 3.15562 11.5794 3.67162L8.22043 9.14563Z" fill="black"/>
</g>
<defs>
<clipPath id="clip0_969_4905">
<rect width="32" height="32" fill="white"/>
</clipPath>
</defs>
</svg>
