<svg width="39" height="49" viewBox="0 0 39 49" fill="none" xmlns="http://www.w3.org/2000/svg">
<g clip-path="url(#clip0_969_2522)">
<path d="M3.5245 50.0029H2.7468C2.7326 49.9023 2.7036 49.8129 2.6598 49.7348C2.616 49.6555 2.55978 49.588 2.49112 49.5324C2.42247 49.4768 2.34316 49.4342 2.2532 49.4046C2.16442 49.375 2.06795 49.3602 1.96378 49.3602C1.77557 49.3602 1.61162 49.4069 1.47195 49.5004C1.33227 49.5928 1.22396 49.7277 1.14702 49.9053C1.07008 50.0816 1.03161 50.2959 1.03161 50.548C1.03161 50.8073 1.07008 51.0251 1.14702 51.2014C1.22514 51.3778 1.33404 51.511 1.47372 51.6009C1.6134 51.6909 1.77498 51.7359 1.95845 51.7359C2.06143 51.7359 2.15672 51.7223 2.24432 51.695C2.3331 51.6678 2.41181 51.6282 2.48047 51.5761C2.54912 51.5228 2.60594 51.4583 2.65092 51.3825C2.69709 51.3068 2.72905 51.2204 2.7468 51.1233L3.5245 51.1269C3.50438 51.2938 3.45407 51.4548 3.37358 51.6098C3.29427 51.7637 3.18714 51.9016 3.0522 52.0235C2.91844 52.1443 2.75864 52.2401 2.5728 52.3112C2.38814 52.381 2.17921 52.4159 1.94602 52.4159C1.62169 52.4159 1.33168 52.3425 1.07599 52.1958C0.821496 52.049 0.620265 51.8365 0.472301 51.5583C0.325521 51.2802 0.252131 50.9434 0.252131 50.548C0.252131 50.1515 0.326705 49.8141 0.475852 49.536C0.625 49.2578 0.827415 49.0459 1.0831 48.9003C1.33878 48.7535 1.62642 48.6801 1.94602 48.6801C2.15672 48.6801 2.35204 48.7097 2.53196 48.7689C2.71307 48.8281 2.87346 48.9145 3.01314 49.0281C3.15282 49.1406 3.26645 49.2785 3.35405 49.4419C3.44283 49.6052 3.49964 49.7922 3.5245 50.0029ZM4.06161 52.3662V49.6389H4.79492V50.1148H4.82333C4.87305 49.9455 4.9565 49.8177 5.07369 49.7313C5.19087 49.6437 5.32582 49.5999 5.47852 49.5999C5.51639 49.5999 5.55723 49.6022 5.60103 49.607C5.64483 49.6117 5.6833 49.6182 5.71644 49.6265V50.2977C5.68093 50.287 5.63181 50.2776 5.56907 50.2693C5.50633 50.261 5.44892 50.2568 5.39684 50.2568C5.28557 50.2568 5.18614 50.2811 5.09854 50.3296C5.01213 50.377 4.94348 50.4433 4.89258 50.5285C4.84286 50.6137 4.818 50.712 4.818 50.8232V52.3662H4.06161ZM7.22346 52.4195C6.94292 52.4195 6.70144 52.3627 6.49902 52.249C6.29779 52.1342 6.14273 51.972 6.03382 51.7625C5.92492 51.5518 5.87047 51.3026 5.87047 51.015C5.87047 50.7345 5.92492 50.4883 6.03382 50.2764C6.14273 50.0645 6.29602 49.8994 6.4937 49.781C6.69256 49.6626 6.92575 49.6034 7.19327 49.6034C7.37319 49.6034 7.54069 49.6324 7.69576 49.6904C7.85201 49.7472 7.98813 49.8331 8.10414 49.9479C8.22132 50.0627 8.31247 50.2071 8.37757 50.3811C8.44268 50.5539 8.47523 50.7564 8.47523 50.9884V51.1961H6.17232V50.7274H7.76323C7.76323 50.6185 7.73955 50.522 7.69221 50.4379C7.64486 50.3539 7.57916 50.2882 7.49512 50.2409C7.41226 50.1923 7.31578 50.1681 7.2057 50.1681C7.09088 50.1681 6.98908 50.1947 6.9003 50.248C6.81271 50.3 6.74405 50.3705 6.69434 50.4593C6.64462 50.5468 6.61917 50.6445 6.61799 50.7522V51.1979C6.61799 51.3328 6.64284 51.4494 6.69256 51.5477C6.74346 51.6459 6.81507 51.7217 6.9074 51.7749C6.99973 51.8282 7.10923 51.8548 7.23588 51.8548C7.31993 51.8548 7.39687 51.843 7.46671 51.8193C7.53655 51.7957 7.59632 51.7602 7.64604 51.7128C7.69576 51.6655 7.73364 51.6075 7.75968 51.5388L8.45925 51.585C8.42374 51.753 8.35094 51.8998 8.24086 52.0253C8.13195 52.1496 7.99109 52.2467 7.81827 52.3165C7.64663 52.3852 7.44836 52.4195 7.22346 52.4195ZM9.74654 52.4177C9.57253 52.4177 9.41747 52.3875 9.28134 52.3271C9.14521 52.2656 9.03749 52.175 8.95819 52.0555C8.88006 51.9347 8.841 51.7844 8.841 51.6045C8.841 51.453 8.86882 51.3257 8.92445 51.2227C8.98008 51.1198 9.05584 51.0369 9.15172 50.9742C9.2476 50.9114 9.3565 50.8641 9.47843 50.8321C9.60153 50.8002 9.73056 50.7777 9.8655 50.7646C10.0241 50.7481 10.152 50.7327 10.249 50.7185C10.3461 50.7031 10.4165 50.6806 10.4603 50.651C10.5041 50.6214 10.526 50.5776 10.526 50.5196V50.509C10.526 50.3965 10.4905 50.3095 10.4195 50.248C10.3496 50.1864 10.2502 50.1556 10.1212 50.1556C9.98506 50.1556 9.87675 50.1858 9.79625 50.2462C9.71576 50.3054 9.66249 50.3799 9.63645 50.4699L8.93688 50.4131C8.97239 50.2474 9.04223 50.1041 9.1464 49.9834C9.25056 49.8615 9.38491 49.768 9.54945 49.7029C9.71517 49.6366 9.90693 49.6034 10.1247 49.6034C10.2762 49.6034 10.4213 49.6212 10.5597 49.6567C10.6994 49.6922 10.8231 49.7472 10.9308 49.8218C11.0397 49.8964 11.1256 49.9923 11.1883 50.1095C11.251 50.2255 11.2824 50.3646 11.2824 50.5267V52.3662H10.5651V51.988H10.5438C10.5 52.0732 10.4414 52.1484 10.368 52.2135C10.2946 52.2774 10.2064 52.3277 10.1034 52.3644C10.0004 52.3999 9.88148 52.4177 9.74654 52.4177ZM9.96316 51.8957C10.0744 51.8957 10.1727 51.8738 10.2579 51.83C10.3431 51.785 10.41 51.7246 10.4585 51.6489C10.5071 51.5731 10.5313 51.4873 10.5313 51.3914V51.102C10.5077 51.1174 10.4751 51.1316 10.4337 51.1446C10.3934 51.1565 10.3479 51.1677 10.297 51.1784C10.2461 51.1878 10.1952 51.1967 10.1443 51.205C10.0934 51.2121 10.0472 51.2186 10.0058 51.2245C9.91699 51.2375 9.83946 51.2583 9.77317 51.2867C9.70688 51.3151 9.65539 51.3535 9.6187 51.4021C9.582 51.4494 9.56365 51.5086 9.56365 51.5796C9.56365 51.6826 9.60094 51.7613 9.67551 51.8158C9.75127 51.8691 9.84715 51.8957 9.96316 51.8957ZM13.3199 49.6389V50.2071H11.6775V49.6389H13.3199ZM12.0503 48.9855H12.8067V51.5281C12.8067 51.598 12.8174 51.6524 12.8387 51.6915C12.86 51.7294 12.8896 51.756 12.9275 51.7714C12.9665 51.7868 13.0115 51.7945 13.0624 51.7945C13.0979 51.7945 13.1334 51.7915 13.1689 51.7856C13.2045 51.7785 13.2317 51.7732 13.2506 51.7696L13.3696 52.3325C13.3317 52.3443 13.2784 52.3579 13.2098 52.3733C13.1411 52.3899 13.0577 52.3999 12.9594 52.4035C12.7771 52.4106 12.6173 52.3863 12.48 52.3307C12.3439 52.2751 12.238 52.1887 12.1622 52.0715C12.0864 51.9543 12.0492 51.8063 12.0503 51.6276V48.9855ZM15.0262 52.4195C14.7456 52.4195 14.5042 52.3627 14.3018 52.249C14.1005 52.1342 13.9455 51.972 13.8366 51.7625C13.7277 51.5518 13.6732 51.3026 13.6732 51.015C13.6732 50.7345 13.7277 50.4883 13.8366 50.2764C13.9455 50.0645 14.0988 49.8994 14.2964 49.781C14.4953 49.6626 14.7285 49.6034 14.996 49.6034C15.1759 49.6034 15.3434 49.6324 15.4985 49.6904C15.6547 49.7472 15.7909 49.8331 15.9069 49.9479C16.0241 50.0627 16.1152 50.2071 16.1803 50.3811C16.2454 50.5539 16.278 50.7564 16.278 50.9884V51.1961H13.9751V50.7274H15.566C15.566 50.6185 15.5423 50.522 15.4949 50.4379C15.4476 50.3539 15.3819 50.2882 15.2979 50.2409C15.215 50.1923 15.1185 50.1681 15.0084 50.1681C14.8936 50.1681 14.7918 50.1947 14.703 50.248C14.6154 50.3 14.5468 50.3705 14.4971 50.4593C14.4474 50.5468 14.4219 50.6445 14.4207 50.7522V51.1979C14.4207 51.3328 14.4456 51.4494 14.4953 51.5477C14.5462 51.6459 14.6178 51.7217 14.7101 51.7749C14.8025 51.8282 14.912 51.8548 15.0386 51.8548C15.1227 51.8548 15.1996 51.843 15.2694 51.8193C15.3393 51.7957 15.3991 51.7602 15.4488 51.7128C15.4985 51.6655 15.5364 51.6075 15.5624 51.5388L16.262 51.585C16.2265 51.753 16.1537 51.8998 16.0436 52.0253C15.9347 52.1496 15.7938 52.2467 15.621 52.3165C15.4494 52.3852 15.2511 52.4195 15.0262 52.4195ZM17.7765 52.4106C17.5694 52.4106 17.3818 52.3573 17.2137 52.2508C17.0468 52.1431 16.9142 51.9851 16.816 51.7767C16.7189 51.5672 16.6704 51.3103 16.6704 51.0061C16.6704 50.6936 16.7207 50.4338 16.8213 50.2267C16.9219 50.0183 17.0557 49.8627 17.2226 49.7597C17.3907 49.6555 17.5747 49.6034 17.7748 49.6034C17.9275 49.6034 18.0547 49.6295 18.1565 49.6816C18.2595 49.7325 18.3424 49.7964 18.4051 49.8733C18.469 49.9491 18.5175 50.0236 18.5507 50.097H18.5738V48.7298H19.3284V52.3662H18.5827V51.9294H18.5507C18.5152 52.0052 18.4649 52.0803 18.3998 52.1549C18.3358 52.2283 18.2524 52.2893 18.1494 52.3378C18.0476 52.3863 17.9233 52.4106 17.7765 52.4106ZM18.0162 51.8087C18.1382 51.8087 18.2412 51.7755 18.3252 51.7093C18.4104 51.6418 18.4755 51.5477 18.5205 51.4269C18.5667 51.3062 18.5898 51.1647 18.5898 51.0026C18.5898 50.8404 18.5673 50.6995 18.5223 50.58C18.4773 50.4604 18.4122 50.3681 18.327 50.303C18.2417 50.2379 18.1382 50.2053 18.0162 50.2053C17.892 50.2053 17.7872 50.2391 17.702 50.3066C17.6167 50.374 17.5522 50.4675 17.5084 50.5871C17.4646 50.7066 17.4427 50.8451 17.4427 51.0026C17.4427 51.1612 17.4646 51.3015 17.5084 51.4234C17.5534 51.5441 17.6179 51.6388 17.702 51.7075C17.7872 51.7749 17.892 51.8087 18.0162 51.8087ZM21.1217 52.3662V48.7298H21.8781V50.097H21.9012C21.9343 50.0236 21.9823 49.9491 22.045 49.8733C22.1089 49.7964 22.1918 49.7325 22.2936 49.6816C22.3966 49.6295 22.5244 49.6034 22.6771 49.6034C22.876 49.6034 23.0595 49.6555 23.2275 49.7597C23.3956 49.8627 23.53 50.0183 23.6306 50.2267C23.7312 50.4338 23.7815 50.6936 23.7815 51.0061C23.7815 51.3103 23.7324 51.5672 23.6341 51.7767C23.5371 51.9851 23.4045 52.1431 23.2364 52.2508C23.0695 52.3573 22.8825 52.4106 22.6753 52.4106C22.5286 52.4106 22.4037 52.3863 22.3007 52.3378C22.1989 52.2893 22.1154 52.2283 22.0503 52.1549C21.9852 52.0803 21.9355 52.0052 21.9012 51.9294H21.8675V52.3662H21.1217ZM21.8621 51.0026C21.8621 51.1647 21.8846 51.3062 21.9296 51.4269C21.9746 51.5477 22.0397 51.6418 22.1249 51.7093C22.2101 51.7755 22.3137 51.8087 22.4356 51.8087C22.5587 51.8087 22.6629 51.7749 22.7481 51.7075C22.8334 51.6388 22.8979 51.5441 22.9417 51.4234C22.9867 51.3015 23.0091 51.1612 23.0091 51.0026C23.0091 50.8451 22.9872 50.7066 22.9434 50.5871C22.8997 50.4675 22.8351 50.374 22.7499 50.3066C22.6647 50.2391 22.5599 50.2053 22.4356 50.2053C22.3125 50.2053 22.2084 50.2379 22.1231 50.303C22.0391 50.3681 21.9746 50.4604 21.9296 50.58C21.8846 50.6995 21.8621 50.8404 21.8621 51.0026ZM24.6653 53.3889C24.5694 53.3889 24.4795 53.3812 24.3954 53.3659C24.3126 53.3517 24.2439 53.3333 24.1895 53.3108L24.3599 52.7462C24.4487 52.7734 24.5286 52.7882 24.5996 52.7906C24.6718 52.7929 24.734 52.7764 24.786 52.7409C24.8393 52.7053 24.8825 52.645 24.9157 52.5597L24.96 52.4443L23.9817 49.6389H24.7772L25.3418 51.6418H25.3702L25.9402 49.6389H26.7409L25.6809 52.661C25.63 52.8077 25.5608 52.9356 25.4732 53.0445C25.3868 53.1546 25.2773 53.2392 25.1447 53.2984C25.0121 53.3588 24.8523 53.3889 24.6653 53.3889ZM1.77202 54.7298H2.53196V57.2654C2.53196 57.4997 2.47929 57.7033 2.37393 57.8762C2.26977 58.049 2.12476 58.1821 1.93892 58.2757C1.75308 58.3692 1.53705 58.4159 1.29084 58.4159C1.07185 58.4159 0.872988 58.3775 0.694247 58.3005C0.51669 58.2224 0.375829 58.104 0.271662 57.9454C0.167495 57.7856 0.116004 57.585 0.117188 57.3435H0.882457C0.884825 57.4394 0.904356 57.5216 0.941051 57.5903C0.97893 57.6578 1.03042 57.7098 1.09553 57.7465C1.16181 57.782 1.23994 57.7998 1.3299 57.7998C1.4246 57.7998 1.5045 57.7797 1.5696 57.7394C1.63589 57.698 1.6862 57.6376 1.72053 57.5583C1.75485 57.479 1.77202 57.3814 1.77202 57.2654V54.7298ZM4.39631 58.4195C4.11577 58.4195 3.87429 58.3627 3.67188 58.249C3.47064 58.1342 3.31558 57.972 3.20668 57.7625C3.09777 57.5518 3.04332 57.3026 3.04332 57.015C3.04332 56.7345 3.09777 56.4883 3.20668 56.2764C3.31558 56.0645 3.46887 55.8994 3.66655 55.781C3.86541 55.6626 4.0986 55.6034 4.36612 55.6034C4.54605 55.6034 4.71354 55.6324 4.86861 55.6904C5.02486 55.7472 5.16098 55.8331 5.27699 55.9479C5.39418 56.0627 5.48532 56.2071 5.55043 56.3811C5.61553 56.5539 5.64808 56.7564 5.64808 56.9884V57.1961H3.34517V56.7274H4.93608C4.93608 56.6185 4.91241 56.522 4.86506 56.4379C4.81771 56.3539 4.75201 56.2882 4.66797 56.2409C4.58511 56.1923 4.48864 56.1681 4.37855 56.1681C4.26373 56.1681 4.16193 56.1947 4.07315 56.248C3.98556 56.3 3.9169 56.3705 3.86719 56.4593C3.81747 56.5468 3.79202 56.6445 3.79084 56.7522V57.1979C3.79084 57.3328 3.8157 57.4494 3.86541 57.5477C3.91631 57.6459 3.98793 57.7217 4.08026 57.7749C4.17259 57.8282 4.28208 57.8548 4.40874 57.8548C4.49278 57.8548 4.56972 57.843 4.63956 57.8193C4.7094 57.7957 4.76918 57.7602 4.81889 57.7128C4.86861 57.6655 4.90649 57.6075 4.93253 57.5388L5.6321 57.585C5.59659 57.753 5.52379 57.8998 5.41371 58.0253C5.30481 58.1496 5.16394 58.2467 4.99112 58.3165C4.81948 58.3852 4.62121 58.4195 4.39631 58.4195ZM8.41087 56.4166L7.71839 56.4593C7.70656 56.4001 7.68111 56.3468 7.64205 56.2994C7.60298 56.2509 7.55149 56.2124 7.48757 56.184C7.42483 56.1544 7.34967 56.1396 7.26207 56.1396C7.14489 56.1396 7.04605 56.1645 6.96555 56.2142C6.88506 56.2628 6.84482 56.3279 6.84482 56.4095C6.84482 56.4746 6.87086 56.5297 6.92294 56.5747C6.97502 56.6196 7.06439 56.6557 7.19105 56.683L7.68466 56.7824C7.94981 56.8369 8.14749 56.9244 8.2777 57.0452C8.40791 57.1659 8.47301 57.3245 8.47301 57.521C8.47301 57.6998 8.42034 57.8566 8.31499 57.9916C8.21082 58.1265 8.06759 58.2319 7.8853 58.3076C7.70419 58.3822 7.49527 58.4195 7.25852 58.4195C6.89749 58.4195 6.60985 58.3443 6.3956 58.194C6.18253 58.0425 6.05765 57.8365 6.02095 57.5761L6.76491 57.537C6.78741 57.6471 6.84186 57.7311 6.92827 57.7892C7.01468 57.846 7.12536 57.8744 7.2603 57.8744C7.39287 57.8744 7.49941 57.8489 7.5799 57.798C7.66158 57.7459 7.70301 57.6791 7.70419 57.5974C7.70301 57.5287 7.67401 57.4725 7.61719 57.4287C7.56037 57.3837 7.47277 57.3494 7.3544 57.3257L6.8821 57.2316C6.61577 57.1784 6.4175 57.086 6.28729 56.9546C6.15826 56.8232 6.09375 56.6557 6.09375 56.4521C6.09375 56.277 6.1411 56.126 6.2358 55.9994C6.33168 55.8727 6.46603 55.7751 6.63885 55.7064C6.81286 55.6378 7.01645 55.6034 7.24964 55.6034C7.59411 55.6034 7.86518 55.6762 8.06286 55.8218C8.26172 55.9674 8.37772 56.1657 8.41087 56.4166ZM11.2185 56.4166L10.526 56.4593C10.5142 56.4001 10.4887 56.3468 10.4497 56.2994C10.4106 56.2509 10.3591 56.2124 10.2952 56.184C10.2325 56.1544 10.1573 56.1396 10.0697 56.1396C9.9525 56.1396 9.85366 56.1645 9.77317 56.2142C9.69268 56.2628 9.65243 56.3279 9.65243 56.4095C9.65243 56.4746 9.67847 56.5297 9.73056 56.5747C9.78264 56.6196 9.87201 56.6557 9.99867 56.683L10.4923 56.7824C10.7574 56.8369 10.9551 56.9244 11.0853 57.0452C11.2155 57.1659 11.2806 57.3245 11.2806 57.521C11.2806 57.6998 11.228 57.8566 11.1226 57.9916C11.0184 58.1265 10.8752 58.2319 10.6929 58.3076C10.5118 58.3822 10.3029 58.4195 10.0661 58.4195C9.70511 58.4195 9.41747 58.3443 9.20321 58.194C8.99015 58.0425 8.86526 57.8365 8.82857 57.5761L9.57253 57.537C9.59502 57.6471 9.64947 57.7311 9.73588 57.7892C9.8223 57.846 9.93297 57.8744 10.0679 57.8744C10.2005 57.8744 10.307 57.8489 10.3875 57.798C10.4692 57.7459 10.5106 57.6791 10.5118 57.5974C10.5106 57.5287 10.4816 57.4725 10.4248 57.4287C10.368 57.3837 10.2804 57.3494 10.162 57.3257L9.68972 57.2316C9.42338 57.1784 9.22511 57.086 9.0949 56.9546C8.96588 56.8232 8.90137 56.6557 8.90137 56.4521C8.90137 56.277 8.94872 56.126 9.04341 55.9994C9.13929 55.8727 9.27364 55.7751 9.44647 55.7064C9.62047 55.6378 9.82407 55.6034 10.0573 55.6034C10.4017 55.6034 10.6728 55.6762 10.8705 55.8218C11.0693 55.9674 11.1853 56.1657 11.2185 56.4166ZM11.7569 58.3662V55.6389H12.5133V58.3662H11.7569ZM12.1369 55.2874C12.0244 55.2874 11.928 55.2501 11.8475 55.1755C11.7682 55.0998 11.7285 55.0092 11.7285 54.9039C11.7285 54.7997 11.7682 54.7103 11.8475 54.6357C11.928 54.56 12.0244 54.5221 12.1369 54.5221C12.2493 54.5221 12.3452 54.56 12.4245 54.6357C12.505 54.7103 12.5453 54.7997 12.5453 54.9039C12.5453 55.0092 12.505 55.0998 12.4245 55.1755C12.3452 55.2501 12.2493 55.2874 12.1369 55.2874ZM14.3479 59.4458C14.1029 59.4458 13.8928 59.412 13.7176 59.3445C13.5436 59.2783 13.4051 59.1877 13.3021 59.0729C13.1991 58.9581 13.1323 58.829 13.1015 58.6858L13.801 58.5917C13.8224 58.6462 13.8561 58.6971 13.9023 58.7444C13.9484 58.7918 14.0094 58.8296 14.0851 58.858C14.1621 58.8876 14.2556 58.9024 14.3657 58.9024C14.5302 58.9024 14.6657 58.8622 14.7723 58.7817C14.88 58.7024 14.9339 58.5692 14.9339 58.3822V57.8833H14.9019C14.8688 57.959 14.819 58.0306 14.7528 58.0981C14.6865 58.1656 14.6012 58.2206 14.4971 58.2632C14.3929 58.3058 14.2686 58.3271 14.1242 58.3271C13.9194 58.3271 13.733 58.2798 13.5649 58.1851C13.398 58.0892 13.2648 57.943 13.1654 57.7465C13.0671 57.5489 13.018 57.2991 13.018 56.9972C13.018 56.6883 13.0683 56.4302 13.1689 56.2231C13.2696 56.016 13.4033 55.8609 13.5702 55.7579C13.7383 55.6549 13.9224 55.6034 14.1224 55.6034C14.2751 55.6034 14.403 55.6295 14.5059 55.6816C14.6089 55.7325 14.6918 55.7964 14.7545 55.8733C14.8184 55.9491 14.8676 56.0236 14.9019 56.097H14.9303V55.6389H15.6814V58.3928C15.6814 58.6249 15.6246 58.819 15.5109 58.9752C15.3973 59.1315 15.2398 59.2487 15.0386 59.3268C14.8386 59.4061 14.6083 59.4458 14.3479 59.4458ZM14.3639 57.759C14.4858 57.759 14.5888 57.7288 14.6729 57.6684C14.7581 57.6069 14.8232 57.5193 14.8682 57.4056C14.9143 57.2908 14.9374 57.1535 14.9374 56.9937C14.9374 56.8339 14.9149 56.6954 14.8699 56.5782C14.825 56.4598 14.7599 56.3681 14.6746 56.303C14.5894 56.2379 14.4858 56.2053 14.3639 56.2053C14.2396 56.2053 14.1349 56.2391 14.0496 56.3066C13.9644 56.3728 13.8999 56.4652 13.8561 56.5835C13.8123 56.7019 13.7904 56.8386 13.7904 56.9937C13.7904 57.1511 13.8123 57.2873 13.8561 57.4021C13.9011 57.5157 13.9656 57.6039 14.0496 57.6666C14.1349 57.7282 14.2396 57.759 14.3639 57.759ZM18.0322 57.205V55.6389H18.7886V58.3662H18.0624V57.8708H18.034C17.9724 58.0306 17.8701 58.1591 17.7268 58.2561C17.5848 58.3532 17.4114 58.4017 17.2066 58.4017C17.0243 58.4017 16.8639 58.3603 16.7254 58.2774C16.5869 58.1946 16.4786 58.0768 16.4005 57.9241C16.3235 57.7714 16.2845 57.5885 16.2833 57.3754V55.6389H17.0397V57.2405C17.0409 57.4015 17.0841 57.5287 17.1693 57.6222C17.2545 57.7158 17.3688 57.7625 17.512 57.7625C17.6031 57.7625 17.6884 57.7418 17.7677 57.7004C17.847 57.6578 17.9109 57.595 17.9594 57.5122C18.0091 57.4293 18.0334 57.3269 18.0322 57.205ZM20.6365 58.4195C20.356 58.4195 20.1145 58.3627 19.9121 58.249C19.7109 58.1342 19.5558 57.972 19.4469 57.7625C19.338 57.5518 19.2836 57.3026 19.2836 57.015C19.2836 56.7345 19.338 56.4883 19.4469 56.2764C19.5558 56.0645 19.7091 55.8994 19.9068 55.781C20.1056 55.6626 20.3388 55.6034 20.6064 55.6034C20.7863 55.6034 20.9538 55.6324 21.1088 55.6904C21.2651 55.7472 21.4012 55.8331 21.5172 55.9479C21.6344 56.0627 21.7256 56.2071 21.7907 56.3811C21.8558 56.5539 21.8883 56.7564 21.8883 56.9884V57.1961H19.5854V56.7274H21.1763C21.1763 56.6185 21.1526 56.522 21.1053 56.4379C21.0579 56.3539 20.9922 56.2882 20.9082 56.2409C20.8253 56.1923 20.7289 56.1681 20.6188 56.1681C20.504 56.1681 20.4022 56.1947 20.3134 56.248C20.2258 56.3 20.1571 56.3705 20.1074 56.4593C20.0577 56.5468 20.0323 56.6445 20.0311 56.7522V57.1979C20.0311 57.3328 20.0559 57.4494 20.1056 57.5477C20.1565 57.6459 20.2282 57.7217 20.3205 57.7749C20.4128 57.8282 20.5223 57.8548 20.649 57.8548C20.733 57.8548 20.81 57.843 20.8798 57.8193C20.9496 57.7957 21.0094 57.7602 21.0591 57.7128C21.1088 57.6655 21.1467 57.6075 21.1728 57.5388L21.8723 57.585C21.8368 57.753 21.764 57.8998 21.6539 58.0253C21.545 58.1496 21.4042 58.2467 21.2314 58.3165C21.0597 58.3852 20.8614 58.4195 20.6365 58.4195Z" fill="black"/>
<g filter="url(#filter0_d_969_2522)">
<path d="M11.9513 23.3144L15.0992 23.3144L15.0992 34.9128L22.6449 19.6404L18.2416 19.6403L23.9057 6.77781L11.9513 6.77781L11.9513 23.3144Z" stroke="black" stroke-width="0.7" stroke-linecap="round" shape-rendering="crispEdges"/>
</g>
</g>
<defs>
<filter id="filter0_d_969_2522" x="7.59961" y="6.42969" width="20.8418" height="36.6328" filterUnits="userSpaceOnUse" color-interpolation-filters="sRGB">
<feFlood flood-opacity="0" result="BackgroundImageFix"/>
<feColorMatrix in="SourceAlpha" type="matrix" values="0 0 0 0 0 0 0 0 0 0 0 0 0 0 0 0 0 0 127 0" result="hardAlpha"/>
<feOffset dy="4"/>
<feGaussianBlur stdDeviation="2"/>
<feComposite in2="hardAlpha" operator="out"/>
<feColorMatrix type="matrix" values="0 0 0 0 0 0 0 0 0 0 0 0 0 0 0 0 0 0 0.25 0"/>
<feBlend mode="normal" in2="BackgroundImageFix" result="effect1_dropShadow_969_2522"/>
<feBlend mode="normal" in="SourceGraphic" in2="effect1_dropShadow_969_2522" result="shape"/>
</filter>
<clipPath id="clip0_969_2522">
<rect width="39" height="49" fill="white"/>
</clipPath>
</defs>
</svg>
