<svg width="32" height="32" viewBox="0 0 32 32" fill="none" xmlns="http://www.w3.org/2000/svg">
<g clip-path="url(#clip0_941_9324)">
<path d="M24 31.3601H8V30.6401H11.64V29.0001C11.64 28.8011 11.801 28.6401 12 28.6401H12.64V24.3601H12V23.6401H12.64V22.0001C12.64 21.8011 12.801 21.6401 13 21.6401H13.64V14.0741L12.679 11.8311L12.255 12.2551L11.746 11.7461L12.373 11.1181L10.669 7.14207L11.331 6.85907L12.921 10.5701L13.57 9.92107L11.766 5.86007H11C10.801 5.86007 10.64 5.69907 10.64 5.50007V4.36007H10V3.64007H12V4.36007H11.36V5.14007H12C12.142 5.14007 12.271 5.22307 12.329 5.35407L14.234 9.64007H14.689C14.719 9.52907 14.763 9.42507 14.818 9.32707L13.996 8.50407L14.505 7.99507L15.327 8.81707C15.425 8.76107 15.53 8.71707 15.64 8.68707V7.45007H16.36V8.68707C16.471 8.71807 16.576 8.76207 16.673 8.81707L17.495 7.99507L18.005 8.50407L17.183 9.32707C17.238 9.42407 17.282 9.52907 17.312 9.64007H18.5V10.3601H17.36V11.0001C17.36 11.0961 17.322 11.1871 17.255 11.2541L16.869 11.6401H17.586C17.944 11.6401 18.294 11.7851 18.548 12.0381L19.75 13.2401L20.245 12.7451L20.755 13.2541L18.36 15.6491V16.1401H18.85L20.745 14.2451L21.255 14.7541L19.255 16.7541C19.188 16.8221 19.096 16.8601 19 16.8601H18.36V21.6401H19C19.199 21.6401 19.36 21.8011 19.36 22.0001V23.6401H20V24.3611H19.36V28.6401H20C20.199 28.6401 20.36 28.8011 20.36 29.0001V30.6401H24V31.3601ZM16.36 30.6401H19.64V29.3601H12.36V30.6391H15.64V30.0001H16.36V30.6401ZM13.36 28.6401H18.64V24.3601H13.36V28.6401ZM16.36 23.6401H18.64V22.3601H13.36V23.6391H15.64V23.0001H16.36V23.6401ZM14.36 21.6401H17.64V15.5001C17.64 15.4041 17.678 15.3131 17.745 15.2461L19.241 13.7501L18.038 12.5471C18.025 12.5341 18.012 12.5221 17.998 12.5101L14.36 16.1481V19.1301L16.246 17.2441L16.755 17.7541L14.36 20.1491V21.6401ZM13.227 11.2821L14.331 13.8581C14.35 13.9031 14.36 13.9511 14.36 14.0001V15.1311L17.131 12.3601H16.5C16.301 12.3601 16.14 12.1991 16.14 12.0001V11.5001C16.14 11.4041 16.178 11.3131 16.245 11.2461L16.64 10.8511V10.0001C16.64 9.64607 16.355 9.35907 16.005 9.35907C15.647 9.35907 15.36 9.64707 15.36 10.0001V11.0001H14.64V10.3601H14.149L13.227 11.2821ZM17.86 26.8121H17.14V25.1871H17.861L17.86 26.8121ZM16.36 26.8121H15.64V25.1871H16.36V26.8121ZM14.86 26.8121H14.14V25.1871H14.86V26.8121ZM11.36 3.00307L10.64 3.00007C10.64 2.45307 11.002 1.64007 12 1.64007C12.583 1.64007 12.637 1.14807 12.64 0.99707L13.36 1.00007C13.36 1.54707 12.998 2.36007 12 2.36007C11.417 2.36007 11.363 2.85207 11.36 3.00307Z" fill="black"/>
</g>
<defs>
<clipPath id="clip0_941_9324">
<rect width="32" height="32" fill="white"/>
</clipPath>
</defs>
</svg>
