<svg width="100" height="100" viewBox="0 0 100 100" fill="none" xmlns="http://www.w3.org/2000/svg">
<g clip-path="url(#clip0_1503_2082)">
<path d="M91.75 96.875H89.5C89.5 79.5281 76.6187 63.875 58.8656 59.6594C58.3969 59.5469 58.05 59.15 58.0062 58.6688C57.9594 58.1906 58.225 57.7344 58.6687 57.5375C66.35 54.1094 71.3125 46.4687 71.3125 38.0656C71.3125 37.5937 71.2969 37.125 71.2687 36.6625C66.175 39.4969 59.6125 34.3752 49.6906 34.3752C39.8406 34.3752 33.8406 39.5219 28.8406 36.7219L28.7344 36.6625C28.7031 37.125 28.6875 37.5938 28.6875 38.0625C28.6875 46.4688 33.6625 54.1125 41.3625 57.5344C41.8031 57.7281 42.0719 58.1875 42.025 58.6656C41.9812 59.1469 41.6344 59.5438 41.1656 59.6563C23.3969 63.8719 10.5 79.525 10.5 96.875H8.25C8.25 79.4219 20.5344 63.6031 37.8437 58.2344C30.8312 54.0063 26.4375 46.3719 26.4375 38.0625C26.4375 34.6781 27.1375 31.4281 28.5219 28.3875L28.3031 28.1156L20.9187 16.2156C20.7281 15.9094 20.7 15.5344 20.8344 15.2C20.9687 14.8687 21.2562 14.6188 21.6062 14.5313C21.6781 14.5125 29.0219 12.6344 31.9719 7.26875C32.1687 6.90937 32.5469 6.68437 32.9562 6.68437C41.2344 6.68437 44.9031 5.6875 49.3031 2.2375C49.7125 1.91563 50.2812 1.91563 50.6906 2.2375C54.875 5.51875 57.9156 6.68437 66.6312 6.68437C67.0406 6.68437 67.4187 6.90625 67.6156 7.26875C70.575 12.6437 78.3031 14.5094 78.3781 14.5281C78.3781 14.5281 79.0219 14.8562 79.1594 15.1906C79.3 15.525 79.0812 16.2125 79.0812 16.2125L71.5062 28.45C72.8687 31.4719 73.5594 34.7 73.5594 38.0625C73.5594 46.3656 69.175 54 62.175 58.2344C79.4781 63.6031 91.75 79.425 91.75 96.875ZM50.0156 28.9844C59.7625 28.9844 65.5031 31.0688 70.8187 33.4781C70.4656 31.8656 69.9187 30.3 69.1875 28.7937C64.2969 26.5812 59.0156 24.6625 50.0562 24.6625C40.2469 24.6625 34.4094 26.9594 30.7969 28.8281C30.075 30.3156 29.5375 31.8625 29.1844 33.4531C35.1937 30.4094 41.8406 28.9844 50.0156 28.9844ZM50.0562 22.4156C59.3969 22.4156 64.9125 24.3969 70.0062 26.6969L76.3937 16.2875C73.8594 15.45 68.7094 13.2875 65.9875 8.93125C58.1719 8.88125 54.5375 25.7594 50.0562 22.4156C45.6406 25.6812 41.525 8.87812 33.6031 8.93125C30.9219 13.2562 26.0375 15.4187 23.5969 16.2719L30.0531 26.6875C35.825 23.775 42.2125 22.4156 50.0562 22.4156ZM40.625 85.5L32.8105 90.6252L25 85.5V83.25H40.625V85.5ZM50 20.8125C49.8969 20.8125 49.7906 20.8 49.6906 20.7687C47 19.9969 44.9687 17.325 44.9687 14.5531V11.4875C44.9687 10.8656 45.4719 10.3625 46.0937 10.3625C47.9687 10.3625 48.5281 10.0687 49.2844 9.44687C49.7 9.10312 50.3 9.10312 50.7156 9.44687C51.4719 10.0687 52.0312 10.3625 53.9062 10.3625C54.5281 10.3625 55.0312 10.8656 55.0312 11.4875V14.5531C55.0312 17.325 53.0031 19.9969 50.3094 20.7687C50.2094 20.7969 50.1062 20.8125 50 20.8125ZM47.2187 12.5719V14.5531C47.2187 15.9906 48.2719 17.8406 50 18.5C51.725 17.8406 52.7812 15.9906 52.7812 14.5531V12.5719C51.6312 12.4812 50.8094 12.225 50 11.7094C49.1937 12.225 48.3719 12.4812 47.2187 12.5719Z" fill="black"/>
<g clip-path="url(#clip1_1503_2082)">
<path d="M72.4609 96.375C72.4126 96.375 72.3643 96.3648 72.3194 96.3453L67.1875 94.0641L62.0556 96.3453C61.9571 96.3891 61.8402 96.3836 61.7471 96.3328C61.6548 96.2812 61.5977 96.1914 61.5977 96.0937V86.8539C59.4593 85.3719 58.082 83.0609 58.082 80.4687C58.082 76.0062 62.1672 72.375 67.1875 72.375C72.2087 72.375 76.293 76.0055 76.293 80.4687C76.293 83.0602 74.9157 85.3711 72.7773 86.8539V96.0937C72.7773 96.1914 72.7202 96.2812 72.6271 96.3336C72.577 96.3609 72.5181 96.375 72.4609 96.375ZM67.1875 93.4687C67.2358 93.4687 67.2842 93.4789 67.329 93.4984L72.1445 95.6391V87.2555C70.7172 88.082 69.0139 88.5633 67.1875 88.5633C65.3603 88.5633 63.6578 88.082 62.2305 87.2555V95.6391L67.046 93.4984C67.0908 93.4781 67.1392 93.4687 67.1875 93.4687ZM67.1875 72.9375C62.5161 72.9375 58.7148 76.3164 58.7148 80.4687C58.7148 84.6211 62.5161 88 67.1875 88C71.8589 88 75.6602 84.6219 75.6602 80.4687C75.6602 76.3156 71.8589 72.9375 67.1875 72.9375ZM69.8242 84.6562C69.7548 84.6562 69.6862 84.6359 69.6282 84.5961L67.1875 82.8883L64.7468 84.5961C64.6404 84.6711 64.4919 84.6766 64.3785 84.6109C64.2651 84.5453 64.2115 84.4219 64.2449 84.3047L65.0623 81.5055L62.6075 79.9148C62.4968 79.843 62.4502 79.7164 62.4933 79.6008C62.5346 79.4844 62.6559 79.4062 62.793 79.4062H65.8639L66.886 76.4789C66.9687 76.2437 67.4081 76.2437 67.4907 76.4789L68.5129 79.4062H71.582C71.7191 79.4062 71.8404 79.4844 71.8835 79.6008C71.9257 79.7164 71.8791 79.8437 71.7684 79.9148L69.2811 81.5055L70.131 84.3047C70.1652 84.4211 70.1116 84.5445 69.9982 84.6109C69.9446 84.6406 69.884 84.6562 69.8242 84.6562ZM66.886 81.6663C66.9915 81.7343 66.5325 82.7766 66.5 82.8883L65.0922 83.6375L68.5129 79.4062C68.628 79.325 67.2675 82.2281 67.3826 82.3094L68.2782 81.6663V82.3094C66.821 83.1578 68.1736 80.0367 68.2782 79.9687C68.1394 79.9687 67.2288 81.2805 67.1875 81.1633V77.5117L67.4907 79.6008C67.4494 79.718 67.0249 81.6663 66.886 81.6663Z" fill="black"/>
<path d="M68.5129 79.4062L67.4907 76.4789C67.4081 76.2437 66.9687 76.2437 66.886 76.4789L65.8639 79.4062H62.793C62.6559 79.4062 62.5346 79.4844 62.4933 79.6008C62.4502 79.7164 62.4968 79.843 62.6075 79.9148L65.0623 81.5055L64.2449 84.3047C64.2115 84.4219 64.2651 84.5453 64.3785 84.6109C64.4919 84.6766 64.6404 84.6711 64.7468 84.5961L67.1875 82.8883L69.6282 84.5961C69.6862 84.6359 69.7548 84.6562 69.8242 84.6562C69.884 84.6562 69.9446 84.6406 69.9982 84.6109C70.1116 84.5445 70.1652 84.4211 70.131 84.3047L69.2811 81.5055L71.7684 79.9148C71.8791 79.8437 71.9257 79.7164 71.8835 79.6008C71.8404 79.4844 71.7191 79.4062 71.582 79.4062H68.5129ZM68.5129 79.4062L65.0922 83.6375L66.5 82.8883C66.5325 82.7766 66.9915 81.7343 66.886 81.6663M68.5129 79.4062C68.628 79.325 67.2675 82.2281 67.3826 82.3094L68.2782 81.6663V82.3094C66.821 83.1578 68.1736 80.0367 68.2782 79.9687M63.7642 79.9687L66.886 81.6663M66.886 81.6663C67.0249 81.6663 67.4494 79.718 67.4907 79.6008L67.1875 77.5117V81.1633C67.2288 81.2805 68.1394 79.9687 68.2782 79.9687M68.2782 79.9687H70.61M72.4609 96.375C72.4126 96.375 72.3643 96.3648 72.3194 96.3453L67.1875 94.0641L62.0556 96.3453C61.9571 96.3891 61.8402 96.3836 61.7471 96.3328C61.6548 96.2812 61.5977 96.1914 61.5977 96.0937V86.8539C59.4593 85.3719 58.082 83.0609 58.082 80.4687C58.082 76.0062 62.1672 72.375 67.1875 72.375C72.2087 72.375 76.293 76.0055 76.293 80.4687C76.293 83.0602 74.9157 85.3711 72.7773 86.8539V96.0937C72.7773 96.1914 72.7202 96.2812 72.6271 96.3336C72.577 96.3609 72.5181 96.375 72.4609 96.375ZM67.1875 93.4687C67.2358 93.4687 67.2842 93.4789 67.329 93.4984L72.1445 95.6391V87.2555C70.7172 88.082 69.0139 88.5633 67.1875 88.5633C65.3603 88.5633 63.6578 88.082 62.2305 87.2555V95.6391L67.046 93.4984C67.0908 93.4781 67.1392 93.4687 67.1875 93.4687ZM67.1875 72.9375C62.5161 72.9375 58.7148 76.3164 58.7148 80.4687C58.7148 84.6211 62.5161 88 67.1875 88C71.8589 88 75.6602 84.6219 75.6602 80.4687C75.6602 76.3156 71.8589 72.9375 67.1875 72.9375Z" stroke="black" stroke-width="0.3"/>
</g>
</g>
<defs>
<clipPath id="clip0_1503_2082">
<rect width="100" height="100" fill="white"/>
</clipPath>
<clipPath id="clip1_1503_2082">
<rect width="28.125" height="25" fill="white" transform="translate(53.125 71.875)"/>
</clipPath>
</defs>
</svg>
