<svg width="24" height="29" viewBox="0 0 24 29" fill="none" xmlns="http://www.w3.org/2000/svg">
<path d="M12 0L12.449 1.38197H13.9021L12.7265 2.23607L13.1756 3.61803L12 2.76393L10.8244 3.61803L11.2735 2.23607L10.0979 1.38197H11.551L12 0Z" fill="black"/>
<path d="M16 0L16.449 1.38197H17.9021L16.7265 2.23607L17.1756 3.61803L16 2.76393L14.8244 3.61803L15.2735 2.23607L14.0979 1.38197H15.551L16 0Z" fill="black"/>
<path d="M8 0L8.44903 1.38197H9.90211L8.72654 2.23607L9.17557 3.61803L8 2.76393L6.82443 3.61803L7.27346 2.23607L6.09789 1.38197H7.55097L8 0Z" fill="black"/>
<path d="M4 0L4.44903 1.38197H5.90211L4.72654 2.23607L5.17557 3.61803L4 2.76393L2.82443 3.61803L3.27346 2.23607L2.09789 1.38197H3.55097L4 0Z" fill="black"/>
<path d="M20 0L20.449 1.38197H21.9021L20.7265 2.23607L21.1756 3.61803L20 2.76393L18.8244 3.61803L19.2735 2.23607L18.0979 1.38197H19.551L20 0Z" fill="black"/>
<g clip-path="url(#clip0_941_9296)">
<path d="M23.25 5.48047V6.02047H0.75V5.48047H23.25ZM22.02 27.9805H23.25V28.5212H0.75V27.9805H1.98V7.25047H2.52V27.9805H9.48V22.2505C9.48 22.1012 9.60075 21.9805 9.75 21.9805H14.25C14.3993 21.9805 14.52 22.1012 14.52 22.2505V27.9805H21.4792V7.25047H22.02V27.9805ZM10.02 27.9805H13.98V22.5205H10.02V27.9805ZM4.77 8.75047H4.23V10.2505H4.77V8.75047ZM4.23 14.7505H4.77V13.2505H4.23V14.7505ZM4.23 19.2505H4.77V17.7505H4.23V19.2505ZM8.52 8.75047H7.98V10.2505H8.52V8.75047ZM7.98 14.7505H8.52V13.2505H7.98V14.7505ZM7.98 19.2505H8.52V17.7505H7.98V19.2505ZM12.27 8.75047H11.73V10.2505H12.27V8.75047ZM11.73 14.7505H12.27V13.2505H11.73V14.7505ZM11.73 19.2505H12.27V17.7505H11.73V19.2505ZM16.02 8.75047H15.48V10.2505H16.0208L16.02 8.75047ZM15.48 14.7505H16.0208V13.2505H15.48V14.7505ZM15.48 19.2505H16.0208V17.7505H15.48V19.2505ZM19.77 8.75047H19.23V10.2505H19.7708L19.77 8.75047ZM19.23 14.7505H19.7708V13.2505H19.23V14.7505ZM19.23 19.2505H19.7708V17.7505H19.23V19.2505Z" fill="black"/>
</g>
<defs>
<clipPath id="clip0_941_9296">
<rect width="24" height="24" fill="white" transform="translate(0 5)"/>
</clipPath>
</defs>
</svg>
