<svg width="32" height="32" viewBox="0 0 32 32" fill="none" xmlns="http://www.w3.org/2000/svg">
<g clip-path="url(#clip0_969_5414)">
<path d="M11.0006 30.3606C6.94262 30.3606 3.64062 27.0586 3.64062 23.0006C3.64062 18.9426 6.94262 15.6406 11.0006 15.6406V16.3606C7.33962 16.3606 4.36063 19.3396 4.36063 23.0006C4.36063 26.6616 7.33962 29.6406 11.0006 29.6406C14.6616 29.6406 17.6406 26.6616 17.6406 23.0006H18.3616C18.3606 27.0596 15.0586 30.3606 11.0006 30.3606ZM24.0006 28.3606C23.9736 28.3606 23.9446 28.3566 23.9186 28.3506C23.8206 28.3276 23.7376 28.2656 23.6886 28.1786L19.9766 21.7006C19.8636 21.5036 19.6516 21.3796 19.4226 21.3796L13.3546 21.3676C12.5236 21.3656 11.7716 20.9406 11.3406 20.2306C10.9096 19.5206 10.8816 18.6566 11.2636 17.9196L14.6846 11.3246C14.8826 10.9846 15.1076 10.6446 15.3826 10.3596H11.2236L9.32262 14.1606L8.67863 13.8386L10.6786 9.83862C10.7396 9.71763 10.8646 9.64062 11.0006 9.64062H17.0006C18.2466 9.64062 18.6876 10.2796 18.9766 10.9706L20.3406 15.6406H25.0706V16.3606H20.0706C19.9106 16.3606 19.7696 16.2556 19.7246 16.1016L18.2976 11.2106C18.0596 10.6476 17.7986 10.3606 16.9996 10.3606C16.2376 10.3606 15.7746 10.8856 15.3136 11.6726L11.9016 18.2526C11.6356 18.7646 11.6556 19.3636 11.9556 19.8566C12.2546 20.3506 12.7776 20.6456 13.3546 20.6466L19.4236 20.6586C19.9086 20.6606 20.3596 20.9226 20.6006 21.3436L24.1216 27.4876L26.8016 25.7016L27.1996 26.3016L24.1996 28.3016C24.1406 28.3396 24.0706 28.3606 24.0006 28.3606ZM19.0006 8.36062C17.4236 8.36062 16.1406 7.07762 16.1406 5.50062C16.1406 3.92362 17.4236 2.64062 19.0006 2.64062C20.5776 2.64062 21.8606 3.92362 21.8606 5.50062C21.8606 7.07762 20.5776 8.36062 19.0006 8.36062ZM19.0006 3.36062C17.8206 3.36062 16.8606 4.32062 16.8606 5.50062C16.8606 6.68062 17.8206 7.64062 19.0006 7.64062C20.1806 7.64062 21.1406 6.68062 21.1406 5.50062C21.1406 4.32062 20.1806 3.36062 19.0006 3.36062Z" fill="black"/>
</g>
<defs>
<clipPath id="clip0_969_5414">
<rect width="32" height="32" fill="white"/>
</clipPath>
</defs>
</svg>
