<svg width="36" height="36" viewBox="0 0 36 36" fill="none" xmlns="http://www.w3.org/2000/svg">
<g clip-path="url(#clip0_2094_2691)">
<path d="M17.9993 0.72028C18.0713 0.72028 18.1433 0.740528 18.2074 0.778778C18.4448 0.920528 24.0293 4.32478 24.0293 9.00028L24.0293 31.5003C24.0293 31.5801 24.0057 31.6589 23.9607 31.7253L21.7107 35.1003C21.6364 35.2128 21.5104 35.2803 21.3743 35.2803H14.6243C14.4893 35.2803 14.3633 35.2128 14.2868 35.1003L12.0368 31.7253C11.9929 31.6589 11.9693 31.5801 11.9693 31.5003L11.9693 9.00028C11.9693 4.32478 17.5538 0.920528 17.7912 0.777657C17.8553 0.739407 17.9273 0.72028 17.9993 0.72028ZM23.2193 10.8453V9.00028C23.2193 5.26415 18.996 2.26265 17.9993 1.60566C17.0025 2.26265 12.7793 5.26415 12.7793 9.00028V10.8453H23.2193ZM14.2193 11.6553H12.7804V15.3453H14.2193V11.6553ZM16.4693 11.6553H15.0304L15.0304 19.8453H16.4693L16.4693 11.6553ZM18.7193 11.6553H17.2793V15.3453H18.7193V11.6553ZM20.9693 11.6553H19.5293V15.3453H20.9693V11.6553ZM23.2193 11.6553H21.7793V19.8453H23.2193V11.6553ZM14.2193 16.1553H12.7804L12.7804 28.8453H14.2193L14.2193 16.1553ZM18.7193 16.1553H17.2793L17.2793 24.3453H18.7193L18.7193 16.1553ZM20.9693 16.1553H19.5293L19.5293 19.8453H20.9693V16.1553ZM16.4693 20.6553H15.0304V24.3453H16.4693V20.6553ZM20.9693 20.6553H19.5293V28.8453H20.9693L20.9693 20.6553ZM23.2193 20.6553H21.7793L21.7793 24.3453H23.2193L23.2193 20.6553ZM16.4693 25.1553H15.0304L15.0304 28.8453H16.4693V25.1553ZM18.7193 25.1553H17.2793V28.8453H18.7193V25.1553ZM23.2193 25.1553H21.7793V28.8453H23.2193V25.1553ZM23.2193 29.6553H12.7793V31.3776L14.8403 34.4703H15.3443V32.6253C15.3443 32.4014 15.5254 32.2203 15.7493 32.2203H20.2493C20.4732 32.2203 20.6543 32.4014 20.6543 32.6253V34.4703H21.1572L23.2193 31.3776V29.6553ZM19.8443 33.0303H16.1543V34.4703H19.8443V33.0303ZM16.3118 6.34528H19.6868C19.9107 6.34528 20.0918 6.5264 20.0918 6.75028V7.47028H21.3743V8.28028H20.0918V9.00028C20.0918 9.22415 19.9107 9.40528 19.6868 9.40528H16.3118C16.0879 9.40528 15.9068 9.22415 15.9068 9.00028V8.28028H14.6243V7.46915H15.9068V6.75028C15.9068 6.5264 16.0879 6.34528 16.3118 6.34528ZM19.2818 7.15528H16.7168V8.59528H19.2818V7.15528Z" fill="black"/>
</g>
<defs>
<clipPath id="clip0_2094_2691">
<rect width="36" height="36" fill="white" transform="matrix(-1 0 0 -1 36 36)"/>
</clipPath>
</defs>
</svg>
