<svg width="32" height="32" viewBox="0 0 32 32" fill="none" xmlns="http://www.w3.org/2000/svg">
<g clip-path="url(#clip0_941_2050)">
<path d="M22.0006 31.3601C21.9626 31.3601 21.9246 31.3531 21.8866 31.3411L16.0006 29.3801L10.1146 31.3421C10.0046 31.3771 9.88362 31.3601 9.79062 31.2921C9.69662 31.2251 9.64062 31.1151 9.64062 31.0001V29.0001C9.64062 28.8961 9.68462 28.7981 9.76362 28.7291L13.6406 25.3361V5.16914C13.6406 3.75014 14.2346 0.640137 16.0006 0.640137C17.7666 0.640137 18.3606 3.75014 18.3606 5.16914V10.3351L20.6396 12.0941V10.0001H21.3606V12.6501L23.6396 14.4091V12.0001H24.3606V14.9651L29.2196 18.7151C29.3086 18.7831 29.3606 18.8891 29.3606 19.0001V23.5001C29.3606 23.6281 29.2926 23.7461 29.1816 23.8111C29.0696 23.8771 28.9346 23.8761 28.8226 23.8141L18.3646 17.8981L18.3606 25.3371L22.2376 28.7301C22.3156 28.7981 22.3606 28.8971 22.3606 29.0011V31.0011C22.3606 31.1161 22.3046 31.2261 22.2116 31.2931C22.1486 31.3371 22.0746 31.3601 22.0006 31.3601ZM16.0006 28.6401C16.0396 28.6401 16.0776 28.6471 16.1146 28.6591L21.6406 30.5021V29.1641L17.7636 25.7711C17.6856 25.7031 17.6406 25.6041 17.6406 25.5001L17.6456 17.2801C17.6456 17.1521 17.7136 17.0341 17.8246 16.9691C17.9366 16.9051 18.0716 16.9041 18.1836 16.9671L28.6406 22.8831V19.1771L17.7816 10.7971C17.6926 10.7291 17.6406 10.6231 17.6406 10.5121V5.16914C17.6406 3.83914 17.0786 1.35914 16.0006 1.35914C14.9236 1.35914 14.3606 3.83914 14.3606 5.16914V25.5001C14.3606 25.6041 14.3166 25.7021 14.2376 25.7711L10.3606 29.1641V30.5021L15.8866 28.6591C15.9236 28.6461 15.9616 28.6401 16.0006 28.6401ZM3.00062 23.8601C2.93862 23.8601 2.87562 23.8431 2.82062 23.8111C2.70962 23.7471 2.64062 23.6281 2.64062 23.4991V19.0001C2.64062 18.8881 2.69262 18.7821 2.78162 18.7141L7.64062 14.9931V12.0001H8.36062V14.4411L10.6406 12.6951V10.0001H11.3606V12.8731C11.3606 12.9851 11.3086 13.0911 11.2196 13.1591L3.36062 19.1781V22.8771L11.8206 17.9931L12.1806 18.6161L3.18062 23.8111C3.12562 23.8441 3.06262 23.8601 3.00062 23.8601Z" fill="black"/>
</g>
<defs>
<clipPath id="clip0_941_2050">
<rect width="32" height="32" fill="white"/>
</clipPath>
</defs>
</svg>
