<svg width="32" height="32" viewBox="0 0 32 32" fill="none" xmlns="http://www.w3.org/2000/svg">
<g clip-path="url(#clip0_959_3707)">
<path d="M19 21H13V23H19V21Z" fill="black"/>
<path d="M16.5 2C16.5 1.72386 16.2761 1.5 16 1.5C15.7239 1.5 15.5 1.72386 15.5 2H16.5ZM15.6464 15.8536C15.8417 16.0488 16.1583 16.0488 16.3536 15.8536L19.5355 12.6716C19.7308 12.4763 19.7308 12.1597 19.5355 11.9645C19.3403 11.7692 19.0237 11.7692 18.8284 11.9645L16 14.7929L13.1716 11.9645C12.9763 11.7692 12.6597 11.7692 12.4645 11.9645C12.2692 12.1597 12.2692 12.4763 12.4645 12.6716L15.6464 15.8536ZM15.5 2V15.5H16.5V2H15.5Z" fill="black"/>
<path d="M8.5 15H5V28.5H26.5V15H23" stroke="black" stroke-linecap="square"/>
</g>
<defs>
<clipPath id="clip0_959_3707">
<rect width="32" height="32" fill="white"/>
</clipPath>
</defs>
</svg>
