<svg width="34" height="43" viewBox="0 0 34 43" fill="none" xmlns="http://www.w3.org/2000/svg">
<path d="M33.1 42.03H31.225C31.1006 42.03 31 41.9394 31 41.8275V39.78H18.95V41.8275C18.95 41.9394 18.8494 42.03 18.725 42.03H16.85C16.7256 42.03 16.625 41.9394 16.625 41.8275V39.5775C16.625 39.5646 16.6262 39.5516 16.6287 39.5398C16.2487 39.2991 16 38.9014 16 38.4525V33.9525C16 33.2724 16.5712 32.7099 17.3044 32.634L19.0006 27.5456C19.1094 27.2194 19.4369 27 19.815 27H30.135C30.5131 27 30.8406 27.2194 30.9494 27.5451L32.6456 32.6334C33.3794 32.7094 33.9506 33.2719 33.9506 33.9519V38.4519C33.9506 38.9008 33.7019 39.2985 33.3212 39.5393C33.3237 39.5511 33.3256 39.564 33.3256 39.5769V41.8269C33.325 41.9394 33.2244 42.03 33.1 42.03ZM31.45 41.625H32.8744V39.7305C32.7475 39.7631 32.6131 39.7806 32.4744 39.7806H31.4494L31.45 41.625ZM17.075 41.625H18.5V39.78H17.475C17.3362 39.78 17.2019 39.7626 17.075 39.7299V41.625ZM31.225 39.375H32.475C33.04 39.375 33.5 38.9616 33.5 38.4525V33.9525C33.5 33.4451 33.0431 33.0323 32.48 33.03C32.475 33.0294 32.4725 33.03 32.4694 33.03H17.48C17.4775 33.03 17.4731 33.03 17.47 33.03C16.9075 33.0323 16.45 33.4451 16.45 33.9525V38.4525C16.45 38.961 16.91 39.375 17.475 39.375H31.225ZM17.7775 32.625H32.1731L30.8075 28.53H19.1425L17.7775 32.625ZM19.2775 28.125H30.6725L30.5181 27.6615C30.4675 27.5102 30.31 27.4044 30.135 27.4044H19.815C19.6369 27.4044 19.4831 27.5079 19.4319 27.6615L19.2775 28.125ZM30.6 36.9675C29.7862 36.9675 29.125 36.3718 29.125 35.64C29.125 34.9082 29.7869 34.3125 30.6 34.3125C31.4131 34.3125 32.075 34.9076 32.075 35.64C32.075 36.3724 31.4137 36.9675 30.6 36.9675ZM30.6 34.7175C30.035 34.7175 29.575 35.1309 29.575 35.64C29.575 36.1491 30.0344 36.5625 30.6 36.5625C31.1656 36.5625 31.625 36.1491 31.625 35.64C31.625 35.1309 31.165 34.7175 30.6 34.7175ZM19.35 36.9675C18.5369 36.9675 17.875 36.3718 17.875 35.64C17.875 34.9082 18.5369 34.3125 19.35 34.3125C20.1631 34.3125 20.825 34.9076 20.825 35.64C20.825 36.3724 20.1631 36.9675 19.35 36.9675ZM19.35 34.7175C18.785 34.7175 18.325 35.1309 18.325 35.64C18.325 36.1491 18.785 36.5625 19.35 36.5625C19.915 36.5625 20.375 36.1485 20.375 35.64C20.375 35.1315 19.915 34.7175 19.35 34.7175ZM28.725 31.905C28.6575 31.905 28.59 31.8774 28.5456 31.8246L26.6706 29.5948C26.5956 29.5054 26.615 29.3788 26.7144 29.3113C26.8112 29.2438 26.9531 29.2601 27.0294 29.3507L28.9044 31.5804C28.9794 31.6699 28.96 31.7964 28.8606 31.8639C28.82 31.8915 28.7725 31.905 28.725 31.905ZM29.35 30.8813C29.2819 30.8813 29.2137 30.8531 29.17 30.7997L27.92 29.2922C27.8456 29.2028 27.8656 29.0756 27.9656 29.0087C28.0644 28.9423 28.2056 28.9598 28.28 29.0498L29.53 30.5573C29.6044 30.6467 29.5844 30.7738 29.4844 30.8408C29.4437 30.8683 29.3969 30.8813 29.35 30.8813ZM33.725 38.655H16.225V38.25H33.725V38.655ZM28.1 36.405H21.85V36H28.1V36.405ZM28.1 35.28H21.85V34.875H28.1V35.28ZM33.325 31.7025H32.875V30.015H33.3256L33.325 31.7025ZM17.075 31.7025H16.625V30.015H17.075V31.7025Z" fill="black"/>
<mask id="path-2-outside-1_959_2067" maskUnits="userSpaceOnUse" x="0" y="10" width="20" height="23" fill="black">
<rect fill="white" y="10" width="20" height="23"/>
<path d="M1.00367 32V11H10.0937C11.9737 11 13.5937 11.31 14.9537 11.93C16.3137 12.53 17.3637 13.4 18.1037 14.54C18.8437 15.68 19.2137 17.04 19.2137 18.62C19.2137 20.18 18.8437 21.53 18.1037 22.67C17.3637 23.81 16.3137 24.69 14.9537 25.31C13.5937 25.91 11.9737 26.21 10.0937 26.21H3.70367L5.86367 24.02V32H1.00367ZM5.86367 24.56L3.70367 22.25H9.82367C11.3237 22.25 12.4437 21.93 13.1837 21.29C13.9237 20.65 14.2937 19.76 14.2937 18.62C14.2937 17.46 13.9237 16.56 13.1837 15.92C12.4437 15.28 11.3237 14.96 9.82367 14.96H3.70367L5.86367 12.65V24.56Z"/>
</mask>
<path d="M1.00367 32H0.503672V32.5H1.00367V32ZM1.00367 11V10.5H0.503672V11H1.00367ZM14.9537 11.93L14.7463 12.385L14.7519 12.3875L14.9537 11.93ZM18.1037 14.54L17.6843 14.8122L17.6843 14.8122L18.1037 14.54ZM14.9537 25.31L15.1555 25.7675L15.1611 25.765L14.9537 25.31ZM3.70367 26.21L3.34769 25.8589L2.50824 26.71H3.70367V26.21ZM5.86367 24.02H6.36367V22.801L5.50769 23.6689L5.86367 24.02ZM5.86367 32V32.5H6.36367V32H5.86367ZM5.86367 24.56L5.49846 24.9015L6.36367 25.8268V24.56H5.86367ZM3.70367 22.25V21.75H2.55161L3.33846 22.5915L3.70367 22.25ZM3.70367 14.96L3.33846 14.6185L2.55161 15.46H3.70367V14.96ZM5.86367 12.65H6.36367V11.3832L5.49846 12.3085L5.86367 12.65ZM1.50367 32V11H0.503672V32H1.50367ZM1.00367 11.5H10.0937V10.5H1.00367V11.5ZM10.0937 11.5C11.92 11.5 13.4659 11.8013 14.7463 12.385L15.1611 11.475C13.7215 10.8187 12.0274 10.5 10.0937 10.5V11.5ZM14.7519 12.3875C16.0315 12.952 17.0022 13.7614 17.6843 14.8122L18.5231 14.2678C17.7252 13.0386 16.5958 12.108 15.1555 11.4725L14.7519 12.3875ZM17.6843 14.8122C18.3636 15.8587 18.7137 17.1206 18.7137 18.62H19.7137C19.7137 16.9594 19.3238 15.5013 18.5231 14.2678L17.6843 14.8122ZM18.7137 18.62C18.7137 20.098 18.3642 21.3503 17.6843 22.3978L18.5231 22.9422C19.3231 21.7097 19.7137 20.262 19.7137 18.62H18.7137ZM17.6843 22.3978C17.0012 23.45 16.0286 24.2704 14.7463 24.855L15.1611 25.765C16.5987 25.1096 17.7261 24.17 18.5231 22.9422L17.6843 22.3978ZM14.7519 24.8525C13.4699 25.4181 11.9219 25.71 10.0937 25.71V26.71C12.0254 26.71 13.7174 26.4019 15.1555 25.7675L14.7519 24.8525ZM10.0937 25.71H3.70367V26.71H10.0937V25.71ZM4.05966 26.5611L6.21966 24.3711L5.50769 23.6689L3.34769 25.8589L4.05966 26.5611ZM5.36367 24.02V32H6.36367V24.02H5.36367ZM5.86367 31.5H1.00367V32.5H5.86367V31.5ZM6.22888 24.2185L4.06888 21.9085L3.33846 22.5915L5.49846 24.9015L6.22888 24.2185ZM3.70367 22.75H9.82367V21.75H3.70367V22.75ZM9.82367 22.75C11.3824 22.75 12.6423 22.4193 13.5107 21.6682L12.8566 20.9118C12.2451 21.4407 11.265 21.75 9.82367 21.75V22.75ZM13.5107 21.6682C14.3792 20.9171 14.7937 19.8787 14.7937 18.62H13.7937C13.7937 19.6413 13.4682 20.3829 12.8566 20.9118L13.5107 21.6682ZM14.7937 18.62C14.7937 17.3445 14.3812 16.2946 13.5107 15.5418L12.8566 16.2982C13.4662 16.8254 13.7937 17.5755 13.7937 18.62H14.7937ZM13.5107 15.5418C12.6423 14.7907 11.3824 14.46 9.82367 14.46V15.46C11.265 15.46 12.2451 15.7693 12.8566 16.2982L13.5107 15.5418ZM9.82367 14.46H3.70367V15.46H9.82367V14.46ZM4.06888 15.3015L6.22888 12.9915L5.49846 12.3085L3.33846 14.6185L4.06888 15.3015ZM5.36367 12.65V24.56H6.36367V12.65H5.36367Z" fill="black" mask="url(#path-2-outside-1_959_2067)"/>
</svg>
