<svg width="35" height="28" viewBox="0 0 35 28" fill="none" xmlns="http://www.w3.org/2000/svg">
<path d="M29.4215 24.34C29.4215 26.1772 29.0858 27.0228 28.6324 27.3822C28.1882 27.7343 27.4931 27.7268 26.4296 27.4324C25.9134 27.2896 25.3438 27.0895 24.7187 26.865C24.6441 26.8382 24.5687 26.8111 24.4926 26.7837C23.9351 26.5831 23.3387 26.3685 22.7152 26.1683C21.2974 25.7131 19.7149 25.324 18.043 25.324C16.371 25.324 14.7885 25.7131 13.3707 26.1683C12.7472 26.3685 12.1509 26.5831 11.5934 26.7837C11.5172 26.8111 11.4418 26.8382 11.3672 26.865C10.7421 27.0895 10.1725 27.2896 9.65629 27.4324C8.5928 27.7268 7.89768 27.7343 7.45354 27.3822C7.00008 27.0228 6.66445 26.1772 6.66445 24.34C6.66445 17.1221 11.7998 11.35 18.043 11.35C24.2861 11.35 29.4215 17.1221 29.4215 24.34Z" stroke="black" stroke-width="0.7"/>
<path d="M29.1994 8.57455C28.9875 9.45172 28.5697 10.162 28.0833 10.6059C27.5943 11.0523 27.073 11.2022 26.6216 11.0682C26.1702 10.9342 25.7863 10.5158 25.5639 9.85822C25.3428 9.20431 25.3011 8.35765 25.513 7.48048C25.7249 6.60332 26.1427 5.89303 26.629 5.44909C27.118 5.00269 27.6393 4.85287 28.0907 4.98683C28.5421 5.12079 28.9261 5.53928 29.1484 6.19682C29.3696 6.85073 29.4112 7.69738 29.1994 8.57455Z" stroke="black" stroke-width="0.7"/>
<path d="M21.3033 4.67472C21.2109 5.76728 20.8458 6.71069 20.3488 7.3539C19.8489 8.00087 19.251 8.30649 18.679 8.24707C18.1071 8.18765 17.5708 7.76418 17.1881 7.02552C16.8076 6.29114 16.6071 5.28898 16.6994 4.19642C16.7918 3.10387 17.1569 2.16046 17.6539 1.51725C18.1538 0.87028 18.7517 0.564651 19.3237 0.624072C19.8956 0.683492 20.4319 1.10696 20.8146 1.84563C21.1951 2.58 21.3956 3.58217 21.3033 4.67472Z" stroke="black" stroke-width="0.7"/>
<path d="M12.1395 6.5007C12.3531 7.38266 12.309 8.23514 12.0827 8.89469C11.8553 9.55741 11.4629 9.98346 10.999 10.1215C10.5352 10.2595 10.0031 10.1085 9.50678 9.66117C9.01288 9.21593 8.58958 8.5025 8.37598 7.62055C8.16237 6.73859 8.20641 5.88611 8.43274 5.22656C8.66016 4.56384 9.05252 4.13779 9.51639 3.99976C9.98026 3.86173 10.5124 4.01271 11.0086 4.46008C11.5026 4.90532 11.9259 5.61875 12.1395 6.5007Z" stroke="black" stroke-width="0.7"/>
<path d="M4.86672 13.634C5.39511 14.2427 5.70559 14.9512 5.79263 15.5916C5.87984 16.2332 5.74173 16.7719 5.42041 17.1146C5.0991 17.4573 4.60807 17.5895 4.03305 17.4682C3.45908 17.3471 2.83231 16.9759 2.30393 16.3672C1.77554 15.7585 1.46506 15.0499 1.37802 14.4096C1.29081 13.768 1.42892 13.2292 1.75024 12.8866C2.07155 12.5439 2.56258 12.4117 3.1376 12.533C3.71157 12.6541 4.33834 13.0253 4.86672 13.634Z" stroke="black" stroke-width="0.7"/>
<path d="M33.4964 15.8777C33.1892 16.5595 32.7461 17.067 32.2947 17.3445C31.8396 17.6243 31.4192 17.6499 31.1041 17.4755C30.789 17.301 30.555 16.9131 30.4834 16.3418C30.4124 15.775 30.5123 15.0776 30.8195 14.3957C31.1267 13.7139 31.5698 13.2065 32.0213 12.9289C32.4763 12.6492 32.8967 12.6235 33.2118 12.7979C33.5269 12.9724 33.761 13.3603 33.8325 13.9316C33.9035 14.4984 33.8037 15.1959 33.4964 15.8777Z" stroke="black" stroke-width="0.7"/>
</svg>
