<svg width="32" height="35" viewBox="0 0 32 35" fill="none" xmlns="http://www.w3.org/2000/svg">
<g clip-path="url(#clip0_959_2073)">
<path d="M25.6886 34.1791L22.2656 28.1791L22.8906 27.8221L26.3136 33.8221L25.6886 34.1791ZM6.31262 34.1791L5.68762 33.8221L9.11062 27.8221L9.73562 28.1791L6.31262 34.1791ZM26.0006 26.3601H6.00063C5.80163 26.3601 5.64062 26.1991 5.64062 26.0001V12.0001C5.64062 8.49314 8.49363 5.64014 12.0006 5.64014H20.0006C23.5076 5.64014 26.3606 8.49314 26.3606 12.0001V26.0001C26.3606 26.1991 26.1996 26.3601 26.0006 26.3601ZM6.36063 25.6401H25.6406V12.0001C25.6406 8.89014 23.1116 6.36014 20.0006 6.36014H12.0006C8.89063 6.36014 6.36063 8.89014 6.36063 12.0001V25.6401ZM22.5006 23.3601C21.4756 23.3601 20.6406 22.5251 20.6406 21.5001C20.6406 20.4751 21.4756 19.6401 22.5006 19.6401C23.5256 19.6401 24.3606 20.4741 24.3606 21.5001C24.3606 22.5261 23.5256 23.3601 22.5006 23.3601ZM22.5006 20.3601C21.8716 20.3601 21.3606 20.8711 21.3606 21.5001C21.3606 22.1291 21.8716 22.6401 22.5006 22.6401C23.1296 22.6401 23.6406 22.1291 23.6406 21.5001C23.6406 20.8711 23.1296 20.3601 22.5006 20.3601ZM9.50063 23.3601C8.47563 23.3601 7.64062 22.5251 7.64062 21.5001C7.64062 20.4751 8.47463 19.6401 9.50063 19.6401C10.5266 19.6401 11.3606 20.4741 11.3606 21.5001C11.3606 22.5261 10.5256 23.3601 9.50063 23.3601ZM9.50063 20.3601C8.87263 20.3601 8.36062 20.8711 8.36062 21.5001C8.36062 22.1291 8.87263 22.6401 9.50063 22.6401C10.1286 22.6401 10.6406 22.1291 10.6406 21.5001C10.6406 20.8711 10.1286 20.3601 9.50063 20.3601ZM24.0006 18.3601H8.00063C7.80163 18.3601 7.64062 18.1991 7.64062 18.0001V12.0001C7.64062 9.59614 9.59663 7.64014 12.0006 7.64014H20.0006C22.4046 7.64014 24.3606 9.59614 24.3606 12.0001V18.0001C24.3606 18.1991 24.1996 18.3601 24.0006 18.3601ZM8.36062 17.6401H23.6406V12.0001C23.6406 9.99314 22.0076 8.36014 20.0006 8.36014H12.0006C9.99363 8.36014 8.36062 9.99314 8.36062 12.0001V17.6401Z" fill="black"/>
</g>
<line x1="8" y1="0.5" x2="24" y2="0.5" stroke="black"/>
<line x1="16.35" y1="1" x2="16.35" y2="6" stroke="black" stroke-width="0.7"/>
<defs>
<clipPath id="clip0_959_2073">
<rect width="32" height="32" fill="white" transform="translate(0 3)"/>
</clipPath>
</defs>
</svg>
