<svg width="36" height="35" viewBox="0 0 36 35" fill="none" xmlns="http://www.w3.org/2000/svg">
<g clip-path="url(#clip0_959_2072)">
<path d="M24.66 34.3586L22.3066 29.6711L22.7363 29.3922L25.0896 34.0797L24.66 34.3586ZM11.339 34.3586L10.9093 34.0797L13.2626 29.3922L13.6923 29.6711L11.339 34.3586ZM24.8745 28.25H11.1245C10.9876 28.25 10.877 28.1242 10.877 27.9688V17.0312C10.877 14.2914 12.8384 12.0625 15.2495 12.0625H20.7495C23.1605 12.0625 25.122 14.2914 25.122 17.0312V27.9688C25.122 28.1242 25.0113 28.25 24.8745 28.25ZM11.372 27.6875H24.627V17.0312C24.627 14.6016 22.8883 12.625 20.7495 12.625H15.2495C13.1113 12.625 11.372 14.6016 11.372 17.0312V27.6875ZM22.4682 25.9063C21.7635 25.9063 21.1895 25.2539 21.1895 24.4531C21.1895 23.6523 21.7635 23 22.4682 23C23.1729 23 23.747 23.6516 23.747 24.4531C23.747 25.2547 23.1729 25.9063 22.4682 25.9063ZM22.4682 23.5625C22.0358 23.5625 21.6845 23.9617 21.6845 24.4531C21.6845 24.9445 22.0358 25.3438 22.4682 25.3438C22.9006 25.3438 23.252 24.9445 23.252 24.4531C23.252 23.9617 22.9006 23.5625 22.4682 23.5625ZM13.5307 25.9063C12.826 25.9063 12.252 25.2539 12.252 24.4531C12.252 23.6523 12.8253 23 13.5307 23C14.2361 23 14.8095 23.6516 14.8095 24.4531C14.8095 25.2547 14.2354 25.9063 13.5307 25.9063ZM13.5307 23.5625C13.099 23.5625 12.747 23.9617 12.747 24.4531C12.747 24.9445 13.099 25.3438 13.5307 25.3438C13.9625 25.3438 14.3145 24.9445 14.3145 24.4531C14.3145 23.9617 13.9625 23.5625 13.5307 23.5625ZM23.4995 22H12.4995C12.3626 22 12.252 21.8742 12.252 21.7188V17.0312C12.252 15.1531 13.5967 13.625 15.2495 13.625H20.7495C22.4022 13.625 23.747 15.1531 23.747 17.0312V19.375V21.7188C23.747 21.8742 23.6363 22 23.4995 22ZM12.747 21.4375H23.252V17.0312C23.252 15.4633 22.1293 14.1875 20.7495 14.1875H15.2495C13.8696 14.1875 12.747 15.4633 12.747 17.0312V21.4375Z" fill="black"/>
</g>
<path d="M33.2457 24.7999C34.5266 22.2798 35.1232 19.484 34.9789 16.6774C34.8345 13.8708 33.9541 11.1465 32.421 8.76278C30.8879 6.37902 28.7529 4.41479 26.2185 3.05629C23.6841 1.69778 20.8342 0.990024 17.939 1.00011C15.0438 1.01019 12.1992 1.73778 9.67492 3.1139C7.15062 4.49002 5.03025 6.46907 3.51481 8.86345C1.99937 11.2578 1.13908 13.9882 1.01549 16.7957C0.89191 19.6032 1.50912 22.3948 2.80863 24.9059L3.00859 24.8084C1.72619 22.3304 1.1171 19.5755 1.23906 16.805C1.36102 14.0344 2.20998 11.34 3.70547 8.97713C5.20097 6.61427 7.29343 4.66127 9.7845 3.30326C12.2756 1.94525 15.0827 1.22724 17.9398 1.21729C20.7969 1.20735 23.6093 1.90579 26.1103 3.24641C28.6114 4.58703 30.7182 6.52541 32.2311 8.87779C33.7441 11.2302 34.6129 13.9186 34.7554 16.6882C34.8978 19.4579 34.3091 22.2169 33.0451 24.7038L33.2457 24.7999Z" fill="black" stroke="black" stroke-width="0.5"/>
<defs>
<clipPath id="clip0_959_2072">
<rect width="22" height="25" fill="white" transform="translate(7 10)"/>
</clipPath>
</defs>
</svg>
