<svg width="32" height="32" viewBox="0 0 32 32" fill="none" xmlns="http://www.w3.org/2000/svg">
<g clip-path="url(#clip0_941_9366)">
<path d="M9.00062 31.3604C5.48462 31.3604 0.640625 26.5154 0.640625 23.0004C0.640625 18.4504 4.23863 17.5044 6.86462 16.8144C7.62663 16.6134 8.34662 16.4244 8.83962 16.1784C9.70262 15.7464 10.1936 14.9374 10.7146 14.0804C11.4436 12.8804 12.1976 11.6404 14.0006 11.6404C15.4456 11.6404 16.4086 12.3914 16.7656 12.7254L23.6856 5.80537L24.1586 4.38638C24.1766 4.33338 24.2066 4.28537 24.2456 4.24537L24.4916 4.00038L23.7456 3.25437L24.2556 2.74537L25.0006 3.49137L25.4916 3.00038L24.7456 2.25437L25.2556 1.74538L26.0006 2.49137L26.4916 2.00038L25.7456 1.25437L26.2556 0.745375L27.0006 1.49138L27.7456 0.746375C27.8866 0.605375 28.1146 0.605375 28.2556 0.746375L31.2556 3.74638C31.3966 3.88738 31.3966 4.11438 31.2556 4.25538L30.5096 5.00037L31.2556 5.74637L30.7456 6.25537L30.0006 5.50937L29.5096 6.00037L30.2556 6.74637L29.7456 7.25537L29.0006 6.50937L28.5096 7.00037L29.2556 7.74637L28.7456 8.25537L28.0006 7.50937L27.7556 7.75437C27.7156 7.79437 27.6676 7.82337 27.6146 7.84137L26.1946 8.31437L19.2746 15.2344C19.6086 15.5914 20.3606 16.5544 20.3606 18.0004C20.3606 19.8034 19.1196 20.5574 17.9206 21.2854C17.0636 21.8064 16.2536 22.2994 15.8226 23.1614C15.5766 23.6544 15.3866 24.3744 15.1866 25.1374C14.4966 27.7634 13.5506 31.3604 9.00062 31.3604ZM14.0006 12.3604C12.6036 12.3604 12.0136 13.3314 11.3306 14.4544C10.7796 15.3604 10.2096 16.2984 9.16262 16.8224C8.60262 17.1024 7.84863 17.3004 7.04862 17.5104C4.51463 18.1764 1.36063 19.0054 1.36063 23.0004C1.36063 26.1424 5.85962 30.6404 9.00062 30.6404C12.9956 30.6404 13.8246 27.4884 14.4906 24.9534C14.7006 24.1544 14.8986 23.3984 15.1786 22.8394C15.7026 21.7914 16.6396 21.2214 17.5466 20.6704C18.6706 19.9874 19.6406 19.3984 19.6406 18.0004C19.6406 16.8324 19.0296 16.0354 18.7656 15.7454L17.2556 17.2554L16.7466 16.7464L25.7466 7.74637C25.7866 7.70637 25.8346 7.67737 25.8876 7.65937L27.3076 7.18637L30.4916 4.00038L28.0006 1.50937L24.8146 4.69437L24.3416 6.11337C24.3236 6.16637 24.2936 6.21438 24.2546 6.25437L15.2546 15.2544L14.7456 14.7454L16.2546 13.2354C15.9656 12.9724 15.1676 12.3604 14.0006 12.3604ZM8.74662 27.2554L4.74662 23.2554L5.25563 22.7454L9.25562 26.7454L8.74662 27.2554ZM12.5006 22.3604C10.9236 22.3604 9.64062 21.0774 9.64062 19.5004C9.64062 17.9234 10.9236 16.6404 12.5006 16.6404C14.0776 16.6404 15.3606 17.9234 15.3606 19.5004C15.3606 21.0774 14.0776 22.3604 12.5006 22.3604ZM12.5006 17.3604C11.3206 17.3604 10.3606 18.3204 10.3606 19.5004C10.3606 20.6804 11.3206 21.6404 12.5006 21.6404C13.6806 21.6404 14.6406 20.6804 14.6406 19.5004C14.6406 18.3204 13.6806 17.3604 12.5006 17.3604ZM16.2546 16.2544L15.7456 15.7454L24.7456 6.74537L25.2556 7.25437L16.2546 16.2544Z" fill="black"/>
</g>
<defs>
<clipPath id="clip0_941_9366">
<rect width="32" height="32" fill="white"/>
</clipPath>
</defs>
</svg>
