<svg width="39" height="16" viewBox="0 0 39 16" fill="none" xmlns="http://www.w3.org/2000/svg">
<path d="M37.5311 5.15458L37.8093 5.36683L38.0481 5.05385L37.7093 4.85337L37.5311 5.15458ZM31.7042 6.6421L31.4046 6.46101L31.3244 6.59371L31.3688 6.74229L31.7042 6.6421ZM31.5517 10.606H31.2017V10.7312L31.2812 10.828L31.5517 10.606ZM38.0024 11.224L38.2186 11.4992L38.5308 11.254L38.2484 10.975L38.0024 11.224ZM35.0937 8.35034L34.8154 8.13809L34.6287 8.38292L34.8477 8.59933L35.0937 8.35034ZM12.3014 9.75449L11.9947 9.58584L12.3014 9.75449ZM12.9503 6.91774L12.6012 6.94255L12.9503 6.91774ZM6.94276 5.51865C6.79914 5.64804 6.7876 5.86934 6.91699 6.01296C7.04637 6.15657 7.26767 6.16811 7.41129 6.03873L6.94276 5.51865ZM7.58739 5.68201C7.58739 5.48872 7.43069 5.33202 7.23739 5.33202C7.04409 5.33202 6.88739 5.48872 6.88739 5.68201H7.58739ZM37.7093 4.85337C36.9777 4.4204 36.1265 4.17883 35.2523 4.15271L35.2314 4.8524C35.9918 4.87511 36.7268 5.08534 37.3528 5.45579L37.7093 4.85337ZM35.2523 4.15271C34.3781 4.1266 33.511 4.31683 32.749 4.70452L33.0664 5.32841C33.7207 4.99555 34.471 4.82968 35.2314 4.8524L35.2523 4.15271ZM32.749 4.70452C32.3174 4.92411 32.0688 5.22955 31.8822 5.5497C31.7922 5.70403 31.7139 5.86678 31.6405 6.01646C31.5651 6.17028 31.492 6.31652 31.4046 6.46101L32.0037 6.82318C32.1085 6.64977 32.1934 6.4789 32.2691 6.3246C32.3467 6.16616 32.4126 6.02979 32.4869 5.90222C32.6289 5.65858 32.7899 5.4691 33.0664 5.32841L32.749 4.70452ZM31.3688 6.74229C31.5057 7.20057 31.5545 7.32279 31.5874 7.45667C31.6139 7.56488 31.6223 7.65657 31.6511 8.0271L32.3489 7.9729C32.3219 7.62476 32.3105 7.46646 32.2672 7.28985C32.2302 7.13893 32.1589 6.94153 32.0395 6.5419L31.3688 6.74229ZM31.6511 8.0271C31.6731 8.31064 31.5851 8.61752 31.4598 9.06301C31.3403 9.48807 31.2017 10.0006 31.2017 10.606H31.9017C31.9017 10.1054 32.0151 9.67426 32.1337 9.25248C32.2466 8.85114 32.3827 8.40803 32.3489 7.9729L31.6511 8.0271ZM31.2812 10.828C31.803 11.4639 32.5125 11.9529 33.3252 12.2448L33.5618 11.586C32.86 11.3339 32.2586 10.9156 31.8223 10.3839L31.2812 10.828ZM33.3252 12.2448C34.1378 12.5367 35.0252 12.6214 35.8878 12.4906L35.7828 11.7985C35.0336 11.9121 34.2636 11.8381 33.5618 11.586L33.3252 12.2448ZM35.8878 12.4906C36.7503 12.3597 37.5583 12.0178 38.2186 11.4992L37.7862 10.9487C37.2258 11.3889 36.5321 11.6848 35.7828 11.7985L35.8878 12.4906ZM38.2484 10.975L35.3397 8.10136L34.8477 8.59933L37.7564 11.4729L38.2484 10.975ZM35.372 8.5626L37.8093 5.36683L37.2528 4.94233L34.8154 8.13809L35.372 8.5626ZM31.65 8C31.65 8.85273 31.263 9.69138 30.5099 10.4836C29.755 11.2775 28.6462 12.0085 27.2492 12.63C24.4562 13.8725 20.5732 14.65 16.2656 14.65V15.35C20.6478 15.35 24.632 14.5605 27.5338 13.2695C28.9842 12.6243 30.1796 11.8468 31.0172 10.9659C31.8564 10.0831 32.35 9.08026 32.35 8H31.65ZM16.2656 14.65C11.9579 14.65 8.07489 13.8725 5.28189 12.63C3.88496 12.0085 2.77613 11.2775 2.02126 10.4836C1.26812 9.69138 0.881116 8.85273 0.881116 8H0.181116C0.181116 9.08026 0.674683 10.0831 1.51395 10.9659C2.35149 11.8468 3.54692 12.6243 4.99736 13.2695C7.89912 14.5605 11.8833 15.35 16.2656 15.35V14.65ZM0.881116 8C0.881116 7.14727 1.26812 6.30862 2.02126 5.51644C2.77613 4.72246 3.88496 3.99151 5.28189 3.37003C8.07489 2.12748 11.9579 1.35 16.2656 1.35V0.65C11.8833 0.65 7.89912 1.43953 4.99736 2.73047C3.54692 3.37575 2.35149 4.15318 1.51395 5.03412C0.674683 5.91688 0.181116 6.91974 0.181116 8H0.881116ZM16.2656 1.35C20.5732 1.35 24.4562 2.12748 27.2492 3.37003C28.6462 3.99151 29.755 4.72246 30.5099 5.51644C31.263 6.30862 31.65 7.14727 31.65 8H32.35C32.35 6.91974 31.8564 5.91688 31.0172 5.03412C30.1796 4.15318 28.9842 3.37575 27.5338 2.73047C24.632 1.43953 20.6478 0.65 16.2656 0.65V1.35ZM7.03482 13.5616C8.21453 13.3952 9.3454 12.9759 10.32 12.3414L9.93813 11.7547C9.05173 12.3318 8.01836 12.716 6.93708 12.8684L7.03482 13.5616ZM10.32 12.3414C11.2947 11.7068 12.0842 10.8758 12.6081 9.92315L11.9947 9.58584C11.5308 10.4294 10.8245 11.1776 9.93813 11.7547L10.32 12.3414ZM12.6081 9.92315C13.1323 8.96986 13.3729 7.92644 13.2994 6.89293L12.6012 6.94255C12.6645 7.83303 12.4582 8.7429 11.9947 9.58584L12.6081 9.92315ZM13.2994 6.89293C13.2259 5.85905 12.8411 4.8776 12.1861 4.04316L11.6355 4.47539C12.2069 5.20336 12.5379 6.05243 12.6012 6.94255L13.2994 6.89293ZM7.41129 6.03873C7.445 6.00836 7.47769 5.97634 7.50493 5.94284C7.5187 5.92591 7.53617 5.90243 7.5521 5.87331C7.56689 5.84627 7.58992 5.79718 7.59693 5.73203C7.60486 5.65819 7.59086 5.57045 7.53676 5.49115C7.48782 5.41939 7.42624 5.38468 7.39602 5.37007C7.37566 5.36022 7.33425 5.34528 7.36225 5.35578C7.36295 5.35604 7.39782 5.36813 7.43559 5.39398C7.47117 5.41833 7.58739 5.50982 7.58739 5.68201H6.88739C6.88739 5.76236 6.9146 5.83113 6.95023 5.88234C6.98266 5.92895 7.01907 5.95716 7.04027 5.97167C7.06242 5.98682 7.0817 5.99626 7.09209 6.00105C7.10317 6.00615 7.11222 6.00962 7.11646 6.01121C7.12079 6.01283 7.12449 6.01412 7.12454 6.01413C7.12564 6.01452 7.12373 6.01386 7.1217 6.01312C7.1174 6.01155 7.1057 6.00723 7.09119 6.00021C7.064 5.98705 7.00538 5.95434 6.95849 5.8856C6.93447 5.8504 6.91702 5.81069 6.90744 5.76844C6.89803 5.72694 6.89753 5.68891 6.90093 5.65725C6.90734 5.59761 6.92805 5.55552 6.93794 5.53744C6.94896 5.51728 6.95896 5.50473 6.96186 5.50117C6.96735 5.49441 6.96468 5.49891 6.94276 5.51865L7.41129 6.03873Z" fill="black"/>
<line x1="17.21" y1="8.72" x2="21.21" y2="11.72" stroke="black" stroke-width="0.7"/>
<line x1="23.2912" y1="9.19415" x2="21.2912" y2="12.1941" stroke="black" stroke-width="0.7"/>
</svg>
