<svg width="32" height="32" viewBox="0 0 32 32" fill="none" xmlns="http://www.w3.org/2000/svg">
<g clip-path="url(#clip0_2094_2722)">
<path d="M31.0006 0.639648H1.00063C0.801625 0.639648 0.640625 0.800648 0.640625 0.999648V10.9996C0.640625 11.1986 0.801625 11.3596 1.00063 11.3596H2.64062V15.9996C2.64062 16.1986 2.80163 16.3596 3.00063 16.3596H4.00063C4.84663 16.3596 5.58363 15.9086 6.00063 15.2376C6.41762 15.9086 7.15462 16.3596 8.00063 16.3596C8.84663 16.3596 9.58362 15.9086 10.0006 15.2376C10.4176 15.9086 11.1546 16.3596 12.0006 16.3596C12.8466 16.3596 13.5836 15.9086 14.0006 15.2376C14.4176 15.9086 15.1546 16.3596 16.0006 16.3596C16.8466 16.3596 17.5836 15.9086 18.0006 15.2386C18.4176 15.9086 19.1546 16.3596 20.0006 16.3596C20.8466 16.3596 21.5836 15.9086 22.0006 15.2386C22.4176 15.9086 23.1546 16.3596 24.0006 16.3596C24.8466 16.3596 25.5836 15.9086 26.0006 15.2386C26.4176 15.9086 27.1546 16.3596 28.0006 16.3596H29.0006C29.1996 16.3596 29.3606 16.1986 29.3606 15.9996V11.3596H31.0006C31.1996 11.3596 31.3606 11.1986 31.3606 10.9996V0.999648C31.3606 0.800648 31.1996 0.639648 31.0006 0.639648ZM26.3606 13.9996C26.3606 13.8006 26.1996 13.6396 26.0006 13.6396C25.8016 13.6396 25.6406 13.8006 25.6406 13.9996C25.6406 14.9036 24.9056 15.6396 24.0006 15.6396C23.0956 15.6396 22.3606 14.9036 22.3606 13.9996C22.3606 13.8006 22.1996 13.6396 22.0006 13.6396C21.8016 13.6396 21.6406 13.8006 21.6406 13.9996C21.6406 14.9036 20.9056 15.6396 20.0006 15.6396C19.0956 15.6396 18.3606 14.9036 18.3606 13.9996C18.3606 13.8006 18.1996 13.6396 18.0006 13.6396C17.8016 13.6396 17.6406 13.8006 17.6406 13.9996C17.6406 14.9036 16.9056 15.6396 16.0006 15.6396C15.0956 15.6396 14.3606 14.9036 14.3606 13.9996C14.3606 13.8006 14.1996 13.6396 14.0006 13.6396C13.8016 13.6396 13.6406 13.8006 13.6406 13.9996C13.6406 14.9036 12.9046 15.6396 12.0006 15.6396C11.0966 15.6396 10.3606 14.9036 10.3606 13.9996C10.3606 13.8006 10.1996 13.6396 10.0006 13.6396C9.80162 13.6396 9.64062 13.8006 9.64062 13.9996C9.64062 14.9036 8.90462 15.6396 8.00063 15.6396C7.09663 15.6396 6.36063 14.9036 6.36063 13.9996C6.36063 13.8006 6.19963 13.6396 6.00063 13.6396C5.80163 13.6396 5.64062 13.8006 5.64062 13.9996C5.64062 14.9036 4.90462 15.6396 4.00063 15.6396H3.36062V11.3596H28.6406V15.6396H28.0006C27.0966 15.6396 26.3606 14.9036 26.3606 13.9996ZM28.6406 10.6396H3.36062V6.35965H28.6406V10.6396ZM30.6406 10.6396H29.3606V5.99965C29.3606 5.80065 29.1996 5.63965 29.0006 5.63965H3.00063C2.80163 5.63965 2.64062 5.80065 2.64062 5.99965V10.6396H1.36063V1.35965H30.6406V10.6396ZM26.0006 28.3596C26.1996 28.3596 26.3606 28.1986 26.3606 27.9996V18.9996C26.3606 18.8006 26.1996 18.6396 26.0006 18.6396H16.0006C15.8016 18.6396 15.6406 18.8006 15.6406 18.9996V27.9996C15.6406 28.1986 15.8016 28.3596 16.0006 28.3596H26.0006ZM16.3606 19.3596H25.6406V27.6386H16.3606V19.3596ZM29.3606 18.9996C29.3606 18.8006 29.1996 18.6396 29.0006 18.6396C28.8016 18.6396 28.6406 18.8006 28.6406 18.9996V30.6396H11.3606V18.9996C11.3606 18.8006 11.1996 18.6396 11.0006 18.6396H6.00063C5.80163 18.6396 5.64062 18.8006 5.64062 18.9996V30.6396H3.36062V18.9996C3.36062 18.8006 3.19963 18.6396 3.00063 18.6396C2.80163 18.6396 2.64062 18.8006 2.64062 18.9996V30.6396H1.00063V31.3606H6.00063H11.0006H31.0006V30.6396H29.3606V18.9996ZM6.35963 19.3596H10.6406V24.6386H6.35963V19.3596ZM6.35963 30.6396V25.3596H10.6406V30.6386L6.35963 30.6396Z" fill="black"/>
</g>
<defs>
<clipPath id="clip0_2094_2722">
<rect width="32" height="32" fill="white"/>
</clipPath>
</defs>
</svg>
