<svg width="32" height="32" viewBox="0 0 32 32" fill="none" xmlns="http://www.w3.org/2000/svg">
<g clip-path="url(#clip0_969_4234)">
<path d="M16.0006 25.3601C5.58962 25.3601 1.70562 16.2291 1.66762 16.1371C1.63163 16.0491 1.63163 15.9501 1.66762 15.8631C1.70562 15.7711 5.58962 6.64014 16.0006 6.64014C26.4106 6.64014 30.2956 15.7701 30.3336 15.8631C30.3696 15.9511 30.3696 16.0501 30.3336 16.1371C30.2956 16.2291 26.4106 25.3601 16.0006 25.3601ZM2.39562 16.0001C2.91663 17.1171 6.77162 24.6401 16.0006 24.6401C25.2296 24.6401 29.0846 17.1181 29.6056 16.0001C29.0846 14.8821 25.2296 7.36014 16.0006 7.36014C6.77162 7.36014 2.91663 14.8821 2.39562 16.0001ZM16.0006 23.3601C11.9426 23.3601 8.64063 20.0581 8.64063 16.0001C8.64063 11.9421 11.9426 8.64014 16.0006 8.64014C20.0596 8.64014 23.3606 11.9421 23.3606 16.0001C23.3606 20.0591 20.0596 23.3601 16.0006 23.3601ZM16.0006 9.36014C12.3396 9.36014 9.36062 12.3391 9.36062 16.0001C9.36062 19.6611 12.3396 22.6401 16.0006 22.6401C19.6616 22.6401 22.6406 19.6611 22.6406 16.0001C22.6406 12.3391 19.6616 9.36014 16.0006 9.36014ZM16.0006 19.8601C13.8726 19.8601 12.1406 18.1281 12.1406 16.0001C12.1406 13.8721 13.8716 12.1401 16.0006 12.1401C18.1286 12.1401 19.8606 13.8711 19.8606 16.0001C19.8606 18.1281 18.1286 19.8601 16.0006 19.8601ZM16.0006 12.8601C14.2696 12.8601 12.8606 14.2691 12.8606 16.0001C12.8606 17.7311 14.2696 19.1401 16.0006 19.1401C17.7316 19.1401 19.1406 17.7321 19.1406 16.0001C19.1406 14.2681 17.7316 12.8601 16.0006 12.8601Z" fill="black"/>
</g>
<defs>
<clipPath id="clip0_969_4234">
<rect width="32" height="32" fill="white"/>
</clipPath>
</defs>
</svg>
