<svg width="52" height="32" viewBox="0 0 52 32" fill="none" xmlns="http://www.w3.org/2000/svg">
<g clip-path="url(#clip0_959_2063)">
<path d="M49.562 30.8212H47.1245C46.9628 30.8212 46.832 30.7055 46.832 30.5625V27.9462H31.167V30.5625C31.167 30.7055 31.0362 30.8212 30.8745 30.8212H28.437C28.2753 30.8212 28.1445 30.7055 28.1445 30.5625V27.6875C28.1445 27.6709 28.1462 27.6544 28.1494 27.6393C27.6554 27.3317 27.332 26.8235 27.332 26.25V20.5C27.332 19.631 28.0747 18.9122 29.0277 18.8152L31.2328 12.3134C31.3742 11.8965 31.8 11.6162 32.2915 11.6162H45.7075C46.1991 11.6162 46.6248 11.8965 46.7662 12.3127L48.9713 18.8145C49.9252 18.9115 50.6678 19.6303 50.6678 20.4992V26.2492C50.6678 26.8228 50.3445 27.331 49.8497 27.6386C49.8529 27.6537 49.8553 27.6702 49.8553 27.6867V30.5617C49.8545 30.7055 49.7237 30.8212 49.562 30.8212ZM47.417 30.3037H49.2687V27.883C49.1038 27.9247 48.9291 27.9469 48.7487 27.9469H47.4162L47.417 30.3037ZM28.7295 30.3037H30.582V27.9462H29.2495C29.0692 27.9462 28.8945 27.9239 28.7295 27.8822V30.3037ZM47.1245 27.4287H48.7495C49.484 27.4287 50.082 26.9004 50.082 26.25V20.5C50.082 19.8516 49.4881 19.3241 48.756 19.3212C48.7495 19.3205 48.7463 19.3212 48.7422 19.3212H29.256C29.2528 19.3212 29.2471 19.3212 29.243 19.3212C28.5118 19.3241 27.917 19.8516 27.917 20.5V26.25C27.917 26.8997 28.515 27.4287 29.2495 27.4287H47.1245ZM29.6428 18.8037H48.3571L46.5818 13.5712H31.4173L29.6428 18.8037ZM31.5928 13.0537H46.4063L46.2056 12.4615C46.1398 12.2681 45.935 12.133 45.7075 12.133H32.2915C32.06 12.133 31.8601 12.2652 31.7935 12.4615L31.5928 13.0537ZM46.312 24.3525C45.2542 24.3525 44.3945 23.5913 44.3945 22.6562C44.3945 21.7211 45.255 20.96 46.312 20.96C47.3691 20.96 48.2295 21.7204 48.2295 22.6562C48.2295 23.592 47.3699 24.3525 46.312 24.3525ZM46.312 21.4775C45.5775 21.4775 44.9795 22.0057 44.9795 22.6562C44.9795 23.3067 45.5767 23.835 46.312 23.835C47.0473 23.835 47.6445 23.3067 47.6445 22.6562C47.6445 22.0057 47.0465 21.4775 46.312 21.4775ZM31.687 24.3525C30.63 24.3525 29.7695 23.5913 29.7695 22.6562C29.7695 21.7211 30.63 20.96 31.687 20.96C32.7441 20.96 33.6045 21.7204 33.6045 22.6562C33.6045 23.592 32.7441 24.3525 31.687 24.3525ZM31.687 21.4775C30.9525 21.4775 30.3545 22.0057 30.3545 22.6562C30.3545 23.3067 30.9525 23.835 31.687 23.835C32.4215 23.835 33.0195 23.306 33.0195 22.6562C33.0195 22.0065 32.4215 21.4775 31.687 21.4775ZM43.8745 17.8837C43.7868 17.8837 43.699 17.8485 43.6413 17.7809L41.2038 14.9318C41.1063 14.8175 41.1315 14.6558 41.2607 14.5696C41.3867 14.4833 41.5711 14.5041 41.6702 14.6199L44.1077 17.469C44.2052 17.5833 44.18 17.745 44.0508 17.8312C43.998 17.8665 43.9363 17.8837 43.8745 17.8837ZM44.687 16.5756C44.5985 16.5756 44.5099 16.5396 44.453 16.4714L42.828 14.5451C42.7313 14.4308 42.7573 14.2684 42.8873 14.1829C43.0157 14.0981 43.1993 14.1203 43.296 14.2353L44.921 16.1616C45.0177 16.2759 44.9917 16.4383 44.8617 16.5238C44.8089 16.5591 44.748 16.5756 44.687 16.5756ZM50.3745 26.5087H27.6245V25.9912H50.3745V26.5087ZM43.062 23.6337H34.937V23.1162H43.062V23.6337ZM43.062 22.1962H34.937V21.6787H43.062V22.1962ZM49.8545 17.625H49.2695V15.4687H49.8553L49.8545 17.625ZM28.7295 17.625H28.1445V15.4687H28.7295V17.625Z" fill="black"/>
<rect x="35" y="10" width="8" height="2" fill="black"/>
<path d="M37.6275 12V11.148H37.2915V10.95H38.2065V11.148H37.8705V12H37.6275ZM38.124 12L38.592 10.95H38.832L39.3015 12H39.0465L38.6625 11.073H38.7585L38.373 12H38.124ZM38.358 11.775L38.4225 11.5905H38.9625L39.0285 11.775H38.358ZM39.2122 12L39.6637 11.3775V11.5545L39.2317 10.95H39.5077L39.8062 11.3715L39.6907 11.373L39.9847 10.95H40.2487L39.8197 11.544V11.37L40.2742 12H39.9937L39.6847 11.5545H39.7957L39.4912 12H39.2122ZM40.3469 12V10.95H40.5899V12H40.3469Z" fill="white"/>
</g>
<g clip-path="url(#clip1_959_2063)">
<path d="M18.3606 30.0001H17.6406V20.0001C17.6406 19.8011 17.8016 19.6401 18.0006 19.6401H21.0006C21.3536 19.6401 21.6406 19.3531 21.6406 19.0001V10.0001C21.6406 9.64714 21.3536 9.36014 21.0006 9.36014H11.0006C10.6476 9.36014 10.3606 9.64714 10.3606 10.0001V19.0001C10.3606 19.3531 10.6476 19.6401 11.0006 19.6401H14.0006C14.1996 19.6401 14.3606 19.8011 14.3606 20.0001V30.0001H13.6406V20.3601H11.0006C10.2506 20.3601 9.64062 19.7501 9.64062 19.0001V10.0001C9.64062 9.25014 10.2506 8.64014 11.0006 8.64014H21.0006C21.7506 8.64014 22.3606 9.25014 22.3606 10.0001V19.0001C22.3606 19.7501 21.7506 20.3601 21.0006 20.3601H18.3606V30.0001ZM16.0006 7.36014C14.4236 7.36014 13.1406 6.07714 13.1406 4.50014C13.1406 2.92314 14.4236 1.64014 16.0006 1.64014C17.5776 1.64014 18.8606 2.92314 18.8606 4.50014C18.8606 6.07714 17.5776 7.36014 16.0006 7.36014ZM16.0006 2.36014C14.8206 2.36014 13.8606 3.32014 13.8606 4.50014C13.8606 5.68014 14.8206 6.64014 16.0006 6.64014C17.1806 6.64014 18.1406 5.68014 18.1406 4.50014C18.1406 3.32014 17.1806 2.36014 16.0006 2.36014Z" fill="black"/>
</g>
<defs>
<clipPath id="clip0_959_2063">
<rect width="26" height="23" fill="white" transform="translate(26 9)"/>
</clipPath>
<clipPath id="clip1_959_2063">
<rect width="32" height="32" fill="white"/>
</clipPath>
</defs>
</svg>
