<svg width="32" height="32" viewBox="0 0 32 32" fill="none" xmlns="http://www.w3.org/2000/svg">
<g clip-path="url(#clip0_969_5409)">
<path d="M31 31.3606H1V30.6406H1.64V20.0006C1.64 19.8016 1.801 19.6406 2 19.6406H7.64V19.0006C7.64 18.8016 7.801 18.6406 8 18.6406H24C24.199 18.6406 24.36 18.8016 24.36 19.0006V19.6406H30C30.199 19.6406 30.36 19.8016 30.36 20.0006V30.6406H31V31.3606ZM24.36 30.6406H29.639V20.3606H24.36V30.6406ZM8.36 30.6406H23.64V19.3606H8.36V30.6406ZM2.36 30.6406H7.64V20.3606H2.36V30.6406ZM27.36 30.0006H26.64V27.0006H27.361L27.36 30.0006ZM20.36 30.0006H19.64V27.0006H20.361L20.36 30.0006ZM16.36 30.0006H15.64V27.0006H16.36V30.0006ZM12.36 30.0006H11.64V27.0006H12.36V30.0006ZM5.36 30.0006H4.64V27.0006H5.36V30.0006ZM27.36 25.0006H26.64V22.0006H27.361L27.36 25.0006ZM20.36 25.0006H19.64V22.0006H20.361L20.36 25.0006ZM16.36 25.0006H15.64V22.0006H16.36V25.0006ZM12.36 25.0006H11.64V22.0006H12.36V25.0006ZM5.36 25.0006H4.64V22.0006H5.36V25.0006ZM22.36 17.0006H21.64V13.3606H10.36V17.0006H9.64V13.0006C9.64 9.61462 12.3 6.83763 15.64 6.65063V2.00063C15.64 1.80163 15.801 1.64062 16 1.64062H19C19.199 1.64062 19.36 1.80163 19.36 2.00063V4.00063C19.36 4.19963 19.199 4.36063 19 4.36063H16.36V6.65063C19.7 6.83863 22.36 9.61462 22.36 13.0006V17.0006ZM10.372 12.6406H21.629C21.442 9.69763 18.989 7.36063 16 7.36063C13.011 7.36063 10.558 9.69763 10.372 12.6406ZM16.36 3.64062H18.64V2.36062H16.36V3.64062ZM19.36 17.0006H18.64V15.0006H19.361L19.36 17.0006ZM16.36 17.0006H15.64V15.0006H16.36V17.0006ZM13.36 17.0006H12.64V15.0006H13.36V17.0006Z" fill="black"/>
</g>
<defs>
<clipPath id="clip0_969_5409">
<rect width="32" height="32" fill="white"/>
</clipPath>
</defs>
</svg>
