<svg width="32" height="32" viewBox="0 0 32 32" fill="none" xmlns="http://www.w3.org/2000/svg">
<g clip-path="url(#clip0_969_2533)">
<path d="M21.36 4.63965V0.999648C21.36 0.800648 21.199 0.639648 21 0.639648H11C10.801 0.639648 10.64 0.800648 10.64 0.999648V4.63965H2V5.35965H5.64V30.9996C5.64 31.1986 5.801 31.3596 6 31.3596H26C26.199 31.3596 26.36 31.1986 26.36 30.9996V5.35965H30V4.63965H21.36ZM11.36 1.35965H20.64V4.63965H11.36V1.35965ZM25.64 30.6396H6.36V5.35965H25.64V30.6396ZM21.363 19.9316L21.994 19.5856L23.135 21.6706C23.447 22.2396 23.435 22.9116 23.105 23.4696C22.774 24.0276 22.19 24.3606 21.542 24.3606H16.87L18.376 25.8666L17.866 26.3766L15.491 23.9996L17.866 21.6236L18.376 22.1336L16.87 23.6396H21.541C21.933 23.6396 22.285 23.4396 22.484 23.1026C22.684 22.7656 22.691 22.3606 22.504 22.0166L21.363 19.9316ZM13.353 14.9636L12.721 14.6176L14.36 11.6196C14.687 11.0066 15.301 10.6386 16 10.6386C16.698 10.6386 17.312 11.0066 17.64 11.6226L20.597 17.0286L21.139 15.0066L21.834 15.1936L20.965 18.4386L17.719 17.5696L17.905 16.8746L20 17.4366L17.007 11.9656C16.803 11.5846 16.427 11.3586 15.999 11.3586C15.571 11.3586 15.194 11.5846 14.993 11.9626L13.353 14.9636ZM8.896 23.4676C8.565 22.9096 8.553 22.2366 8.865 21.6666L11.356 17.1126L9.256 17.6746L9.07 16.9786L12.315 16.1096L13.185 19.3556L12.49 19.5416L11.951 17.5286L9.498 22.0126C9.31 22.3566 9.317 22.7636 9.517 23.1006C9.717 23.4386 10.071 23.6396 10.463 23.6396H14V24.3606H10.461C9.812 24.3596 9.228 24.0257 8.896 23.4676Z" fill="black"/>
</g>
<defs>
<clipPath id="clip0_969_2533">
<rect width="32" height="32" fill="white"/>
</clipPath>
</defs>
</svg>
