<svg width="34" height="35" viewBox="0 0 34 35" fill="none" xmlns="http://www.w3.org/2000/svg">
<path d="M15.5 31H1.5C1.22386 31 1 31.2239 1 31.5C1 31.7761 1.22386 32 1.5 32H15.5C15.7761 32 16 31.7761 16 31.5C16 31.2239 15.7761 31 15.5 31Z" fill="black" stroke="black" stroke-width="0.5"/>
<path d="M16 23.5C16 23.2239 15.7761 23 15.5 23C15.2239 23 15 23.2239 15 23.5V30.5C15 30.7761 15.2239 31 15.5 31C15.7761 31 16 30.7761 16 30.5V23.5Z" fill="#E5E5E5" stroke="black" stroke-width="0.5"/>
<path d="M2 32.5C2 31.6716 2.67157 31 3.5 31C4.32843 31 5 31.6716 5 32.5C5 33.3284 4.32843 34 3.5 34C2.67157 34 2 33.3284 2 32.5Z" fill="#E5E5E5" stroke="black" stroke-width="0.5"/>
<path d="M14 32.5C14 31.6716 14.6716 31 15.5 31C16.3284 31 17 31.6716 17 32.5C17 33.3284 16.3284 34 15.5 34C14.6716 34 14 33.3284 14 32.5Z" fill="#E5E5E5" stroke="black" stroke-width="0.5"/>
<path d="M15 17.5C15 17.2239 15.2239 17 15.5 17C15.7761 17 16 17.2239 16 17.5C16 17.7761 15.7761 18 15.5 18C15.2239 18 15 17.7761 15 17.5Z" fill="#E5E5E5" stroke="black" stroke-width="0.5"/>
<path d="M15.75 22.7499V18.0957" stroke="black" stroke-width="0.5" stroke-linecap="round"/>
<g clip-path="url(#clip0_959_2071)">
<path d="M12.8555 8.45224C12.5046 8.45401 12.1586 8.53453 11.843 8.68786C11.5275 8.8412 11.2503 9.06344 11.0321 9.33818L7.60551 7.19599C7.73039 6.79295 7.73039 6.36154 7.60551 5.95849L11.0321 3.81631C11.3799 4.24695 11.8688 4.54061 12.4124 4.64525C12.956 4.74989 13.519 4.65876 14.0018 4.38801C14.4847 4.11725 14.8561 3.68435 15.0503 3.16599C15.2444 2.64762 15.2489 2.07725 15.0628 1.55592C14.8768 1.03458 14.5122 0.595928 14.0336 0.317665C13.5551 0.0394008 12.9936 -0.0605137 12.4484 0.0356204C11.9033 0.131755 11.4098 0.417732 11.0553 0.842894C10.7008 1.26806 10.5083 1.80496 10.5118 2.35849C10.514 2.56811 10.5455 2.77638 10.6055 2.97724L7.17895 5.11943C6.87644 4.73861 6.46295 4.46133 5.9958 4.32602C5.52865 4.19072 5.03098 4.20409 4.57176 4.36428C4.11255 4.52448 3.71455 4.82356 3.43292 5.22007C3.1513 5.61659 3 6.09089 3 6.57724C3 7.06359 3.1513 7.5379 3.43292 7.93441C3.71455 8.33093 4.11255 8.63001 4.57176 8.79021C5.03098 8.9504 5.52865 8.96377 5.9958 8.82847C6.46295 8.69316 6.87644 8.41588 7.17895 8.03506L10.6055 10.1772C10.5455 10.3781 10.514 10.5864 10.5118 10.796C10.5118 11.2595 10.6492 11.7127 10.9068 12.0981C11.1643 12.4835 11.5303 12.7839 11.9586 12.9613C12.3869 13.1387 12.8581 13.1851 13.3128 13.0947C13.7674 13.0043 14.185 12.7811 14.5128 12.4533C14.8406 12.1255 15.0638 11.7079 15.1542 11.2532C15.2447 10.7986 15.1982 10.3273 15.0209 9.89908C14.8435 9.47082 14.5431 9.10477 14.1576 8.84724C13.7722 8.5897 13.3191 8.45224 12.8555 8.45224ZM12.8555 0.952244C13.1336 0.952244 13.4055 1.03472 13.6368 1.18924C13.868 1.34376 14.0483 1.56339 14.1547 1.82035C14.2612 2.0773 14.289 2.36005 14.2347 2.63284C14.1805 2.90563 14.0465 3.1562 13.8499 3.35286C13.6532 3.54953 13.4026 3.68346 13.1299 3.73772C12.8571 3.79198 12.5743 3.76414 12.3174 3.6577C12.0604 3.55126 11.8408 3.37102 11.6863 3.13976C11.5317 2.90851 11.4493 2.63662 11.4493 2.35849C11.4493 1.98553 11.5974 1.62785 11.8611 1.36413C12.1249 1.1004 12.4825 0.952244 12.8555 0.952244ZM5.35551 7.98349C5.07738 7.98349 4.8055 7.90102 4.57424 7.7465C4.34298 7.59198 4.16274 7.37235 4.0563 7.11539C3.94987 6.85843 3.92202 6.57568 3.97628 6.3029C4.03054 6.03011 4.16447 5.77954 4.36114 5.58288C4.55781 5.38621 4.80838 5.25227 5.08116 5.19801C5.35395 5.14375 5.6367 5.1716 5.89366 5.27804C6.15062 5.38447 6.37024 5.56472 6.52476 5.79597C6.67928 6.02723 6.76176 6.29911 6.76176 6.57724C6.76176 6.9502 6.6136 7.30789 6.34988 7.57161C6.08616 7.83534 5.72847 7.98349 5.35551 7.98349ZM12.8555 12.2022C12.5774 12.2022 12.3055 12.1198 12.0742 11.9652C11.843 11.8107 11.6627 11.5911 11.5563 11.3341C11.4499 11.0772 11.422 10.7944 11.4763 10.5216C11.5305 10.2489 11.6645 9.99829 11.8611 9.80163C12.0578 9.60496 12.3084 9.47103 12.5812 9.41676C12.8539 9.3625 13.1367 9.39035 13.3937 9.49679C13.6506 9.60322 13.8702 9.78347 14.0248 10.0147C14.1793 10.246 14.2618 10.5179 14.2618 10.796C14.2618 11.169 14.1136 11.5266 13.8499 11.7904C13.5862 12.0541 13.2285 12.2022 12.8555 12.2022Z" fill="black"/>
</g>
<defs>
<clipPath id="clip0_959_2071">
<rect width="15" height="15" fill="white" transform="translate(2)"/>
</clipPath>
</defs>
</svg>
