<svg width="32" height="32" viewBox="0 0 32 32" fill="none" xmlns="http://www.w3.org/2000/svg">
<g clip-path="url(#clip0_969_4925)">
<path d="M31 14.3601V13.6401H1V14.3601H3.64V17.6401H1V18.3611H31V17.6401H28.36V14.3601H31ZM12.36 14.3601H15.64V17.6401H12.36V14.3601ZM11.64 17.6401H8.36V14.3601H11.64V17.6401ZM16.36 14.3601H19.64V17.6401H16.36V14.3601ZM20.36 14.3601H23.639V17.6401H20.36V14.3601ZM4.36 14.3601H7.64V17.6401H4.36V14.3601ZM27.64 17.6401H24.36V14.3601H27.639L27.64 17.6401ZM1 19.6401V20.3611H4C6.007 20.3611 7.64 21.9941 7.64 24.0011V25.6411H4C3.801 25.6411 3.64 25.8021 3.64 26.0011C3.64 26.2001 3.801 26.3601 4 26.3601H10C10.199 26.3601 10.36 26.1991 10.36 26.0001C10.36 25.8011 10.199 25.6401 10 25.6401H8.36V24.0001C8.36 21.9931 9.993 20.3601 12 20.3601C14.007 20.3601 15.64 21.9931 15.64 24.0001V25.6401H14C13.801 25.6401 13.64 25.8011 13.64 26.0001C13.64 26.1991 13.801 26.3601 14 26.3601H18C18.199 26.3601 18.36 26.1991 18.36 26.0001C18.36 25.8011 18.199 25.6401 18 25.6401H16.36V24.0001C16.36 21.9931 17.993 20.3601 20 20.3601C22.007 20.3601 23.64 21.9931 23.64 24.0001V25.6401H22C21.801 25.6401 21.64 25.8011 21.64 26.0001C21.64 26.1991 21.801 26.3601 22 26.3601H28C28.199 26.3601 28.36 26.1991 28.36 26.0001C28.36 25.8011 28.199 25.6401 28 25.6401H24.36V24.0001C24.36 21.9931 25.993 20.3601 28 20.3601H31V19.6401H1ZM8 22.2741C7.66 21.4901 7.097 20.8261 6.39 20.3611H9.61C8.903 20.8261 8.34 21.4891 8 22.2741ZM16 22.2741C15.66 21.4901 15.097 20.8261 14.39 20.3611H17.61C16.903 20.8261 16.34 21.4891 16 22.2741ZM24 22.2731C23.66 21.4891 23.097 20.8261 22.39 20.3611H25.609C24.903 20.8261 24.34 21.4891 24 22.2731ZM14.36 30.0001C14.36 30.1991 14.199 30.3601 14 30.3601H10C9.801 30.3601 9.64 30.1991 9.64 30.0001C9.64 29.8011 9.801 29.6401 10 29.6401H14C14.199 29.6401 14.36 29.8011 14.36 30.0001ZM22.36 30.0001C22.36 30.1991 22.199 30.3601 22 30.3601H18C17.801 30.3601 17.64 30.1991 17.64 30.0001C17.64 29.8011 17.801 29.6401 18 29.6401H22C22.199 29.6401 22.36 29.8011 22.36 30.0001ZM26.36 28.0001C26.36 28.1991 26.199 28.3601 26 28.3601H6C5.801 28.3601 5.64 28.1991 5.64 28.0001C5.64 27.8011 5.801 27.6401 6 27.6401H26C26.199 27.6401 26.36 27.8011 26.36 28.0001ZM19.414 23.7741C19.275 23.7741 19.133 23.7931 18.988 23.8311C18.854 23.8681 18.72 23.9241 18.593 23.9961C18.464 24.0701 18.353 24.1551 18.254 24.2551L17.744 23.7451C17.887 23.6031 18.051 23.4771 18.233 23.3721C18.415 23.2681 18.605 23.1881 18.801 23.1361C18.894 23.1121 18.986 23.0931 19.077 23.0791C19.091 22.9881 19.11 22.8961 19.135 22.8051C19.19 22.6011 19.269 22.4091 19.37 22.2351C19.476 22.0511 19.602 21.8871 19.743 21.7461L20.253 22.2561C20.155 22.3531 20.068 22.4681 19.993 22.5971C19.923 22.7171 19.868 22.8501 19.83 22.9931C19.792 23.1371 19.772 23.2791 19.772 23.4161V23.7761H19.414V23.7741ZM19.254 13.2551L18.746 12.7451C18.889 12.6021 19.054 12.4771 19.234 12.3721C19.415 12.2681 19.605 12.1891 19.803 12.1361C19.895 12.1121 19.987 12.0921 20.078 12.0791C20.092 11.9881 20.111 11.8961 20.136 11.8051C20.191 11.6011 20.27 11.4091 20.371 11.2341C20.476 11.0521 20.602 10.8881 20.744 10.7461L21.254 11.2551C21.155 11.3531 21.068 11.4681 20.994 11.5961C20.924 11.7171 20.869 11.8501 20.831 11.9911C20.792 12.1381 20.773 12.2771 20.773 12.4151V12.7751H20.413C20.274 12.7751 20.132 12.7951 19.988 12.8331C19.851 12.8701 19.718 12.9251 19.593 12.9971C19.468 13.0691 19.354 13.1561 19.254 13.2551ZM14.254 8.25412L13.745 7.74512C13.886 7.60312 14.051 7.47812 14.234 7.37112C14.415 7.26712 14.607 7.18712 14.804 7.13512C14.895 7.11012 14.987 7.09112 15.079 7.07812C15.093 6.98612 15.112 6.89412 15.137 6.80312C15.19 6.60412 15.269 6.41212 15.372 6.23412C15.477 6.05112 15.603 5.88712 15.746 5.74512L16.255 6.25412C16.157 6.35212 16.07 6.46712 15.996 6.59512C15.925 6.71912 15.87 6.85112 15.833 6.98912C15.793 7.13512 15.774 7.27412 15.774 7.41412V7.77412H15.414C15.275 7.77412 15.133 7.79412 14.99 7.83212C14.853 7.86912 14.72 7.92412 14.594 7.99612C14.467 8.07012 14.352 8.15712 14.254 8.25412ZM16.746 8.74612L17.255 9.25512C17.156 9.35312 17.069 9.46812 16.995 9.59612C16.924 9.72012 16.869 9.85212 16.832 9.99012C16.792 10.1361 16.773 10.2751 16.773 10.4151V10.7751H16.413C16.274 10.7751 16.132 10.7951 15.989 10.8331C15.852 10.8701 15.719 10.9251 15.593 10.9971C15.465 11.0711 15.35 11.1591 15.253 11.2561L14.744 10.7471C14.885 10.6051 15.05 10.4801 15.233 10.3731C15.414 10.2691 15.606 10.1891 15.803 10.1371C15.894 10.1121 15.986 10.0931 16.078 10.0801C16.092 9.98812 16.111 9.89612 16.136 9.80512C16.189 9.60612 16.268 9.41412 16.371 9.23612C16.478 9.05212 16.603 8.88812 16.746 8.74612ZM22.005 1.59612C21.931 1.46712 21.844 1.35212 21.745 1.25412L22.255 0.745117C22.397 0.887117 22.523 1.05212 22.628 1.23412C22.73 1.40812 22.809 1.60012 22.863 1.80312C22.887 1.89512 22.907 1.98712 22.921 2.07812C23.013 2.09112 23.105 2.11012 23.196 2.13512C23.394 2.18812 23.585 2.26712 23.764 2.37012C23.946 2.47512 24.111 2.60112 24.253 2.74412L23.745 3.25412C23.645 3.15512 23.531 3.06812 23.403 2.99412C23.279 2.92212 23.146 2.86712 23.009 2.83012C22.865 2.79212 22.723 2.77212 22.584 2.77212H22.224V2.41212C22.224 2.27412 22.205 2.13512 22.166 1.98712C22.13 1.84912 22.075 1.71612 22.005 1.59612ZM16.005 3.59512C15.931 3.46712 15.843 3.35212 15.746 3.25412L16.255 2.74512C16.398 2.88712 16.523 3.05212 16.629 3.23412C16.733 3.41212 16.812 3.60412 16.865 3.80412C16.889 3.89512 16.908 3.98712 16.922 4.07812C17.014 4.09112 17.106 4.11112 17.197 4.13512C17.395 4.18812 17.586 4.26712 17.765 4.37012C17.947 4.47512 18.112 4.60112 18.254 4.74412L17.746 5.25412C17.646 5.15512 17.532 5.06812 17.404 4.99412C17.28 4.92212 17.147 4.86712 17.01 4.83012C16.867 4.79212 16.724 4.77212 16.585 4.77212H16.225V4.41212C16.225 4.27212 16.206 4.13412 16.167 3.98812C16.131 3.85212 16.076 3.71912 16.005 3.59512ZM11.005 4.59512C10.931 4.46712 10.843 4.35212 10.746 4.25412L11.255 3.74512C11.398 3.88712 11.523 4.05212 11.629 4.23412C11.733 4.41212 11.812 4.60412 11.865 4.80412C11.889 4.89512 11.908 4.98712 11.922 5.07812C12.014 5.09112 12.106 5.11112 12.197 5.13512C12.394 5.18712 12.585 5.26712 12.765 5.37012C12.949 5.47712 13.114 5.60212 13.255 5.74412L12.746 6.25312C12.649 6.15612 12.534 6.06812 12.405 5.99412C12.28 5.92212 12.148 5.86712 12.011 5.83012C11.868 5.79212 11.725 5.77212 11.587 5.77212H11.227V5.41212C11.227 5.27212 11.208 5.13412 11.169 4.98812C11.131 4.85212 11.076 4.71912 11.005 4.59512ZM12.226 9.77412V9.41412C12.226 9.27412 12.207 9.13612 12.168 8.99012C12.131 8.85112 12.076 8.71912 12.005 8.59512C11.931 8.46712 11.843 8.35212 11.746 8.25412L12.255 7.74512C12.398 7.88712 12.523 8.05212 12.629 8.23412C12.733 8.41212 12.812 8.60412 12.865 8.80412C12.889 8.89512 12.908 8.98712 12.922 9.07812C13.014 9.09112 13.106 9.11112 13.197 9.13512C13.394 9.18712 13.585 9.26712 13.765 9.37012C13.949 9.47712 14.114 9.60212 14.255 9.74412L13.746 10.2531C13.649 10.1561 13.534 10.0681 13.405 9.99412C13.28 9.92212 13.148 9.86712 13.011 9.83012C12.868 9.79212 12.725 9.77212 12.587 9.77212H12.226V9.77412Z" fill="black"/>
</g>
<defs>
<clipPath id="clip0_969_4925">
<rect width="32" height="32" fill="white"/>
</clipPath>
</defs>
</svg>
