<svg width="98" height="286" viewBox="0 0 98 286" fill="none" xmlns="http://www.w3.org/2000/svg">
<path d="M11.2129 90.7687L25.5242 53.1914H71.8251L86.1334 90.7687H11.2129Z" fill="#484746"/>
<path d="M0.390625 6.44699L21.7995 0.21875H75.5464L96.9553 6.44699H0.390625Z" fill="#484746"/>
<path d="M0 6.06445H97.3469L86.3689 91.0005H10.9779L0 6.06445ZM86.1337 90.7692L96.9558 6.44995H0.391086L11.2132 90.7692H86.1306" fill="#FF1242"/>
<path d="M48.3477 43.6667C45.4021 43.6667 43.0143 46.0545 43.0143 49C43.0143 51.9455 45.4021 54.3333 48.3477 54.3333C51.2932 54.3333 53.681 51.9455 53.681 49C53.681 46.0545 51.2932 43.6667 48.3477 43.6667ZM47.3477 49L47.3477 286H49.3477L49.3477 49H47.3477Z" fill="black" fill-opacity="0.8"/>
<path d="M96.9553 6.44531L86.1332 90.7679H11.2127L0.390625 6.44531H96.9553Z" fill="#DE274C"/>
<path d="M0 6.06398L21.5953 0H75.7516L97.3469 6.06398H0Z" fill="#FF1242"/>
<g clip-path="url(#clip0_969_5878)">
<path d="M64.2508 66.6529H60.5008C60.252 66.6529 60.0508 66.4586 60.0508 66.2183V61.8238H35.9508V66.2183C35.9508 66.4586 35.7495 66.6529 35.5008 66.6529H31.7508C31.502 66.6529 31.3008 66.4586 31.3008 66.2183V61.3892C31.3008 61.3614 31.3033 61.3337 31.3083 61.3083C30.5483 60.7916 30.0508 59.9381 30.0508 58.9747V49.3165C30.0508 47.8569 31.1933 46.6496 32.6595 46.4866L36.052 35.5656C36.2695 34.8654 36.9245 34.3945 37.6808 34.3945H58.3208C59.077 34.3945 59.732 34.8654 59.9495 35.5644L63.342 46.4854C64.8095 46.6484 65.952 47.8557 65.952 49.3152V58.9735C65.952 59.9369 65.4545 60.7904 64.6933 61.3071C64.6983 61.3325 64.702 61.3602 64.702 61.388V66.2171C64.7008 66.4586 64.4995 66.6529 64.2508 66.6529ZM60.9508 65.7837H63.7995V61.7176C63.5458 61.7876 63.277 61.825 62.9995 61.825H60.9495L60.9508 65.7837ZM32.2008 65.7837H35.0508V61.8238H33.0008C32.7233 61.8238 32.4545 61.7864 32.2008 61.7164V65.7837ZM60.5008 60.9546H63.0008C64.1308 60.9546 65.0508 60.0672 65.0508 58.9747V49.3165C65.0508 48.2275 64.137 47.3414 63.0108 47.3365C63.0008 47.3353 62.9958 47.3365 62.9895 47.3365H33.0108C33.0058 47.3365 32.997 47.3365 32.9908 47.3365C31.8658 47.3414 30.9508 48.2275 30.9508 49.3165V58.9747C30.9508 60.066 31.8708 60.9546 33.0008 60.9546H60.5008ZM33.6058 46.4673H62.397L59.6658 37.6783H36.3358L33.6058 46.4673ZM36.6058 36.8091H59.3958L59.087 35.8143C58.9858 35.4895 58.6708 35.2626 58.3208 35.2626H37.6808C37.3245 35.2626 37.017 35.4847 36.9145 35.8143L36.6058 36.8091ZM59.2508 55.7875C57.6233 55.7875 56.3008 54.5089 56.3008 52.9383C56.3008 51.3676 57.6245 50.0891 59.2508 50.0891C60.877 50.0891 62.2008 51.3664 62.2008 52.9383C62.2008 54.5102 60.8783 55.7875 59.2508 55.7875ZM59.2508 50.9583C58.1208 50.9583 57.2008 51.8457 57.2008 52.9383C57.2008 54.0309 58.1195 54.9182 59.2508 54.9182C60.382 54.9182 61.3008 54.0309 61.3008 52.9383C61.3008 51.8457 60.3808 50.9583 59.2508 50.9583ZM36.7508 55.7875C35.1245 55.7875 33.8008 54.5089 33.8008 52.9383C33.8008 51.3676 35.1245 50.0891 36.7508 50.0891C38.377 50.0891 39.7008 51.3664 39.7008 52.9383C39.7008 54.5102 38.377 55.7875 36.7508 55.7875ZM36.7508 50.9583C35.6208 50.9583 34.7008 51.8457 34.7008 52.9383C34.7008 54.0309 35.6208 54.9182 36.7508 54.9182C37.8808 54.9182 38.8008 54.0297 38.8008 52.9383C38.8008 51.8469 37.8808 50.9583 36.7508 50.9583ZM55.5008 44.922C55.3658 44.922 55.2308 44.8628 55.142 44.7493L51.392 39.9637C51.242 39.7717 51.2808 39.5001 51.4795 39.3552C51.6733 39.2104 51.957 39.2454 52.1095 39.4397L55.8595 44.2254C56.0095 44.4173 55.9708 44.689 55.772 44.8338C55.6908 44.893 55.5958 44.922 55.5008 44.922ZM56.7508 42.7247C56.6145 42.7247 56.4783 42.6644 56.3908 42.5497L53.8908 39.3142C53.742 39.1222 53.782 38.8494 53.982 38.7057C54.1795 38.5633 54.462 38.6007 54.6108 38.7938L57.1108 42.0293C57.2595 42.2213 57.2195 42.4941 57.0195 42.6378C56.9383 42.697 56.8445 42.7247 56.7508 42.7247ZM65.5008 59.4093H30.5008V58.54H65.5008V59.4093ZM54.2508 54.5802H41.7508V53.7109H54.2508V54.5802ZM54.2508 52.1656H41.7508V51.2964H54.2508V52.1656ZM64.7008 44.4874H63.8008V40.8655H64.702L64.7008 44.4874ZM32.2008 44.4874H31.3008V40.8655H32.2008V44.4874Z" fill="black"/>
</g>
<defs>
<clipPath id="clip0_969_5878">
<rect width="40" height="38.6328" fill="white" transform="translate(28 30)"/>
</clipPath>
</defs>
</svg>
