<svg width="98" height="286" viewBox="0 0 98 286" fill="none" xmlns="http://www.w3.org/2000/svg">
<path d="M49 43.6667C46.0545 43.6667 43.6667 46.0545 43.6667 49C43.6667 51.9455 46.0545 54.3333 49 54.3333C51.9455 54.3333 54.3333 51.9455 54.3333 49C54.3333 46.0545 51.9455 43.6667 49 43.6667ZM48 49L48 286H50L50 49H48Z" fill="black" fill-opacity="0.8"/>
<path d="M11.2129 90.7687L25.5242 53.1914H71.8251L86.1334 90.7687H11.2129Z" fill="#484746"/>
<path d="M0.390625 6.44601L21.7995 0.217773H75.5464L96.9553 6.44601H0.390625Z" fill="#484746"/>
<path d="M0 6.06445H97.3469L86.3689 91.0005H10.9779L0 6.06445ZM86.1337 90.7692L96.9558 6.44995H0.391086L11.2132 90.7692H86.1306" fill="#252423"/>
<path d="M96.9553 6.44629L86.1332 90.7689H11.2127L0.390625 6.44629H96.9553Z" fill="#252423"/>
<path d="M0 6.06398L21.5953 0H75.7516L97.3469 6.06398H0Z" fill="#484746"/>
<g clip-path="url(#clip0_966_6272)">
<path d="M48.9993 64.5661C46.5659 64.5661 44.5866 62.5855 44.5866 60.1535C44.5866 57.7214 46.5659 55.7408 48.9993 55.7408C51.4326 55.7408 53.4119 57.7214 53.4119 60.1535C53.4119 62.5855 51.4326 64.5661 48.9993 64.5661ZM48.9993 56.6858C47.087 56.6858 45.5316 58.2412 45.5316 60.1535C45.5316 62.0658 47.087 63.6211 48.9993 63.6211C50.9116 63.6211 52.4669 62.0658 52.4669 60.1535C52.4669 58.2412 50.9116 56.6858 48.9993 56.6858ZM58.0503 52.2509C55.5185 50.1299 52.3028 48.9631 48.9953 48.9631C45.6905 48.9631 42.4775 50.1286 39.947 52.2457L39.3419 51.5198C42.043 49.261 45.4713 48.0181 48.9966 48.0181C52.526 48.0181 55.9568 49.2637 58.6593 51.5251L58.0503 52.2509ZM63.2097 47.0718C59.2919 43.5884 54.244 41.6695 48.994 41.6695C43.7493 41.6695 38.704 43.5858 34.7862 47.0652L34.1575 46.3591C38.2486 42.7261 43.517 40.7258 48.9927 40.7258C54.4724 40.7258 59.7447 42.7287 63.8358 46.367L63.2097 47.0718ZM68.3678 41.9045C63.068 37.0508 56.1891 34.3786 48.9966 34.3786C41.8068 34.3786 34.9306 37.0495 29.632 41.8979L28.9941 41.201C34.466 36.1925 41.5705 33.4336 48.9966 33.4336C56.4254 33.4336 63.5326 36.1938 69.007 41.2062L68.3678 41.9045Z" fill="white"/>
</g>
<defs>
<clipPath id="clip0_966_6272">
<rect width="42" height="42" fill="white" transform="translate(28 28)"/>
</clipPath>
</defs>
</svg>
