<svg width="98" height="286" viewBox="0 0 98 286" fill="none" xmlns="http://www.w3.org/2000/svg">
<path d="M49 43.6667C46.0545 43.6667 43.6667 46.0545 43.6667 49C43.6667 51.9455 46.0545 54.3333 49 54.3333C51.9455 54.3333 54.3333 51.9455 54.3333 49C54.3333 46.0545 51.9455 43.6667 49 43.6667ZM48 49L48 286H50L50 49H48Z" fill="black" fill-opacity="0.8"/>
<path d="M11.2129 90.7687L25.5242 53.1914H71.8251L86.1334 90.7687H11.2129Z" fill="#484746"/>
<path d="M0.390625 6.44601L21.7995 0.217773H75.5464L96.9553 6.44601H0.390625Z" fill="#484746"/>
<path d="M0 6.06445H97.3469L86.3689 91.0005H10.9779L0 6.06445ZM86.1337 90.7692L96.9558 6.44995H0.391086L11.2132 90.7692H86.1306" fill="#252423"/>
<path d="M96.9553 6.44629L86.1332 90.7689H11.2127L0.390625 6.44629H96.9553Z" fill="#252423"/>
<path d="M0 6.06398L21.5953 0H75.7516L97.3469 6.06398H0Z" fill="#484746"/>
<g clip-path="url(#clip0_966_7000)">
<path d="M59.75 70.1003H37.25V69.0878H42.3688V66.7816C42.3688 66.5017 42.5952 66.2753 42.875 66.2753H43.775V60.2566H42.875V59.2441H43.775V56.9378C43.775 56.658 44.0014 56.4316 44.2812 56.4316H45.1813V45.7919L43.8298 42.6377L43.2336 43.2339L42.5178 42.5181L43.3995 41.635L41.0033 36.0438L41.9342 35.6458L44.1702 40.8644L45.0828 39.9517L42.5459 34.2409H41.4688C41.1889 34.2409 40.9625 34.0145 40.9625 33.7347V32.1316H40.0625V31.1191H42.875V32.1316H41.975V33.2284H42.875C43.0747 33.2284 43.2561 33.3452 43.3377 33.5294L46.0166 39.5566H46.6564C46.6986 39.4005 46.7605 39.2542 46.8378 39.1164L45.6819 37.9591L46.3977 37.2433L47.5536 38.3992C47.6914 38.3205 47.8391 38.2586 47.9938 38.2164V36.4769H49.0063V38.2164C49.1623 38.26 49.31 38.3219 49.4464 38.3992L50.6023 37.2433L51.3195 37.9591L50.1636 39.1164C50.2409 39.2528 50.3028 39.4005 50.345 39.5566H52.0156V40.5691H50.4125V41.4691C50.4125 41.6041 50.3591 41.732 50.2648 41.8263L49.722 42.3691H50.7303C51.2338 42.3691 51.7259 42.573 52.0831 42.9288L53.7734 44.6191L54.4695 43.923L55.1867 44.6388L51.8188 48.0067V48.6972H52.5078L55.1727 46.0323L55.8898 46.7481L53.0773 49.5606C52.9831 49.6562 52.8538 49.7097 52.7188 49.7097H51.8188V56.4316H52.7188C52.9986 56.4316 53.225 56.658 53.225 56.9378V59.2441H54.125V60.258H53.225V66.2753H54.125C54.4048 66.2753 54.6313 66.5017 54.6313 66.7816V69.0878H59.75V70.1003ZM49.0063 69.0878H53.6187V67.2878H43.3812V69.0864H47.9938V68.1878H49.0063V69.0878ZM44.7875 66.2753H52.2125V60.2566H44.7875V66.2753ZM49.0063 59.2441H52.2125V57.4441H44.7875V59.2427H47.9938V58.3441H49.0063V59.2441ZM46.1937 56.4316H50.8062V47.7972C50.8062 47.6622 50.8597 47.5342 50.9539 47.44L53.0577 45.3363L51.3659 43.6445C51.3477 43.6263 51.3294 43.6094 51.3097 43.5925L46.1937 48.7084V52.9019L48.8459 50.2497L49.5617 50.9669L46.1937 54.3348V56.4316ZM44.6005 41.8656L46.153 45.4881C46.1797 45.5514 46.1937 45.6189 46.1937 45.6878V47.2783L50.0905 43.3816H49.2031C48.9233 43.3816 48.6969 43.1552 48.6969 42.8753V42.1722C48.6969 42.0372 48.7503 41.9092 48.8445 41.815L49.4 41.2595V40.0628C49.4 39.565 48.9992 39.1614 48.507 39.1614C48.0036 39.1614 47.6 39.5664 47.6 40.0628V41.4691H46.5875V40.5691H45.897L44.6005 41.8656ZM51.1156 63.7047H50.1031V61.4195H51.117L51.1156 63.7047ZM49.0063 63.7047H47.9938V61.4195H49.0063V63.7047ZM46.8969 63.7047H45.8844V61.4195H46.8969V63.7047ZM41.975 30.2233L40.9625 30.2191C40.9625 29.4498 41.4716 28.3066 42.875 28.3066C43.6948 28.3066 43.7708 27.6147 43.775 27.4023L44.7875 27.4066C44.7875 28.1758 44.2784 29.3191 42.875 29.3191C42.0552 29.3191 41.9792 30.0109 41.975 30.2233Z" fill="white"/>
</g>
<defs>
<clipPath id="clip0_966_7000">
<rect width="45" height="45" fill="white" transform="translate(26 26)"/>
</clipPath>
</defs>
</svg>
