<svg width="32" height="28" viewBox="0 0 32 28" fill="none" xmlns="http://www.w3.org/2000/svg">
<path d="M25.6356 4.63989L25.6406 26.6399H23.3606V5.99989L22.1316 3.45889L17.5756 6.77289L17.6386 18.9989L17.6176 26.6399H15.3606V3.99989C15.3606 2.21389 9.64062 2.21389 9.64062 3.99989V26.6399H6.36063V23.3599H7.36063V17.6399H6.36063V16.3389H7.36063V13.3599V12.6399V10.6189H6.36063V9.33889H7.36063V3.63989H6.36063V0.639893H1.64062V3.63989H0.640625V5.63989V6.35989V9.33889H1.64062V10.6189H0.640625V16.3389H1.64062V17.6399H0.640625V20.6399V21.3609V23.3609H1.64062V26.6399H0.640625V27.3609H31.0006L31.3606 27.3399V4.63989H25.6356ZM21.4846 4.81989L20.4336 10.5959H19.0006V11.3159H20.3026L18.3526 22.0309L18.3606 18.9979L18.2986 7.13889L21.4846 4.81989ZM18.3416 26.0409L18.3546 26.0429L22.1616 5.12689L22.6406 6.08489V21.6399H21.0006V22.3609H22.6406V26.6399H18.3406L18.3416 26.0409ZM14.6406 15.6389H13.0006V16.3599L14.6406 16.3609V18.6409L13.0006 18.6399V19.3609L14.6406 19.3619V26.6409H12.3606V7.35989H14.6406V15.6389ZM10.3606 3.99989C10.3606 3.81389 11.1106 3.35989 12.5006 3.35989C13.8906 3.35989 14.6406 3.81389 14.6406 3.99989V6.63989H11.6406V26.6399H10.3606V3.99989ZM6.64062 4.35989V8.61889H5.64062V11.3389H6.64062V12.6409H5.64062V13.3609H6.64062V15.6189H5.64062V18.3609H6.64062V22.6399H5.64062V26.6399H4.36063V1.35989H5.64062V4.35989H6.64062ZM1.36063 22.6399V21.3599H2.36062V20.6399H1.36063V18.3599H2.36062V15.6179H1.36063V11.3379H2.36062V8.61789H1.36063V6.35989H2.36062V5.63989H1.36063V4.35989H2.36062V1.35989H3.64062V26.6399H2.36062V22.6399H1.36063ZM26.3566 9.63989V8.35989H28.0006V7.63989H26.3566L26.3556 5.35989H30.6276C30.5636 9.38389 29.4816 11.9729 28.3266 14.6949C27.6036 16.3999 26.8756 18.1519 26.3586 20.2979L26.3566 10.3599H28.0006V9.63989H26.3566ZM30.6406 21.6399H29.0006V22.3609H30.6406V26.6399H26.3606V26.6339H26.3666C26.3666 21.1679 27.7006 18.0209 28.9906 14.9769C29.6036 13.5299 30.1986 12.1239 30.6396 10.5249L30.6406 21.6399Z" fill="black"/>
</svg>
