<svg width="32" height="32" viewBox="0 0 32 32" fill="none" xmlns="http://www.w3.org/2000/svg">
<g clip-path="url(#clip0_2066_3366)">
<path d="M30.7441 31.255L21.3591 21.869V30H20.6391V20.64H29.9991V21.361H21.8681L31.2541 30.746L30.7441 31.255ZM1.25314 31.255L0.744141 30.745L10.1291 21.36H1.99914V20.64H11.3591V30H10.6391V21.869L1.25314 31.255ZM29.9991 11.36H20.6391V2H21.3601V10.131L30.7451 0.745995L31.2551 1.255L21.8691 10.641H29.9991V11.36ZM11.3591 11.36H1.99914V10.64H10.1301L0.745141 1.254L1.25414 0.744995L10.6401 10.13V2H11.3601V11.36H11.3591Z" fill="#08ECC4"/>
</g>
<defs>
<clipPath id="clip0_2066_3366">
<rect width="32" height="32" fill="white"/>
</clipPath>
</defs>
</svg>
