<svg width="15" height="15" viewBox="0 0 15 15" fill="none" xmlns="http://www.w3.org/2000/svg">
<g clip-path="url(#clip0_2069_211)">
<path d="M14.2353 14.8276L14.4119 15.0042L14.5887 14.8278L14.8278 14.5892L15.0049 14.4124L14.8279 14.2354L10.8551 10.263H14.0629H14.3129V10.013V9.67502V9.42502H14.0629H9.67539H9.42539V9.67502V14.0625V14.3125H9.67539H10.0129H10.2629V14.0625V10.8547L14.2353 14.8276ZM0.411253 14.8274L0.58803 15.0045L0.76498 14.8276L4.73789 10.8547V14.0625V14.3125H4.98789H5.32539H5.57539V14.0625V9.67502V9.42502H5.32539H0.937891H0.687891V9.67502V10.0125V10.2625H0.937891H4.14528L0.172833 14.235L-0.00377107 14.4116L0.17266 14.5883L0.411253 14.8274ZM14.0629 5.57502H14.3129V5.32502V4.98799V4.73799H14.0629H10.8555L14.8284 0.765082L15.0054 0.588132L14.8282 0.411356L14.5892 0.172762L14.4124 -0.00366813L14.2358 0.172935L10.2634 4.14538V0.937524V0.687524H10.0134H9.67539H9.42539V0.937524V5.32502V5.57502H9.67539H14.0629ZM0.687891 5.32502V5.57502H0.937891H5.32539H5.32586H5.57586V5.32502V0.937524V0.687524H5.32586H4.98836H4.73836V0.937524V4.14495L0.765439 0.172457L0.588663 -0.00430077L0.411895 0.172466L0.173301 0.41106L-0.00346589 0.587827L0.173292 0.764604L4.14579 4.73752H0.937891H0.687891V4.98752V5.32502Z" fill="white" stroke="white" stroke-width="0.5"/>
</g>
<defs>
<clipPath id="clip0_2069_211">
<rect width="15" height="15" fill="white"/>
</clipPath>
</defs>
</svg>
