<svg width="32" height="32" viewBox="0 0 32 32" fill="none" xmlns="http://www.w3.org/2000/svg">
<g clip-path="url(#clip0_2066_3366)">
<path d="M30.3906 31.6085L30.7438 31.9618L31.0973 31.6089L31.6073 31.0999L31.9616 30.7463L31.6077 30.3924L23.0753 21.861H29.9991H30.4991V21.361V20.64V20.14H29.9991H20.6391H20.1391V20.64V30V30.5H20.6391H21.3591H21.8591V30V23.0762L30.3906 31.6085ZM0.899241 31.6082L1.25279 31.9624L1.60669 31.6085L10.1391 23.0761V30V30.5H10.6391H11.3591H11.8591V30V20.64V20.14H11.3591H1.99914H1.49914V20.64V21.36V21.86H1.99914H8.92203L0.390587 30.3914L0.0373801 30.7446L0.390241 31.0982L0.899241 31.6082ZM29.9991 11.86H30.4991V11.36V10.641V10.141H29.9991H23.0762L31.6087 1.60855L31.9626 1.25465L31.6083 0.901095L31.0983 0.392095L30.7448 0.0392352L30.3916 0.392442L21.8601 8.92389V2V1.5H21.3601H20.6391H20.1391V2V11.36V11.86H20.6391H29.9991ZM1.49914 11.36V11.86H1.99914H11.3591H11.3601H11.8601V11.36V2V1.5H11.3601H10.6401H10.1401V2V8.92298L1.60768 0.391423L1.25412 0.0379072L0.900587 0.391442L0.391587 0.900442L0.0380527 1.25398L0.391568 1.60753L8.92312 10.14H1.99914H1.49914V10.64V11.36Z" fill="#08ECC4" stroke="#08ECC4"/>
</g>
<defs>
<clipPath id="clip0_2066_3366">
<rect width="32" height="32" fill="white"/>
</clipPath>
</defs>
</svg>
