<svg width="98" height="286" viewBox="0 0 98 286" fill="none" xmlns="http://www.w3.org/2000/svg">
<path d="M49.1719 43.6667C46.2264 43.6667 43.8385 46.0545 43.8385 49C43.8385 51.9455 46.2264 54.3333 49.1719 54.3333C52.1174 54.3333 54.5052 51.9455 54.5052 49C54.5052 46.0545 52.1174 43.6667 49.1719 43.6667ZM48.1719 49L48.1719 286H50.1719L50.1719 49H48.1719Z" fill="black" fill-opacity="0.8"/>
<path d="M11.2109 90.7687L25.5222 53.1914H71.8232L86.1314 90.7687H11.2109Z" fill="#484746"/>
<path d="M0.390625 6.44601L21.7995 0.217773H75.5464L96.9553 6.44601H0.390625Z" fill="#484746"/>
<path d="M0 6.06396H97.3469L86.3689 91H10.9779L0 6.06396ZM86.1337 90.7687L96.9558 6.44946H0.391086L11.2132 90.7687H86.1306" fill="#E0E0E0"/>
<path d="M96.9553 6.44629L86.1332 90.7689H11.2127L0.390625 6.44629H96.9553Z" fill="#E0E0E0"/>
<path d="M0 6.06398L21.5953 0H75.7516L97.3469 6.06398H0Z" fill="white"/>
<g clip-path="url(#clip0_959_3120)">
<path d="M54.8173 34.8555C54.2091 34.8586 53.6094 35.0001 53.0623 35.2696C52.5153 35.5391 52.0349 35.9297 51.6566 36.4126L45.7173 32.6475C45.9337 31.9391 45.9337 31.1809 45.7173 30.4725L51.6566 26.7074C52.2595 27.4643 53.107 27.9805 54.0492 28.1644C54.9914 28.3483 55.9674 28.1881 56.8042 27.7123C57.6411 27.2364 58.2849 26.4755 58.6215 25.5645C58.9581 24.6534 58.9658 23.6509 58.6433 22.7346C58.3208 21.8184 57.6888 21.0474 56.8594 20.5583C56.0299 20.0692 55.0565 19.8936 54.1116 20.0626C53.1667 20.2316 52.3113 20.7342 51.6969 21.4814C51.0825 22.2287 50.7487 23.1724 50.7548 24.1452C50.7586 24.5136 50.8133 24.8797 50.9173 25.2327L44.9779 28.9978C44.4535 28.3285 43.7368 27.8411 42.9271 27.6033C42.1174 27.3655 41.2547 27.389 40.4588 27.6706C39.6628 27.9521 38.9729 28.4778 38.4848 29.1747C37.9966 29.8716 37.7344 30.7052 37.7344 31.56C37.7344 32.4148 37.9966 33.2484 38.4848 33.9453C38.9729 34.6422 39.6628 35.1679 40.4588 35.4495C41.2547 35.731 42.1174 35.7545 42.9271 35.5167C43.7368 35.2789 44.4535 34.7915 44.9779 34.1222L50.9173 37.8873C50.8133 38.2403 50.7586 38.6064 50.7548 38.9748C50.7548 39.7895 50.993 40.5859 51.4394 41.2633C51.8858 41.9408 52.5203 42.4688 53.2626 42.7805C54.0049 43.0923 54.8218 43.1739 55.6098 43.0149C56.3979 42.856 57.1217 42.4637 57.6899 41.8876C58.258 41.3115 58.6449 40.5775 58.8017 39.7784C58.9585 38.9793 58.878 38.1511 58.5705 37.3984C58.263 36.6457 57.7423 36.0023 57.0743 35.5497C56.4062 35.0971 55.6207 34.8555 54.8173 34.8555ZM54.8173 21.6736C55.2993 21.6736 55.7706 21.8186 56.1715 22.0902C56.5723 22.3618 56.8847 22.7478 57.0692 23.1994C57.2537 23.651 57.302 24.148 57.2079 24.6274C57.1139 25.1069 56.8817 25.5473 56.5408 25.8929C56.1999 26.2386 55.7656 26.474 55.2928 26.5693C54.82 26.6647 54.3299 26.6158 53.8845 26.4287C53.4391 26.2416 53.0584 25.9248 52.7905 25.5184C52.5227 25.1119 52.3798 24.6341 52.3798 24.1452C52.3798 23.4897 52.6366 22.8611 53.0937 22.3976C53.5508 21.934 54.1708 21.6736 54.8173 21.6736ZM41.8173 34.0316C41.3352 34.0316 40.8639 33.8866 40.4631 33.6151C40.0622 33.3435 39.7498 32.9575 39.5653 32.5058C39.3808 32.0542 39.3325 31.5573 39.4266 31.0778C39.5206 30.5984 39.7528 30.158 40.0937 29.8123C40.4346 29.4667 40.8689 29.2313 41.3417 29.1359C41.8146 29.0405 42.3047 29.0895 42.75 29.2766C43.1954 29.4636 43.5761 29.7804 43.844 30.1869C44.1118 30.5933 44.2548 31.0712 44.2548 31.56C44.2548 32.2155 43.998 32.8442 43.5408 33.3077C43.0837 33.7712 42.4637 34.0316 41.8173 34.0316ZM54.8173 41.4464C54.3352 41.4464 53.8639 41.3014 53.4631 41.0298C53.0622 40.7582 52.7498 40.3722 52.5653 39.9206C52.3808 39.469 52.3325 38.972 52.4266 38.4926C52.5206 38.0132 52.7528 37.5728 53.0937 37.2271C53.4346 36.8814 53.8689 36.646 54.3417 36.5507C54.8146 36.4553 55.3047 36.5043 55.75 36.6913C56.1954 36.8784 56.5761 37.1952 56.844 37.6016C57.1118 38.0081 57.2548 38.4859 57.2548 38.9748C57.2548 39.6303 56.9979 40.2589 56.5408 40.7225C56.0837 41.186 55.4637 41.4464 54.8173 41.4464Z" fill="black"/>
</g>
<rect x="41.1953" y="55.5034" width="13.8659" height="16.8727" rx="2" stroke="black" stroke-width="0.5"/>
<path d="M46.3984 70.9697H49.8651V78H46.3984V70.9697Z" stroke="black" stroke-width="0.5" stroke-linejoin="round"/>
<rect x="51.5977" y="51.7539" width="6.93296" height="1.87475" rx="0.937374" stroke="black" stroke-width="0.5"/>
<rect x="37.7305" y="51.7539" width="6.93296" height="1.87475" rx="0.937374" stroke="black" stroke-width="0.5"/>
<path d="M45.5312 50.5C45.5312 49.6716 46.2028 49 47.0312 49H49.2312C50.0597 49 50.7312 49.6716 50.7312 50.5V52.7727C50.7312 53.6012 50.0597 54.2727 49.2312 54.2727H47.0313C46.2028 54.2727 45.5312 53.6012 45.5312 52.7727V50.5Z" stroke="black" stroke-width="0.5"/>
<line x1="44.6641" y1="59.0029" x2="51.597" y2="59.0029" stroke="black" stroke-width="0.5"/>
<line x1="44.6641" y1="60.877" x2="51.597" y2="60.877" stroke="black" stroke-width="0.5"/>
<line x1="44.6641" y1="62.7524" x2="51.597" y2="62.7524" stroke="black" stroke-width="0.5"/>
<rect x="44.6641" y="67.4546" width="6.93333" height="5.27273" rx="1" stroke="black" stroke-width="0.5"/>
<path d="M46.3984 70.9697H49.8651V78H46.3984V70.9697Z" fill="#E0E0E0" stroke="black" stroke-width="0.5" stroke-linejoin="round"/>
<defs>
<clipPath id="clip0_959_3120">
<rect width="26" height="26.3636" fill="white" transform="translate(36 20)"/>
</clipPath>
</defs>
</svg>
