<svg width="98" height="286" viewBox="0 0 98 286" fill="none" xmlns="http://www.w3.org/2000/svg">
<path d="M49 43.6667C46.0545 43.6667 43.6667 46.0545 43.6667 49C43.6667 51.9455 46.0545 54.3333 49 54.3333C51.9455 54.3333 54.3333 51.9455 54.3333 49C54.3333 46.0545 51.9455 43.6667 49 43.6667ZM48 49L48 286H50L50 49H48Z" fill="black" fill-opacity="0.8"/>
<path d="M11.2129 90.7687L25.5242 53.1914H71.8251L86.1334 90.7687H11.2129Z" fill="#484746"/>
<path d="M0.390625 6.44601L21.7995 0.217773H75.5464L96.9553 6.44601H0.390625Z" fill="#484746"/>
<path d="M0 6.06445H97.3469L86.3689 91.0005H10.9779L0 6.06445ZM86.1337 90.7692L96.9558 6.44995H0.391086L11.2132 90.7692H86.1306" fill="#252423"/>
<path d="M96.9553 6.44629L86.1332 90.7689H11.2127L0.390625 6.44629H96.9553Z" fill="#252423"/>
<path d="M0 6.06398L21.5953 0H75.7516L97.3469 6.06398H0Z" fill="#484746"/>
<g clip-path="url(#clip0_966_7034)">
<path d="M58.3443 68.6939H27.4068C27.231 68.6939 27.0679 68.6025 26.9765 68.4534C26.8837 68.3043 26.8752 68.1173 26.954 67.9598C28.7877 64.2937 30.5245 62.3925 32.3638 60.3787C33.3749 59.2734 34.4198 58.1287 35.5265 56.6353C36.816 54.8943 37.6317 52.9692 37.9537 50.9132C39.0407 43.9678 34.2749 37.4315 27.3295 36.3431C27.1017 36.3093 26.9273 36.1251 26.9034 35.8973C26.8795 35.6681 27.0117 35.4529 27.2268 35.3714L40.956 30.1176C42.1795 29.6507 43.5478 29.5889 44.8063 29.9418L64.1071 35.3573C64.2942 35.4107 64.4348 35.5654 64.4685 35.7581C64.5023 35.9507 64.4221 36.1448 64.2632 36.2573C61.4212 38.2767 59.5621 41.2664 59.0278 44.6807C58.5018 48.0445 59.3203 51.4125 61.334 54.1659C63.3463 56.9179 66.3079 58.7235 69.6745 59.2509C69.9178 59.2889 70.1006 59.4998 70.1006 59.7501V65.3751C70.1006 65.5284 70.0303 65.6746 69.9107 65.7703C69.7912 65.8659 69.6351 65.9025 69.4832 65.8687L44.2256 60.2564H33.846C33.5985 60.5292 33.3538 60.7978 33.112 61.0635C32.8096 61.394 32.5101 61.7217 32.212 62.055H44.2818V63.0689H31.3345C30.8718 63.6229 30.412 64.2107 29.9521 64.8675H51.3131V65.8814H29.2799C28.934 66.4298 28.5867 67.0232 28.2379 67.68H58.3443V68.6939ZM48.8929 60.2564L69.0867 64.7423V60.2564H48.8929ZM44.7881 59.2439H66.0801C60.5071 56.7857 57.0421 50.8092 58.0265 44.5232C58.5496 41.1778 60.2526 38.2064 62.8584 36.0576L44.5321 30.9164C43.4788 30.6196 42.3384 30.6717 41.316 31.064L29.1632 35.7145C35.7332 37.6003 40.0378 44.1478 38.9535 51.0707C38.6062 53.2884 37.7273 55.364 36.3407 57.2385C35.7909 57.981 35.2579 58.6378 34.7376 59.2439H38.3854L41.0488 55.2515C41.1417 55.1095 41.2992 55.0251 41.4693 55.0251H44.2818C44.5617 55.0251 44.7881 55.2515 44.7881 55.5314V59.2439ZM39.6032 59.2439H43.7756V56.0376H41.7407L39.6032 59.2439ZM51.8193 49.9064H50.8068V48.5001H51.8207L51.8193 49.9064ZM56.0381 47.0939H55.0256V45.6876H56.0395L56.0381 47.0939ZM53.2256 47.0939H52.2131V45.6876H53.227L53.2256 47.0939ZM50.4117 47.0939H49.3992V45.6876H50.4117V47.0939ZM54.6318 44.2814H53.6193V42.8751H54.6332L54.6318 44.2814ZM51.8193 44.2814H50.8068V42.8751H51.8207L51.8193 44.2814ZM56.0381 41.4689H55.0256V40.0626H56.0395L56.0381 41.4689ZM53.2256 41.4689H52.2131V40.0626H53.227L53.2256 41.4689ZM50.4131 41.4689H49.4006V40.0626H50.4131V41.4689ZM57.4443 38.6564H56.4318V37.2501H57.4457L57.4443 38.6564ZM54.6318 38.6564H53.6193V37.2501H54.6332L54.6318 38.6564ZM51.8193 38.6564H50.8068V37.2501H51.8207L51.8193 38.6564ZM49.0068 38.6564H47.9943V37.2501H49.0068V38.6564ZM50.4131 35.8439H49.4006V34.4376H50.4131V35.8439ZM47.6006 35.8439H46.5881V34.4376H47.6006V35.8439Z" fill="white"/>
</g>
<defs>
<clipPath id="clip0_966_7034">
<rect width="45" height="45" fill="white" transform="translate(26 26)"/>
</clipPath>
</defs>
</svg>
