<svg width="98" height="286" viewBox="0 0 98 286" fill="none" xmlns="http://www.w3.org/2000/svg">
<path d="M49.2969 43.6667C46.3514 43.6667 43.9635 46.0545 43.9635 49C43.9635 51.9455 46.3514 54.3333 49.2969 54.3333C52.2424 54.3333 54.6302 51.9455 54.6302 49C54.6302 46.0545 52.2424 43.6667 49.2969 43.6667ZM48.2969 49L48.2969 286H50.2969L50.2969 49H48.2969Z" fill="black" fill-opacity="0.8"/>
<path d="M11.5098 90.7687L25.8211 53.1914H72.122L86.4303 90.7687H11.5098Z" fill="#484746"/>
<path d="M0.6875 6.44626L22.0964 0.218018H75.8433L97.2522 6.44626H0.6875Z" fill="#484746"/>
<path d="M0.296875 6.06396H97.6437L86.6658 91H11.2748L0.296875 6.06396ZM86.4306 90.7687L97.2526 6.44946H0.687961L11.5101 90.7687H86.4275" fill="#252423"/>
<path d="M97.2522 6.44604L86.4301 90.7686H11.5096L0.6875 6.44604H97.2522Z" fill="#252423"/>
<path d="M0.296875 6.06398L21.8922 0H76.0484L97.6437 6.06398H0.296875Z" fill="#484746"/>
<g clip-path="url(#clip0_1193_2676)">
<path d="M63.2541 31.2212L63.2617 63.5337H59.7705V33.2187L57.8886 29.4866L50.9122 34.354L51.0087 52.311L50.9765 63.5337H47.5205V30.2812C47.5205 27.658 38.7617 27.658 38.7617 30.2812V63.5337H33.7392V58.7162H35.2705V50.3149H33.7392V48.4041H35.2705V44.0287V42.9712V40.0028H33.7392V38.1228H35.2705V29.7524H33.7392V25.3462H26.5117V29.7524H24.9805V32.6899V33.7474V38.1228H26.5117V40.0028H24.9805V48.4041H26.5117V50.3149H24.9805V54.7212V55.7802V58.7177H26.5117V63.5337H24.9805V64.5927H71.4692L72.0205 64.5618V31.2212H63.2541ZM56.8978 31.4856L55.2885 39.9691H53.0942V41.0266H55.0879L52.102 56.7642L52.1142 52.3095L52.0193 34.8916L56.8978 31.4856ZM52.0851 62.6539L52.105 62.6568L57.9345 31.9365L58.668 33.3435V56.1899H56.1567V57.2489H58.668V63.5337H52.0836L52.0851 62.6539ZM46.418 47.376H43.9067V48.4349L46.418 48.4364V51.7852L43.9067 51.7837V52.8427L46.418 52.8441V63.5352H42.9267V35.2162H46.418V47.376ZM39.8642 30.2812C39.8642 30.008 41.0127 29.3412 43.1411 29.3412C45.2695 29.3412 46.418 30.008 46.418 30.2812V34.1587H41.8242V63.5337H39.8642V30.2812ZM34.168 30.8099V37.0653H32.6367V41.0603H34.168V42.9727H32.6367V44.0302H34.168V47.3466H32.6367V51.3739H34.168V57.6587H32.6367V63.5337H30.6767V26.4037H32.6367V30.8099H34.168ZM26.083 57.6587V55.7787H27.6142V54.7212H26.083V51.3724H27.6142V47.3451H26.083V41.0589H27.6142V37.0639H26.083V33.7474H27.6142V32.6899H26.083V30.8099H27.6142V26.4037H29.5742V63.5337H27.6142V57.6587H26.083ZM64.3581 38.5649V36.6849H66.8755V35.6274H64.3581L64.3566 32.2787H70.8981C70.8001 38.1889 69.1432 41.9915 67.3747 45.9895C66.2676 48.4937 65.1528 51.0669 64.3612 54.2189L64.3581 39.6224H66.8755V38.5649H64.3581ZM70.918 56.1899H68.4067V57.2489H70.918V63.5337H64.3642V63.5249H64.3734C64.3734 55.4967 66.4161 50.8745 68.3914 46.4037C69.3301 44.2784 70.2412 42.2133 70.9164 39.8648L70.918 56.1899Z" fill="white"/>
</g>
<defs>
<clipPath id="clip0_1193_2676">
<rect width="49" height="47" fill="white" transform="translate(24 20)"/>
</clipPath>
</defs>
</svg>
