<svg width="98" height="286" viewBox="0 0 98 286" fill="none" xmlns="http://www.w3.org/2000/svg">
<path d="M49.2969 43.6667C46.3514 43.6667 43.9635 46.0545 43.9635 49C43.9635 51.9455 46.3514 54.3333 49.2969 54.3333C52.2424 54.3333 54.6302 51.9455 54.6302 49C54.6302 46.0545 52.2424 43.6667 49.2969 43.6667ZM48.2969 49L48.2969 286H50.2969L50.2969 49H48.2969Z" fill="black" fill-opacity="0.8"/>
<path d="M11.5098 90.7687L25.8211 53.1914H72.122L86.4303 90.7687H11.5098Z" fill="#484746"/>
<path d="M0.6875 6.44626L22.0964 0.218018H75.8433L97.2522 6.44626H0.6875Z" fill="#484746"/>
<path d="M0.296875 6.06396H97.6437L86.6658 91H11.2748L0.296875 6.06396ZM86.4306 90.7687L97.2526 6.44946H0.687961L11.5101 90.7687H86.4275" fill="#252423"/>
<path d="M97.2522 6.44604L86.4301 90.7686H11.5096L0.6875 6.44604H97.2522Z" fill="#252423"/>
<path d="M0.296875 6.06398L21.8922 0H76.0484L97.6437 6.06398H0.296875Z" fill="#484746"/>
<g clip-path="url(#clip0_975_358)">
<path d="M68.9525 72.04H28.64C28.3726 72.04 28.1562 71.7985 28.1562 71.5V26.5C28.1562 26.2015 28.3726 25.96 28.64 25.96H52.8275C53.0949 25.96 53.3113 26.2015 53.3113 26.5V30.46H60.89C61.1574 30.46 61.3738 30.7015 61.3738 31V36.46H68.9525C69.2199 36.46 69.4363 36.7015 69.4363 37V71.5C69.4363 71.7985 69.2199 72.04 68.9525 72.04ZM53.3113 70.96H68.4688V37.54H53.3113V70.96ZM43.905 70.96H52.3438V27.04H29.1238V70.96H37.5625V59.5C37.5625 59.2015 37.7788 58.96 38.0463 58.96H43.4212C43.6887 58.96 43.905 59.2015 43.905 59.5V70.96ZM38.53 70.96H42.9375V60.04H38.53V70.96ZM53.3113 36.46H60.4049V31.54H53.3113V36.46ZM64.0613 62.5H63.0938V59.5H64.0626L64.0613 62.5ZM58.6863 62.5H57.7188V59.5H58.6876L58.6863 62.5ZM49.28 62.5H48.3125V59.5H49.28V62.5ZM33.155 62.5H32.1875V59.5H33.155V62.5ZM64.0613 53.5H63.0938V50.5H64.0626L64.0613 53.5ZM58.6863 53.5H57.7188V50.5H58.6876L58.6863 53.5ZM49.28 53.5H48.3125V50.5H49.28V53.5ZM43.905 53.5H42.9375V50.5H43.905V53.5ZM38.53 53.5H37.5625V50.5H38.53V53.5ZM33.155 53.5H32.1875V50.5H33.155V53.5ZM64.0613 44.5H63.0938V41.5H64.0626L64.0613 44.5ZM58.6863 44.5H57.7188V41.5H58.6876L58.6863 44.5ZM49.28 44.5H48.3125V41.5H49.28V44.5ZM43.905 44.5H42.9375V41.5H43.905V44.5ZM38.53 44.5H37.5625V41.5H38.53V44.5ZM33.155 44.5H32.1875V41.5H33.155V44.5ZM49.28 35.5H48.3125V32.5H49.28V35.5ZM43.905 35.5H42.9375V32.5H43.905V35.5ZM38.53 35.5H37.5625V32.5H38.53V35.5ZM33.155 35.5H32.1875V32.5H33.155V35.5Z" fill="white"/>
</g>
<defs>
<clipPath id="clip0_975_358">
<rect width="43" height="48" fill="white" transform="translate(27.2969 25)"/>
</clipPath>
</defs>
</svg>
