<svg width="98" height="286" viewBox="0 0 98 286" fill="none" xmlns="http://www.w3.org/2000/svg">
<path d="M49 43.6667C46.0545 43.6667 43.6667 46.0545 43.6667 49C43.6667 51.9455 46.0545 54.3333 49 54.3333C51.9455 54.3333 54.3333 51.9455 54.3333 49C54.3333 46.0545 51.9455 43.6667 49 43.6667ZM48 49L48 286H50L50 49H48Z" fill="black" fill-opacity="0.8"/>
<path d="M11.2109 90.7687L25.5222 53.1914H71.8232L86.1314 90.7687H11.2109Z" fill="#484746"/>
<path d="M0.390625 6.44626L21.7995 0.218018H75.5464L96.9553 6.44626H0.390625Z" fill="#484746"/>
<path d="M0 6.06396H97.3469L86.3689 91H10.9779L0 6.06396ZM86.1337 90.7687L96.9558 6.44946H0.391086L11.2132 90.7687H86.1306" fill="#252423"/>
<path d="M96.9553 6.44604L86.1332 90.7686H11.2127L0.390625 6.44604H96.9553Z" fill="#252423"/>
<path d="M0 6.06398L21.5953 0H75.7516L97.3469 6.06398H0Z" fill="#484746"/>
<g clip-path="url(#clip0_1200_4220)">
<path d="M75.25 70.9H22.75V69.6625H39.62V46.2188C39.62 45.985 39.7547 45.7702 39.9683 45.6653L48.37 41.5386V18.7188H49.63V24.3511L51.87 25.4511V18.7188H53.1318V26.0698L58.0335 28.4778C58.2453 28.5827 58.38 28.7975 58.38 29.0312V69.6625H75.25V70.9ZM49.63 69.6625H57.12V67.4625H49.63V69.6625ZM40.88 69.6625H48.37V67.4625H40.88V69.6625ZM49.63 66.225H57.12V63.7895L49.63 60.1097V66.225ZM40.88 66.225H48.37V60.1097L40.88 63.7895V66.225ZM50.4088 59.1094L57.1182 62.4059V55.8128L50.4088 59.1094ZM40.88 55.8128V62.4059L47.5912 59.1094L40.88 55.8128ZM49.63 51.5159V58.1091L56.3412 54.8125L49.63 51.5159ZM41.6588 54.8125L48.37 58.1091V51.5159L41.6588 54.8125ZM50.4088 50.5156L57.1182 53.8122V47.2191L50.4088 50.5156ZM40.88 47.2191V53.8122L47.5912 50.5156L40.88 47.2191ZM49.63 42.9239V49.5153L56.3412 46.2188L49.63 42.9239ZM41.6588 46.2188L48.37 49.5153V42.9239L41.6588 46.2188ZM50.4088 41.9219L57.1182 45.2167V38.6253L50.4088 41.9219ZM49.63 34.3302V40.9216L56.3412 37.625L49.63 34.3302ZM50.4088 33.3281L57.1182 36.623V30.0333L50.4088 33.3281ZM49.63 25.7364V32.3278L56.3412 29.0312L49.63 25.7364ZM70.63 66.8438H69.37V48.5563H65.38V63.4062H64.12V60.5875H61.25V59.35H64.12V57.15H61.25V55.9125H64.12V47.9375C64.12 47.5955 64.4017 47.3187 64.75 47.3187H69.37V39.3438C69.37 39.0017 69.6517 38.725 70 38.725H75.25V39.9625H70.63V42.1625H75.25V43.4H70.63V45.6H75.25V46.8375H70.63V49.0358H75.25V50.275H70.63V57.6295H75.25V58.8688H70.63V66.8438ZM35.63 66.8438H34.37V55.4313H26.25V54.1937H30.87V45.1188H22.75V43.8813H27.37V41.6812H22.75V40.4438H28C28.3482 40.4438 28.63 40.7205 28.63 41.0625V43.8813H31.5C31.8483 43.8813 32.13 44.158 32.13 44.5V54.1937H35C35.3483 54.1937 35.63 54.4705 35.63 54.8125V66.8438ZM26.25 51.9938H22.75V50.7562H26.25V51.9938ZM26.25 48.5563H22.75V47.3187H26.25V48.5563Z" fill="white"/>
</g>
<defs>
<clipPath id="clip0_1200_4220">
<rect width="56" height="55" fill="white" transform="translate(21 17)"/>
</clipPath>
</defs>
</svg>
