<svg width="32" height="32" viewBox="0 0 32 32" fill="none" xmlns="http://www.w3.org/2000/svg">
<g clip-path="url(#clip0_1193_2261)">
<path d="M12.36 29.9999H11.64C11.64 28.6979 12.699 27.6399 14 27.6399H30V28.3609H14C13.096 28.3599 12.36 29.0959 12.36 29.9999ZM10.36 29.9999H9.64C9.64 27.5959 11.596 25.6399 14 25.6399H30V26.3609H14C11.993 26.3599 10.36 27.9929 10.36 29.9999ZM8.36 29.9999H7.64C7.64 26.4929 10.493 23.6399 14 23.6399H30V24.3609H14C10.89 24.3599 8.36 26.8899 8.36 29.9999ZM6.36 29.9999H5.64C5.64 28.6959 5.94 27.4609 6.474 26.3599H2V25.6399H6.869C7.15 25.1829 7.473 24.7539 7.834 24.3609H2V23.6399H8.58C9.187 23.1219 9.869 22.6899 10.607 22.3609H2V21.6399H2.64V14.4929C2.64 13.5999 2.868 12.7269 3.3 11.9689C3.775 11.1369 4.597 10.6399 5.5 10.6399C6.403 10.6399 7.225 11.1369 7.7 11.9689C8.132 12.7269 8.36 13.5999 8.36 14.4929V15.5239C8.917 15.1809 9.591 15.0169 10.273 15.0619C11.22 15.1299 12.056 15.5989 12.565 16.3489C13.085 17.1139 13.359 17.9949 13.359 18.8969V21.6659C13.57 21.6499 13.784 21.6419 13.999 21.6419H18.639V16.3709L17.254 17.7569L16.745 17.2469L23.245 10.7469C23.386 10.6059 23.614 10.6059 23.755 10.7469L30.255 17.2469L29.745 17.7569L28.36 16.3709V21.6419H30V22.3629H14C9.787 22.3599 6.36 25.7869 6.36 29.9999ZM25.36 21.6399H27.639V15.6489L23.499 11.5089L19.359 15.6489V21.6399H21.638V18.4999C21.638 18.3009 21.799 18.1399 21.998 18.1399H24.998C25.197 18.1399 25.358 18.3009 25.358 18.4999V21.6399H25.36ZM22.36 21.6399H24.639V18.8599H22.36V21.6399ZM10.36 21.6399H12.64V18.8959C12.64 18.1389 12.408 17.3979 11.97 16.7529C11.584 16.1869 10.947 15.8319 10.22 15.7789C9.477 15.7259 8.741 16.0039 8.265 16.5249C8.164 16.6349 8.007 16.6709 7.869 16.6169C7.731 16.5629 7.64 16.4299 7.64 16.2819V14.4929C7.64 13.7249 7.444 12.9749 7.074 12.3259C6.729 11.7209 6.141 11.3599 5.5 11.3599C4.859 11.3599 4.271 11.7209 3.926 12.3249C3.555 12.9749 3.36 13.7239 3.36 14.4919V21.6389H4.64V13.9999H5.36V21.6399H9.64V17.9999H10.36V21.6399ZM24 15.8599H23C22.801 15.8599 22.64 15.6989 22.64 15.4999V13.4999C22.64 13.3009 22.801 13.1399 23 13.1399H24C24.199 13.1399 24.36 13.3009 24.36 13.4999V15.4999C24.36 15.6989 24.199 15.8599 24 15.8599ZM23.36 15.1399H23.639V13.8599H23.36V15.1399ZM26.86 8.99989H26.14V7.99989H26.861L26.86 8.99989ZM28.72 8.22889L28.013 7.52089L28.523 7.01189L29.23 7.71989L28.72 8.22889ZM24.28 8.22889L23.77 7.71989L24.477 7.01189L24.987 7.52089L24.28 8.22889ZM26.5 7.35989C25.475 7.35989 24.64 6.52589 24.64 5.49989C24.64 4.47389 25.475 3.63989 26.5 3.63989C27.525 3.63989 28.36 4.47389 28.36 5.49989C28.36 6.52589 27.525 7.35989 26.5 7.35989ZM26.5 4.35989C25.871 4.35989 25.36 4.87189 25.36 5.49989C25.36 6.12789 25.871 6.63989 26.5 6.63989C27.129 6.63989 27.64 6.12789 27.64 5.49989C27.64 4.87189 27.129 4.35989 26.5 4.35989ZM30 5.85989H29V5.13989H30V5.85989ZM24 5.85989H23V5.13989H24V5.85989ZM14 4.35989H11V3.63989H14V4.35989ZM9 4.35989H2V3.63989H9V4.35989ZM28.522 3.98689L28.012 3.47789L28.719 2.76989L29.229 3.27889L28.522 3.98689ZM24.478 3.98689L23.771 3.27889L24.281 2.76989L24.988 3.47789L24.478 3.98689ZM26.86 2.99989H26.14V1.99989H26.861L26.86 2.99989ZM15 2.35989H2V1.63989H15V2.35989Z" fill="black"/>
</g>
<defs>
<clipPath id="clip0_1193_2261">
<rect width="32" height="32" fill="white"/>
</clipPath>
</defs>
</svg>
