<svg width="98" height="286" viewBox="0 0 98 286" fill="none" xmlns="http://www.w3.org/2000/svg">
<path d="M49 43.6667C46.0545 43.6667 43.6667 46.0545 43.6667 49C43.6667 51.9455 46.0545 54.3333 49 54.3333C51.9455 54.3333 54.3333 51.9455 54.3333 49C54.3333 46.0545 51.9455 43.6667 49 43.6667ZM48 49L48 286H50L50 49H48Z" fill="black" fill-opacity="0.8"/>
<path d="M11.2129 90.7687L25.5242 53.1914H71.8251L86.1334 90.7687H11.2129Z" fill="#484746"/>
<path d="M0.390625 6.44601L21.7995 0.217773H75.5464L96.9553 6.44601H0.390625Z" fill="#484746"/>
<path d="M0 6.06396H97.3469L86.3689 91H10.9779L0 6.06396ZM86.1337 90.7687L96.9558 6.44946H0.391086L11.2132 90.7687H86.1306" fill="#252423"/>
<path d="M96.9553 6.44629L86.1332 90.7689H11.2127L0.390625 6.44629H96.9553Z" fill="#252423"/>
<path d="M0 6.06398L21.5953 0H75.7516L97.3469 6.06398H0Z" fill="#484746"/>
<path d="M71.7974 69.0299H69.1465C68.9706 69.0299 68.8284 68.8941 68.8284 68.7262V65.6557H51.7919V68.7262C51.7919 68.8941 51.6496 69.0299 51.4737 69.0299H48.8228C48.647 69.0299 48.5047 68.8941 48.5047 68.7262V65.352C48.5047 65.3326 48.5065 65.3132 48.51 65.2955C47.9728 64.9344 47.6211 64.3381 47.6211 63.6649V56.9165C47.6211 55.8967 48.4287 55.0531 49.4652 54.9392L51.8634 47.3085C52.0172 46.8192 52.4802 46.4902 53.0148 46.4902H67.6054C68.14 46.4902 68.603 46.8192 68.7568 47.3076L71.155 54.9384C72.1924 55.0523 73 55.8958 73 56.9157V63.6641C73 64.3372 72.6483 64.9336 72.1102 65.2946C72.1137 65.3123 72.1164 65.3318 72.1164 65.3512V68.7254C72.1155 68.8941 71.9732 69.0299 71.7974 69.0299ZM69.4646 68.4225H71.4784V65.5814C71.299 65.6304 71.109 65.6565 70.9129 65.6565H69.4637L69.4646 68.4225ZM49.1409 68.4225H51.1556V65.6557H49.7065C49.5103 65.6557 49.3203 65.6295 49.1409 65.5806V68.4225ZM69.1465 65.0483H70.9137C71.7126 65.0483 72.3629 64.4283 72.3629 63.6649V56.9165C72.3629 56.1556 71.717 55.5365 70.9208 55.5331C70.9137 55.5322 70.9102 55.5331 70.9058 55.5331H49.7135C49.71 55.5331 49.7038 55.5331 49.6994 55.5331C48.9041 55.5365 48.2573 56.1556 48.2573 56.9165V63.6649C48.2573 64.4275 48.9077 65.0483 49.7065 65.0483H69.1465ZM50.1342 54.9257H70.4869L68.5562 48.7847H52.064L50.1342 54.9257ZM52.2549 48.1773H68.3653L68.1471 47.4822C68.0755 47.2553 67.8528 47.0967 67.6054 47.0967H53.0148C52.763 47.0967 52.5456 47.252 52.4731 47.4822L52.2549 48.1773ZM68.2628 61.4379C67.1123 61.4379 66.1775 60.5446 66.1775 59.4472C66.1775 58.3497 67.1132 57.4564 68.2628 57.4564C69.4124 57.4564 70.3482 58.3489 70.3482 59.4472C70.3482 60.5455 69.4133 61.4379 68.2628 61.4379ZM68.2628 58.0637C67.464 58.0637 66.8137 58.6837 66.8137 59.4472C66.8137 60.2106 67.4631 60.8306 68.2628 60.8306C69.0625 60.8306 69.712 60.2106 69.712 59.4472C69.712 58.6837 69.0616 58.0637 68.2628 58.0637ZM52.3574 61.4379C51.2078 61.4379 50.272 60.5446 50.272 59.4472C50.272 58.3497 51.2078 57.4564 52.3574 57.4564C53.507 57.4564 54.4428 58.3489 54.4428 59.4472C54.4428 60.5455 53.507 61.4379 52.3574 61.4379ZM52.3574 58.0637C51.5586 58.0637 50.9082 58.6837 50.9082 59.4472C50.9082 60.2106 51.5586 60.8306 52.3574 60.8306C53.1562 60.8306 53.8065 60.2097 53.8065 59.4472C53.8065 58.6846 53.1562 58.0637 52.3574 58.0637ZM65.6119 53.846C65.5165 53.846 65.4211 53.8047 65.3583 53.7254L62.7074 50.3815C62.6014 50.2474 62.6288 50.0576 62.7693 49.9564C62.9062 49.8552 63.1068 49.8796 63.2146 50.0154L65.8655 53.3593C65.9716 53.4934 65.9442 53.6832 65.8037 53.7844C65.7462 53.8257 65.6791 53.846 65.6119 53.846ZM66.4956 52.3107C66.3992 52.3107 66.3029 52.2685 66.2411 52.1884L64.4738 49.9277C64.3687 49.7936 64.3969 49.6029 64.5383 49.5025C64.6779 49.403 64.8776 49.4292 64.9828 49.5641L66.75 51.8248C66.8552 51.959 66.8269 52.1496 66.6855 52.25C66.6281 52.2913 66.5618 52.3107 66.4956 52.3107ZM72.681 63.9686H47.9392V63.3612H72.681V63.9686ZM64.7283 60.5944H55.8919V59.987H64.7283V60.5944ZM64.7283 58.9073H55.8919V58.2999H64.7283V58.9073ZM72.1155 53.5423H71.4793V51.0117H72.1164L72.1155 53.5423ZM49.1409 53.5423H48.5047V51.0117H49.1409V53.5423Z" fill="white"/>
<mask id="path-8-outside-1_959_2761" maskUnits="userSpaceOnUse" x="29" y="26" width="20" height="23" fill="black">
<rect fill="white" x="29" y="26" width="20" height="23"/>
<path d="M29.9349 48V27H39.0249C40.9049 27 42.5249 27.31 43.8849 27.93C45.2449 28.53 46.2949 29.4 47.0349 30.54C47.7749 31.68 48.1449 33.04 48.1449 34.62C48.1449 36.18 47.7749 37.53 47.0349 38.67C46.2949 39.81 45.2449 40.69 43.8849 41.31C42.5249 41.91 40.9049 42.21 39.0249 42.21H32.6349L34.7949 40.02V48H29.9349ZM34.7949 40.56L32.6349 38.25H38.7549C40.2549 38.25 41.3749 37.93 42.1149 37.29C42.8549 36.65 43.2249 35.76 43.2249 34.62C43.2249 33.46 42.8549 32.56 42.1149 31.92C41.3749 31.28 40.2549 30.96 38.7549 30.96H32.6349L34.7949 28.65V40.56Z"/>
</mask>
<path d="M29.9349 48V27H39.0249C40.9049 27 42.5249 27.31 43.8849 27.93C45.2449 28.53 46.2949 29.4 47.0349 30.54C47.7749 31.68 48.1449 33.04 48.1449 34.62C48.1449 36.18 47.7749 37.53 47.0349 38.67C46.2949 39.81 45.2449 40.69 43.8849 41.31C42.5249 41.91 40.9049 42.21 39.0249 42.21H32.6349L34.7949 40.02V48H29.9349ZM34.7949 40.56L32.6349 38.25H38.7549C40.2549 38.25 41.3749 37.93 42.1149 37.29C42.8549 36.65 43.2249 35.76 43.2249 34.62C43.2249 33.46 42.8549 32.56 42.1149 31.92C41.3749 31.28 40.2549 30.96 38.7549 30.96H32.6349L34.7949 28.65V40.56Z" fill="white"/>
<path d="M29.9349 48H29.4349V48.5H29.9349V48ZM29.9349 27V26.5H29.4349V27H29.9349ZM43.8849 27.93L43.6775 28.385L43.6831 28.3875L43.8849 27.93ZM47.0349 30.54L46.6156 30.8122L47.0349 30.54ZM43.8849 41.31L44.0868 41.7675L44.0923 41.765L43.8849 41.31ZM32.6349 42.21L32.279 41.8589L31.4395 42.71H32.6349V42.21ZM34.7949 40.02H35.2949V38.801L34.439 39.6689L34.7949 40.02ZM34.7949 48V48.5H35.2949V48H34.7949ZM34.7949 40.56L34.4297 40.9015L35.2949 41.8268V40.56H34.7949ZM32.6349 38.25V37.75H31.4829L32.2697 38.5915L32.6349 38.25ZM32.6349 30.96L32.2697 30.6185L31.4829 31.46H32.6349V30.96ZM34.7949 28.65H35.2949V27.3832L34.4297 28.3085L34.7949 28.65ZM30.4349 48V27H29.4349V48H30.4349ZM29.9349 27.5H39.0249V26.5H29.9349V27.5ZM39.0249 27.5C40.8513 27.5 42.3972 27.8013 43.6775 28.385L44.0924 27.475C42.6527 26.8187 40.9586 26.5 39.0249 26.5V27.5ZM43.6831 28.3875C44.9628 28.952 45.9335 29.7614 46.6156 30.8122L47.4543 30.2678C46.6564 29.0386 45.5271 28.108 44.0868 27.4725L43.6831 28.3875ZM46.6156 30.8122C47.2948 31.8587 47.6449 33.1206 47.6449 34.62H48.6449C48.6449 32.9594 48.2551 31.5013 47.4543 30.2678L46.6156 30.8122ZM47.6449 34.62C47.6449 36.098 47.2955 37.3503 46.6156 38.3978L47.4543 38.9422C48.2544 37.7097 48.6449 36.262 48.6449 34.62H47.6449ZM46.6156 38.3978C45.9325 39.4501 44.9599 40.2705 43.6775 40.855L44.0923 41.765C45.53 41.1096 46.6574 40.1699 47.4543 38.9422L46.6156 38.3978ZM43.6831 40.8525C42.4012 41.4181 40.8532 41.71 39.0249 41.71V42.71C40.9567 42.71 42.6487 42.4019 44.0868 41.7675L43.6831 40.8525ZM39.0249 41.71H32.6349V42.71H39.0249V41.71ZM32.9909 42.5611L35.1509 40.3711L34.439 39.6689L32.279 41.8589L32.9909 42.5611ZM34.2949 40.02V48H35.2949V40.02H34.2949ZM34.7949 47.5H29.9349V48.5H34.7949V47.5ZM35.1602 40.2185L33.0002 37.9085L32.2697 38.5915L34.4297 40.9015L35.1602 40.2185ZM32.6349 38.75H38.7549V37.75H32.6349V38.75ZM38.7549 38.75C40.3136 38.75 41.5735 38.4193 42.442 37.6682L41.7879 36.9118C41.1764 37.4407 40.1963 37.75 38.7549 37.75V38.75ZM42.442 37.6682C43.3104 36.9171 43.7249 35.8787 43.7249 34.62H42.7249C42.7249 35.6413 42.3995 36.3829 41.7879 36.9118L42.442 37.6682ZM43.7249 34.62C43.7249 33.3445 43.3124 32.2946 42.442 31.5418L41.7879 32.2982C42.3974 32.8254 42.7249 33.5755 42.7249 34.62H43.7249ZM42.442 31.5418C41.5735 30.7907 40.3136 30.46 38.7549 30.46V31.46C40.1963 31.46 41.1764 31.7693 41.7879 32.2982L42.442 31.5418ZM38.7549 30.46H32.6349V31.46H38.7549V30.46ZM33.0002 31.3015L35.1602 28.9915L34.4297 28.3085L32.2697 30.6185L33.0002 31.3015ZM34.2949 28.65V40.56H35.2949V28.65H34.2949Z" fill="white" mask="url(#path-8-outside-1_959_2761)"/>
</svg>
