<svg width="98" height="286" viewBox="0 0 98 286" fill="none" xmlns="http://www.w3.org/2000/svg">
<path d="M49 43.6667C46.0545 43.6667 43.6667 46.0545 43.6667 49C43.6667 51.9455 46.0545 54.3333 49 54.3333C51.9455 54.3333 54.3333 51.9455 54.3333 49C54.3333 46.0545 51.9455 43.6667 49 43.6667ZM48 49L48 286H50L50 49H48Z" fill="black" fill-opacity="0.8"/>
<path d="M11.2129 90.7687L25.5242 53.1914H71.8251L86.1334 90.7687H11.2129Z" fill="#484746"/>
<path d="M0.390625 6.44601L21.7995 0.217773H75.5464L96.9553 6.44601H0.390625Z" fill="#484746"/>
<path d="M0 6.06445H97.3469L86.3689 91.0005H10.9779L0 6.06445ZM86.1337 90.7692L96.9558 6.44995H0.391086L11.2132 90.7692H86.1306" fill="#252423"/>
<path d="M96.9553 6.44629L86.1332 90.7689H11.2127L0.390625 6.44629H96.9553Z" fill="#252423"/>
<path d="M0 6.06398L21.5953 0H75.7516L97.3469 6.06398H0Z" fill="#484746"/>
<g clip-path="url(#clip0_966_7356)">
<path d="M69.5938 70.0994H27.4062V69.0869H47.9937V59.7508C47.9923 59.5272 47.9094 55.0722 43.2505 53.6547C42.9495 54.7657 42.072 56.0369 40.0625 56.0369C39.9388 56.0369 37.0067 56.0032 34.0803 53.0768C33.882 52.8785 33.882 52.5579 34.0803 52.3596C37.0067 49.4332 39.9388 49.3994 40.0625 49.3994C42.6261 49.3994 43.3475 51.4694 43.3798 52.6352C45.8295 53.3341 47.2119 54.7882 47.9937 56.2V47.0932H49.0063V56.2014C49.7881 54.7896 51.1719 53.3355 53.6202 52.6366C53.6525 51.4708 54.3739 49.4008 56.9375 49.4008C57.0613 49.4008 59.9933 49.4346 62.9211 52.361C63.1194 52.5593 63.1194 52.8799 62.9211 53.0782C59.9933 56.0032 57.0613 56.0369 56.9375 56.0369C54.928 56.0369 54.0505 54.7657 53.7495 53.6547C49.0892 55.0722 49.0062 59.5272 49.0048 59.7508V69.0869H69.5938V70.0994ZM54.7353 53.4143C54.9223 54.0977 55.4525 55.0244 56.9375 55.0244C56.9614 55.0244 59.345 54.9794 61.8298 52.7182C59.3492 50.4625 56.9698 50.4119 56.9375 50.4119C55.1502 50.4119 54.748 51.7507 54.658 52.3989C55.3456 52.278 56.1022 52.2105 56.9389 52.2105V53.2244C56.1219 53.2244 55.3906 53.2919 54.7353 53.4143ZM35.1702 52.7182C37.655 54.978 40.0386 55.0244 40.0639 55.0244C41.5489 55.0244 42.0777 54.1005 42.2647 53.4143C41.6094 53.2919 40.8781 53.2244 40.0625 53.2244V52.2119C40.8978 52.2119 41.6558 52.2794 42.3434 52.4004C42.2548 51.7535 41.8527 50.4119 40.0625 50.4119C40.0386 50.4119 37.655 50.4583 35.1702 52.7182ZM48.5 47.598C46.9278 47.598 45.6073 46.4997 45.267 45.0288C44.0183 45.7699 42.2844 45.5716 41.2311 44.5155C40.6053 43.8897 40.2594 43.0558 40.2594 42.1699C40.2594 41.5666 40.4197 40.9872 40.7192 40.481C39.2497 40.1421 38.15 38.8216 38.15 37.2494C38.15 35.6772 39.2483 34.3554 40.7192 34.015C40.4197 33.5088 40.2594 32.9308 40.2594 32.3275C40.2594 31.4416 40.6053 30.6077 41.2311 29.9819C42.3223 28.8907 43.9916 28.7191 45.2656 29.4714C45.6059 27.9991 46.9264 26.8994 48.5 26.8994C50.0722 26.8994 51.3941 27.9991 51.7344 29.47C53.0028 28.7177 54.6748 28.8879 55.7689 29.9805C56.3947 30.6077 56.7406 31.4416 56.7406 32.3275C56.7406 32.9308 56.5803 33.5102 56.2808 34.0164C57.7503 34.3554 58.85 35.6758 58.85 37.2494C58.85 38.823 57.7503 40.1421 56.2794 40.4824C56.5803 40.9886 56.7406 41.5666 56.7406 42.1713C56.7406 43.0572 56.3947 43.8911 55.7689 44.5169C54.7156 45.5716 52.9845 45.7713 51.733 45.0302C51.3927 46.4997 50.0722 47.598 48.5 47.598ZM46.1952 44.2132C46.1952 44.2357 46.1938 44.2582 46.1938 44.2807C46.1938 45.5519 47.2288 46.5869 48.5 46.5869C49.7712 46.5869 50.8062 45.5519 50.8062 44.2807C50.8062 44.2582 50.8062 44.2371 50.8062 44.2146C50.5503 43.8897 50.3619 43.5227 50.2437 43.1289C49.1384 43.4566 47.8644 43.4566 46.7577 43.1289C46.6395 43.5227 46.4497 43.8883 46.1952 44.2132ZM51.1902 42.7577C51.2928 43.1528 51.4981 43.5086 51.7906 43.7997C52.6639 44.6744 54.1812 44.673 55.0517 43.8011C55.4891 43.3652 55.7267 42.7858 55.7267 42.1699C55.7267 41.5539 55.4877 40.9746 55.0517 40.5386C54.7578 40.2447 54.402 40.0408 54.0083 39.9396C53.4078 41.163 52.4136 42.1572 51.1902 42.7577ZM42.9917 39.941C42.6008 40.0436 42.238 40.2503 41.9469 40.54C41.5109 40.976 41.2719 41.5539 41.2719 42.1699C41.2719 42.7858 41.5123 43.3652 41.9469 43.7997C42.8188 44.6716 44.3347 44.6716 45.2066 43.7997C45.5005 43.5072 45.7044 43.1514 45.8084 42.7563C44.5864 42.1586 43.5922 41.163 42.9917 39.941ZM48.5 32.1293C45.6777 32.1293 43.3812 34.4257 43.3812 37.248C43.3812 40.0704 45.6777 42.3668 48.5 42.3668C51.3223 42.3668 53.6187 40.0704 53.6187 37.248C53.6187 34.4257 51.3223 32.1293 48.5 32.1293ZM55.4609 39.5528L55.5312 39.5557C56.8025 39.5557 57.8375 38.5207 57.8375 37.2494C57.8375 35.9782 56.8039 34.9432 55.5312 34.9432L55.4623 34.946C55.1389 35.2005 54.7719 35.3904 54.3781 35.5071C54.5441 36.0583 54.6313 36.6433 54.6313 37.2494C54.6313 37.8555 54.5427 38.4405 54.3781 38.9946C54.7691 39.1113 55.1375 39.3011 55.4609 39.5528ZM41.4688 34.9418C40.1975 34.9418 39.1625 35.9768 39.1625 37.248C39.1625 38.5193 40.1975 39.5557 41.4688 39.5557L41.5391 39.5543C41.8625 39.3025 42.2309 39.1127 42.6219 38.9946C42.4573 38.4405 42.3688 37.8555 42.3688 37.2494C42.3688 36.6447 42.4559 36.0597 42.6205 35.5071C42.2267 35.3889 41.8611 35.2005 41.5377 34.946L41.4688 34.9418ZM43.5781 30.0227C42.9875 30.0227 42.3969 30.2477 41.9469 30.6963C41.5109 31.1322 41.2719 31.7116 41.2719 32.3275C41.2719 32.9435 41.5123 33.5229 41.9469 33.9574C42.2394 34.2513 42.5966 34.4552 42.9903 34.5593C43.5894 33.3358 44.585 32.3402 45.8084 31.7411C45.7058 31.3488 45.5019 30.9916 45.208 30.6977C44.758 30.2477 44.1673 30.0227 43.5781 30.0227ZM51.1902 31.7397C52.4136 32.3402 53.4092 33.3358 54.0097 34.5579C54.402 34.4566 54.7578 34.2513 55.0517 33.9574C55.4891 33.5214 55.7267 32.9421 55.7267 32.3261C55.7267 31.7102 55.4877 31.1308 55.0517 30.6949C54.1531 29.7963 52.6892 29.7963 51.792 30.6949C51.4967 30.9902 51.2928 31.346 51.1902 31.7397ZM46.1938 30.2857C46.4497 30.6105 46.6395 30.9761 46.7563 31.3699C47.8616 31.0422 49.1356 31.0422 50.2423 31.3699C50.3591 30.9761 50.5489 30.6105 50.8034 30.2857L50.8062 30.2182C50.8062 28.9469 49.7727 27.9119 48.5 27.9119C47.2273 27.9119 46.1938 28.9455 46.1938 30.2182C46.1938 30.2407 46.1938 30.2632 46.1938 30.2857Z" fill="white"/>
</g>
<defs>
<clipPath id="clip0_966_7356">
<rect width="45" height="45" fill="white" transform="translate(26 26)"/>
</clipPath>
</defs>
</svg>
