<svg width="98" height="290" viewBox="0 0 98 290" fill="none" xmlns="http://www.w3.org/2000/svg">
<path d="M49 47.6667C46.0545 47.6667 43.6667 50.0545 43.6667 53C43.6667 55.9455 46.0545 58.3333 49 58.3333C51.9455 58.3333 54.3333 55.9455 54.3333 53C54.3333 50.0545 51.9455 47.6667 49 47.6667ZM48 53L48 290H50L50 53H48Z" fill="black" fill-opacity="0.8"/>
<path d="M11.2129 90.7687L25.5247 53.1914H71.8271L86.1358 90.7687H11.2129Z" fill="#8C52FF"/>
<path d="M0.390625 6.44601L21.8002 0.217773H75.5488L96.9584 6.44601H0.390625Z" fill="#8C52FF"/>
<path d="M0 6.06348H97.35L86.3717 90.9995H10.9783L0 6.06348ZM86.1365 90.7682L96.9589 6.44897H0.391099L11.2135 90.7682H86.1334" fill="#8C52FF"/>
<path d="M96.9584 6.44629L86.136 90.7689H11.2131L0.390625 6.44629H96.9584Z" fill="#8C52FF"/>
<path d="M0 6.06398L21.596 0H75.754L97.35 6.06398H0Z" fill="#B28AFF"/>
<path d="M64.3415 70.0844H60.6856C60.4431 70.0844 60.2469 69.8971 60.2469 69.6656V65.431H36.7519V69.6656C36.7519 69.8971 36.5557 70.0844 36.3132 70.0844H32.6573C32.4148 70.0844 32.2186 69.8971 32.2186 69.6656V65.0122C32.2186 64.9855 32.2211 64.9587 32.2259 64.9343C31.485 64.4364 31 63.6139 31 62.6855V53.3788C31 51.9724 32.1138 50.809 33.5433 50.652L36.8506 40.1284C37.0626 39.4537 37.7012 39 38.4385 39H58.5603C59.2976 39 59.9361 39.4537 60.1482 40.1273L63.4555 50.6508C64.8862 50.8079 66 51.9712 66 53.3777V62.6844C66 63.6127 65.515 64.4352 64.7729 64.9331C64.7777 64.9575 64.7814 64.9843 64.7814 65.011V69.6644C64.7802 69.8971 64.584 70.0844 64.3415 70.0844ZM61.1243 69.2468H63.9015V65.3286C63.6542 65.3961 63.3922 65.4322 63.1216 65.4322H61.1231L61.1243 69.2468ZM33.096 69.2468H35.8745V65.431H33.8759C33.6054 65.431 33.3434 65.3949 33.096 65.3275V69.2468ZM60.6856 64.5934H63.1228C64.2245 64.5934 65.1214 63.7384 65.1214 62.6855V53.3788C65.1214 52.3295 64.2306 51.4756 63.1326 51.471C63.1228 51.4698 63.118 51.471 63.1119 51.471H33.8857C33.8808 51.471 33.8723 51.471 33.8662 51.471C32.7694 51.4756 31.8774 52.3295 31.8774 53.3788V62.6855C31.8774 63.7372 32.7743 64.5934 33.8759 64.5934H60.6856ZM34.4658 50.6334H62.5342L59.8716 42.1643H37.1272L34.4658 50.6334ZM37.3904 41.3267H59.6083L59.3073 40.3681C59.2086 40.0551 58.9015 39.8364 58.5603 39.8364H38.4385C38.0912 39.8364 37.7914 40.0505 37.6914 40.3681L37.3904 41.3267ZM59.467 59.6143C57.8803 59.6143 56.591 58.3824 56.591 56.8689C56.591 55.3554 57.8816 54.1234 59.467 54.1234C61.0524 54.1234 62.3429 55.3542 62.3429 56.8689C62.3429 58.3835 61.0536 59.6143 59.467 59.6143ZM59.467 54.961C58.3653 54.961 57.4684 55.816 57.4684 56.8689C57.4684 57.9217 58.3641 58.7767 59.467 58.7767C60.5698 58.7767 61.4655 57.9217 61.4655 56.8689C61.4655 55.816 60.5686 54.961 59.467 54.961ZM37.5318 59.6143C35.9464 59.6143 34.6559 58.3824 34.6559 56.8689C34.6559 55.3554 35.9464 54.1234 37.5318 54.1234C39.1172 54.1234 40.4078 55.3542 40.4078 56.8689C40.4078 58.3835 39.1172 59.6143 37.5318 59.6143ZM37.5318 54.961C36.4302 54.961 35.5333 55.816 35.5333 56.8689C35.5333 57.9217 36.4302 58.7767 37.5318 58.7767C38.6334 58.7767 39.5303 57.9205 39.5303 56.8689C39.5303 55.8172 38.6334 54.961 37.5318 54.961ZM55.8111 49.1443C55.6795 49.1443 55.5479 49.0873 55.4614 48.9779L51.8055 44.3665C51.6593 44.1815 51.6971 43.9198 51.8908 43.7802C52.0797 43.6406 52.3563 43.6743 52.505 43.8616L56.1609 48.4731C56.3071 48.658 56.2693 48.9198 56.0756 49.0594C55.9963 49.1164 55.9037 49.1443 55.8111 49.1443ZM57.0297 47.027C56.8969 47.027 56.7641 46.9689 56.6788 46.8583L54.2415 43.7406C54.0965 43.5556 54.1355 43.2927 54.3305 43.1543C54.523 43.017 54.7984 43.0531 54.9435 43.2392L57.3807 46.3569C57.5257 46.5419 57.4867 46.8048 57.2917 46.9433C57.2125 47.0003 57.1211 47.027 57.0297 47.027ZM65.5601 63.1043H31.4387V62.2667H65.5601V63.1043ZM54.5925 58.451H42.4063V57.6134H54.5925V58.451ZM54.5925 56.1243H42.4063V55.2867H54.5925V56.1243ZM64.7802 48.7255H63.9028V45.2355H64.7814L64.7802 48.7255ZM33.096 48.7255H32.2186V45.2355H33.096V48.7255Z" fill="white"/>
<rect x="45" y="36" width="7" height="3" fill="#FFFBFB"/>
<ellipse cx="48.5" cy="36" rx="3.5" ry="3" fill="white"/>
<line x1="48.5" y1="30" x2="48.5" y2="27" stroke="white"/>
<line y1="-0.5" x2="2.93923" y2="-0.5" transform="matrix(0.732793 -0.680451 0.732793 0.680451 53 32)" stroke="white"/>
<line x1="53" y1="35.5" x2="56" y2="35.5" stroke="white"/>
<line x1="41" y1="35.5" x2="44" y2="35.5" stroke="white"/>
<line y1="-0.5" x2="2.93923" y2="-0.5" transform="matrix(-0.732793 -0.680451 0.732793 -0.680451 45.1543 31)" stroke="white"/>
</svg>
