<svg width="32" height="32" viewBox="0 0 32 32" fill="none" xmlns="http://www.w3.org/2000/svg">
<g clip-path="url(#clip0_969_2146)">
<path d="M13.0336 18.8678C12.979 18.843 12.9462 18.788 12.9507 18.7277C12.9507 18.7272 12.9508 18.7267 12.9508 18.7262C12.9508 18.7261 12.9508 18.726 12.9508 18.7259C12.9509 18.7253 12.951 18.7247 12.951 18.7241C12.9571 18.6713 12.9917 18.6285 13.0375 18.6099L13.0356 18.6088C12.9163 18.6373 12.7976 18.6674 12.6795 18.6991C12.7956 18.7582 12.9136 18.8145 13.0336 18.8678ZM13.0336 18.8678L13.0354 18.8686L13.0336 18.8678ZM6.91463 4.64992L6.91518 4.64978C6.9624 4.63754 9.29261 4.03386 10.2316 2.32592C10.2946 2.21092 10.4156 2.13892 10.5466 2.13892C13.1956 2.13892 14.3696 1.81992 15.7776 0.715922C15.9086 0.612922 16.0906 0.612922 16.2216 0.715922C17.5606 1.76592 18.5336 2.13892 21.3226 2.13892C21.4536 2.13892 21.5746 2.20992 21.6376 2.32592C22.5772 4.03247 25.019 4.63351 25.0806 4.64867L25.0816 4.64892C25.1936 4.67492 25.2876 4.75392 25.3316 4.86092C25.3766 4.96792 25.3666 5.08992 25.3066 5.18792L6.91463 4.64992ZM2.87128 30.4999C2.8642 30.666 2.86062 30.8327 2.86062 30.9999H3.14062C3.14062 30.8328 3.14431 30.6661 3.15161 30.4999H2.87128ZM13.1153 18.8468L13.1159 18.8466L13.0911 18.7419L13.0907 18.7404L13.0905 18.7397L13.0901 18.7378L13.0635 18.6256L13.062 18.6247L13.0891 18.7377L13.0897 18.7403L13.0899 18.7411L13.0904 18.7434L13.1153 18.8468ZM11.9384 18.9205C11.8699 18.9432 11.8016 18.9663 11.7335 18.99C11.7729 19.0147 11.8126 19.0391 11.8525 19.0631L11.9384 18.9205ZM15.7716 3.02292C15.9046 2.91292 16.0966 2.91292 16.2296 3.02292H15.7716Z" fill="black" stroke="black"/>
</g>
<defs>
<clipPath id="clip0_969_2146">
<rect width="32" height="32" fill="white"/>
</clipPath>
</defs>
</svg>
