<svg width="97" height="280" viewBox="0 0 97 280" fill="none" xmlns="http://www.w3.org/2000/svg">
<path d="M49 37.6667C46.0545 37.6667 43.6667 40.0545 43.6667 43C43.6667 45.9455 46.0545 48.3333 49 48.3333C51.9455 48.3333 54.3333 45.9455 54.3333 43C54.3333 40.0545 51.9455 37.6667 49 37.6667ZM48 43L48 280H50L50 43H48Z" fill="black" fill-opacity="0.8"/>
<path d="M96.9553 0.446289L86.1332 84.7689H11.2127L0.390625 0.446289H96.9553Z" fill="#252423"/>
<g clip-path="url(#clip0_1994_239)">
<path d="M66.4519 62.6563H65.4844C65.4844 55.1972 59.9454 48.4663 52.3116 46.6536C52.11 46.6052 51.9609 46.4346 51.9421 46.2276C51.9219 46.022 52.0361 45.8259 52.2269 45.7412C55.5299 44.2671 57.6638 40.9816 57.6638 37.3683C57.6638 37.1654 57.657 36.9638 57.6449 36.765C55.4546 37.9837 52.7295 39.4914 48.4631 39.4914C44.2276 39.4914 41.5508 37.9945 39.4008 36.7905L39.3552 36.765C39.3417 36.9638 39.335 37.1654 39.335 37.367C39.335 40.9816 41.4742 44.2685 44.7852 45.7399C44.9747 45.8232 45.0903 46.0207 45.0701 46.2263C45.0513 46.4332 44.9022 46.6039 44.7006 46.6523C37.06 48.465 31.5144 55.1958 31.5144 62.6563H30.5469C30.5469 55.1515 35.8292 48.3494 43.2722 46.0409C40.2568 44.2228 38.3675 40.94 38.3675 37.367C38.3675 35.9117 38.6685 34.5142 39.2638 33.2067L39.1697 33.0898L35.9944 27.9728C35.9125 27.8411 35.9004 27.6799 35.9582 27.5361C36.0159 27.3936 36.1396 27.2861 36.2901 27.2485C36.321 27.2405 39.4788 26.4329 40.7473 24.1256C40.8319 23.9711 40.9945 23.8744 41.1706 23.8744C44.7302 23.8744 46.3077 23.4457 48.1997 21.9622C48.3758 21.8238 48.6203 21.8238 48.7963 21.9622C50.5956 23.3731 51.9031 23.8744 55.6508 23.8744C55.8268 23.8744 55.9894 23.9698 56.0741 24.1256C57.3466 26.4369 60.6697 27.2391 60.702 27.2472C60.8525 27.2821 60.9788 27.3883 61.0379 27.532C61.0984 27.6758 61.0849 27.8398 61.0043 27.9715L57.7471 33.2336C58.3329 34.533 58.6299 35.9211 58.6299 37.367C58.6299 40.9373 56.7446 44.2201 53.7346 46.0409C61.175 48.3494 66.4519 55.1528 66.4519 62.6563ZM40.2125 36.1347C42.2079 37.2447 44.6966 38.5226 48.4631 38.5226C52.2189 38.5226 54.7398 37.2621 56.7608 36.1455C54.6551 35.2129 52.3291 34.4295 48.5061 34.4295C44.3956 34.4309 41.8451 35.3339 40.2125 36.1347ZM48.5061 33.4634C52.6972 33.4634 55.1657 34.3596 57.4514 35.3957C57.2996 34.7023 57.0644 34.0291 56.75 33.3814C54.647 32.43 52.3761 31.605 48.5236 31.605C44.3055 31.605 41.7954 32.5926 40.242 33.3962C39.9316 34.0358 39.7005 34.701 39.5487 35.3849C42.1327 34.0761 44.9908 33.4634 48.5061 33.4634ZM48.5236 30.6388C52.54 30.6388 54.9118 31.4907 57.1021 32.4797L59.8487 28.0037C58.7589 27.6436 56.5444 26.7137 55.374 24.8405C52.0133 24.819 50.425 24.389 48.498 22.9512C46.5993 24.3554 44.8551 24.8177 41.4487 24.8405C40.2958 26.7003 38.1955 27.6301 37.146 27.997L39.9222 32.4757C42.4041 31.2233 45.1507 30.6388 48.5236 30.6388ZM55.89 61.7963C55.8457 61.7963 55.8013 61.7896 55.7556 61.7762C53.6755 61.1809 52.0455 59.0363 52.0455 56.8957V54.2592C52.0455 53.9918 52.2619 53.7755 52.5293 53.7755C54.2184 53.7755 54.8123 53.5108 55.5809 52.8765C55.7597 52.7274 56.019 52.7274 56.1977 52.8765C56.965 53.5108 57.5603 53.7755 59.2494 53.7755C59.5168 53.7755 59.7331 53.9918 59.7331 54.2592V56.8957C59.7331 59.0363 58.1032 61.1795 56.023 61.7762C55.9787 61.7896 55.9343 61.7963 55.89 61.7963ZM53.0144 54.7363V56.8957C53.0144 58.3778 54.0867 60.2174 55.89 60.8046C57.6933 60.2161 58.7656 58.3765 58.7656 56.8957V54.7363C57.4743 54.6933 56.707 54.4608 55.89 53.8628C55.0743 54.4608 54.3057 54.6933 53.0144 54.7363ZM44.4681 57.7651H37.7494V56.7976H44.4681V57.7651ZM48.4994 29.9495C48.455 29.9495 48.4093 29.9441 48.3663 29.9306C47.2094 29.5987 46.3359 28.4498 46.3359 27.2579V25.9397C46.3359 25.6723 46.5523 25.456 46.8197 25.456C47.6259 25.456 47.8665 25.3296 48.1917 25.0622C48.3704 24.9144 48.6284 24.9144 48.8071 25.0622C49.1323 25.3296 49.3728 25.456 50.1791 25.456C50.4465 25.456 50.6628 25.6723 50.6628 25.9397V27.2579C50.6628 28.4498 49.7907 29.5987 48.6324 29.9306C48.5894 29.9427 48.5451 29.9495 48.4994 29.9495ZM47.3034 26.406V27.2579C47.3034 27.876 47.7563 28.6715 48.4994 28.9551C49.2411 28.6715 49.6953 27.876 49.6953 27.2579V26.406C49.2008 26.367 48.8474 26.2568 48.4994 26.0351C48.1527 26.2568 47.7993 26.367 47.3034 26.406Z" fill="white"/>
</g>
<defs>
<clipPath id="clip0_1994_239">
<rect width="43" height="43" fill="white" transform="translate(27 21)"/>
</clipPath>
</defs>
</svg>
