<svg width="98" height="286" viewBox="0 0 98 286" fill="none" xmlns="http://www.w3.org/2000/svg">
<path d="M49 43.6667C46.0545 43.6667 43.6667 46.0545 43.6667 49C43.6667 51.9455 46.0545 54.3333 49 54.3333C51.9455 54.3333 54.3333 51.9455 54.3333 49C54.3333 46.0545 51.9455 43.6667 49 43.6667ZM48 49L48 286H50L50 49H48Z" fill="black" fill-opacity="0.8"/>
<path d="M11.2129 90.7687L25.5242 53.1914H71.8251L86.1334 90.7687H11.2129Z" fill="#484746"/>
<path d="M0.390625 6.44601L21.7995 0.217773H75.5464L96.9553 6.44601H0.390625Z" fill="#484746"/>
<path d="M0 6.06396H97.3469L86.3689 91H10.9779L0 6.06396ZM86.1337 90.7687L96.9558 6.44946H0.391086L11.2132 90.7687H86.1306" fill="#252423"/>
<path d="M96.9553 6.44629L86.1332 90.7689H11.2127L0.390625 6.44629H96.9553Z" fill="#252423"/>
<path d="M0 6.06398L21.5953 0H75.7516L97.3469 6.06398H0Z" fill="#484746"/>
<path d="M36.2749 32.9841C36.3312 32.834 36.4517 32.7207 36.5984 32.681M36.2749 32.9841C36.2186 33.1357 36.2304 33.3056 36.3103 33.4444L36.5984 32.681M36.2749 32.9841L36.7256 33.1517L36.7318 33.154L36.7423 33.1579M36.2749 32.9841L36.7261 33.1534L36.7323 33.1558L36.7407 33.1589C36.739 33.1599 36.7368 33.161 36.7341 33.162C36.7325 33.1626 36.7308 33.1632 36.7289 33.1637L36.7289 33.1638L36.7342 33.1623C36.7337 33.1624 36.7374 33.1614 36.743 33.1598C36.743 33.1598 36.743 33.1598 36.743 33.1598M36.5984 32.681L36.5992 32.6808C36.661 32.6635 39.7133 31.8085 40.9433 29.3896L36.5984 32.681ZM36.7423 33.1579L39.7758 38.5621L39.7053 38.4391L36.999 33.7186L36.7103 33.2149L36.71 33.2143L36.7073 33.2096L36.7389 33.1977L36.7428 33.1962L36.744 33.1957M36.7423 33.1579C36.7435 33.157 36.7443 33.1563 36.7448 33.1559C36.7459 33.1548 36.7447 33.1556 36.7433 33.1592C36.7432 33.1594 36.7431 33.1596 36.743 33.1598M36.7423 33.1579L60.288 33.213L60.2918 33.2063L60.2561 33.1936M36.743 33.1598C36.7404 33.1674 36.7396 33.175 36.7401 33.1818C36.7406 33.1887 36.7424 33.193 36.7436 33.195L36.7439 33.1955L36.744 33.1957M36.743 33.1598C36.7445 33.1593 36.7461 33.1589 36.7478 33.1584L36.7813 33.1486C36.8092 33.1403 36.848 33.1284 36.8964 33.1128C36.9934 33.0816 37.1292 33.0353 37.2942 32.9723C37.6237 32.8468 38.0727 32.6538 38.5621 32.3807C38.7956 32.2504 39.0409 32.1003 39.2884 31.929M36.744 33.1957L37.0329 33.6992L39.7414 38.4184L39.8244 38.563L60.2547 33.1966C60.2547 33.1965 60.2548 33.1964 60.2548 33.1963C60.2552 33.1956 60.2556 33.1947 60.2561 33.1936M36.744 33.1957L37.2561 33.0022C37.7699 32.808 38.5306 32.4654 39.2884 31.929M39.2884 31.929C39.9914 31.442 40.7115 30.7826 41.2259 29.9131C41.2775 29.8258 41.3271 29.7364 41.3743 29.6449M39.2884 31.929C39.9927 31.4304 40.6945 30.7643 41.1933 29.8944L41.3362 29.6452L41.3743 29.6449M41.3743 29.6449L41.6234 29.6431C43.2642 29.6312 44.4672 29.5045 45.4751 29.2131C46.1024 29.0317 46.6634 28.7838 47.2129 28.4493M41.3743 29.6449C41.3778 29.6382 41.3812 29.6315 41.3846 29.6248M47.2129 28.4493C47.5442 28.2516 47.8669 28.0254 48.1922 27.7685C48.294 27.6882 48.396 27.6048 48.4987 27.5183C48.6019 27.6055 48.7041 27.6898 48.8057 27.7713C49.2766 28.1489 49.7353 28.4659 50.235 28.7242M47.2129 28.4493C47.5376 28.2516 47.8584 28.0236 48.1864 27.7613L48.4946 27.5149C48.4851 27.5069 48.4756 27.4988 48.4661 27.4908L48.4657 27.4904C48.4658 27.4905 48.466 27.4906 48.4661 27.4908C48.4698 27.4936 48.4814 27.5 48.4987 27.5C48.516 27.5 48.5275 27.4936 48.5312 27.4908C48.5314 27.4906 48.5316 27.4905 48.5317 27.4904L48.5312 27.4908C48.5222 27.4985 48.5131 27.5061 48.5041 27.5137L48.8126 27.7626C49.3032 28.1584 49.7636 28.4736 50.235 28.7242M47.2129 28.4493C46.689 28.7619 46.1437 29.0034 45.5325 29.1831C44.4208 29.51 43.1203 29.6235 41.3846 29.6248M50.235 28.7242C50.6301 28.9342 51.0329 29.0989 51.4679 29.2278C52.4327 29.5137 53.5841 29.6319 55.2048 29.6431L55.4528 29.6448M50.235 28.7242C50.5569 28.8906 50.8957 29.0327 51.2658 29.151C52.3288 29.4908 53.6142 29.6234 55.4424 29.6248M55.4528 29.6448C55.4999 29.736 55.5495 29.825 55.6014 29.9119C56.1625 30.8531 56.9831 31.5466 57.7652 32.0417M55.4528 29.6448L55.491 29.6451L55.6343 29.8929C56.1762 30.8307 56.9759 31.5319 57.7652 32.0417M55.4528 29.6448C55.4493 29.6381 55.4459 29.6315 55.4424 29.6248M57.7652 32.0417C58.5028 32.5182 59.2312 32.8274 59.7315 33.0061L60.2561 33.1936M57.7652 32.0417C57.9669 32.1694 58.166 32.2839 58.3574 32.3861C58.8674 32.6582 59.3367 32.85 59.6812 32.9747C59.8537 33.0372 59.9958 33.0831 60.0971 33.114C60.1477 33.1294 60.1882 33.1411 60.2172 33.1493C60.2345 33.1542 60.248 33.1579 60.2561 33.16M60.2561 33.1936C60.2573 33.1905 60.2586 33.186 60.259 33.1803C60.2596 33.1723 60.2582 33.1656 60.2565 33.1611L60.2561 33.16M60.2561 33.16C60.2568 33.1602 60.2574 33.1604 60.258 33.1606C60.2623 33.1617 60.2646 33.1623 60.2645 33.1623L60.2645 33.1624L60.2733 33.1646C60.27 33.1638 60.2671 33.1628 60.2647 33.1617C60.2631 33.161 60.2616 33.1603 60.2604 33.1596C60.2587 33.1587 60.2574 33.1579 60.2565 33.1571C60.2557 33.1565 60.2551 33.1561 60.2547 33.1557C60.254 33.155 60.2537 33.1546 60.2537 33.1546C60.2537 33.1546 60.2544 33.1555 60.2551 33.1576L60.2561 33.16ZM55.4424 29.6248C55.452 29.6248 55.4616 29.6248 55.4712 29.6248C55.4581 29.6248 55.4476 29.6207 55.4414 29.6168C55.4408 29.6164 55.4403 29.616 55.4398 29.6157C55.4388 29.615 55.4381 29.6143 55.4375 29.6138C55.4366 29.613 55.4361 29.6125 55.436 29.6123C55.4358 29.6121 55.4362 29.6126 55.437 29.6141L55.4382 29.6165C55.4396 29.6193 55.441 29.622 55.4424 29.6248ZM41.3846 29.6248C41.3861 29.6219 41.3875 29.6191 41.389 29.6162L41.3893 29.6156C41.39 29.6142 41.3905 29.6135 41.3906 29.6134C41.3907 29.6134 41.3901 29.6141 41.3886 29.6153C41.3884 29.6154 41.3882 29.6156 41.388 29.6157C41.3875 29.6161 41.387 29.6164 41.3864 29.6168C41.381 29.6203 41.3704 29.6248 41.3559 29.6248C41.3655 29.6248 41.3751 29.6248 41.3846 29.6248ZM44.6589 52.6413C44.6586 52.6459 44.6577 52.6494 44.6568 52.6519C43.254 53.0132 41.9223 53.5526 40.6825 54.2422C41.5958 53.7292 42.5591 53.2986 43.5635 52.9618L44.5433 52.6332L43.7861 52.1396C44.0661 52.3137 44.3562 52.4734 44.6559 52.6177C44.6582 52.6226 44.66 52.6299 44.6592 52.638L44.6589 52.6413ZM40.0405 38.8535L40.0195 38.8252L40.3785 38.6293C42.7111 37.3566 45.3029 36.7543 48.5236 36.7543C52.3419 36.7543 54.5781 37.6244 56.6665 38.6439L57.0335 38.8231L56.9846 38.9085L56.9247 38.7752L56.7624 38.6958C54.6667 37.6707 52.3769 36.7726 48.5236 36.7726C44.3154 36.7726 41.7852 37.8412 40.2067 38.7241L40.0624 38.8049L40.0405 38.8535ZM53.4443 52.9617C54.4277 53.2917 55.3715 53.7115 56.2676 54.2106C55.0459 53.5368 53.7355 53.0089 52.3563 52.6533C52.3554 52.6508 52.3545 52.6473 52.3542 52.6427L52.3539 52.6394C52.3531 52.6305 52.355 52.6235 52.3569 52.6193C52.6303 52.4871 52.8956 52.3421 53.1526 52.185L52.4666 52.6337L53.4443 52.9617ZM57.6068 42.0112L57.6078 42.0117L57.1573 42.2827C55.0331 43.5607 52.4777 45.0848 48.4646 45.0848C44.4824 45.0848 41.9746 43.5727 39.8898 42.3103L39.8894 42.3101L39.8727 42.3L40.1643 42.4754C42.1309 43.6581 44.6535 45.0636 48.4646 45.0636C52.263 45.0636 54.8159 43.6785 56.8096 42.4875L57.6068 42.0112ZM40.1877 41.6052L39.9232 41.7455L40.0151 41.6952C42.4473 40.3632 45.1476 39.7313 48.5065 39.7313C52.4942 39.7313 54.8244 40.6476 57.0064 41.7169L57.3602 41.8903L56.7691 41.6073C54.6666 40.6005 52.3251 39.7496 48.5065 39.7496H48.5064C44.4108 39.7511 41.8448 40.7263 40.1877 41.6052ZM56.3252 68.3278C56.124 68.4341 55.9162 68.5221 55.7037 68.5892C55.4832 68.5197 55.2679 68.4279 55.0598 68.3163C55.2133 68.3935 55.3729 68.4618 55.5383 68.52L55.7045 68.5785L55.8707 68.5199C56.0275 68.4645 56.1791 68.4002 56.3252 68.3278ZM52.8832 61.1528L52.4568 61.1681V61.1497C52.4568 61.1458 52.4571 61.1425 52.4576 61.1398C53.288 61.1382 53.9003 61.0671 54.4153 60.8894C54.6204 60.8186 54.8043 60.7329 54.9756 60.6339C54.4208 60.9712 53.824 61.1189 52.8832 61.1528ZM55.7038 60.0942L55.7002 60.0971C55.7014 60.0961 55.7025 60.0951 55.7037 60.0941C55.7037 60.0941 55.7038 60.0942 55.7038 60.0942ZM58.9506 61.1497V61.1681L58.5255 61.1528C57.6099 61.1198 57.0207 60.9791 56.4778 60.6603C56.6359 60.7482 56.805 60.825 56.9916 60.8894C57.5067 61.0671 58.1193 61.1382 58.9497 61.1398C58.9503 61.1425 58.9506 61.1458 58.9506 61.1497ZM48.9338 34.8221C48.7959 34.9076 48.6505 34.9762 48.5 35.0246C48.3533 34.9773 48.2113 34.9109 48.0765 34.8282C48.1508 34.8704 48.2284 34.9086 48.3093 34.9419L48.5002 35.0207L48.691 34.9418C48.7754 34.9069 48.8564 34.8668 48.9338 34.8221ZM47.2919 31.2948L46.8911 31.3289V31.3016C46.8911 31.2977 46.8914 31.2944 46.892 31.2917C47.2919 31.2901 47.6038 31.2555 47.8718 31.1621C47.9685 31.1283 48.0549 31.0885 48.1336 31.0446C47.904 31.1863 47.6593 31.2636 47.2919 31.2948ZM48.4994 30.7946L48.3955 30.8665C48.4315 30.8378 48.4661 30.8084 48.5 30.7789C48.5352 30.8096 48.5714 30.8402 48.6089 30.8701L48.4994 30.7946ZM49.7082 31.2948C49.3443 31.2638 49.1002 31.1873 48.8703 31.0468C48.948 31.0899 49.0331 31.1289 49.1282 31.1621C49.3962 31.2555 49.7081 31.2901 50.108 31.2917C50.1086 31.2944 50.1089 31.2977 50.1089 31.3016V31.329L49.7082 31.2948ZM44.0704 64.3447H38.521V64.325H44.0704V64.3447Z" fill="white" stroke="white"/>
</svg>
