<svg width="98" height="286" viewBox="0 0 98 286" fill="none" xmlns="http://www.w3.org/2000/svg">
<path d="M49 43.6667C46.0545 43.6667 43.6667 46.0545 43.6667 49C43.6667 51.9455 46.0545 54.3333 49 54.3333C51.9455 54.3333 54.3333 51.9455 54.3333 49C54.3333 46.0545 51.9455 43.6667 49 43.6667ZM48 49L48 286H50L50 49H48Z" fill="black" fill-opacity="0.8"/>
<path d="M11.2129 90.7687L25.5242 53.1914H71.8251L86.1334 90.7687H11.2129Z" fill="#484746"/>
<path d="M0.390625 6.44601L21.7995 0.217773H75.5464L96.9553 6.44601H0.390625Z" fill="#484746"/>
<path d="M0 6.06445H97.3469L86.3689 91.0005H10.9779L0 6.06445ZM86.1337 90.7692L96.9558 6.44995H0.391086L11.2132 90.7692H86.1306" fill="#252423"/>
<path d="M96.9553 6.44629L86.1332 90.7689H11.2127L0.390625 6.44629H96.9553Z" fill="#252423"/>
<path d="M0 6.06398L21.5953 0H75.7516L97.3469 6.06398H0Z" fill="#484746"/>
<g clip-path="url(#clip0_2094_2108)">
<path d="M71.4959 72.0368H26.4989V70.9569H31.9586V39.0391H26.4989C26.2005 39.0391 25.959 38.7976 25.959 38.4991V35.4993C25.959 35.2008 26.2005 34.9594 26.4989 34.9594H28.9588V30.9996C28.9588 30.7011 29.2003 30.4597 29.4987 30.4597H35.4008L47.2965 25.999C47.358 25.9735 47.427 25.96 47.4975 25.96H50.4973C50.5888 25.96 50.6728 25.9825 50.7493 26.0215L68.6236 34.9594H71.4959C71.7944 34.9594 72.0359 35.2008 72.0359 35.4993V38.4991C72.0359 38.7976 71.7944 39.0391 71.4959 39.0391H66.0363V48.4584H66.9962C67.2947 48.4584 67.5362 48.6999 67.5362 48.9984V51.9982C67.5362 52.2967 67.2947 52.5382 66.9962 52.5382H64.5364V55.9564H71.4959C71.7944 55.9564 72.0359 56.1979 72.0359 56.4964V63.9959C72.0359 64.2944 71.7944 64.5359 71.4959 64.5359H56.4969C56.1985 64.5359 55.957 64.2944 55.957 63.9959V56.4964C55.957 56.1979 56.1985 55.9564 56.4969 55.9564H63.4565V52.5382H60.9966C60.6981 52.5382 60.4567 52.2967 60.4567 51.9982V48.9984C60.4567 48.6999 60.6981 48.4584 60.9966 48.4584H61.9566V39.0391H51.0373V70.9569H71.4959V72.0368ZM48.0375 70.9569H49.9574V27.0399H48.0375V56.4979C48.0375 56.7964 47.796 57.0379 47.4975 57.0379H35.4983C35.1999 57.0379 34.9584 56.7964 34.9584 56.4979V39.0391H33.0385V70.9569H34.9584V59.4977C34.9584 59.1992 35.1999 58.9577 35.4983 58.9577H47.4975C47.796 58.9577 48.0375 59.1992 48.0375 59.4977V70.9569ZM36.0383 70.9569H46.9576V60.0377H36.0383V70.9569ZM57.0369 63.4574H70.9545V57.0379H57.0369V63.4574ZM36.0383 55.9579H46.4881L36.0383 40.2825V55.9579ZM36.5078 39.0391L46.9576 54.7145V39.0391H36.5078ZM61.5366 51.4582H66.4548V49.5384H61.5366V51.4582ZM63.0365 48.4584H64.9549V39.0391H63.0365V48.4584ZM51.0373 37.9591H70.956V36.0393H51.0373V37.9591ZM27.0389 37.9591H46.9576V36.0393H27.0389V37.9591ZM51.0373 34.9594H66.2073L51.0373 27.3744V34.9594ZM36.0383 34.9594H46.9576V27.2799L36.0383 31.3746V34.9594ZM30.0387 34.9594H34.9584V31.5396H30.0387V34.9594ZM69.0361 62.4975H67.9562V57.9978H69.0376L69.0361 62.4975ZM66.0363 62.4975H64.9564V57.9978H66.0378L66.0363 62.4975ZM63.0365 62.4975H61.9566V57.9978H63.038L63.0365 62.4975ZM60.0367 62.4975H58.9568V57.9978H60.0382L60.0367 62.4975Z" fill="white"/>
</g>
<defs>
<clipPath id="clip0_2094_2108">
<rect width="47.9968" height="47.9968" fill="white" transform="translate(25 25)"/>
</clipPath>
</defs>
</svg>
