<svg width="98" height="286" viewBox="0 0 98 286" fill="none" xmlns="http://www.w3.org/2000/svg">
<path d="M49 43.6667C46.0545 43.6667 43.6667 46.0545 43.6667 49C43.6667 51.9455 46.0545 54.3333 49 54.3333C51.9455 54.3333 54.3333 51.9455 54.3333 49C54.3333 46.0545 51.9455 43.6667 49 43.6667ZM48 49L48 286H50L50 49H48Z" fill="black" fill-opacity="0.8"/>
<path d="M11.2109 90.7687L25.5222 53.1914H71.8232L86.1314 90.7687H11.2109Z" fill="#484746"/>
<path d="M0.390625 6.44626L21.7995 0.218018H75.5464L96.9553 6.44626H0.390625Z" fill="#484746"/>
<path d="M0 6.06396H97.3469L86.3689 91H10.9779L0 6.06396ZM86.1337 90.7687L96.9558 6.44946H0.391086L11.2132 90.7687H86.1306" fill="#252423"/>
<path d="M96.9553 6.44604L86.1332 90.7686H11.2127L0.390625 6.44604H96.9553Z" fill="#252423"/>
<path d="M0 6.06398L21.5953 0H75.7516L97.3469 6.06398H0Z" fill="#484746"/>
<g clip-path="url(#clip0_1200_4540)">
<path d="M66.4825 71.875V68.75H63.1075V66.75H65.875C68.0721 66.75 69.8575 65.0953 69.8575 63.0625V61.5H68.6425V62.5H63.1075V57.3187C65.0144 57.0453 66.4825 55.5281 66.4825 53.6875V52.125H65.2675V53.125H59.7325V47.9438C61.6394 47.6703 63.1075 46.1531 63.1075 44.3141V42.7516H61.8925V43.7516H56.3575V38.5672C58.2644 38.2937 59.7325 36.7766 59.7325 34.9375V31.8125H58.5175V34.0266L49.6075 29.9016V25.5625H48.3925V29.9031L39.4825 34.0281V31.8125H38.2675V34.9375C38.2675 36.7781 39.7356 38.2953 41.6425 38.5672V43.75H36.1075V42.75H34.8925V44.3125C34.8925 46.1531 36.3606 47.6703 38.2675 47.9422V53.1234H32.7325V52.125H31.5175V53.6875C31.5175 55.5281 32.9856 57.0453 34.8925 57.3187V62.5H29.3575V61.5H28.1425V63.0625C28.1425 65.0969 29.9296 66.75 32.125 66.75H34.8925V68.7484H31.5175V71.8734H23.6875V73H74.3125V71.875H66.4825ZM65.2675 69.875V71.8734H63.1075V69.875H65.2675ZM39.4825 69.875H41.6425V71.8734H39.4825V69.875ZM38.2675 71.875H36.1075V69.875H38.2675V71.875ZM42.8575 69.875H45.0175V71.8734H42.8575V69.875ZM46.2325 69.875H48.3925V71.8734H46.2325V69.875ZM49.6075 69.875H51.7675V71.8734H49.6075V69.875ZM52.9825 69.875H55.1408V71.8734H52.9825V69.875ZM56.3575 69.875H58.5158V71.8734H56.3575V69.875ZM59.7325 69.875H61.8908V71.8734H59.7325V69.875ZM59.7325 62.5V60.5H61.8908V62.4984L59.7325 62.5ZM56.3575 62.5V60.5H58.5158V62.4984L56.3575 62.5ZM52.9825 62.5V60.5H55.1408V62.4984L52.9825 62.5ZM49.6075 62.5V60.5H51.7675V62.4984L49.6075 62.5ZM46.2325 62.5V60.5H48.3925V62.4984L46.2325 62.5ZM42.8575 62.5V60.5H45.0175V62.4984L42.8575 62.5ZM39.4825 62.5V60.5H41.6425V62.4984L39.4825 62.5ZM61.8925 57.375V59.3734H36.1075V57.375H61.8925ZM56.3575 53.125V51.125H58.5158V53.1234L56.3575 53.125ZM52.9825 53.125V51.125H55.1408V53.1234L52.9825 53.125ZM49.6075 53.125V51.125H51.7675V53.1234L49.6075 53.125ZM46.2325 53.125V51.125H48.3925V53.1234L46.2325 53.125ZM42.8575 53.125V51.125H45.0175V53.1234L42.8575 53.125ZM58.5175 48V50H39.4825V48H58.5175ZM52.9825 43.75V41.75H55.1408V43.75H52.9825ZM49.6075 43.75V41.75H51.7675V43.75H49.6075ZM46.2325 43.75V41.75H48.3925V43.75H46.2325ZM55.1425 38.625V40.625H42.8575V38.625H55.1425ZM49 30.8781L56.5516 34.375H41.4484L49 30.8781ZM39.5551 35.5H58.4449C58.1665 36.6422 57.0662 37.5 55.75 37.5H42.25C40.9338 37.5 39.8318 36.6422 39.5551 35.5ZM42.8575 41.75H45.0175V43.75H42.8575V41.75ZM36.1801 44.875H61.8199C61.5415 46.0172 60.4412 46.875 59.125 46.875H38.875C37.5588 46.875 36.4568 46.0172 36.1801 44.875ZM39.4825 51.125H41.6425V53.1234H39.4825V51.125ZM32.8051 54.25H65.1949C64.9165 55.3922 63.8162 56.25 62.5 56.25H35.5C34.1838 56.25 33.0835 55.3922 32.8051 54.25ZM36.1075 60.5H38.2675V62.4984H36.1075V60.5ZM29.4301 63.625H68.5699C68.2915 64.7672 67.1912 65.625 65.875 65.625H32.125C30.8088 65.625 29.7085 64.7672 29.4301 63.625ZM36.1075 66.75H61.8925V68.7484H36.1075V66.75ZM32.7325 69.875H34.8925V71.8734H32.7325V69.875Z" fill="white"/>
</g>
<defs>
<clipPath id="clip0_1200_4540">
<rect width="54" height="50" fill="white" transform="translate(22 24)"/>
</clipPath>
</defs>
</svg>
