<svg width="98" height="286" viewBox="0 0 98 286" fill="none" xmlns="http://www.w3.org/2000/svg">
<path d="M49.1719 43.6667C46.2264 43.6667 43.8385 46.0545 43.8385 49C43.8385 51.9455 46.2264 54.3333 49.1719 54.3333C52.1174 54.3333 54.5052 51.9455 54.5052 49C54.5052 46.0545 52.1174 43.6667 49.1719 43.6667ZM48.1719 49L48.1719 286H50.1719L50.1719 49H48.1719Z" fill="black" fill-opacity="0.8"/>
<path d="M11.2109 90.7687L25.5222 53.1914H71.8232L86.1314 90.7687H11.2109Z" fill="#484746"/>
<path d="M0.390625 6.44601L21.7995 0.217773H75.5464L96.9553 6.44601H0.390625Z" fill="#484746"/>
<path d="M0 6.06396H97.3469L86.3689 91H10.9779L0 6.06396ZM86.1337 90.7687L96.9558 6.44946H0.391086L11.2132 90.7687H86.1306" fill="#E0E0E0"/>
<path d="M96.9553 6.44629L86.1332 90.7689H11.2127L0.390625 6.44629H96.9553Z" fill="#E0E0E0"/>
<path d="M0 6.06398L21.5953 0H75.7516L97.3469 6.06398H0Z" fill="white"/>
<g clip-path="url(#clip0_959_3327)">
<path d="M61.5008 65.17C60.442 65.17 59.4395 65.3727 58.5483 65.7348L55.6533 61.6076C55.6458 61.5952 55.637 61.5839 55.6283 61.5716L52.177 56.6523H57.7508C58.8808 56.6523 59.8008 57.4094 59.8008 58.3394C59.8008 59.2693 58.882 60.0265 57.7508 60.0265V60.7671C59.3783 60.7671 60.7008 59.6777 60.7008 58.3394C60.7008 57.001 59.3783 55.9116 57.7508 55.9116H51.4045C51.3258 55.9116 51.2458 55.926 51.172 55.961C50.9558 56.0638 50.8833 56.2902 51.007 56.4671L54.4708 61.4039H43.0108L39.677 56.6523H41.5008C41.7495 56.6523 41.9508 56.4866 41.9508 56.2819C41.9508 56.0772 41.7495 55.9116 41.5008 55.9116H38.9045C38.8995 55.9116 38.892 55.9106 38.8883 55.9116H36.5008C36.252 55.9116 36.0508 56.0772 36.0508 56.2819C36.0508 56.4866 36.252 56.6523 36.5008 56.6523H38.637L42.2308 61.7753L39.452 65.7348C38.562 65.3727 37.5595 65.17 36.5008 65.17C32.8058 65.17 29.8008 67.6441 29.8008 70.684C29.8008 73.7238 32.8058 76.1979 36.5008 76.1979C40.0433 76.1979 42.9533 73.9224 43.1858 71.0543H46.0845C46.302 72.2178 47.527 73.1117 49.0008 73.1117C50.6283 73.1117 51.9508 72.0223 51.9508 70.684C51.9508 69.9206 51.5195 69.2376 50.847 68.7921L55.2508 62.5159L57.7695 66.1062C55.9808 67.0978 54.8008 68.7798 54.8008 70.684C54.8008 73.7238 57.807 76.1979 61.5008 76.1979C65.1945 76.1979 68.2008 73.7238 68.2008 70.684C68.2008 67.6441 65.1945 65.17 61.5008 65.17ZM36.5008 75.4572C33.302 75.4572 30.7008 73.3164 30.7008 70.684C30.7008 68.0515 33.302 65.9107 36.5008 65.9107C37.3958 65.9107 38.2445 66.0784 39.002 66.3777L36.1145 70.4926C36.0933 70.5214 36.077 70.5533 36.0658 70.5862C36.0508 70.6315 36.047 70.6768 36.052 70.721C36.0583 70.7745 36.0783 70.8239 36.1095 70.8681C36.1408 70.9134 36.1845 70.9535 36.2383 70.9854C36.2808 71.0101 36.3295 71.0296 36.382 71.0419C36.4233 71.0502 36.4595 71.0533 36.5083 71.0553H42.2833C42.0533 73.514 39.5483 75.4572 36.5008 75.4572ZM37.2808 70.3136L39.7808 66.7491C41.1858 67.5443 42.1458 68.8364 42.2833 70.3136H37.2808ZM46.0845 70.3136H43.1858C43.0433 68.5627 41.9045 67.033 40.232 66.1062L42.7508 62.5159L47.1533 68.7932C46.592 69.1635 46.1995 69.7015 46.0845 70.3136ZM51.0508 70.684C51.0508 71.6139 50.132 72.371 49.0008 72.371C47.8695 72.371 46.9508 71.6149 46.9508 70.684C46.9508 69.753 47.8708 68.9969 49.0008 68.9969C50.1308 68.9969 51.0508 69.754 51.0508 70.684ZM50.0683 68.4208C49.737 68.3138 49.377 68.2562 49.0008 68.2562C48.6245 68.2562 48.2645 68.3148 47.9333 68.4208L43.5308 62.1446H54.4733L50.0683 68.4208ZM61.5008 75.4572C58.302 75.4572 55.7008 73.3164 55.7008 70.684C55.7008 69.0534 56.6995 67.6112 58.2208 66.7491L61.1108 70.8691C61.2358 71.0481 61.512 71.1088 61.7245 71.0049C61.9408 70.902 62.0133 70.6768 61.8895 70.4998L58.9995 66.3788C59.757 66.0794 60.6058 65.9117 61.5008 65.9117C64.6995 65.9117 67.3008 68.0535 67.3008 70.685C67.3008 73.3164 64.6995 75.4572 61.5008 75.4572Z" fill="black"/>
</g>
<g clip-path="url(#clip1_959_3327)">
<path d="M54.8314 37.2495C54.2212 37.2522 53.6195 37.3784 53.0706 37.6188C52.5218 37.8592 52.0398 38.2076 51.6602 38.6382L45.701 35.2802C45.9182 34.6484 45.9182 33.9721 45.701 33.3403L51.6602 29.9823C52.2651 30.6574 53.1155 31.1177 54.0608 31.2817C55.0061 31.4458 55.9854 31.3029 56.8251 30.8785C57.6647 30.4541 58.3106 29.7755 58.6484 28.9629C58.9861 28.1503 58.9938 27.2562 58.6702 26.439C58.3466 25.6218 57.7126 24.9342 56.8804 24.498C56.0481 24.0618 55.0715 23.9051 54.1234 24.0558C53.1754 24.2065 52.3171 24.6548 51.7006 25.3213C51.0842 25.9878 50.7493 26.8294 50.7553 27.6971C50.7592 28.0257 50.8141 28.3522 50.9184 28.667L44.9591 32.0251C44.433 31.4281 43.7139 30.9934 42.9015 30.7813C42.0891 30.5692 41.2235 30.5902 40.4249 30.8413C39.6263 31.0924 38.9341 31.5613 38.4443 32.1828C37.9545 32.8044 37.6914 33.5479 37.6914 34.3103C37.6914 35.0727 37.9545 35.8162 38.4443 36.4377C38.9341 37.0593 39.6263 37.5281 40.4249 37.7792C41.2235 38.0304 42.0891 38.0513 42.9015 37.8392C43.7139 37.6271 44.433 37.1925 44.9591 36.5955L50.9184 39.9535C50.8141 40.2684 50.7592 40.5949 50.7553 40.9235C50.7553 41.6501 50.9944 42.3604 51.4423 42.9646C51.8902 43.5688 52.5268 44.0397 53.2716 44.3178C54.0164 44.5958 54.8359 44.6686 55.6266 44.5268C56.4173 44.3851 57.1436 44.0352 57.7136 43.5214C58.2837 43.0075 58.6719 42.3529 58.8292 41.6402C58.9865 40.9275 58.9057 40.1888 58.5972 39.5175C58.2887 38.8461 57.7663 38.2723 57.096 37.8686C56.4257 37.4649 55.6376 37.2495 54.8314 37.2495ZM54.8314 25.4927C55.3151 25.4927 55.788 25.622 56.1902 25.8642C56.5923 26.1064 56.9058 26.4507 57.0909 26.8535C57.276 27.2563 57.3244 27.6995 57.2301 28.1272C57.1357 28.5548 56.9028 28.9475 56.5608 29.2558C56.2187 29.5641 55.783 29.7741 55.3085 29.8591C54.8341 29.9442 54.3424 29.9005 53.8955 29.7337C53.4486 29.5668 53.0667 29.2843 52.7979 28.9218C52.5292 28.5593 52.3858 28.1331 52.3858 27.6971C52.3858 27.1125 52.6434 26.5518 53.1021 26.1384C53.5607 25.725 54.1828 25.4927 54.8314 25.4927ZM41.7879 36.5147C41.3042 36.5147 40.8314 36.3854 40.4292 36.1432C40.027 35.9009 39.7136 35.5567 39.5285 35.1539C39.3434 34.7511 39.2949 34.3078 39.3893 33.8802C39.4837 33.4526 39.7166 33.0598 40.0586 32.7515C40.4006 32.4432 40.8364 32.2333 41.3108 32.1482C41.7852 32.0632 42.277 32.1068 42.7239 32.2737C43.1707 32.4405 43.5527 32.7231 43.8214 33.0856C44.0902 33.4481 44.2336 33.8743 44.2336 34.3103C44.2336 34.8949 43.9759 35.4556 43.5173 35.869C43.0586 36.2824 42.4366 36.5147 41.7879 36.5147ZM54.8314 43.1278C54.3477 43.1278 53.8749 42.9986 53.4727 42.7563C53.0705 42.5141 52.757 42.1698 52.5719 41.767C52.3868 41.3642 52.3384 40.921 52.4328 40.4934C52.5271 40.0658 52.7601 39.673 53.1021 39.3647C53.4441 39.0564 53.8799 38.8465 54.3543 38.7614C54.8287 38.6764 55.3204 38.72 55.7673 38.8869C56.2142 39.0537 56.5962 39.3362 56.8649 39.6988C57.1336 40.0613 57.2771 40.4875 57.2771 40.9235C57.2771 41.5081 57.0194 42.0688 56.5608 42.4822C56.1021 42.8956 55.48 43.1278 54.8314 43.1278Z" fill="black"/>
</g>
<defs>
<clipPath id="clip0_959_3327">
<rect width="40" height="32.9189" fill="white" transform="translate(29 49.0811)"/>
</clipPath>
<clipPath id="clip1_959_3327">
<rect width="26.087" height="23.5135" fill="white" transform="translate(35.9531 24)"/>
</clipPath>
</defs>
</svg>
