<svg width="98" height="286" viewBox="0 0 98 286" fill="none" xmlns="http://www.w3.org/2000/svg">
<path d="M49 43.6667C46.0545 43.6667 43.6667 46.0545 43.6667 49C43.6667 51.9455 46.0545 54.3333 49 54.3333C51.9455 54.3333 54.3333 51.9455 54.3333 49C54.3333 46.0545 51.9455 43.6667 49 43.6667ZM48 49L48 286H50L50 49H48Z" fill="black" fill-opacity="0.8"/>
<path d="M11.2129 90.7687L25.5242 53.1914H71.8251L86.1334 90.7687H11.2129Z" fill="#484746"/>
<path d="M0.390625 6.44601L21.7995 0.217773H75.5464L96.9553 6.44601H0.390625Z" fill="#484746"/>
<path d="M0 6.06396H97.3469L86.3689 91H10.9779L0 6.06396ZM86.1337 90.7687L96.9558 6.44946H0.391086L11.2132 90.7687H86.1306" fill="#252423"/>
<path d="M0 6.06398L21.5953 0H75.7516L97.3469 6.06398H0Z" fill="#484746"/>
<path d="M96.9553 6.44629L86.1332 90.7689H11.2127L0.390625 6.44629H96.9553Z" fill="#252423"/>
<path d="M96.9553 6.44629L86.1332 90.7689H11.2127L0.390625 6.44629H96.9553Z" fill="#252423"/>
<g clip-path="url(#clip0_1346_224)">
<rect width="42" height="42" transform="translate(28 32)" fill="white" style="mix-blend-mode:multiply"/>
<path d="M33.2498 73.1598C30.8178 73.1598 28.8398 71.1806 28.8398 68.7498C28.8398 66.3191 30.8178 64.3398 33.2498 64.3398C35.6819 64.3398 37.6598 66.3178 37.6598 68.7498C37.6598 71.1819 35.6819 73.1598 33.2498 73.1598ZM33.2498 65.2848C31.3388 65.2848 29.7848 66.8388 29.7848 68.7498C29.7848 70.6608 31.3388 72.2148 33.2498 72.2148C35.1608 72.2148 36.7148 70.6608 36.7148 68.7498C36.7148 66.8388 35.1608 65.2848 33.2498 65.2848ZM64.7498 71.6885H56.8748C55.166 71.6885 53.7773 70.2986 53.7773 68.591C53.7773 66.8835 55.1673 65.4935 56.8748 65.4935H64.7498C66.4587 65.4935 67.8473 66.8835 67.8473 68.591C67.8473 70.2986 66.4587 71.6885 64.7498 71.6885ZM61.2848 70.7435H64.7498C65.9363 70.7435 66.9023 69.7788 66.9023 68.591C66.9023 67.4032 65.9377 66.4385 64.7498 66.4385H61.2848V70.7435ZM56.8748 66.4385C55.6883 66.4385 54.7223 67.4032 54.7223 68.591C54.7223 69.7788 55.687 70.7435 56.8748 70.7435H60.3398V66.4398L56.8748 66.4385ZM44.7434 69.2223C43.9165 69.2223 43.1382 68.8995 42.5528 68.3154C41.3453 67.1079 41.3453 65.1418 42.5528 63.9343L48.1218 58.3653C49.3293 57.1605 51.2928 57.1605 52.5016 58.3653C53.7091 59.5742 53.7091 61.539 52.5016 62.7478L46.9327 68.3154C46.3486 68.8995 45.5716 69.2223 44.7434 69.2223ZM50.3123 58.4047C49.7611 58.4047 49.2098 58.6147 48.7898 59.0334L43.2209 64.6023C42.814 65.0092 42.5909 65.55 42.5909 66.1235C42.5909 66.6971 42.8153 67.2392 43.2209 67.6447C44.0347 68.4598 45.4508 68.4598 46.2646 67.6447L51.8322 62.0771C52.6722 61.2371 52.6722 59.8721 51.8322 59.0334C51.4148 58.6147 50.8636 58.4047 50.3123 58.4047ZM42.8875 64.269H42.8993H42.8875ZM35.8748 60.0348C33.9953 60.0348 32.2287 59.3025 30.9005 57.9742C29.5709 56.6447 28.8398 54.8793 28.8398 52.9998C28.8398 51.1203 29.5722 49.3537 30.9005 48.0255C33.6436 45.2823 38.1061 45.2823 40.8492 48.0255C42.1788 49.3537 42.9098 51.1203 42.9098 52.9998C42.9098 54.8793 42.1775 56.6447 40.8492 57.9742C39.521 59.3038 37.7543 60.0348 35.8748 60.0348ZM29.8032 53.4723C29.9135 54.9213 30.5303 56.268 31.5685 57.3048C32.7183 58.4559 34.2487 59.0898 35.8748 59.0898C37.501 59.0898 39.0314 58.4572 40.1812 57.3062C41.2193 56.2693 41.8362 54.9227 41.9465 53.4737L29.8032 53.4723ZM29.8032 52.5273H41.9478C41.8375 51.0783 41.2207 49.7317 40.1825 48.6935C39.0314 47.5438 37.501 46.9098 35.8748 46.9098C34.2487 46.9098 32.7183 47.5438 31.5685 48.6935C30.5303 49.7317 29.9135 51.0783 29.8032 52.5273ZM62.1248 59.9036C60.2453 59.9036 58.48 59.1712 57.1505 57.843L50.6693 51.3618C50.6641 51.3579 50.6588 51.3527 50.6536 51.3474C50.6483 51.3435 50.6444 51.3382 50.6392 51.333L44.158 44.8492C41.4149 42.1061 41.4149 37.6436 44.158 34.9005C45.4863 33.5709 47.2529 32.8398 49.1324 32.8398C51.0119 32.8398 52.7772 33.5722 54.1068 34.9005L60.5879 41.3816C60.5932 41.3855 60.5984 41.3908 60.6037 41.396C60.6089 41.4 60.6128 41.4052 60.6181 41.4105L67.0992 47.8916C68.4288 49.2198 69.1598 50.9865 69.1598 52.866C69.1598 54.7455 68.4275 56.5108 67.0992 57.8403C65.771 59.1699 64.0043 59.9036 62.1248 59.9036ZM51.6563 51.0114L57.8185 57.1736C58.9683 58.3247 60.4973 58.9573 62.1235 58.9573C63.7497 58.9573 65.2788 58.3247 66.4285 57.1736C67.5796 56.0238 68.2122 54.4948 68.2122 52.8686C68.2122 51.2424 67.5796 49.712 66.4285 48.5623L60.2677 42.4001L51.6563 51.0114ZM49.1324 33.7848C47.5062 33.7848 45.9758 34.4188 44.8261 35.5685C43.675 36.7183 43.0411 38.2487 43.0411 39.8748C43.0411 41.501 43.6737 43.0314 44.8248 44.1812L50.987 50.3433L59.5996 41.7307L53.4374 35.5685C52.2877 34.4175 50.7586 33.7848 49.1324 33.7848ZM33.2498 41.6598C30.8178 41.6598 28.8398 39.6819 28.8398 37.2498C28.8398 34.8178 30.8178 32.8398 33.2498 32.8398C35.6819 32.8398 37.6598 34.8178 37.6598 37.2498C37.6598 39.6819 35.6819 41.6598 33.2498 41.6598ZM33.2498 33.7848C31.3388 33.7848 29.7848 35.3388 29.7848 37.2498C29.7848 39.1608 31.3388 40.7148 33.2498 40.7148C35.1608 40.7148 36.7148 39.1608 36.7148 37.2498C36.7148 35.3388 35.1608 33.7848 33.2498 33.7848ZM65.4061 40.3473C63.3363 40.3473 61.6523 38.6634 61.6523 36.5936C61.6523 34.5238 63.3363 32.8398 65.4061 32.8398C67.4759 32.8398 69.1598 34.5238 69.1598 36.5936C69.1598 38.6634 67.4759 40.3473 65.4061 40.3473ZM65.4061 33.7848C63.8573 33.7848 62.5973 35.0448 62.5973 36.5936C62.5973 38.1423 63.8573 39.4023 65.4061 39.4023C66.9548 39.4023 68.2148 38.1423 68.2148 36.5936C68.2148 35.0448 66.9548 33.7848 65.4061 33.7848Z" fill="white"/>
</g>
<defs>
<clipPath id="clip0_1346_224">
<rect width="42" height="42" fill="white" transform="translate(28 32)"/>
</clipPath>
</defs>
</svg>
