<svg width="98" height="286" viewBox="0 0 98 286" fill="none" xmlns="http://www.w3.org/2000/svg">
<path d="M48.3477 43.6667C45.4021 43.6667 43.0143 46.0545 43.0143 49C43.0143 51.9455 45.4021 54.3333 48.3477 54.3333C51.2932 54.3333 53.681 51.9455 53.681 49C53.681 46.0545 51.2932 43.6667 48.3477 43.6667ZM47.3477 49L47.3477 286H49.3477L49.3477 49H47.3477Z" fill="black" fill-opacity="0.8"/>
<path d="M11.2129 90.7687L25.5242 53.1914H71.8251L86.1334 90.7687H11.2129Z" fill="#484746"/>
<path d="M0.390625 6.44601L21.7995 0.217773H75.5464L96.9553 6.44601H0.390625Z" fill="#484746"/>
<path d="M0 6.06396H97.3469L86.3689 91H10.9779L0 6.06396ZM86.1337 90.7687L96.9558 6.44946H0.391086L11.2132 90.7687H86.1306" fill="#FF1242"/>
<path d="M96.9553 6.44629L86.1332 90.7689H11.2127L0.390625 6.44629H96.9553Z" fill="#DE274C"/>
<path d="M0 6.06398L21.5953 0H75.7516L97.3469 6.06398H0Z" fill="#FF1242"/>
<g clip-path="url(#clip0_969_4605)">
<path fill-rule="evenodd" clip-rule="evenodd" d="M38.8125 34.5936C38.4502 34.5936 38.1562 34.8876 38.1562 35.2498C38.1562 35.6121 38.4502 35.9061 38.8125 35.9061C39.1748 35.9061 39.4688 35.6121 39.4688 35.2498C39.4688 34.8876 39.1748 34.5936 38.8125 34.5936ZM33.5625 34.5936C33.2003 34.5936 32.9062 34.8876 32.9062 35.2498C32.9062 35.6121 33.2003 35.9061 33.5625 35.9061C33.9247 35.9061 34.2188 35.6121 34.2188 35.2498C34.2188 34.8876 33.9247 34.5936 33.5625 34.5936ZM36.1875 38.5311C35.8253 38.5311 35.5312 38.8251 35.5312 39.1873C35.5312 39.5496 35.8253 39.8436 36.1875 39.8436C36.5498 39.8436 36.8438 39.5496 36.8438 39.1873C36.8438 38.8251 36.5498 38.5311 36.1875 38.5311ZM29.625 35.9061C29.2628 35.9061 28.9688 36.2001 28.9688 36.5623C28.9688 36.9246 29.2628 37.2186 29.625 37.2186C29.9872 37.2186 30.2812 36.9246 30.2812 36.5623C30.2812 36.2001 29.9872 35.9061 29.625 35.9061ZM32.25 41.1561C31.8877 41.1561 31.5938 41.4501 31.5938 41.8123C31.5938 42.1746 31.8877 42.4686 32.25 42.4686C32.6122 42.4686 32.9062 42.1746 32.9062 41.8123C32.9062 41.4501 32.6122 41.1561 32.25 41.1561ZM29.625 42.4686C29.2628 42.4686 28.9688 42.7626 28.9688 43.1248C28.9688 43.4871 29.2628 43.7811 29.625 43.7811C29.9872 43.7811 30.2812 43.4871 30.2812 43.1248C30.2812 42.7626 29.9872 42.4686 29.625 42.4686ZM33.5625 43.7811C33.2003 43.7811 32.9062 44.0751 32.9062 44.4373C32.9062 44.7996 33.2003 45.0936 33.5625 45.0936C33.9247 45.0936 34.2188 44.7996 34.2188 44.4373C34.2188 44.0751 33.9247 43.7811 33.5625 43.7811ZM30.9375 45.0936C30.5752 45.0936 30.2812 45.3876 30.2812 45.7498C30.2812 46.1121 30.5752 46.4061 30.9375 46.4061C31.2998 46.4061 31.5938 46.1121 31.5938 45.7498C31.5938 45.3876 31.2998 45.0936 30.9375 45.0936ZM34.875 46.4061C34.5128 46.4061 34.2188 46.7001 34.2188 47.0623C34.2188 47.4246 34.5128 47.7186 34.875 47.7186C35.2372 47.7186 35.5312 47.4246 35.5312 47.0623C35.5312 46.7001 35.2372 46.4061 34.875 46.4061ZM28.9688 47.7186C28.6065 47.7186 28.3125 48.0126 28.3125 48.3748C28.3125 48.7371 28.6065 49.0311 28.9688 49.0311C29.331 49.0311 29.625 48.7371 29.625 48.3748C29.625 48.0126 29.331 47.7186 28.9688 47.7186ZM32.25 49.0311C31.8877 49.0311 31.5938 49.3251 31.5938 49.6873C31.5938 50.0496 31.8877 50.3436 32.25 50.3436C32.6122 50.3436 32.9062 50.0496 32.9062 49.6873C32.9062 49.3251 32.6122 49.0311 32.25 49.0311ZM30.2812 50.3436C29.919 50.3436 29.625 50.6376 29.625 50.9998C29.625 51.3621 29.919 51.6561 30.2812 51.6561C30.6435 51.6561 30.9375 51.3621 30.9375 50.9998C30.9375 50.6376 30.6435 50.3436 30.2812 50.3436ZM32.25 52.9686C31.8877 52.9686 31.5938 53.2626 31.5938 53.6248C31.5938 53.9871 31.8877 54.2811 32.25 54.2811C32.6122 54.2811 32.9062 53.9871 32.9062 53.6248C32.9062 53.2626 32.6122 52.9686 32.25 52.9686ZM36.1875 52.9686C35.8253 52.9686 35.5312 53.2626 35.5312 53.6248C35.5312 53.9871 35.8253 54.2811 36.1875 54.2811C36.5498 54.2811 36.8438 53.9871 36.8438 53.6248C36.8438 53.2626 36.5498 52.9686 36.1875 52.9686ZM36.1875 56.9061C35.8253 56.9061 35.5312 57.2001 35.5312 57.5623C35.5312 57.9246 35.8253 58.2186 36.1875 58.2186C36.5498 58.2186 36.8438 57.9246 36.8438 57.5623C36.8438 57.2001 36.5498 56.9061 36.1875 56.9061ZM30.9375 56.9061C30.5752 56.9061 30.2812 57.2001 30.2812 57.5623C30.2812 57.9246 30.5752 58.2186 30.9375 58.2186C31.2998 58.2186 31.5938 57.9246 31.5938 57.5623C31.5938 57.2001 31.2998 56.9061 30.9375 56.9061ZM34.875 59.5311C34.5128 59.5311 34.2188 59.8251 34.2188 60.1873C34.2188 60.5496 34.5128 60.8436 34.875 60.8436C35.2372 60.8436 35.5312 60.5496 35.5312 60.1873C35.5312 59.8251 35.2372 59.5311 34.875 59.5311ZM32.25 60.8436C31.8877 60.8436 31.5938 61.1376 31.5938 61.4998C31.5938 61.8621 31.8877 62.1561 32.25 62.1561C32.6122 62.1561 32.9062 61.8621 32.9062 61.4998C32.9062 61.1376 32.6122 60.8436 32.25 60.8436ZM41.4375 60.8436C41.0752 60.8436 40.7812 61.1376 40.7812 61.4998C40.7812 61.8621 41.0752 62.1561 41.4375 62.1561C41.7998 62.1561 42.0938 61.8621 42.0938 61.4998C42.0938 61.1376 41.7998 60.8436 41.4375 60.8436ZM37.5 63.4686C37.1377 63.4686 36.8438 63.7626 36.8438 64.1248C36.8438 64.4871 37.1377 64.7811 37.5 64.7811C37.8623 64.7811 38.1562 64.4871 38.1562 64.1248C38.1562 63.7626 37.8623 63.4686 37.5 63.4686ZM33.5625 64.7811C33.2003 64.7811 32.9062 65.0751 32.9062 65.4373C32.9062 65.7996 33.2003 66.0936 33.5625 66.0936C33.9247 66.0936 34.2188 65.7996 34.2188 65.4373C34.2188 65.0751 33.9247 64.7811 33.5625 64.7811ZM32.25 67.4061C31.8877 67.4061 31.5938 67.7001 31.5938 68.0623C31.5938 68.4246 31.8877 68.7186 32.25 68.7186C32.6122 68.7186 32.9062 68.4246 32.9062 68.0623C32.9062 67.7001 32.6122 67.4061 32.25 67.4061ZM42.75 66.0936C42.3877 66.0936 42.0938 66.3876 42.0938 66.7498C42.0938 67.1121 42.3877 67.4061 42.75 67.4061C43.1123 67.4061 43.4062 67.1121 43.4062 66.7498C43.4062 66.3876 43.1123 66.0936 42.75 66.0936ZM45.375 69.3748C45.0128 69.3748 44.7188 69.6688 44.7188 70.0311C44.7188 70.3933 45.0128 70.6873 45.375 70.6873C45.7372 70.6873 46.0312 70.3933 46.0312 70.0311C46.0312 69.6688 45.7372 69.3748 45.375 69.3748ZM51.9375 64.7811C51.5753 64.7811 51.2812 65.0751 51.2812 65.4373C51.2812 65.7996 51.5753 66.0936 51.9375 66.0936C52.2997 66.0936 52.5938 65.7996 52.5938 65.4373C52.5938 65.0751 52.2997 64.7811 51.9375 64.7811ZM52.5938 30.8398C44.01 30.8398 37.0275 37.8223 37.0275 46.4061C37.0275 54.9898 44.01 61.9723 52.5938 61.9723C61.1775 61.9723 68.16 54.9898 68.16 46.4061C68.16 37.8223 61.1775 30.8398 52.5938 30.8398ZM52.5938 61.0273C44.5311 61.0273 37.9725 54.4688 37.9725 46.4061C37.9725 38.3434 44.5311 31.7848 52.5938 31.7848C60.6564 31.7848 67.215 38.3434 67.215 46.4061C67.215 54.4688 60.6564 61.0273 52.5938 61.0273ZM47.0209 50.0207L45.3868 51.6561L47.0209 53.2902L46.3528 53.9595L44.7188 52.3242L43.0834 53.9595L42.4153 53.2902L44.0494 51.6561L42.4153 50.0207L43.0834 49.3527L44.7188 50.9867L46.3541 49.3527L47.0209 50.0207ZM61.4597 47.3957L59.8243 49.0311L61.4597 50.6665L60.7903 51.3345L59.1562 49.6992L57.5222 51.3332L56.8528 50.6652L58.4882 49.0298L56.8528 47.3944L57.5222 46.7263L59.1562 48.3604L60.7903 46.7263L61.4597 47.3957ZM53.5847 38.2082L51.9493 39.8436L53.5847 41.479L52.9153 42.147L51.2812 40.5117L49.6472 42.1457L48.9791 41.4777L50.6132 39.8436L48.9791 38.2082L49.6472 37.5402L51.2812 39.1755L52.9153 37.5415L53.5847 38.2082Z" fill="black"/>
</g>
<defs>
<clipPath id="clip0_969_4605">
<rect width="42" height="42" fill="white" transform="translate(27 30)"/>
</clipPath>
</defs>
</svg>
