<svg width="98" height="286" viewBox="0 0 98 286" fill="none" xmlns="http://www.w3.org/2000/svg">
<path d="M49 43.6667C46.0545 43.6667 43.6667 46.0545 43.6667 49C43.6667 51.9455 46.0545 54.3333 49 54.3333C51.9455 54.3333 54.3333 51.9455 54.3333 49C54.3333 46.0545 51.9455 43.6667 49 43.6667ZM48 49L48 286H50L50 49H48Z" fill="black" fill-opacity="0.8"/>
<path d="M11.2129 90.7687L25.5242 53.1914H71.8251L86.1334 90.7687H11.2129Z" fill="#484746"/>
<path d="M0.390625 6.44601L21.7995 0.217773H75.5464L96.9553 6.44601H0.390625Z" fill="#484746"/>
<path d="M0 6.06396H97.3469L86.3689 91H10.9779L0 6.06396ZM86.1337 90.7687L96.9558 6.44946H0.391086L11.2132 90.7687H86.1306" fill="#252423"/>
<path d="M96.9553 6.44629L86.1332 90.7689H11.2127L0.390625 6.44629H96.9553Z" fill="#252423"/>
<path d="M0 6.06398L21.5953 0H75.7516L97.3469 6.06398H0Z" fill="#484746"/>
<g clip-path="url(#clip0_969_3446)">
<path d="M57.4691 63.0548H29.2816C29.0266 63.0548 28.8203 62.8485 28.8203 62.5936V34.4061C28.8203 34.1511 29.0266 33.9448 29.2816 33.9448H57.4691C57.724 33.9448 57.9303 34.1511 57.9303 34.4061V42.574L67.4872 37.0249C67.6281 36.9429 67.8049 36.9404 67.9484 37.0249C68.0906 37.1069 68.1803 37.2594 68.1803 37.4247V59.6172C68.1803 59.7825 68.0919 59.935 67.9471 60.017C67.8062 60.0977 67.6281 60.0977 67.4859 60.0144L57.9303 54.4295V62.5936C57.9303 62.8485 57.724 63.0548 57.4691 63.0548ZM29.7428 62.1323H57.0078V53.6248C57.0078 53.4595 57.0962 53.3071 57.241 53.2251C57.3819 53.1444 57.5613 53.1444 57.7022 53.2276L67.2578 58.8126V38.2242L57.701 43.7733C57.56 43.8553 57.3832 43.8566 57.2397 43.7733C57.0962 43.6926 57.0078 43.5401 57.0078 43.3748V34.8673H29.7428V62.1323ZM39.5316 55.5992C39.4521 55.5992 39.3714 55.5774 39.3009 55.5365C39.1587 55.4545 39.0703 55.302 39.0703 55.1367V41.8232C39.0703 41.6579 39.1574 41.5055 39.3009 41.4235C39.4432 41.3415 39.62 41.3415 39.7622 41.4235L51.2934 48.1001C51.4357 48.1821 51.5241 48.3358 51.5241 48.4998C51.5228 48.6638 51.4357 48.8176 51.2922 48.8996L39.7609 55.5365C39.6904 55.5774 39.611 55.5992 39.5316 55.5992ZM39.9928 42.6227V54.3398L50.1403 48.4985L39.9928 42.6227Z" fill="white"/>
</g>
<defs>
<clipPath id="clip0_969_3446">
<rect width="41" height="41" fill="white" transform="translate(28 28)"/>
</clipPath>
</defs>
</svg>
