<svg width="98" height="286" viewBox="0 0 98 286" fill="none" xmlns="http://www.w3.org/2000/svg">
<path d="M49 43.6667C46.0545 43.6667 43.6667 46.0545 43.6667 49C43.6667 51.9455 46.0545 54.3333 49 54.3333C51.9455 54.3333 54.3333 51.9455 54.3333 49C54.3333 46.0545 51.9455 43.6667 49 43.6667ZM48 49L48 286H50L50 49H48Z" fill="black" fill-opacity="0.8"/>
<path d="M11.2129 90.7687L25.5242 53.1914H71.8251L86.1334 90.7687H11.2129Z" fill="#484746"/>
<path d="M0.390625 6.44626L21.7995 0.218018H75.5464L96.9553 6.44626H0.390625Z" fill="#484746"/>
<path d="M0 6.06396H97.3469L86.3689 91H10.9779L0 6.06396ZM86.1337 90.7687L96.9558 6.44946H0.391086L11.2132 90.7687H86.1306" fill="#252423"/>
<path d="M96.9553 6.44604L86.1332 90.7686H11.2127L0.390625 6.44604H96.9553Z" fill="#252423"/>
<path d="M0 6.06398L21.5953 0H75.7516L97.3469 6.06398H0Z" fill="#484746"/>
<g clip-path="url(#clip0_1200_3911)">
<path d="M42.175 68.3124H40.825C40.825 65.9119 42.8106 63.9612 45.25 63.9612H75.25V65.2905H45.25C43.555 65.2887 42.175 66.6457 42.175 68.3124ZM38.425 68.3124H37.075C37.075 63.8801 40.7425 60.2737 45.25 60.2737H75.25V61.603H45.25C41.4869 61.6012 38.425 64.612 38.425 68.3124ZM34.675 68.3124H33.325C33.325 61.8464 38.6744 56.5862 45.25 56.5862H75.25V57.9155H45.25C39.4188 57.9137 34.675 62.5784 34.675 68.3124ZM30.925 68.3124H29.575C29.575 65.9082 30.1375 63.6312 31.1388 61.6012H22.75V60.2737H31.8794C32.4062 59.4311 33.0119 58.6401 33.6888 57.9155H22.75V56.5862H35.0875C36.2256 55.6311 37.5044 54.8346 38.8881 54.228H22.75V52.8987H23.95V39.7214C23.95 38.0749 24.3775 36.4653 25.1875 35.0678C26.0781 33.5338 27.6194 32.6174 29.3125 32.6174C31.0056 32.6174 32.5469 33.5338 33.4375 35.0678C34.2475 36.4653 34.675 38.0749 34.675 39.7214V41.6223C35.7194 40.9899 36.9831 40.6875 38.2619 40.7705C40.0375 40.8959 41.605 41.7606 42.5594 43.1434C43.5344 44.5539 44.0481 46.1782 44.0481 47.8413V52.9466C44.4438 52.9171 44.845 52.9024 45.2481 52.9024H53.9481V43.184L51.3512 45.7394L50.3969 44.7991L62.5844 32.8147C62.8488 32.5547 63.2762 32.5547 63.5406 32.8147L75.7281 44.7991L74.7719 45.7394L72.175 43.184V52.9024H75.25V54.2317H45.25C37.3506 54.2262 30.925 60.5447 30.925 68.3124ZM66.55 52.8987H70.8231V41.8528L63.0606 34.2197L55.2981 41.8528V52.8987H59.5713V47.1093C59.5713 46.7424 59.8731 46.4456 60.2463 46.4456H65.8713C66.2444 46.4456 66.5462 46.7424 66.5462 47.1093V52.8987H66.55ZM60.925 52.8987H65.1981V47.7731H60.925V52.8987ZM38.425 52.8987H42.7V47.8394C42.7 46.4437 42.265 45.0775 41.4438 43.8883C40.72 42.8447 39.5256 42.1902 38.1625 42.0925C36.7694 41.9947 35.3894 42.5073 34.4969 43.4679C34.3075 43.6707 34.0131 43.7371 33.7544 43.6375C33.4956 43.538 33.325 43.2927 33.325 43.0199V39.7214C33.325 38.3054 32.9575 36.9226 32.2638 35.726C31.6169 34.6105 30.5144 33.9449 29.3125 33.9449C28.1106 33.9449 27.0081 34.6105 26.3613 35.7241C25.6656 36.9226 25.3 38.3036 25.3 39.7196V52.8968H27.7V38.8124H29.05V52.8987H37.075V46.1874H38.425V52.8987ZM64 42.2418H62.125C61.7519 42.2418 61.45 41.945 61.45 41.5781V37.8906C61.45 37.5236 61.7519 37.2268 62.125 37.2268H64C64.3731 37.2268 64.675 37.5236 64.675 37.8906V41.5781C64.675 41.945 64.3731 42.2418 64 42.2418ZM62.8 40.9143H63.3231V38.5543H62.8V40.9143ZM69.3625 29.5937H68.0125V27.7499H69.3644L69.3625 29.5937ZM72.85 28.1722L71.5244 26.8668L72.4806 25.9283L73.8062 27.2337L72.85 28.1722ZM64.525 28.1722L63.5688 27.2337L64.8944 25.9283L65.8506 26.8668L64.525 28.1722ZM68.6875 26.5699C66.7656 26.5699 65.2 25.0322 65.2 23.1406C65.2 21.2489 66.7656 19.7112 68.6875 19.7112C70.6094 19.7112 72.175 21.2489 72.175 23.1406C72.175 25.0322 70.6094 26.5699 68.6875 26.5699ZM68.6875 21.0387C67.5081 21.0387 66.55 21.9827 66.55 23.1406C66.55 24.2984 67.5081 25.2424 68.6875 25.2424C69.8669 25.2424 70.825 24.2984 70.825 23.1406C70.825 21.9827 69.8669 21.0387 68.6875 21.0387ZM75.25 23.8043H73.375V22.4768H75.25V23.8043ZM64 23.8043H62.125V22.4768H64V23.8043ZM45.25 21.0387H39.625V19.7112H45.25V21.0387ZM35.875 21.0387H22.75V19.7112H35.875V21.0387ZM72.4787 20.351L71.5225 19.4125L72.8481 18.1071L73.8044 19.0456L72.4787 20.351ZM64.8963 20.351L63.5706 19.0456L64.5269 18.1071L65.8525 19.4125L64.8963 20.351ZM69.3625 18.5312H68.0125V16.6874H69.3644L69.3625 18.5312ZM47.125 17.3512H22.75V16.0237H47.125V17.3512Z" fill="white"/>
</g>
<defs>
<clipPath id="clip0_1200_3911">
<rect width="60" height="59" fill="white" transform="translate(19 13)"/>
</clipPath>
</defs>
</svg>
