<svg width="98" height="286" viewBox="0 0 98 286" fill="none" xmlns="http://www.w3.org/2000/svg">
<path d="M49 43.6667C46.0545 43.6667 43.6667 46.0545 43.6667 49C43.6667 51.9455 46.0545 54.3333 49 54.3333C51.9455 54.3333 54.3333 51.9455 54.3333 49C54.3333 46.0545 51.9455 43.6667 49 43.6667ZM48 49L48 286H50L50 49H48Z" fill="black" fill-opacity="0.8"/>
<path d="M11.2129 90.7687L25.5242 53.1914H71.8251L86.1334 90.7687H11.2129Z" fill="#484746"/>
<path d="M0.390625 6.44601L21.7995 0.217773H75.5464L96.9553 6.44601H0.390625Z" fill="#484746"/>
<path d="M0 6.06396H97.3469L86.3689 91H10.9779L0 6.06396ZM86.1337 90.7687L96.9558 6.44946H0.391086L11.2132 90.7687H86.1306" fill="#252423"/>
<path d="M0 6.06398L21.5953 0H75.7516L97.3469 6.06398H0Z" fill="#484746"/>
<path d="M96.9553 6.44629L86.1332 90.7689H11.2127L0.390625 6.44629H96.9553Z" fill="#252423"/>
<path d="M70.4727 73H26.5273C26.2358 73 26 72.7484 26 72.4375V36.5C26 36.1891 26.2358 35.9375 26.5273 35.9375H58.2266V25.5625C58.2266 25.2516 58.4624 25 58.7539 25H70.4727C70.7642 25 71 25.2516 71 25.5625V72.4375C71 72.7484 70.7642 73 70.4727 73ZM49.0273 71.875H69.9453V26.125H59.2812V36.5C59.2812 36.8109 59.0454 37.0625 58.7539 37.0625H27.0547V71.875H39.916V61.5C39.916 61.1891 40.1519 60.9375 40.4434 60.9375H48.5C48.7915 60.9375 49.0273 61.1891 49.0273 61.5V71.875ZM40.9707 71.875H47.9727V62.0625H40.9707V71.875ZM65.1406 63.0625H64.0859V59.9375H65.1421L65.1406 63.0625ZM57.084 63.0625H56.0293V59.9375H57.0855L57.084 63.0625ZM32.9141 63.0625H31.8594V59.9375H32.9141V63.0625ZM65.1406 56.8125H64.0859V53.6875H65.1421L65.1406 56.8125ZM57.084 56.8125H56.0293V53.6875H57.0855L57.084 56.8125ZM49.0273 56.8125H47.9727V53.6875H49.0273V56.8125ZM40.9707 56.8125H39.916V53.6875H40.9707V56.8125ZM32.9141 56.8125H31.8594V53.6875H32.9141V56.8125ZM65.1406 50.5625H64.0859V47.4375H65.1421L65.1406 50.5625ZM57.084 50.5625H56.0293V47.4375H57.0855L57.084 50.5625ZM49.0273 50.5625H47.9727V47.4375H49.0273V50.5625ZM40.9707 50.5625H39.916V47.4375H40.9707V50.5625ZM32.9141 50.5625H31.8594V47.4375H32.9141V50.5625ZM65.1406 44.3125H64.0859V41.1875H65.1421L65.1406 44.3125ZM57.084 44.3125H56.0293V41.1875H57.0855L57.084 44.3125ZM49.0273 44.3125H47.9727V41.1875H49.0273V44.3125ZM40.9707 44.3125H39.916V41.1875H40.9707V44.3125ZM32.9141 44.3125H31.8594V41.1875H32.9141V44.3125ZM65.1406 34.1562H64.0859V31.5938H61.6836V30.4687H64.0859V27.9062H65.1421V30.4687H67.543V31.5938H65.1406V34.1562Z" fill="white"/>
</svg>
