<svg width="98" height="286" viewBox="0 0 98 286" fill="none" xmlns="http://www.w3.org/2000/svg">
<path d="M48.3477 43.6667C45.4021 43.6667 43.0143 46.0545 43.0143 49C43.0143 51.9455 45.4021 54.3333 48.3477 54.3333C51.2932 54.3333 53.681 51.9455 53.681 49C53.681 46.0545 51.2932 43.6667 48.3477 43.6667ZM47.3477 49L47.3477 286H49.3477L49.3477 49H47.3477Z" fill="black" fill-opacity="0.8"/>
<path d="M11.2129 90.7687L25.5242 53.1914H71.8251L86.1334 90.7687H11.2129Z" fill="#484746"/>
<path d="M0.390625 6.44601L21.7995 0.217773H75.5464L96.9553 6.44601H0.390625Z" fill="#484746"/>
<path d="M0 6.06396H97.3469L86.3689 91H10.9779L0 6.06396ZM86.1337 90.7687L96.9558 6.44946H0.391086L11.2132 90.7687H86.1306" fill="#FF1242"/>
<path d="M96.9553 6.44629L86.1332 90.7689H11.2127L0.390625 6.44629H96.9553Z" fill="#DE274C"/>
<path d="M0 6.06398L21.5953 0H75.7516L97.3469 6.06398H0Z" fill="#FF1242"/>
<path d="M44.3561 57.9113H41.7951C41.6252 57.9113 41.4878 57.7853 41.4878 57.6296V54.7809H25.0293V57.6296C25.0293 57.7853 24.8918 57.9113 24.722 57.9113H22.161C21.9911 57.9113 21.8537 57.7853 21.8537 57.6296V54.4991C21.8537 54.4811 21.8554 54.4631 21.8588 54.4467C21.3398 54.1117 21 53.5584 21 52.9339V46.673C21 45.7269 21.7802 44.9443 22.7816 44.8386L25.0984 37.7591C25.247 37.3052 25.6943 37 26.2107 37H40.3063C40.8228 37 41.2701 37.3052 41.4187 37.7583L43.7355 44.8378C44.7377 44.9435 45.5179 45.7261 45.5179 46.6723V52.9331C45.5179 53.5577 45.1782 54.111 44.6583 54.4459C44.6617 54.4623 44.6643 54.4804 44.6643 54.4984V57.6288C44.6634 57.7853 44.526 57.9113 44.3561 57.9113ZM42.1024 57.3478H44.0479V54.712C43.8746 54.7574 43.6911 54.7817 43.5016 54.7817H42.1016L42.1024 57.3478ZM22.4683 57.3478H24.4146V54.7809H23.0146C22.8251 54.7809 22.6416 54.7566 22.4683 54.7112V57.3478ZM41.7951 54.2174H43.5024C44.2741 54.2174 44.9024 53.6422 44.9024 52.9339V46.673C44.9024 45.9671 44.2784 45.3927 43.5093 45.3896C43.5024 45.3888 43.499 45.3896 43.4948 45.3896H23.0215C23.018 45.3896 23.0121 45.3896 23.0078 45.3896C22.2395 45.3927 21.6146 45.9671 21.6146 46.673V52.9339C21.6146 53.6414 22.2429 54.2174 23.0146 54.2174H41.7951ZM23.4278 44.8261H43.0901L41.2249 39.1287H25.2922L23.4278 44.8261ZM25.4766 38.5652H41.0405L40.8296 37.9203C40.7605 37.7098 40.5454 37.5627 40.3063 37.5627H26.2107C25.9674 37.5627 25.7574 37.7067 25.6874 37.9203L25.4766 38.5652ZM40.9415 50.8678C39.83 50.8678 38.9268 50.039 38.9268 49.0209C38.9268 48.0027 39.8309 47.1739 40.9415 47.1739C42.0521 47.1739 42.9561 48.0019 42.9561 49.0209C42.9561 50.0398 42.0529 50.8678 40.9415 50.8678ZM40.9415 47.7374C40.1698 47.7374 39.5415 48.3126 39.5415 49.0209C39.5415 49.7291 40.1689 50.3043 40.9415 50.3043C41.714 50.3043 42.3415 49.7291 42.3415 49.0209C42.3415 48.3126 41.7132 47.7374 40.9415 47.7374ZM25.5756 50.8678C24.465 50.8678 23.561 50.039 23.561 49.0209C23.561 48.0027 24.465 47.1739 25.5756 47.1739C26.6862 47.1739 27.5902 48.0019 27.5902 49.0209C27.5902 50.0398 26.6862 50.8678 25.5756 50.8678ZM25.5756 47.7374C24.8039 47.7374 24.1756 48.3126 24.1756 49.0209C24.1756 49.7291 24.8039 50.3043 25.5756 50.3043C26.3473 50.3043 26.9756 49.7283 26.9756 49.0209C26.9756 48.3134 26.3473 47.7374 25.5756 47.7374ZM45.2098 53.2157H21.3073V52.6522H45.2098V53.2157ZM37.5268 50.0852H28.9902V49.5217H37.5268V50.0852ZM37.5268 48.52H28.9902V47.9565H33.2585H37.5268V48.52ZM44.6634 43.5426H44.0488V41.1948H44.6643L44.6634 43.5426ZM22.4683 43.5426H21.8537V41.1948H22.4683V43.5426Z" fill="black"/>
<path d="M38.9886 42.5654H52.4143V64.8263H34.6582V51.6089L36.0241 50.2176L38.9886 42.5654Z" fill="#DE274C"/>
<path d="M58.0143 63.4767H55.4533C55.2834 63.4767 55.146 63.3507 55.146 63.195V60.3463H38.6875V63.195C38.6875 63.3507 38.55 63.4767 38.3802 63.4767H35.8192C35.6493 63.4767 35.5119 63.3507 35.5119 63.195V60.0646C35.5119 60.0466 35.5136 60.0286 35.517 60.0121C34.998 59.6772 34.6582 59.1239 34.6582 58.4993V52.2385C34.6582 51.2923 35.4384 50.5097 36.4398 50.404L38.7566 43.3246C38.9052 42.8706 39.3525 42.5654 39.8689 42.5654H53.9645C54.481 42.5654 54.9283 42.8706 55.0769 43.3238L57.3937 50.4033C58.3959 50.5089 59.1761 51.2915 59.1761 52.2377V58.4986C59.1761 59.1231 58.8364 59.6764 58.3165 60.0113C58.3199 60.0278 58.3225 60.0458 58.3225 60.0638V63.1942C58.3216 63.3507 58.1842 63.4767 58.0143 63.4767ZM55.7606 62.9133H57.7061V60.2774C57.5328 60.3228 57.3493 60.3471 57.1598 60.3471H55.7598L55.7606 62.9133ZM36.1265 62.9133H38.0728V60.3463H36.6728C36.4833 60.3463 36.2998 60.322 36.1265 60.2766V62.9133ZM55.4533 59.7828H57.1606C57.9323 59.7828 58.5606 59.2076 58.5606 58.4993V52.2385C58.5606 51.5326 57.9366 50.9581 57.1675 50.955C57.1606 50.9542 57.1572 50.955 57.153 50.955H36.6797C36.6763 50.955 36.6703 50.955 36.666 50.955C35.8977 50.9581 35.2728 51.5326 35.2728 52.2385V58.4993C35.2728 59.2068 35.9011 59.7828 36.6728 59.7828H55.4533ZM37.086 50.3915H56.7483L54.8831 44.6941H38.9504L37.086 50.3915ZM39.1348 44.1306H54.6987L54.4878 43.4858C54.4187 43.2753 54.2036 43.1281 53.9645 43.1281H39.8689C39.6256 43.1281 39.4156 43.2721 39.3456 43.4858L39.1348 44.1306ZM54.5997 56.4333C53.4882 56.4333 52.585 55.6045 52.585 54.5863C52.585 53.5681 53.4891 52.7393 54.5997 52.7393C55.7103 52.7393 56.6143 53.5673 56.6143 54.5863C56.6143 55.6053 55.7111 56.4333 54.5997 56.4333ZM54.5997 53.3028C53.828 53.3028 53.1997 53.878 53.1997 54.5863C53.1997 55.2946 53.8271 55.8698 54.5997 55.8698C55.3722 55.8698 55.9997 55.2946 55.9997 54.5863C55.9997 53.878 55.3714 53.3028 54.5997 53.3028ZM39.2338 56.4333C38.1232 56.4333 37.2192 55.6045 37.2192 54.5863C37.2192 53.5681 38.1232 52.7393 39.2338 52.7393C40.3444 52.7393 41.2484 53.5673 41.2484 54.5863C41.2484 55.6053 40.3444 56.4333 39.2338 56.4333ZM39.2338 53.3028C38.4621 53.3028 37.8338 53.878 37.8338 54.5863C37.8338 55.2946 38.4621 55.8698 39.2338 55.8698C40.0055 55.8698 40.6338 55.2938 40.6338 54.5863C40.6338 53.8788 40.0055 53.3028 39.2338 53.3028ZM52.0387 49.3898C51.9465 49.3898 51.8543 49.3514 51.7937 49.2779L49.2327 46.1756C49.1303 46.0512 49.1567 45.8751 49.2925 45.7812C49.4248 45.6873 49.6186 45.71 49.7227 45.836L52.2837 48.9382C52.3861 49.0626 52.3597 49.2387 52.2239 49.3326C52.1684 49.371 52.1036 49.3898 52.0387 49.3898ZM52.8923 47.9654C52.7993 47.9654 52.7063 47.9263 52.6465 47.852L50.9392 45.7546C50.8376 45.6301 50.8649 45.4533 51.0015 45.3601C51.1364 45.2678 51.3293 45.292 51.4309 45.4173L53.1382 47.5146C53.2398 47.6391 53.2125 47.816 53.0759 47.9091C53.0204 47.9474 52.9564 47.9654 52.8923 47.9654ZM58.868 58.7811H34.9655V58.2176H58.868V58.7811ZM51.185 55.6506H42.6484V55.0872H51.185V55.6506ZM51.185 54.0854H42.6484V53.522H46.9167H51.185V54.0854ZM58.3216 49.108H57.707V46.7602H58.3225L58.3216 49.108Z" fill="black"/>
<path d="M54.0139 45.3477H67.4397V67.6085H49.6836V54.3911L51.0494 52.9998L54.0139 45.3477Z" fill="#DE274C"/>
<path d="M73.0397 66.259H70.4787C70.3088 66.259 70.1714 66.133 70.1714 65.9772V63.1285H53.7129V65.9772C53.7129 66.133 53.5754 66.259 53.4055 66.259H50.8446C50.6747 66.259 50.5373 66.133 50.5373 65.9772V62.8468C50.5373 62.8288 50.539 62.8108 50.5424 62.7944C50.0233 62.4594 49.6836 61.9061 49.6836 61.2816V55.0207C49.6836 54.0745 50.4638 53.2919 51.4652 53.1863L53.782 46.1068C53.9305 45.6529 54.3779 45.3477 54.8943 45.3477H68.9899C69.5064 45.3477 69.9537 45.6529 70.1023 46.106L72.4191 53.1855C73.4213 53.2911 74.2015 54.0737 74.2015 55.0199V61.2808C74.2015 61.9053 73.8618 62.4586 73.3419 62.7936C73.3453 62.81 73.3479 62.828 73.3479 62.846V65.9764C73.347 66.133 73.2096 66.259 73.0397 66.259ZM70.786 65.6955H72.7315V63.0597C72.5582 63.105 72.3747 63.1293 72.1852 63.1293H70.7852L70.786 65.6955ZM51.1519 65.6955H53.0982V63.1285H51.6982C51.5087 63.1285 51.3252 63.1043 51.1519 63.0589V65.6955ZM70.4787 62.565H72.186C72.9577 62.565 73.586 61.9898 73.586 61.2816V55.0207C73.586 54.3148 72.962 53.7404 72.1929 53.7372C72.186 53.7364 72.1826 53.7372 72.1783 53.7372H51.7051C51.7016 53.7372 51.6957 53.7372 51.6914 53.7372C50.9231 53.7404 50.2982 54.3148 50.2982 55.0207V61.2816C50.2982 61.989 50.9265 62.565 51.6982 62.565H70.4787ZM52.1114 53.1737H71.7737L69.9085 47.4764H53.9758L52.1114 53.1737ZM54.1602 46.9129H69.7241L69.5132 46.268C69.4441 46.0575 69.229 45.9104 68.9899 45.9104H54.8943C54.651 45.9104 54.441 46.0544 54.371 46.268L54.1602 46.9129ZM69.6251 59.2155C68.5136 59.2155 67.6104 58.3867 67.6104 57.3685C67.6104 56.3504 68.5144 55.5216 69.6251 55.5216C70.7357 55.5216 71.6397 56.3496 71.6397 57.3685C71.6397 58.3875 70.7365 59.2155 69.6251 59.2155ZM69.6251 56.085C68.8533 56.085 68.2251 56.6603 68.2251 57.3685C68.2251 58.0768 68.8525 58.652 69.6251 58.652C70.3976 58.652 71.0251 58.0768 71.0251 57.3685C71.0251 56.6603 70.3968 56.085 69.6251 56.085ZM54.2592 59.2155C53.1486 59.2155 52.2446 58.3867 52.2446 57.3685C52.2446 56.3504 53.1486 55.5216 54.2592 55.5216C55.3698 55.5216 56.2738 56.3496 56.2738 57.3685C56.2738 58.3875 55.3698 59.2155 54.2592 59.2155ZM54.2592 56.085C53.4875 56.085 52.8592 56.6603 52.8592 57.3685C52.8592 58.0768 53.4875 58.652 54.2592 58.652C55.0309 58.652 55.6592 58.076 55.6592 57.3685C55.6592 56.661 55.0309 56.085 54.2592 56.085ZM67.0641 52.172C66.9719 52.172 66.8797 52.1337 66.8191 52.0601L64.2581 48.9578C64.1557 48.8334 64.1821 48.6573 64.3179 48.5634C64.4502 48.4695 64.644 48.4922 64.7481 48.6182L67.3091 51.7204C67.4115 51.8449 67.3851 52.021 67.2493 52.1149C67.1938 52.1532 67.129 52.172 67.0641 52.172ZM67.9177 50.7477C67.8247 50.7477 67.7316 50.7085 67.6719 50.6342L65.9646 48.5368C65.863 48.4124 65.8903 48.2355 66.0269 48.1424C66.1618 48.05 66.3547 48.0743 66.4563 48.1995L68.1636 50.2969C68.2652 50.4213 68.2379 50.5982 68.1013 50.6913C68.0458 50.7297 67.9818 50.7477 67.9177 50.7477ZM73.8933 61.5633H49.9909V60.9998H73.8933V61.5633ZM66.2104 58.4329H57.6738V57.8694H66.2104V58.4329ZM66.2104 56.8677H57.6738V56.3042H66.2104V56.8677ZM73.347 51.8903H72.7324V49.5424H73.3479L73.347 51.8903ZM51.1519 51.8903H50.5373V49.5424H51.1519V51.8903Z" fill="black"/>
</svg>
