<svg width="98" height="286" viewBox="0 0 98 286" fill="none" xmlns="http://www.w3.org/2000/svg">
<path d="M49 43.6667C46.0545 43.6667 43.6667 46.0545 43.6667 49C43.6667 51.9455 46.0545 54.3333 49 54.3333C51.9455 54.3333 54.3333 51.9455 54.3333 49C54.3333 46.0545 51.9455 43.6667 49 43.6667ZM48 49L48 286H50L50 49H48Z" fill="black" fill-opacity="0.8"/>
<path d="M11.2129 90.7687L25.5242 53.1914H71.8251L86.1334 90.7687H11.2129Z" fill="#484746"/>
<path d="M0.390625 6.44626L21.7995 0.218018H75.5464L96.9553 6.44626H0.390625Z" fill="#484746"/>
<path d="M0 6.06396H97.3469L86.3689 91H10.9779L0 6.06396ZM86.1337 90.7687L96.9558 6.44946H0.391086L11.2132 90.7687H86.1306" fill="#252423"/>
<path d="M96.9553 6.44604L86.1332 90.7686H11.2127L0.390625 6.44604H96.9553Z" fill="#252423"/>
<path d="M0 6.06398L21.5953 0H75.7516L97.3469 6.06398H0Z" fill="#484746"/>
</svg>
