<svg width="98" height="286" viewBox="0 0 98 286" fill="none" xmlns="http://www.w3.org/2000/svg">
<path d="M49 43.6667C46.0545 43.6667 43.6667 46.0545 43.6667 49C43.6667 51.9455 46.0545 54.3333 49 54.3333C51.9455 54.3333 54.3333 51.9455 54.3333 49C54.3333 46.0545 51.9455 43.6667 49 43.6667ZM48 49L48 286H50L50 49H48Z" fill="black" fill-opacity="0.8"/>
<path d="M11.2109 90.7687L25.5222 53.1914H71.8232L86.1314 90.7687H11.2109Z" fill="#484746"/>
<path d="M0.390625 6.44601L21.7995 0.217773H75.5464L96.9553 6.44601H0.390625Z" fill="#484746"/>
<path d="M0 6.06445H97.3469L86.3689 91.0005H10.9779L0 6.06445ZM86.1337 90.7692L96.9558 6.44995H0.391086L11.2132 90.7692H86.1306" fill="#252423"/>
<path d="M96.9553 6.44629L86.1332 90.7689H11.2127L0.390625 6.44629H96.9553Z" fill="#252423"/>
<path d="M0 6.06398L21.5953 0H75.7516L97.3469 6.06398H0Z" fill="#484746"/>
<g clip-path="url(#clip0_966_7283)">
<path d="M54.1257 68.6937C53.9752 68.6937 53.8275 68.6248 53.7305 68.5025L48.1055 61.4712C47.9578 61.287 47.9578 61.024 48.1055 60.8398L53.7305 53.8086C53.8641 53.6398 54.0891 53.5737 54.293 53.6468C54.4969 53.7186 54.6319 53.9098 54.6319 54.125V56.4312H60.4552L56.0789 48.5351C56.0128 48.4184 55.9974 48.2792 56.0353 48.1512C56.0733 48.0232 56.1591 47.9136 56.2758 47.8475L63.6614 43.7539C63.7796 43.6892 63.9174 43.6737 64.0468 43.7103C64.1761 43.7468 64.2844 43.834 64.3505 43.9521L68.97 52.2968C69.5494 53.3445 69.5382 54.5975 68.9405 55.6479C68.9391 55.6493 68.9391 55.6493 68.9391 55.6493L64.1072 64.1909C63.5152 65.2357 62.4 65.884 61.1949 65.884C61.1907 65.884 61.1864 65.884 61.1822 65.884H54.6319V68.1875C54.6319 68.4026 54.4955 68.5939 54.293 68.6656C54.2382 68.6853 54.1819 68.6937 54.1257 68.6937ZM49.1489 61.1562L53.6194 66.7446V65.375C53.6194 65.0951 53.8458 64.8687 54.1257 64.8687H61.185C61.1879 64.8687 61.1921 64.8687 61.1949 64.8687C62.0499 64.8687 62.8093 64.43 63.2269 63.6889L66.8241 57.3312C66.5485 57.4057 66.2616 57.4451 65.9677 57.4451C65.9621 57.4451 65.955 57.4451 65.948 57.4451H54.1257C53.8458 57.4451 53.6194 57.2187 53.6194 56.9389V55.5692L49.1489 61.1562ZM61.6125 56.4312H65.9494C65.9536 56.4312 65.9593 56.4312 65.9635 56.4312C66.8199 56.4312 67.6004 55.9517 68.0588 55.1473C68.4877 54.395 68.4975 53.5329 68.0827 52.7862L63.7093 44.8831L57.2096 48.4859L61.6125 56.4312ZM45.6797 65.8812L36.1411 65.8756C34.9444 65.8742 33.8546 65.2582 33.2246 64.2261L28.096 55.8589C27.466 54.8309 27.4407 53.5357 28.0327 52.4782L31.208 46.7492L29.1928 45.6312C29.0044 45.5271 28.9032 45.3148 28.9383 45.1039C28.9749 44.8929 29.1408 44.7256 29.3518 44.6904L38.228 43.1787C38.4657 43.1379 38.6921 43.2659 38.7821 43.4853L42.2049 51.8131C42.2864 52.0128 42.2344 52.2406 42.0727 52.3826C41.9124 52.5275 41.6789 52.5528 41.4905 52.4473L39.4739 51.3293L36.6502 56.4228H45.6783C45.9582 56.4228 46.1846 56.6492 46.1846 56.929V65.375C46.1846 65.51 46.1311 65.6393 46.0369 65.7336C45.9427 65.8278 45.8133 65.8812 45.6797 65.8812ZM34.088 63.6987C34.5394 64.4384 35.2889 64.8631 36.1411 64.8631L45.1721 64.8687V57.4381H36.0905L33.9882 61.2307C33.5649 61.9817 33.6043 62.9028 34.088 63.6987ZM30.9464 45.4456L32.1432 46.1093C32.2599 46.174 32.3485 46.2837 32.385 46.4131C32.4216 46.5425 32.4061 46.6803 32.3414 46.797L28.9186 52.9718C28.4982 53.7214 28.515 54.6031 28.9608 55.3301L32.7774 61.5598C32.8477 61.2757 32.956 61.0001 33.1036 60.7371L38.8355 50.397C38.9002 50.2803 39.0099 50.1931 39.1393 50.1565C39.2686 50.12 39.4064 50.134 39.5232 50.2001L40.7213 50.8639L38.0016 44.2446L30.9464 45.4456ZM59.2135 44.592C59.1868 44.592 59.16 44.5906 59.1319 44.5864L50.243 43.1534C50.0321 43.1196 49.8633 42.9537 49.8253 42.7428C49.7874 42.5318 49.8872 42.3195 50.0743 42.2126L52.0824 41.0764L49.2136 36.0082L44.4971 43.7061C44.3508 43.9437 44.0386 44.0182 43.801 43.8734L36.601 39.4606C36.4857 39.3903 36.4041 39.2778 36.3732 39.147C36.3422 39.0162 36.3633 38.8784 36.4336 38.7645L41.423 30.635C42.0474 29.6168 43.14 29.0107 44.3466 29.0107C44.348 29.0107 44.3494 29.0107 44.3508 29.0107H54.1664C54.1678 29.0107 54.1693 29.0107 54.1707 29.0107C55.373 29.0107 56.4882 29.6661 57.0802 30.7221L60.3061 36.4231L62.3129 35.2868C62.4999 35.1814 62.7333 35.2053 62.8964 35.3459C63.0582 35.4879 63.1116 35.7157 63.0328 35.9154L59.6832 44.2728C59.6044 44.4682 59.4188 44.592 59.2135 44.592ZM51.8293 42.3828L58.8943 43.5218L61.5563 36.8801L60.3652 37.5537C60.2485 37.6198 60.1093 37.6353 59.9813 37.6001C59.8505 37.565 59.7408 37.4792 59.6747 37.3625L56.1985 31.2171C55.785 30.4789 55.0088 30.0218 54.1707 30.0218C54.1693 30.0218 54.1678 30.0218 54.1664 30.0218H46.861C47.0663 30.23 47.2435 30.4662 47.3911 30.7278L53.213 41.0173C53.3508 41.2606 53.265 41.57 53.0218 41.7078L51.8293 42.3828ZM37.5614 38.8615L43.898 42.7442L48.6441 35L46.508 31.2242C46.0875 30.4718 45.2803 30.0232 44.3494 30.0218C44.348 30.0218 44.348 30.0218 44.3466 30.0218C43.4818 30.0218 42.7308 30.4381 42.285 31.1637L37.5614 38.8615Z" fill="white"/>
</g>
<defs>
<clipPath id="clip0_966_7283">
<rect width="45" height="45" fill="white" transform="translate(26 26)"/>
</clipPath>
</defs>
</svg>
