<svg width="32" height="32" viewBox="0 0 32 32" fill="none" xmlns="http://www.w3.org/2000/svg">
<g clip-path="url(#clip0_2289_2142)">
<path d="M22.9141 16.5L25.707 13.707C25.7999 13.6142 25.8736 13.5039 25.9239 13.3826C25.9742 13.2613 26.0001 13.1313 26.0001 13C26.0001 12.8687 25.9742 12.7386 25.9239 12.6173C25.8736 12.496 25.7999 12.3858 25.707 12.293L23.4141 9.99997L25.5 7.91407L28.5859 11L30 9.58587L22.4141 1.99997L21 3.41407L24.0859 6.49997L22 8.58587L19.707 6.29297C19.6142 6.20008 19.504 6.12638 19.3827 6.0761C19.2614 6.02582 19.1314 5.99994 19 5.99994C18.8687 5.99994 18.7387 6.02582 18.6174 6.0761C18.4961 6.12638 18.3858 6.20008 18.293 6.29297L15.5 9.08587L8.70704 2.29297C8.61422 2.20008 8.50401 2.12638 8.3827 2.0761C8.26138 2.02582 8.13135 1.99994 8.00004 1.99994C7.86872 1.99994 7.73869 2.02582 7.61737 2.0761C7.49606 2.12638 7.38585 2.20008 7.29304 2.29297L2.29304 7.29297C2.20014 7.38579 2.12644 7.496 2.07616 7.61731C2.02588 7.73862 2 7.86866 2 7.99997C2 8.13129 2.02588 8.26132 2.07616 8.38264C2.12644 8.50395 2.20014 8.61416 2.29304 8.70697L9.08594 15.5L6.29304 18.293C6.20014 18.3858 6.12644 18.496 6.07616 18.6173C6.02588 18.7386 6 18.8687 6 19C6 19.1313 6.02588 19.2613 6.07616 19.3826C6.12644 19.5039 6.20014 19.6142 6.29304 19.707L8.58594 22L6.50004 24.0859L3.41414 21L2.00004 22.4141L9.58594 30L11 28.5859L7.91414 25.5L10 23.4141L12.293 25.707C12.3859 25.7999 12.4961 25.8735 12.6174 25.9238C12.7387 25.9741 12.8687 26 13 26C13.1314 26 13.2614 25.9741 13.3827 25.9238C13.504 25.8735 13.6142 25.7999 13.707 25.707L16.5 22.9141L23.293 29.707C23.3859 29.7999 23.4961 29.8735 23.6174 29.9238C23.7387 29.9741 23.8687 30 24 30C24.1313 30 24.2614 29.9741 24.3827 29.9238C24.504 29.8735 24.6142 29.7999 24.707 29.707L29.707 24.707C29.7999 24.6142 29.8736 24.5039 29.9239 24.3826C29.9742 24.2613 30.0001 24.1313 30.0001 24C30.0001 23.8687 29.9742 23.7386 29.9239 23.6173C29.8736 23.496 29.7999 23.3858 29.707 23.293L22.9141 16.5ZM4.41414 7.99997L8.00004 4.41407L10.0859 6.49997L6.50004 10.0859L4.41414 7.99997ZM7.91414 11.5L11.5 7.91407L14.0859 10.5L10.5 14.0859L7.91414 11.5ZM13 23.5859L8.41413 19L19 8.41407L23.5859 13L13 23.5859ZM17.9141 21.5L21.5 17.9141L24.0859 20.5L20.5 24.0859L17.9141 21.5ZM24 27.5859L21.9141 25.5L25.5 21.9141L27.5859 24L24 27.5859Z" fill="white"/>
</g>
<defs>
<clipPath id="clip0_2289_2142">
<rect width="32" height="32" fill="white"/>
</clipPath>
</defs>
</svg>
