<svg width="98" height="286" viewBox="0 0 98 286" fill="none" xmlns="http://www.w3.org/2000/svg">
<path d="M49.1719 43.6667C46.2264 43.6667 43.8385 46.0545 43.8385 49C43.8385 51.9455 46.2264 54.3333 49.1719 54.3333C52.1174 54.3333 54.5052 51.9455 54.5052 49C54.5052 46.0545 52.1174 43.6667 49.1719 43.6667ZM48.1719 49L48.1719 286H50.1719L50.1719 49H48.1719Z" fill="black" fill-opacity="0.8"/>
<path d="M11.2109 90.7687L25.5222 53.1914H71.8232L86.1314 90.7687H11.2109Z" fill="#484746"/>
<path d="M0.390625 6.44601L21.7995 0.217773H75.5464L96.9553 6.44601H0.390625Z" fill="#484746"/>
<path d="M0 6.06396H97.3469L86.3689 91H10.9779L0 6.06396ZM86.1337 90.7687L96.9558 6.44946H0.391086L11.2132 90.7687H86.1306" fill="#E0E0E0"/>
<path d="M96.9553 6.44629L86.1332 90.7689H11.2127L0.390625 6.44629H96.9553Z" fill="#E0E0E0"/>
<path d="M0 6.06398L21.5953 0H75.7516L97.3469 6.06398H0Z" fill="white"/>
<path d="M57.7077 72.6001H36.296C35.8736 72.6001 35.5312 72.9583 35.5312 73.4001C35.5312 73.8419 35.8736 74.2001 36.296 74.2001H57.7077C58.1301 74.2001 58.4724 73.8419 58.4724 73.4001C58.4724 72.9583 58.1301 72.6001 57.7077 72.6001Z" fill="black" stroke="black" stroke-width="0.5"/>
<path d="M58.4708 60.6003C58.4708 60.1585 58.1284 59.8003 57.7061 59.8003C57.2838 59.8003 56.9414 60.1585 56.9414 60.6003V71.8003C56.9414 72.2421 57.2838 72.6003 57.7061 72.6003C58.1284 72.6003 58.4708 72.2421 58.4708 71.8003V60.6003Z" fill="#E0E0E0" stroke="black" stroke-width="0.5"/>
<path d="M37.0586 75.0001C37.0586 73.6747 38.0857 72.6001 39.3527 72.6001C40.6197 72.6001 41.6468 73.6747 41.6468 75.0001C41.6468 76.3255 40.6197 77.4001 39.3527 77.4001C38.0857 77.4001 37.0586 76.3255 37.0586 75.0001Z" fill="#E0E0E0" stroke="black" stroke-width="0.5"/>
<path d="M55.4102 75.0001C55.4102 73.6747 56.4373 72.6001 57.7043 72.6001C58.9712 72.6001 59.9984 73.6747 59.9984 75.0001C59.9984 76.3255 58.9712 77.4001 57.7043 77.4001C56.4373 77.4001 55.4102 76.3255 55.4102 75.0001Z" fill="#E0E0E0" stroke="black" stroke-width="0.5"/>
<path d="M56.9414 51.0002C56.9414 50.5584 57.2838 50.2002 57.7061 50.2002C58.1284 50.2002 58.4708 50.5584 58.4708 51.0002C58.4708 51.442 58.1284 51.8002 57.7061 51.8002C57.2838 51.8002 56.9414 51.442 56.9414 51.0002Z" fill="#E0E0E0" stroke="black" stroke-width="0.5"/>
<path d="M58.0898 59.3999V51.9531" stroke="black" stroke-width="0.5" stroke-linecap="round"/>
<g clip-path="url(#clip0_959_3555)">
<path d="M53.663 36.5236C53.1264 36.5264 52.5972 36.6552 52.1145 36.9006C51.6318 37.1459 51.208 37.5015 50.8742 37.9411L45.6336 34.5136C45.8246 33.8687 45.8246 33.1785 45.6336 32.5336L50.8742 29.1061C51.4061 29.7951 52.154 30.265 52.9853 30.4324C53.8166 30.5998 54.6778 30.454 55.4162 30.0208C56.1546 29.5876 56.7226 28.895 57.0196 28.0656C57.3166 27.2362 57.3235 26.3236 57.0389 25.4895C56.7543 24.6553 56.1967 23.9535 55.4648 23.5083C54.733 23.063 53.8741 22.9032 53.0404 23.057C52.2066 23.2108 51.4519 23.6684 50.9097 24.3486C50.3676 25.0289 50.0731 25.8879 50.0784 26.7736C50.0818 27.109 50.1301 27.4422 50.2218 27.7636L44.9812 31.1911C44.5185 30.5818 43.8861 30.1381 43.1717 29.9216C42.4572 29.7051 41.696 29.7265 40.9937 29.9829C40.2914 30.2392 39.6827 30.7177 39.252 31.3521C38.8212 31.9865 38.5898 32.7454 38.5898 33.5236C38.5898 34.3018 38.8212 35.0606 39.252 35.6951C39.6827 36.3295 40.2914 36.808 40.9937 37.0643C41.696 37.3206 42.4572 37.342 43.1717 37.1255C43.8861 36.9091 44.5185 36.4654 44.9812 35.8561L50.2218 39.2836C50.1301 39.605 50.0818 39.9382 50.0784 40.2736C50.0784 41.0153 50.2886 41.7403 50.6825 42.357C51.0764 42.9737 51.6362 43.4543 52.2912 43.7381C52.9462 44.022 53.667 44.0962 54.3623 43.9515C55.0576 43.8068 55.6963 43.4497 56.1976 42.9252C56.6989 42.4008 57.0403 41.7326 57.1787 41.0052C57.317 40.2778 57.246 39.5238 56.9747 38.8385C56.7034 38.1533 56.2439 37.5676 55.6544 37.1556C55.065 36.7435 54.3719 36.5236 53.663 36.5236ZM53.663 24.5236C54.0883 24.5236 54.5042 24.6556 54.8579 24.9028C55.2115 25.15 55.4872 25.5014 55.65 25.9126C55.8128 26.3237 55.8554 26.7761 55.7724 27.2125C55.6894 27.649 55.4846 28.0499 55.1838 28.3646C54.883 28.6792 54.4998 28.8935 54.0826 28.9804C53.6654 29.0672 53.2329 29.0226 52.8399 28.8523C52.4469 28.682 52.111 28.3936 51.8747 28.0236C51.6384 27.6536 51.5122 27.2186 51.5122 26.7736C51.5122 26.1769 51.7388 25.6046 52.1422 25.1826C52.5455 24.7606 53.0926 24.5236 53.663 24.5236ZM42.1924 35.7736C41.767 35.7736 41.3512 35.6416 40.9975 35.3944C40.6438 35.1472 40.3682 34.7958 40.2054 34.3846C40.0426 33.9735 40 33.5211 40.083 33.0846C40.166 32.6482 40.3708 32.2473 40.6716 31.9326C40.9724 31.6179 41.3556 31.4036 41.7728 31.3168C42.19 31.23 42.6224 31.2746 43.0154 31.4449C43.4084 31.6152 43.7443 31.9035 43.9807 32.2736C44.217 32.6436 44.3431 33.0786 44.3431 33.5236C44.3431 34.1203 44.1165 34.6926 43.7132 35.1146C43.3098 35.5365 42.7628 35.7736 42.1924 35.7736ZM53.663 42.5236C53.2376 42.5236 52.8218 42.3916 52.4681 42.1444C52.1144 41.8972 51.8387 41.5458 51.676 41.1346C51.5132 40.7235 51.4706 40.2711 51.5536 39.8346C51.6366 39.3982 51.8414 38.9973 52.1422 38.6826C52.443 38.3679 52.8262 38.1536 53.2434 38.0668C53.6606 37.98 54.093 38.0246 54.486 38.1949C54.879 38.3652 55.2149 38.6535 55.4512 39.0236C55.6876 39.3936 55.8137 39.8286 55.8137 40.2736C55.8137 40.8703 55.5871 41.4426 55.1838 41.8646C54.7804 42.2865 54.2334 42.5236 53.663 42.5236Z" fill="black"/>
</g>
<defs>
<clipPath id="clip0_959_3555">
<rect width="22.9412" height="24" fill="white" transform="translate(37.0586 23)"/>
</clipPath>
</defs>
</svg>
