<svg width="25" height="25" viewBox="0 0 25 25" fill="none" xmlns="http://www.w3.org/2000/svg">
<g clip-path="url(#clip0_1656_235)">
<path d="M22.6566 21.5515L16.7565 15.6514C18.1742 13.9493 18.8812 11.7662 18.7303 9.55619C18.5795 7.34615 17.5824 5.27936 15.9465 3.78576C14.3105 2.29216 12.1618 1.48675 9.94719 1.53708C7.73258 1.5874 5.62263 2.48959 4.05626 4.05595C2.48989 5.62232 1.58771 7.73228 1.53738 9.94688C1.48706 12.1615 2.29247 14.3102 3.78607 15.9461C5.27967 17.5821 7.34646 18.5792 9.55649 18.73C11.7665 18.8809 13.9497 18.1739 15.6517 16.7562L21.5518 22.6563L22.6566 21.5515ZM3.12531 10.1563C3.12531 8.7656 3.53768 7.40618 4.31029 6.2499C5.08289 5.09362 6.18102 4.1924 7.46581 3.66022C8.75061 3.12805 10.1644 2.9888 11.5283 3.26011C12.8922 3.53141 14.1451 4.20107 15.1284 5.18441C16.1117 6.16775 16.7814 7.42059 17.0527 8.78452C17.324 10.1485 17.1848 11.5622 16.6526 12.847C16.1204 14.1318 15.2192 15.2299 14.0629 16.0025C12.9066 16.7751 11.5472 17.1875 10.1566 17.1875C8.29239 17.1854 6.50516 16.444 5.187 15.1258C3.86883 13.8076 3.12737 12.0204 3.12531 10.1563Z" fill="black"/>
</g>
<defs>
<clipPath id="clip0_1656_235">
<rect width="25" height="25" rx="10" fill="white"/>
</clipPath>
</defs>
</svg>
