<svg width="98" height="286" viewBox="0 0 98 286" fill="none" xmlns="http://www.w3.org/2000/svg">
<path d="M49 43.6667C46.0545 43.6667 43.6667 46.0545 43.6667 49C43.6667 51.9455 46.0545 54.3333 49 54.3333C51.9455 54.3333 54.3333 51.9455 54.3333 49C54.3333 46.0545 51.9455 43.6667 49 43.6667ZM48 49L48 286H50L50 49H48Z" fill="black" fill-opacity="0.8"/>
<path d="M11.2129 90.7687L25.5242 53.1914H71.8251L86.1334 90.7687H11.2129Z" fill="#484746"/>
<path d="M0.390625 6.44601L21.7995 0.217773H75.5464L96.9553 6.44601H0.390625Z" fill="#484746"/>
<path d="M0 6.06445H97.3469L86.3689 91.0005H10.9779L0 6.06445ZM86.1337 90.7692L96.9558 6.44995H0.391086L11.2132 90.7692H86.1306" fill="#252423"/>
<path d="M96.9553 6.44629L86.1332 90.7689H11.2127L0.390625 6.44629H96.9553Z" fill="#252423"/>
<path d="M0 6.06398L21.5953 0H75.7516L97.3469 6.06398H0Z" fill="#484746"/>
<path d="M64.7504 45.697C64.7504 54.1646 57.7073 61.0439 49.0004 61.0439C40.2935 61.0439 33.2504 54.1646 33.2504 45.697C33.2504 37.2294 40.2935 30.35 49.0004 30.35C57.7073 30.35 64.7504 37.2294 64.7504 45.697Z" stroke="white" stroke-width="0.7"/>
<path d="M44.9758 55.2277C42.6291 54.2041 40.0232 53.1478 38.8232 50.9312C37.6232 48.7145 37.2195 46.1698 37.6768 43.7033C38.1341 41.2368 39.4258 38.9908 41.3458 37.3239C43.2658 35.6571 45.7032 34.6656 48.2689 34.5077C50.8346 34.3497 53.3806 35.0346 55.5004 36.4528C57.6201 37.871 59.1913 39.9408 59.963 42.3316C60.7348 44.7225 60.6626 47.2965 59.758 49.6427C58.8534 51.9889 55.7968 53.9245 53.6008 55.2277" stroke="white" stroke-width="0.7"/>
<path d="M44.4004 54.667V67.0003" stroke="white" stroke-width="0.7"/>
<line x1="53.9496" y1="54.667" x2="53.9496" y2="67.0003" stroke="white" stroke-width="0.7"/>
<path d="M44.7773 54.667H53.6V67.0003H44.7773V54.667Z" fill="#252423"/>
<path d="M47.8492 60.2731L47.8492 62.5155M50.5535 63.6367L50.5535 65.8792M50.5535 58.0307L50.5535 60.2731M46.6992 55.7883L46.6992 58.0307M45.5492 64.1974L45.5492 66.4398M51.2992 54.1064L51.2992 56.3489M52.4492 60.8337L52.4492 63.0761" stroke="white" stroke-width="0.7"/>
<path d="M61.0742 55.7881H71.9992" stroke="white" stroke-width="0.7"/>
<path d="M26 55.7881H36.925" stroke="white" stroke-width="0.7"/>
<path d="M61.0742 35.6064H71.9992" stroke="white" stroke-width="0.7"/>
<path d="M26 35.6064H36.925" stroke="white" stroke-width="0.7"/>
</svg>
