<svg width="98" height="286" viewBox="0 0 98 286" fill="none" xmlns="http://www.w3.org/2000/svg">
<path d="M49.1719 43.6667C46.2264 43.6667 43.8385 46.0545 43.8385 49C43.8385 51.9455 46.2264 54.3333 49.1719 54.3333C52.1174 54.3333 54.5052 51.9455 54.5052 49C54.5052 46.0545 52.1174 43.6667 49.1719 43.6667ZM48.1719 49L48.1719 286H50.1719L50.1719 49H48.1719Z" fill="black" fill-opacity="0.8"/>
<path d="M11.2129 90.7687L25.5242 53.1914H71.8251L86.1334 90.7687H11.2129Z" fill="#484746"/>
<path d="M0.390625 6.44601L21.7995 0.217773H75.5464L96.9553 6.44601H0.390625Z" fill="#484746"/>
<path d="M0 6.06445H97.3469L86.3689 91.0005H10.9779L0 6.06445ZM86.1337 90.7692L96.9558 6.44995H0.391086L11.2132 90.7692H86.1306" fill="#E0E0E0"/>
<path d="M96.9553 6.44629L86.1332 90.7689H11.2127L0.390625 6.44629H96.9553Z" fill="#E0E0E0"/>
<path d="M0 6.06398L21.5953 0H75.7516L97.3469 6.06398H0Z" fill="white"/>
<g clip-path="url(#clip0_2094_2090)">
<path d="M48.9977 25.9602C49.0936 25.9602 49.1896 25.9872 49.2751 26.0382C49.5916 26.2272 57.0371 30.7659 57.0371 36.9995L57.0371 66.9974C57.0371 67.1039 57.0056 67.2089 56.9456 67.2974L53.9458 71.7971C53.8468 71.9471 53.6788 72.0371 53.4973 72.0371H44.498C44.318 72.0371 44.15 71.9471 44.048 71.7971L41.0482 67.2974C40.9897 67.2089 40.9582 67.1039 40.9582 66.9974V36.9995C40.9582 30.7659 48.4037 26.2272 48.7202 26.0367C48.8057 25.9857 48.9017 25.9602 48.9977 25.9602ZM55.9572 39.4593V36.9995C55.9572 32.0183 50.3266 28.0166 48.9977 27.1406C47.6687 28.0166 42.0381 32.0183 42.0381 36.9995V39.4593H55.9572ZM43.958 40.5392H42.0396V45.4589H43.958V40.5392ZM46.9578 40.5392H45.0394V51.4585H46.9578V40.5392ZM49.9576 40.5392H48.0377V45.4589H49.9576L49.9576 40.5392ZM52.9574 40.5392H51.0375L51.0375 45.4589H52.9574L52.9574 40.5392ZM55.9572 40.5392H54.0373L54.0373 51.4585H55.9572L55.9572 40.5392ZM43.958 46.5388H42.0396V63.4577H43.958V46.5388ZM49.9576 46.5388H48.0377V57.4581H49.9576V46.5388ZM52.9574 46.5388H51.0375V51.4585H52.9574V46.5388ZM46.9578 52.5384H45.0394V57.4581H46.9578V52.5384ZM52.9574 52.5384H51.0375V63.4577H52.9574V52.5384ZM55.9572 52.5384H54.0373V57.4581H55.9572V52.5384ZM46.9578 58.538H45.0394V63.4577H46.9578V58.538ZM49.9576 58.538H48.0377V63.4577H49.9576V58.538ZM55.9572 58.538H54.0373V63.4577H55.9572V58.538ZM55.9572 64.5376H42.0381V66.834L44.7859 70.9572H45.4579V68.4973C45.4579 68.1989 45.6994 67.9574 45.9979 67.9574H51.9974C52.2959 67.9574 52.5374 68.1989 52.5374 68.4973V70.9572H53.2079L55.9572 66.834V64.5376ZM51.4575 69.0373H46.5378V70.9572H51.4575V69.0373ZM46.7478 33.4597H51.2475C51.546 33.4597 51.7875 33.7012 51.7875 33.9997V34.9596H53.4973V36.0395H51.7875V36.9995C51.7875 37.298 51.546 37.5394 51.2475 37.5394H46.7478C46.4493 37.5394 46.2078 37.298 46.2078 36.9995V36.0395H44.498V34.9581H46.2078V33.9997C46.2078 33.7012 46.4493 33.4597 46.7478 33.4597ZM50.7075 34.5396H47.2878V36.4595H50.7075V34.5396Z" fill="black"/>
</g>
<defs>
<clipPath id="clip0_2094_2090">
<rect width="47.9968" height="47.9968" fill="white" transform="matrix(-1 0 0 -1 72.9961 72.9971)"/>
</clipPath>
</defs>
</svg>
