<svg width="98" height="286" viewBox="0 0 98 286" fill="none" xmlns="http://www.w3.org/2000/svg">
<path d="M49 43.6667C46.0545 43.6667 43.6667 46.0545 43.6667 49C43.6667 51.9455 46.0545 54.3333 49 54.3333C51.9455 54.3333 54.3333 51.9455 54.3333 49C54.3333 46.0545 51.9455 43.6667 49 43.6667ZM48 49L48 286H50L50 49H48Z" fill="black" fill-opacity="0.8"/>
<path d="M11.2129 90.7687L25.5242 53.1914H71.8251L86.1334 90.7687H11.2129Z" fill="#484746"/>
<path d="M0.390625 6.44699L21.7995 0.21875H75.5464L96.9553 6.44699H0.390625Z" fill="#484746"/>
<path d="M0 6.06445H97.3469L86.3689 91.0005H10.9779L0 6.06445ZM86.1337 90.7692L96.9558 6.44995H0.391086L11.2132 90.7692H86.1306" fill="#252423"/>
<path d="M96.9553 6.44531L86.1332 90.7679H11.2127L0.390625 6.44531H96.9553Z" fill="#252423"/>
<path d="M0 6.06398L21.5953 0H75.7516L97.3469 6.06398H0Z" fill="#484746"/>
<g clip-path="url(#clip0_966_6698)">
<path d="M42.4373 71.8473C37.1112 71.8473 32.7773 67.5135 32.7773 62.1873C32.7773 56.8612 37.1112 52.5273 42.4373 52.5273V53.4723C37.6323 53.4723 33.7223 57.3823 33.7223 62.1873C33.7223 66.9924 37.6323 70.9023 42.4373 70.9023C47.2424 70.9023 51.1523 66.9924 51.1523 62.1873H52.0987C52.0973 67.5148 47.7635 71.8473 42.4373 71.8473ZM59.4998 69.2223C59.4644 69.2223 59.4263 69.2171 59.3922 69.2092C59.2636 69.179 59.1547 69.0977 59.0903 68.9835L54.2183 60.4811C54.07 60.2225 53.7918 60.0598 53.4912 60.0598L45.527 60.044C44.4363 60.0414 43.4493 59.4836 42.8836 58.5517C42.3179 57.6198 42.2812 56.4858 42.7825 55.5185L47.2726 46.8626C47.5325 46.4163 47.8278 45.9701 48.1887 45.596H42.73L40.235 50.5848L39.3897 50.1622L42.0147 44.9122C42.0948 44.7534 42.2588 44.6523 42.4373 44.6523H50.3123C51.9477 44.6523 52.5265 45.491 52.9058 46.398L54.6961 52.5273H60.9042V53.4723H54.3417C54.1317 53.4723 53.9467 53.3345 53.8876 53.1324L52.0147 46.713C51.7023 45.974 51.3597 45.5973 50.311 45.5973C49.3109 45.5973 48.7032 46.2864 48.0982 47.3193L43.6199 55.9556C43.2708 56.6276 43.297 57.4138 43.6908 58.0608C44.0832 58.7092 44.7697 59.0964 45.527 59.0977L53.4925 59.1135C54.1291 59.1161 54.721 59.46 55.0373 60.0125L59.6587 68.0765L63.1762 65.7324L63.6985 66.5199L59.761 69.1449C59.6836 69.1948 59.5917 69.2223 59.4998 69.2223ZM52.9373 42.9723C50.8675 42.9723 49.1836 41.2884 49.1836 39.2186C49.1836 37.1488 50.8675 35.4648 52.9373 35.4648C55.0072 35.4648 56.6911 37.1488 56.6911 39.2186C56.6911 41.2884 55.0072 42.9723 52.9373 42.9723ZM52.9373 36.4098C51.3886 36.4098 50.1286 37.6698 50.1286 39.2186C50.1286 40.7673 51.3886 42.0273 52.9373 42.0273C54.4861 42.0273 55.7461 40.7673 55.7461 39.2186C55.7461 37.6698 54.4861 36.4098 52.9373 36.4098Z" fill="white"/>
</g>
<defs>
<clipPath id="clip0_966_6698">
<rect width="42" height="42" fill="white" transform="translate(28 32)"/>
</clipPath>
</defs>
</svg>
