<svg width="98" height="286" viewBox="0 0 98 286" fill="none" xmlns="http://www.w3.org/2000/svg">
<path d="M49 43.6667C46.0545 43.6667 43.6667 46.0545 43.6667 49C43.6667 51.9455 46.0545 54.3333 49 54.3333C51.9455 54.3333 54.3333 51.9455 54.3333 49C54.3333 46.0545 51.9455 43.6667 49 43.6667ZM48 49L48 286H50L50 49H48Z" fill="black" fill-opacity="0.8"/>
<path d="M11.2129 90.7687L25.5242 53.1914H71.8251L86.1334 90.7687H11.2129Z" fill="#484746"/>
<path d="M0.390625 6.44601L21.7995 0.217773H75.5464L96.9553 6.44601H0.390625Z" fill="#484746"/>
<path d="M0 6.06445H97.3469L86.3689 91.0005H10.9779L0 6.06445ZM86.1337 90.7692L96.9558 6.44995H0.391086L11.2132 90.7692H86.1306" fill="#252423"/>
<path d="M96.9553 6.44629L86.1332 90.7689H11.2127L0.390625 6.44629H96.9553Z" fill="#252423"/>
<path d="M0 6.06398L21.5953 0H75.7516L97.3469 6.06398H0Z" fill="#484746"/>
<g clip-path="url(#clip0_966_7018)">
<path d="M37.2177 70.099C36.4555 70.099 35.7059 69.8346 35.0998 69.3396C33.8623 68.3286 33.5684 66.4596 34.4178 64.9901L41.0216 53.5517L41.8991 54.0565L35.2953 65.4964C34.692 66.5398 34.8833 67.8546 35.7411 68.5536C36.2839 68.9965 36.9519 69.1723 37.6325 69.05C38.2991 68.9276 38.8756 68.5212 39.2145 67.9348L45.8956 56.3642L46.7717 56.869L40.092 68.4396C39.6055 69.2848 38.7758 69.8698 37.8153 70.0456C37.6142 70.0821 37.4145 70.099 37.2177 70.099ZM51.3139 70.0962C50.5517 70.0962 49.8036 69.8318 49.1961 69.334C47.96 68.3243 47.6661 66.4554 48.5141 64.9873L52.4037 58.2486L44.9267 53.9314C43.107 52.8809 42.0692 50.8742 42.2281 48.8126C41.0905 48.5286 40.2467 47.4978 40.2467 46.2743V38.54C40.2467 36.7104 41.7359 35.2212 43.5655 35.2212H52.2434C51.5094 33.8093 51.522 32.0825 52.3377 30.6706C53.6413 28.415 56.5353 27.6373 58.7923 28.9409C59.885 29.5723 60.6669 30.5918 60.9931 31.8111C61.3194 33.0303 61.152 34.3029 60.5206 35.397C59.8091 36.6289 58.6109 37.4543 57.2511 37.6934C57.5506 38.1125 57.7827 38.5554 57.95 39.0111L62.3094 41.5282L65.2203 36.4854C65.9403 35.2367 67.5434 34.8064 68.7922 35.5278C70.0423 36.2492 70.4698 37.8523 69.7498 39.1011L65.8827 45.799C64.9686 47.3811 62.9309 47.9267 61.3489 47.014L56.9164 44.4546L54.357 48.8871L53.4809 48.3809L56.645 42.9007C57.6744 41.1162 57.3805 39.139 55.8603 37.609C55.7127 37.4614 55.6705 37.2364 55.7563 37.0465C55.8434 36.8567 56.015 36.7301 56.2456 36.747C57.6294 36.8103 58.9442 36.1057 59.6459 34.8921C60.1423 34.0329 60.2731 33.0331 60.0172 32.0754C59.7612 31.1178 59.1467 30.3176 58.2889 29.8198C56.5142 28.7961 54.2417 29.4064 53.2166 31.1796C52.4445 32.5184 52.588 34.2186 53.5752 35.4068C53.6511 35.4982 53.6919 35.6121 53.6919 35.7303C53.6919 36.2365 53.6919 36.2365 43.5669 36.2365C42.2956 36.2365 41.2606 37.2715 41.2606 38.5428V46.2771C41.2606 47.1603 41.9806 47.8803 42.8637 47.8803C43.7469 47.8803 44.4669 47.1603 44.4669 46.2771V40.0432C44.4669 39.7634 44.6933 39.537 44.9731 39.537H49.9245V40.5495H45.4766V46.2743C45.4766 47.5892 44.5034 48.679 43.2392 48.8632C43.0986 50.5507 43.9438 52.1961 45.4344 53.0553L53.3487 57.6256C53.592 57.7662 53.6736 58.0742 53.5344 58.3161L49.3916 65.4936C48.7883 66.537 48.9809 67.8518 49.8373 68.5507C50.3802 68.9937 51.0453 69.1709 51.7273 69.0471C52.3953 68.9248 52.9719 68.5184 53.3108 67.932L58.9358 58.1895C59.2437 57.6551 59.3253 57.0336 59.1664 56.4387C59.0075 55.8425 58.625 55.3461 58.092 55.0381L49.5659 50.1162L50.0722 49.2387L58.5969 54.1606C59.3647 54.6021 59.9145 55.3179 60.1437 56.1757C60.373 57.0336 60.2548 57.9265 59.8119 58.6943L54.1869 68.4368C53.6989 69.282 52.8678 69.8684 51.9088 70.0428C51.7105 70.0793 51.5122 70.0962 51.3139 70.0962ZM57.4227 43.5757L61.8538 46.1351C62.9548 46.7707 64.3681 46.3925 65.0052 45.29L68.8723 38.592C69.3125 37.827 69.0509 36.844 68.2859 36.4025C67.5181 35.9623 66.5394 36.2253 66.095 36.9889L62.9309 42.469C62.7903 42.7123 62.4809 42.7953 62.2405 42.6546L58.2425 40.347C58.3241 41.3721 58.0878 42.4212 57.5183 43.4042L57.4227 43.5757ZM37.25 50.4129H27.4062V49.4004H37.25V50.4129ZM37.25 44.7879H27.4062V43.7754H37.25V44.7879ZM37.25 39.1629H27.4062V38.1504H37.25V39.1629Z" fill="white"/>
</g>
<defs>
<clipPath id="clip0_966_7018">
<rect width="45" height="45" fill="white" transform="translate(26 26)"/>
</clipPath>
</defs>
</svg>
