<svg width="98" height="286" viewBox="0 0 98 286" fill="none" xmlns="http://www.w3.org/2000/svg">
<path d="M49 43.6667C46.0545 43.6667 43.6667 46.0545 43.6667 49C43.6667 51.9455 46.0545 54.3333 49 54.3333C51.9455 54.3333 54.3333 51.9455 54.3333 49C54.3333 46.0545 51.9455 43.6667 49 43.6667ZM48 49L48 286H50L50 49H48Z" fill="black" fill-opacity="0.8"/>
<path d="M11.2129 90.7687L25.5242 53.1914H71.8251L86.1334 90.7687H11.2129Z" fill="#484746"/>
<path d="M0.390625 6.44601L21.7995 0.217773H75.5464L96.9553 6.44601H0.390625Z" fill="#484746"/>
<path d="M0 6.06445H97.3469L86.3689 91.0005H10.9779L0 6.06445ZM86.1337 90.7692L96.9558 6.44995H0.391086L11.2132 90.7692H86.1306" fill="#252423"/>
<path d="M96.9553 6.44629L86.1332 90.7689H11.2127L0.390625 6.44629H96.9553Z" fill="#252423"/>
<path d="M0 6.06398L21.5953 0H75.7516L97.3469 6.06398H0Z" fill="#484746"/>
<circle cx="49.5" cy="48.5" r="22.5" stroke="white" stroke-width="1.5"/>
<path d="M64.5 64.25C61.6773 61.741 59.5403 59.335 58.2823 55.8175C57.0243 52.3 56.685 48.532 57.295 44.8544C57.9051 41.1767 59.4452 37.7055 61.7762 34.7547C64.1072 31.8039 63.8905 32.0028 63.8905 32.0028" stroke="white" stroke-width="1.5" stroke-linecap="round"/>
<path d="M34.5 63.5C37.3227 61.0494 39.4597 58.6993 40.7177 55.2636C41.9757 51.8279 42.315 48.1476 41.705 44.5554C41.0949 40.9633 39.5548 37.5728 37.2238 34.6907C34.8928 31.8085 35.1095 32.0027 35.1095 32.0027" stroke="white" stroke-width="1.5" stroke-linecap="round"/>
<path d="M50.0273 26L50.025 70.25" stroke="white" stroke-width="1.5"/>
<path d="M71.25 48.5566L27 48.4991" stroke="white" stroke-width="1.5"/>
<path d="M58.2823 55.8175C57.0243 52.3 56.685 48.532 57.295 44.8544C57.9051 41.1767 59.4452 37.7055 61.7762 34.7547C64.1072 31.8039 63.8905 32.0028 63.8905 32.0028" stroke="white" stroke-width="1.5" stroke-linecap="round"/>
</svg>
