<svg width="98" height="286" viewBox="0 0 98 286" fill="none" xmlns="http://www.w3.org/2000/svg">
<path d="M49 43.6667C46.0545 43.6667 43.6667 46.0545 43.6667 49C43.6667 51.9455 46.0545 54.3333 49 54.3333C51.9455 54.3333 54.3333 51.9455 54.3333 49C54.3333 46.0545 51.9455 43.6667 49 43.6667ZM48 49L48 286H50L50 49H48Z" fill="black" fill-opacity="0.8"/>
<path d="M11.2109 90.7687L25.5222 53.1914H71.8232L86.1314 90.7687H11.2109Z" fill="#484746"/>
<path d="M0.390625 6.44601L21.7995 0.217773H75.5464L96.9553 6.44601H0.390625Z" fill="#484746"/>
<path d="M0 6.06396H97.3469L86.3689 91H10.9779L0 6.06396ZM86.1337 90.7687L96.9558 6.44946H0.391086L11.2132 90.7687H86.1306" fill="#252423"/>
<path d="M96.9553 6.44629L86.1332 90.7689H11.2127L0.390625 6.44629H96.9553Z" fill="#252423"/>
<path d="M0 6.06398L21.5953 0H75.7516L97.3469 6.06398H0Z" fill="#484746"/>
<g clip-path="url(#clip0_966_4045)">
<path d="M64.7498 73.1598H60.8123C60.5512 73.1598 60.3398 72.9485 60.3398 72.6873V67.9098H37.6598V72.6873C37.6598 72.9485 37.4485 73.1598 37.1873 73.1598H33.2498C32.9887 73.1598 32.7773 72.9485 32.7773 72.6873V67.4373H32.9191C32.045 66.8887 31.4648 65.9175 31.4648 64.8123V35.9373C31.4648 34.2298 32.8548 32.8398 34.5623 32.8398H63.4373C65.1462 32.8398 66.5348 34.2298 66.5348 35.9373V64.8123C66.5348 65.9175 65.9534 66.8887 65.0806 67.4373H65.2223V72.6873C65.2223 72.9485 65.011 73.1598 64.7498 73.1598ZM61.2848 72.2148H64.276V67.7943C64.0096 67.8705 63.7274 67.9112 63.436 67.9112H61.2835L61.2848 72.2148ZM33.7223 72.2148H36.7148V67.9098H34.5623C34.271 67.9098 33.9888 67.8692 33.7223 67.793V72.2148ZM32.4098 53.4723V64.8123C32.4098 65.9988 33.3758 66.9648 34.5623 66.9648H63.4373C64.6238 66.9648 65.5898 66.0002 65.5898 64.8123V53.4723H32.4098ZM32.4098 52.5273H65.5898V37.7223H32.4098V52.5273ZM32.4098 36.7773H65.5898V35.9373C65.5898 34.7508 64.6252 33.7848 63.4373 33.7848H34.5623C33.3758 33.7848 32.4098 34.7508 32.4098 35.9373V36.7773ZM60.8123 63.9723C59.1035 63.9723 57.7148 62.5824 57.7148 60.8748C57.7148 59.1673 59.1048 57.7773 60.8123 57.7773C62.5199 57.7773 63.9098 59.1673 63.9098 60.8748C63.9098 62.5824 62.5212 63.9723 60.8123 63.9723ZM60.8123 58.7223C59.6258 58.7223 58.6598 59.687 58.6598 60.8748C58.6598 62.0627 59.6245 63.0273 60.8123 63.0273C62.0002 63.0273 62.9648 62.0627 62.9648 60.8748C62.9648 59.687 61.9988 58.7223 60.8123 58.7223ZM37.1873 63.9723C35.4798 63.9723 34.0898 62.5824 34.0898 60.8748C34.0898 59.1673 35.4798 57.7773 37.1873 57.7773C38.8949 57.7773 40.2848 59.166 40.2848 60.8748C40.2848 62.5837 38.8949 63.9723 37.1873 63.9723ZM37.1873 58.7223C36.0008 58.7223 35.0348 59.687 35.0348 60.8748C35.0348 62.0627 36.0008 63.0273 37.1873 63.0273C38.3738 63.0273 39.3398 62.0613 39.3398 60.8748C39.3398 59.6883 38.3738 58.7223 37.1873 58.7223ZM55.5623 62.6598H42.4373V61.7148H55.5623V62.6598ZM55.5623 60.0348H42.4373V59.0898H55.5623V60.0348ZM56.4653 49.9076L51.2153 40.8146L52.033 40.3421L57.283 49.4351L56.4653 49.9076ZM69.1598 46.4373H68.2148V38.5623H69.1612L69.1598 46.4373ZM29.7848 46.4373H28.8398V38.5623H29.7848V46.4373ZM57.7778 46.3218L55.1528 41.7753L55.9705 41.3028L58.5955 45.8493L57.7778 46.3218Z" fill="white"/>
</g>
<defs>
<clipPath id="clip0_966_4045">
<rect width="42" height="42" fill="white" transform="translate(28 32)"/>
</clipPath>
</defs>
</svg>
