<svg width="98" height="286" viewBox="0 0 98 286" fill="none" xmlns="http://www.w3.org/2000/svg">
<path d="M49 43.6667C46.0545 43.6667 43.6667 46.0545 43.6667 49C43.6667 51.9455 46.0545 54.3333 49 54.3333C51.9455 54.3333 54.3333 51.9455 54.3333 49C54.3333 46.0545 51.9455 43.6667 49 43.6667ZM48 49L48 286H50L50 49H48Z" fill="black" fill-opacity="0.8"/>
<path d="M11.2109 90.7687L25.5222 53.1914H71.8232L86.1314 90.7687H11.2109Z" fill="#484746"/>
<path d="M0.390625 6.44601L21.7995 0.217773H75.5464L96.9553 6.44601H0.390625Z" fill="#484746"/>
<path d="M0 6.06445H97.3469L86.3689 91.0005H10.9779L0 6.06445ZM86.1337 90.7692L96.9558 6.44995H0.391086L11.2132 90.7692H86.1306" fill="#252423"/>
<path d="M96.9553 6.44629L86.1332 90.7689H11.2127L0.390625 6.44629H96.9553Z" fill="#252423"/>
<path d="M0 6.06398L21.5953 0H75.7516L97.3469 6.06398H0Z" fill="#484746"/>
<g clip-path="url(#clip0_2387_358)">
<path d="M71.4692 19.0791H25.5317C25.227 19.0791 24.9805 19.3506 24.9805 19.6863V36.5516C24.9805 36.8872 25.227 37.1587 25.5317 37.1587H28.043V44.9842C28.043 45.3198 28.2895 45.5914 28.5942 45.5914H30.1255C31.4209 45.5914 32.5494 44.8307 33.188 43.6991C33.8265 44.8307 34.955 45.5914 36.2505 45.5914C37.5459 45.5914 38.6744 44.8307 39.313 43.6991C39.9515 44.8307 41.08 45.5914 42.3755 45.5914C43.6709 45.5914 44.7994 44.8307 45.438 43.6991C46.0765 44.8307 47.205 45.5914 48.5005 45.5914C49.7959 45.5914 50.9244 44.8307 51.563 43.7008C52.2015 44.8307 53.33 45.5914 54.6255 45.5914C55.9209 45.5914 57.0494 44.8307 57.688 43.7008C58.3265 44.8307 59.455 45.5914 60.7505 45.5914C62.0459 45.5914 63.1744 44.8307 63.813 43.7008C64.4515 44.8307 65.58 45.5914 66.8755 45.5914H68.4067C68.7114 45.5914 68.958 45.3198 68.958 44.9842V37.1587H71.4692C71.7739 37.1587 72.0205 36.8872 72.0205 36.5516V19.6863C72.0205 19.3506 71.7739 19.0791 71.4692 19.0791ZM64.3642 41.6112C64.3642 41.2755 64.1177 41.004 63.813 41.004C63.5082 41.004 63.2617 41.2755 63.2617 41.6112C63.2617 43.1358 62.1362 44.3771 60.7505 44.3771C59.3647 44.3771 58.2392 43.1358 58.2392 41.6112C58.2392 41.2755 57.9927 41.004 57.688 41.004C57.3832 41.004 57.1367 41.2755 57.1367 41.6112C57.1367 43.1358 56.0112 44.3771 54.6255 44.3771C53.2397 44.3771 52.1142 43.1358 52.1142 41.6112C52.1142 41.2755 51.8677 41.004 51.563 41.004C51.2582 41.004 51.0117 41.2755 51.0117 41.6112C51.0117 43.1358 49.8862 44.3771 48.5005 44.3771C47.1147 44.3771 45.9892 43.1358 45.9892 41.6112C45.9892 41.2755 45.7427 41.004 45.438 41.004C45.1332 41.004 44.8867 41.2755 44.8867 41.6112C44.8867 43.1358 43.7597 44.3771 42.3755 44.3771C40.9912 44.3771 39.8642 43.1358 39.8642 41.6112C39.8642 41.2755 39.6177 41.004 39.313 41.004C39.0082 41.004 38.7617 41.2755 38.7617 41.6112C38.7617 43.1358 37.6347 44.3771 36.2505 44.3771C34.8662 44.3771 33.7392 43.1358 33.7392 41.6112C33.7392 41.2755 33.4927 41.004 33.188 41.004C32.8832 41.004 32.6367 41.2755 32.6367 41.6112C32.6367 43.1358 31.5097 44.3771 30.1255 44.3771H29.1455V37.1587H67.8555V44.3771H66.8755C65.4912 44.3771 64.3642 43.1358 64.3642 41.6112ZM67.8555 35.9444H29.1455V28.7261H67.8555V35.9444ZM70.918 35.9444H68.958V28.1189C68.958 27.7833 68.7114 27.5118 68.4067 27.5118H28.5942C28.2895 27.5118 28.043 27.7833 28.043 28.1189V35.9444H26.083V20.2934H70.918V35.9444ZM63.813 65.8297C64.1177 65.8297 64.3642 65.5582 64.3642 65.2226V50.0438C64.3642 49.7082 64.1177 49.4367 63.813 49.4367H48.5005C48.1957 49.4367 47.9492 49.7082 47.9492 50.0438V65.2226C47.9492 65.5582 48.1957 65.8297 48.5005 65.8297H63.813ZM49.0517 50.651H63.2617V64.6137H49.0517V50.651ZM68.958 50.0438C68.958 49.7082 68.7114 49.4367 68.4067 49.4367C68.102 49.4367 67.8555 49.7082 67.8555 50.0438V69.675H41.3955V50.0438C41.3955 49.7082 41.1489 49.4367 40.8442 49.4367H33.188C32.8832 49.4367 32.6367 49.7082 32.6367 50.0438V69.675H29.1455V50.0438C29.1455 49.7082 28.8989 49.4367 28.5942 49.4367C28.2895 49.4367 28.043 49.7082 28.043 50.0438V69.675H25.5317V70.891H33.188H40.8442H71.4692V69.675H68.958V50.0438ZM33.7377 50.651H40.293V59.5542H33.7377V50.651ZM33.7377 69.675V60.7701H40.293V69.6733L33.7377 69.675Z" fill="white"/>
</g>
<defs>
<clipPath id="clip0_2387_358">
<rect width="49" height="53.969" fill="white" transform="translate(24 18)"/>
</clipPath>
</defs>
</svg>
