<svg width="75" height="221" viewBox="0 0 75 221" fill="none" xmlns="http://www.w3.org/2000/svg">
<path d="M37.75 32.4186C34.8045 32.4186 32.4167 34.8064 32.4167 37.752C32.4167 40.6975 34.8045 43.0853 37.75 43.0853C40.6955 43.0853 43.0833 40.6975 43.0833 37.752C43.0833 34.8064 40.6955 32.4186 37.75 32.4186ZM36.75 37.752L36.75 220.346H38.75L38.75 37.752H36.75Z" fill="black" fill-opacity="0.8"/>
<path d="M8.64062 69.9315L19.6666 40.9805H55.3388L66.3624 69.9315H8.64062Z" fill="#484746"/>
<path d="M0.300781 4.96646L16.7951 0.167969H58.2039L74.6982 4.96646H0.300781Z" fill="#484746"/>
<path d="M0 4.67188H75L66.5422 70.11H8.45783L0 4.67188ZM66.3609 69.9318L74.6987 4.96888H0.301309L8.63909 69.9318H66.3586" fill="#252423"/>
<path d="M74.6982 4.9668L66.3604 69.9324H8.63856L0.300781 4.9668H74.6982Z" fill="#252423"/>
<path d="M0 4.67194L16.6379 0H58.3621L75 4.67194H0Z" fill="#484746"/>
<g clip-path="url(#clip0_966_7243)">
<path d="M41.7172 58.1H33.2797V57.0875H41.7172V58.1ZM43.1234 55.2875H31.8734V54.275H43.1234V55.2875ZM43.1234 52.475H31.8734V51.4625H43.1234V52.475ZM43.1234 49.6625H31.8734C31.5936 49.6625 31.3672 49.4361 31.3672 49.1562V47.1129C31.3672 44.832 31.3672 41.3853 28.497 38.4012C25.8139 35.6084 24.3359 32.0689 24.3359 28.4351C24.3359 20.8456 30.117 14.9014 37.4984 14.9014C44.8798 14.9014 50.6609 20.8456 50.6609 28.4351C50.6609 32.0689 49.183 35.6098 46.4998 38.3998C43.6297 41.3853 43.6297 44.832 43.6297 47.1129V49.1562C43.6297 49.4361 43.4033 49.6625 43.1234 49.6625ZM32.3797 48.65H42.6172V47.1129C42.6172 44.8179 42.6172 40.9775 45.77 37.6981C48.2703 35.0951 49.6484 31.8059 49.6484 28.4337C49.6484 21.4123 44.3117 15.9125 37.4984 15.9125C30.6852 15.9125 25.3484 21.4123 25.3484 28.4337C25.3484 31.8059 26.7252 35.0951 29.2269 37.6981C32.3797 40.9775 32.3797 44.8179 32.3797 47.1129V48.65Z" fill="white"/>
</g>
<defs>
<clipPath id="clip0_966_7243">
<rect width="45" height="45" fill="white" transform="translate(15 14)"/>
</clipPath>
</defs>
</svg>
