<svg width="98" height="286" viewBox="0 0 98 286" fill="none" xmlns="http://www.w3.org/2000/svg">
<path d="M49.1719 43.6667C46.2264 43.6667 43.8385 46.0545 43.8385 49C43.8385 51.9455 46.2264 54.3333 49.1719 54.3333C52.1174 54.3333 54.5052 51.9455 54.5052 49C54.5052 46.0545 52.1174 43.6667 49.1719 43.6667ZM48.1719 49L48.1719 286H50.1719L50.1719 49H48.1719Z" fill="black" fill-opacity="0.8"/>
<path d="M11.2129 90.7687L25.5242 53.1914H71.8251L86.1334 90.7687H11.2129Z" fill="#484746"/>
<path d="M0.390625 6.44601L21.7995 0.217773H75.5464L96.9553 6.44601H0.390625Z" fill="#484746"/>
<path d="M0 6.06396H97.3469L86.3689 91H10.9779L0 6.06396ZM86.1337 90.7687L96.9558 6.44946H0.391086L11.2132 90.7687H86.1306" fill="#E0E0E0"/>
<path d="M96.9553 6.44629L86.1332 90.7689H11.2127L0.390625 6.44629H96.9553Z" fill="#E0E0E0"/>
<path d="M0 6.06398L21.5953 0H75.7516L97.3469 6.06398H0Z" fill="white"/>
<g clip-path="url(#clip0_969_3034)">
<path d="M78.1725 66.4161H75.1725C74.9735 66.4161 74.8125 66.2606 74.8125 66.0684V62.5528H55.5325V66.0684C55.5325 66.2606 55.3715 66.4161 55.1725 66.4161H52.1725C51.9735 66.4161 51.8125 66.2606 51.8125 66.0684V62.2051C51.8125 62.1829 51.8145 62.1607 51.8185 62.1404C51.2105 61.727 50.8125 61.0442 50.8125 60.2735V52.5469C50.8125 51.3792 51.7265 50.4134 52.8995 50.283L55.6135 41.5462C55.7875 40.986 56.3115 40.6094 56.9165 40.6094H73.4285C74.0335 40.6094 74.5575 40.986 74.7315 41.5453L77.4455 50.2821C78.6195 50.4125 79.5335 51.3783 79.5335 52.5459V60.2725C79.5335 61.0432 79.1355 61.7261 78.5265 62.1394C78.5305 62.1597 78.5335 62.1819 78.5335 62.2042V66.0674C78.5325 66.2606 78.3715 66.4161 78.1725 66.4161ZM75.5325 65.7207H77.8115V62.4678C77.6085 62.5238 77.3935 62.5538 77.1715 62.5538H75.5315L75.5325 65.7207ZM52.5325 65.7207H54.8125V62.5528H53.1725C52.9505 62.5528 52.7355 62.5229 52.5325 62.4669V65.7207ZM75.1725 61.8574H77.1725C78.0765 61.8574 78.8125 61.1475 78.8125 60.2735V52.5469C78.8125 51.6757 78.0815 50.9668 77.1805 50.963C77.1725 50.962 77.1685 50.963 77.1635 50.963H53.1805C53.1765 50.963 53.1695 50.963 53.1645 50.963C52.2645 50.9668 51.5325 51.6757 51.5325 52.5469V60.2735C51.5325 61.1466 52.2685 61.8574 53.1725 61.8574H75.1725ZM53.6565 50.2676H76.6895L74.5045 43.2364H55.8405L53.6565 50.2676ZM56.0565 42.541H74.2885L74.0415 41.7452C73.9605 41.4854 73.7085 41.3038 73.4285 41.3038H56.9165C56.6315 41.3038 56.3855 41.4815 56.3035 41.7452L56.0565 42.541ZM74.1725 57.7237C72.8705 57.7237 71.8125 56.7009 71.8125 55.4444C71.8125 54.1878 72.8715 53.165 74.1725 53.165C75.4735 53.165 76.5325 54.1869 76.5325 55.4444C76.5325 56.7019 75.4745 57.7237 74.1725 57.7237ZM74.1725 53.8604C73.2685 53.8604 72.5325 54.5703 72.5325 55.4444C72.5325 56.3184 73.2675 57.0283 74.1725 57.0283C75.0775 57.0283 75.8125 56.3184 75.8125 55.4444C75.8125 54.5703 75.0765 53.8604 74.1725 53.8604ZM56.1725 57.7237C54.8715 57.7237 53.8125 56.7009 53.8125 55.4444C53.8125 54.1878 54.8715 53.165 56.1725 53.165C57.4735 53.165 58.5325 54.1869 58.5325 55.4444C58.5325 56.7019 57.4735 57.7237 56.1725 57.7237ZM56.1725 53.8604C55.2685 53.8604 54.5325 54.5703 54.5325 55.4444C54.5325 56.3184 55.2685 57.0283 56.1725 57.0283C57.0765 57.0283 57.8125 56.3175 57.8125 55.4444C57.8125 54.5713 57.0765 53.8604 56.1725 53.8604ZM71.1725 49.0313C71.0645 49.0313 70.9565 48.984 70.8855 48.8932L67.8855 45.0647C67.7655 44.9111 67.7965 44.6938 67.9555 44.5779C68.1105 44.462 68.3375 44.49 68.4595 44.6455L71.4595 48.4741C71.5795 48.6276 71.5485 48.8449 71.3895 48.9608C71.3245 49.0081 71.2485 49.0313 71.1725 49.0313ZM72.1725 47.2735C72.0635 47.2735 71.9545 47.2252 71.8845 47.1335L69.8845 44.5451C69.7655 44.3915 69.7975 44.1733 69.9575 44.0583C70.1155 43.9444 70.3415 43.9743 70.4605 44.1288L72.4605 46.7172C72.5795 46.8708 72.5475 47.0891 72.3875 47.204C72.3225 47.2513 72.2475 47.2735 72.1725 47.2735ZM79.1725 60.6212H51.1725V59.9258H79.1725V60.6212ZM70.1725 56.7579H60.1725V56.0625H70.1725V56.7579ZM70.1725 54.8263H60.1725V54.1309H70.1725V54.8263ZM78.5325 48.6836H77.8125V45.7862H78.5335L78.5325 48.6836ZM52.5325 48.6836H51.8125V45.7862H52.5325V48.6836Z" fill="black"/>
<rect x="60.248" y="38.4375" width="9.84615" height="2.6875" fill="black"/>
<path d="M63.7986 40.4375V39.5855H63.4626V39.3875H64.3776V39.5855H64.0416V40.4375H63.7986ZM64.2951 40.4375L64.7631 39.3875H65.0031L65.4726 40.4375H65.2176L64.8336 39.5105H64.9296L64.5441 40.4375H64.2951ZM64.5291 40.2125L64.5936 40.028H65.1336L65.1996 40.2125H64.5291ZM65.3834 40.4375L65.8349 39.815V39.992L65.4029 39.3875H65.6789L65.9774 39.809L65.8619 39.8105L66.1559 39.3875H66.4199L65.9909 39.9815V39.8075L66.4454 40.4375H66.1649L65.8559 39.992H65.9669L65.6624 40.4375H65.3834ZM66.518 40.4375V39.3875H66.761V40.4375H66.518Z" fill="black"/>
</g>
<g clip-path="url(#clip1_969_3034)">
<path d="M39.7694 65.3124H38.8833V51.8749C38.8833 51.6075 39.0814 51.3911 39.3263 51.3911H43.0186C43.4531 51.3911 43.8063 51.0055 43.8063 50.5311V38.4374C43.8063 37.963 43.4531 37.5774 43.0186 37.5774H30.711C30.2765 37.5774 29.9233 37.963 29.9233 38.4374V50.5311C29.9233 51.0055 30.2765 51.3911 30.711 51.3911H34.4033C34.6482 51.3911 34.8463 51.6075 34.8463 51.8749V65.3124H33.9602V52.3586H30.711C29.7879 52.3586 29.0371 51.5389 29.0371 50.5311V38.4374C29.0371 37.4296 29.7879 36.6099 30.711 36.6099H43.0186C43.9417 36.6099 44.6925 37.4296 44.6925 38.4374V50.5311C44.6925 51.5389 43.9417 52.3586 43.0186 52.3586H39.7694V65.3124ZM36.8648 34.8899C34.9239 34.8899 33.3448 33.1658 33.3448 31.0467C33.3448 28.9276 34.9239 27.2036 36.8648 27.2036C38.8057 27.2036 40.3848 28.9276 40.3848 31.0467C40.3848 33.1658 38.8057 34.8899 36.8648 34.8899ZM36.8648 28.1711C35.4125 28.1711 34.231 29.4611 34.231 31.0467C34.231 32.6324 35.4125 33.9224 36.8648 33.9224C38.3171 33.9224 39.4986 32.6324 39.4986 31.0467C39.4986 29.4611 38.3171 28.1711 36.8648 28.1711Z" fill="black"/>
</g>
<defs>
<clipPath id="clip0_969_3034">
<rect width="32" height="30.9062" fill="white" transform="translate(49.1719 37.0938)"/>
</clipPath>
<clipPath id="clip1_969_3034">
<rect width="39.3846" height="43" fill="white" transform="translate(17.1719 25)"/>
</clipPath>
</defs>
</svg>
