<svg width="98" height="286" viewBox="0 0 98 286" fill="none" xmlns="http://www.w3.org/2000/svg">
<path d="M49 43.6667C46.0545 43.6667 43.6667 46.0545 43.6667 49C43.6667 51.9455 46.0545 54.3333 49 54.3333C51.9455 54.3333 54.3333 51.9455 54.3333 49C54.3333 46.0545 51.9455 43.6667 49 43.6667ZM48 49L48 286H50L50 49H48Z" fill="black" fill-opacity="0.8"/>
<path d="M11.2129 90.7687L25.5242 53.1914H71.8251L86.1334 90.7687H11.2129Z" fill="#484746"/>
<path d="M0.390625 6.44601L21.7995 0.217773H75.5464L96.9553 6.44601H0.390625Z" fill="#484746"/>
<path d="M0 6.06445H97.3469L86.3689 91.0005H10.9779L0 6.06445ZM86.1337 90.7692L96.9558 6.44995H0.391086L11.2132 90.7692H86.1306" fill="#252423"/>
<path d="M96.9553 6.44629L86.1332 90.7689H11.2127L0.390625 6.44629H96.9553Z" fill="#252423"/>
<path d="M0 6.06398L21.5953 0H75.7516L97.3469 6.06398H0Z" fill="#484746"/>
<g clip-path="url(#clip0_966_6974)">
<path d="M68.6938 64.8691V40.0629C68.6938 39.783 68.4673 39.5566 68.1875 39.5566H48.5C48.2202 39.5566 47.9937 39.783 47.9937 40.0629V47.9941H44.6455L41.9483 39.9026C41.8794 39.6959 41.6867 39.5566 41.4688 39.5566H39.0205L36.3233 31.4651C36.2544 31.2584 36.0617 31.1191 35.8438 31.1191H28.8125C28.5327 31.1191 28.3062 31.3455 28.3062 31.6254V39.5566H27.4062V40.5691H28.3062V47.9941H27.4062V49.0066H28.3062V56.4316H27.4062V57.4455H28.3062V64.8691H27.4062V65.883H69.5938V64.8691H68.6938ZM49.0063 40.5691H67.6812V64.8691H65.8813V61.1566C65.8813 60.102 65.0234 59.2441 63.9688 59.2441C62.9141 59.2441 62.0562 60.102 62.0562 61.1566V62.2521L60.2577 56.8549V52.7191C60.2577 51.6645 59.3998 50.8066 58.3452 50.8066C57.2905 50.8066 56.4327 51.6645 56.4327 52.7191V56.4316H55.8983L53.2011 48.3415C53.1308 48.1334 52.9367 47.9941 52.7188 47.9941H49.0063V40.5691ZM64.8687 64.8691H63.0688V61.1566C63.0688 60.6602 63.4723 60.2566 63.9688 60.2566C64.4652 60.2566 64.8687 60.6602 64.8687 61.1566V64.8691ZM57.4438 52.7191C57.4438 52.2227 57.8473 51.8191 58.3438 51.8191C58.8402 51.8191 59.2437 52.2227 59.2437 52.7191V56.4316H57.4438V52.7191ZM29.3187 32.1316H35.4795L37.9545 39.5566H29.3187V32.1316ZM29.3187 40.5691H41.1045L43.5795 47.9941H40.5687V44.2816C40.5687 43.227 39.7109 42.3691 38.6562 42.3691C37.6016 42.3691 36.7437 43.227 36.7437 44.2816V47.9941H34.9438V44.2816C34.9438 43.227 34.0859 42.3691 33.0312 42.3691C31.9766 42.3691 31.1188 43.227 31.1188 44.2816V47.9941H29.3187V40.5691ZM37.7562 47.9941V44.2816C37.7562 43.7852 38.1598 43.3816 38.6562 43.3816C39.1527 43.3816 39.5563 43.7852 39.5563 44.2816V47.9941H37.7562ZM32.1313 47.9941V44.2816C32.1313 43.7852 32.5348 43.3816 33.0312 43.3816C33.5277 43.3816 33.9312 43.7852 33.9312 44.2816V47.9941H32.1313ZM29.3187 49.0066H52.3531L54.8281 56.4316H51.8188V52.7191C51.8188 51.6645 50.9609 50.8066 49.9062 50.8066C48.8516 50.8066 47.9937 51.6645 47.9937 52.7191V56.4316H46.1938V52.7191C46.1938 51.6645 45.3359 50.8066 44.2812 50.8066C43.2266 50.8066 42.3688 51.6645 42.3688 52.7191V56.4316H40.5687V52.7191C40.5687 51.6645 39.7109 50.8066 38.6562 50.8066C37.6016 50.8066 36.7437 51.6645 36.7437 52.7191V56.4316H34.9438V52.7191C34.9438 51.6645 34.0859 50.8066 33.0312 50.8066C31.9766 50.8066 31.1188 51.6645 31.1188 52.7191V56.4316H29.3187V49.0066ZM49.0063 56.4316V52.7191C49.0063 52.2227 49.4098 51.8191 49.9062 51.8191C50.4027 51.8191 50.8062 52.2227 50.8062 52.7191V56.4316H49.0063ZM43.3812 56.4316V52.7191C43.3812 52.2227 43.7848 51.8191 44.2812 51.8191C44.7777 51.8191 45.1812 52.2227 45.1812 52.7191V56.4316H43.3812ZM37.7562 56.4316V52.7191C37.7562 52.2227 38.1598 51.8191 38.6562 51.8191C39.1527 51.8191 39.5563 52.2227 39.5563 52.7191V56.4316H37.7562ZM32.1313 56.4316V52.7191C32.1313 52.2227 32.5348 51.8191 33.0312 51.8191C33.5277 51.8191 33.9312 52.2227 33.9312 52.7191V56.4316H32.1313ZM29.3187 57.4441H56.9375H59.3844L61.8594 64.8677H57.4438V61.1566C57.4438 60.102 56.5859 59.2441 55.5312 59.2441C54.4766 59.2441 53.6187 60.102 53.6187 61.1566V64.8691H51.8188V61.1566C51.8188 60.102 50.9609 59.2441 49.9062 59.2441C48.8516 59.2441 47.9937 60.102 47.9937 61.1566V64.8691H46.1938V61.1566C46.1938 60.102 45.3359 59.2441 44.2812 59.2441C43.2266 59.2441 42.3688 60.102 42.3688 61.1566V64.8691H40.5687V61.1566C40.5687 60.102 39.7109 59.2441 38.6562 59.2441C37.6016 59.2441 36.7437 60.102 36.7437 61.1566V64.8691H34.9438V61.1566C34.9438 60.102 34.0859 59.2441 33.0312 59.2441C31.9766 59.2441 31.1188 60.102 31.1188 61.1566V64.8691H29.3187V57.4441ZM54.6313 61.1566C54.6313 60.6602 55.0348 60.2566 55.5312 60.2566C56.0277 60.2566 56.4312 60.6602 56.4312 61.1566V64.8691H54.6313V61.1566ZM49.0063 61.1566C49.0063 60.6602 49.4098 60.2566 49.9062 60.2566C50.4027 60.2566 50.8062 60.6602 50.8062 61.1566V64.8691H49.0063V61.1566ZM43.3812 61.1566C43.3812 60.6602 43.7848 60.2566 44.2812 60.2566C44.7777 60.2566 45.1812 60.6602 45.1812 61.1566V64.8691H43.3812V61.1566ZM37.7562 61.1566C37.7562 60.6602 38.1598 60.2566 38.6562 60.2566C39.1527 60.2566 39.5563 60.6602 39.5563 61.1566V64.8691H37.7562V61.1566ZM32.1313 61.1566C32.1313 60.6602 32.5348 60.2566 33.0312 60.2566C33.5277 60.2566 33.9312 60.6602 33.9312 61.1566V64.8691H32.1313V61.1566ZM62.5625 57.4441H65.375C65.6548 57.4441 65.8813 57.2177 65.8813 56.9379V52.7191C65.8813 51.6645 65.0234 50.8066 63.9688 50.8066C62.9141 50.8066 62.0562 51.6645 62.0562 52.7191V56.9379C62.0562 57.2177 62.2827 57.4441 62.5625 57.4441ZM63.9688 51.8191C64.4652 51.8191 64.8687 52.2227 64.8687 52.7191V56.4316H63.0688V52.7191C63.0688 52.2227 63.4723 51.8191 63.9688 51.8191ZM32.525 34.4379H33.5375V37.2504H32.525V34.4379ZM58.85 45.6879H57.8375V42.8754H58.8514L58.85 45.6879ZM53.225 45.6879H52.2125V42.8754H53.2264L53.225 45.6879ZM64.475 45.6879H63.4625V42.8754H64.4764L64.475 45.6879Z" fill="white"/>
</g>
<defs>
<clipPath id="clip0_966_6974">
<rect width="45" height="45" fill="white" transform="translate(26 26)"/>
</clipPath>
</defs>
</svg>
