<svg width="54" height="145" viewBox="0 0 54 145" fill="none" xmlns="http://www.w3.org/2000/svg">
<path d="M26.8555 19.5094C23.91 19.5094 21.5221 21.8973 21.5221 24.8428C21.5221 27.7883 23.91 30.1761 26.8555 30.1761C29.801 30.1761 32.1888 27.7883 32.1888 24.8428C32.1888 21.8973 29.801 19.5094 26.8555 19.5094ZM25.8555 24.8428L25.8555 145H27.8555L27.8555 24.8428H25.8555Z" fill="black" fill-opacity="0.8"/>
<path d="M6.14648 46.0192L13.9902 26.9678H39.3666L47.2086 46.0192H6.14648Z" fill="#97FFED"/>
<path d="M0.214844 3.26802L11.9486 0.110352H41.406L53.1397 3.26802H0.214844Z" fill="#97FFED"/>
<path d="M0 3.07422H53.3535L47.3368 46.1362H6.01673L0 3.07422ZM47.2078 46.0189L53.1392 3.26966H0.214345L6.14568 46.0189H47.2062" fill="#08ECC4"/>
<path d="M53.1397 3.26855L47.2083 46.0195H6.14618L0.214844 3.26855H53.1397Z" fill="#08ECC4"/>
<path d="M0 3.0744L11.8359 0H41.5176L53.3535 3.0744H0Z" fill="#97FFED"/>
<g clip-path="url(#clip0_2056_2140)">
<path d="M37.2884 37.0491H17.559C16.9424 37.0491 16.441 36.5853 16.441 36.0149V20.3195H15.0928C14.9292 20.3195 14.7969 20.1971 14.7969 20.0457V13.9622C14.7969 13.8109 14.9292 13.6885 15.0928 13.6885H39.7546C39.9182 13.6885 40.0505 13.8109 40.0505 13.9622V20.0457C40.0505 20.1971 39.9182 20.3195 39.7546 20.3195H38.4064V36.0149C38.4064 36.5853 37.905 37.0491 37.2884 37.0491ZM17.0329 20.3195V36.0149C17.0329 36.2834 17.2688 36.5016 17.559 36.5016H37.2884C37.5786 36.5016 37.8145 36.2834 37.8145 36.0149V20.3195H17.0329ZM15.3888 19.772H39.4587V14.236H15.3888V19.772ZM25.7796 30.9656C25.704 30.9656 25.6283 30.939 25.5708 30.8858L22.2825 27.844L22.701 27.4562L25.7796 30.3048L32.1464 24.4145L32.5657 24.8015L25.9892 30.885C25.9308 30.939 25.8552 30.9656 25.7796 30.9656Z" fill="black"/>
</g>
<defs>
<clipPath id="clip0_2056_2140">
<rect width="26.3059" height="24.334" fill="white" transform="translate(13.7012 12.6748)"/>
</clipPath>
</defs>
</svg>
