<svg width="98" height="286" viewBox="0 0 98 286" fill="none" xmlns="http://www.w3.org/2000/svg">
<path d="M49.1719 43.6667C46.2264 43.6667 43.8385 46.0545 43.8385 49C43.8385 51.9455 46.2264 54.3333 49.1719 54.3333C52.1174 54.3333 54.5052 51.9455 54.5052 49C54.5052 46.0545 52.1174 43.6667 49.1719 43.6667ZM48.1719 49L48.1719 286H50.1719L50.1719 49H48.1719Z" fill="black" fill-opacity="0.8"/>
<path d="M11.2109 90.7687L25.5222 53.1914H71.8232L86.1314 90.7687H11.2109Z" fill="#484746"/>
<path d="M0.390625 6.44601L21.7995 0.217773H75.5464L96.9553 6.44601H0.390625Z" fill="#484746"/>
<path d="M0 6.06396H97.3469L86.3689 91H10.9779L0 6.06396ZM86.1337 90.7687L96.9558 6.44946H0.391086L11.2132 90.7687H86.1306" fill="#E0E0E0"/>
<path d="M96.9553 6.44629L86.1332 90.7689H11.2127L0.390625 6.44629H96.9553Z" fill="#E0E0E0"/>
<path d="M0 6.06398L21.5953 0H75.7516L97.3469 6.06398H0Z" fill="white"/>
<g clip-path="url(#clip0_2425_2142)">
<path d="M61.7153 68.9223L57.2227 61.0473L58.043 60.5787L62.5357 68.4537L61.7153 68.9223ZM36.2843 68.9223L35.464 68.4537L39.9567 60.5787L40.777 61.0473L36.2843 68.9223ZM62.1248 58.6598H35.8748C35.6137 58.6598 35.4023 58.4485 35.4023 58.1873V39.8123C35.4023 35.2094 39.1469 31.4648 43.7498 31.4648H54.2498C58.8528 31.4648 62.5973 35.2094 62.5973 39.8123V58.1873C62.5973 58.4485 62.386 58.6598 62.1248 58.6598ZM36.3473 57.7148H61.6523V39.8123C61.6523 35.7305 58.333 32.4098 54.2498 32.4098H43.7498C39.668 32.4098 36.3473 35.7305 36.3473 39.8123V57.7148ZM57.5311 54.7223C56.1858 54.7223 55.0898 53.6264 55.0898 52.2811C55.0898 50.9358 56.1858 49.8398 57.5311 49.8398C58.8764 49.8398 59.9723 50.9345 59.9723 52.2811C59.9723 53.6277 58.8764 54.7223 57.5311 54.7223ZM57.5311 50.7848C56.7055 50.7848 56.0348 51.4555 56.0348 52.2811C56.0348 53.1067 56.7055 53.7773 57.5311 53.7773C58.3567 53.7773 59.0273 53.1067 59.0273 52.2811C59.0273 51.4555 58.3567 50.7848 57.5311 50.7848ZM40.4686 54.7223C39.1233 54.7223 38.0273 53.6264 38.0273 52.2811C38.0273 50.9358 39.122 49.8398 40.4686 49.8398C41.8152 49.8398 42.9098 50.9345 42.9098 52.2811C42.9098 53.6277 41.8139 54.7223 40.4686 54.7223ZM40.4686 50.7848C39.6443 50.7848 38.9723 51.4555 38.9723 52.2811C38.9723 53.1067 39.6443 53.7773 40.4686 53.7773C41.2928 53.7773 41.9648 53.1067 41.9648 52.2811C41.9648 51.4555 41.2928 50.7848 40.4686 50.7848ZM59.4998 48.1598H38.4998C38.2387 48.1598 38.0273 47.9485 38.0273 47.6873V39.8123C38.0273 36.6571 40.5946 34.0898 43.7498 34.0898H54.2498C57.4051 34.0898 59.9723 36.6571 59.9723 39.8123V47.6873C59.9723 47.9485 59.761 48.1598 59.4998 48.1598ZM38.9723 47.2148H59.0273V39.8123C59.0273 37.1782 56.884 35.0348 54.2498 35.0348H43.7498C41.1157 35.0348 38.9723 37.1782 38.9723 39.8123V47.2148Z" fill="black"/>
</g>
<defs>
<clipPath id="clip0_2425_2142">
<rect width="42" height="42" fill="white" transform="translate(28 28)"/>
</clipPath>
</defs>
</svg>
