<svg width="98" height="286" viewBox="0 0 98 286" fill="none" xmlns="http://www.w3.org/2000/svg">
<path d="M49 43.6667C46.0545 43.6667 43.6667 46.0545 43.6667 49C43.6667 51.9455 46.0545 54.3333 49 54.3333C51.9455 54.3333 54.3333 51.9455 54.3333 49C54.3333 46.0545 51.9455 43.6667 49 43.6667ZM48 49L48 286H50L50 49H48Z" fill="black" fill-opacity="0.8"/>
<path d="M11.2129 90.7687L25.5242 53.1914H71.8251L86.1334 90.7687H11.2129Z" fill="#97FFED"/>
<path d="M0.390625 6.44601L21.7995 0.217773H75.5464L96.9553 6.44601H0.390625Z" fill="#97FFED"/>
<path d="M0 6.06445H97.3469L86.3689 91.0005H10.9779L0 6.06445ZM86.1337 90.7692L96.9558 6.44995H0.391086L11.2132 90.7692H86.1306" fill="#08ECC4"/>
<path d="M96.9553 6.44629L86.1332 90.7689H11.2127L0.390625 6.44629H96.9553Z" fill="#08ECC4"/>
<path d="M0 6.06398L21.5953 0H75.7516L97.3469 6.06398H0Z" fill="#97FFED"/>
<g clip-path="url(#clip0_2056_2140)">
<path d="M68.0372 73.0769H32.0397C30.9147 73.0769 29.9998 72.1619 29.9998 71.037V40.0791H27.54C27.2415 40.0791 27 39.8376 27 39.5392V27.54C27 27.2415 27.2415 27 27.54 27H72.5369C72.8354 27 73.0769 27.2415 73.0769 27.54V39.5392C73.0769 39.8376 72.8354 40.0791 72.5369 40.0791H70.0771V71.037C70.0771 72.1619 69.1622 73.0769 68.0372 73.0769ZM31.0797 40.0791V71.037C31.0797 71.5665 31.5102 71.997 32.0397 71.997H68.0372C68.5667 71.997 68.9972 71.5665 68.9972 71.037V40.0791H31.0797ZM28.0799 38.9992H71.997V28.0799H28.0799V38.9992ZM47.0387 61.0777C46.9007 61.0777 46.7627 61.0252 46.6577 60.9202L40.6581 54.9206L41.4215 54.1557L47.0387 59.7743L58.6554 48.1561L59.4203 48.9195L47.4211 60.9187C47.3146 61.0252 47.1766 61.0777 47.0387 61.0777Z" fill="black"/>
</g>
<defs>
<clipPath id="clip0_2056_2140">
<rect width="47.9968" height="47.9968" fill="white" transform="translate(25 25)"/>
</clipPath>
</defs>
</svg>
