<svg width="98" height="286" viewBox="0 0 98 286" fill="none" xmlns="http://www.w3.org/2000/svg">
<path d="M49.1719 43.6667C46.2264 43.6667 43.8385 46.0545 43.8385 49C43.8385 51.9455 46.2264 54.3333 49.1719 54.3333C52.1174 54.3333 54.5052 51.9455 54.5052 49C54.5052 46.0545 52.1174 43.6667 49.1719 43.6667ZM48.1719 49L48.1719 286H50.1719L50.1719 49H48.1719Z" fill="#9E9B9B" fill-opacity="0.8"/>
<path d="M11.2129 90.7687L25.5242 53.1914H71.8251L86.1334 90.7687H11.2129Z" fill="#484746"/>
<path d="M0.390625 6.44601L21.7995 0.217773H75.5464L96.9553 6.44601H0.390625Z" fill="#484746"/>
<path d="M96.9553 6.44629L86.1332 90.7689H11.2127L0.390625 6.44629H96.9553Z" fill="#E0E0E0"/>
<path d="M0 6.06398L21.5953 0H75.7516L97.3469 6.06398H0Z" fill="white"/>
<g clip-path="url(#clip0_2050_2598)">
<path d="M63.9984 66.5375C61.4021 66.5375 59.2572 64.5636 58.9873 62.0378H40.5115C40.2415 64.5636 38.0966 66.5375 35.5003 66.5375C32.904 66.5375 30.7591 64.5636 30.4891 62.0378H29.5007C27.5493 62.0378 25.9609 60.4494 25.9609 58.498V47.9987C25.9609 47.8967 25.9894 47.8022 26.0374 47.7212L32.0955 37.2294C32.1915 37.063 32.37 36.9595 32.5635 36.9595H43.9612V29.9999C43.9612 29.7014 44.2027 29.46 44.5012 29.46H71.4994C71.7979 29.46 72.0394 29.7014 72.0394 29.9999V61.4978C72.0394 61.7963 71.7979 62.0378 71.4994 62.0378H69.0111C68.7396 64.5636 66.5948 66.5375 63.9984 66.5375ZM63.9984 57.5381C61.8146 57.5381 60.0387 59.314 60.0387 61.4978C60.0387 63.6817 61.8146 65.4575 63.9984 65.4575C66.1823 65.4575 67.9582 63.6817 67.9582 61.4978C67.9582 59.314 66.1823 57.5381 63.9984 57.5381ZM35.5003 57.5381C33.3165 57.5381 31.5406 59.314 31.5406 61.4978C31.5406 63.6817 33.3165 65.4575 35.5003 65.4575C37.6842 65.4575 39.46 63.6817 39.46 61.4978C39.46 59.314 37.6842 57.5381 35.5003 57.5381ZM69.0096 60.9578H70.958V30.5399H45.0397V60.9578H58.9873C59.2572 58.432 61.4006 56.4581 63.9984 56.4581C66.5963 56.4581 68.7396 58.432 69.0096 60.9578ZM40.5115 60.9578H43.9597V48.5387H27.0409V58.498C27.0409 59.8539 28.1448 60.9578 29.5007 60.9578H30.4891C30.7591 58.432 32.904 56.4581 35.5003 56.4581C38.0966 56.4581 40.2415 58.432 40.5115 60.9578ZM40.54 47.4588H43.9597V38.0394H40.54V47.4588ZM27.4368 47.4588H39.46V38.0394H32.8755L27.4368 47.4588ZM41.4999 51.5385H38.5001V50.4586H41.4999V51.5385ZM68.4981 48.5387H56.4989V47.4588H68.4981V48.5387ZM68.4981 44.039H53.4991V42.9591H68.4981V44.039ZM68.4981 39.5393H50.4993V38.4594H68.4981V39.5393ZM68.4981 35.0396H47.4995V33.9597H68.4981V35.0396Z" fill="black"/>
</g>
<defs>
<clipPath id="clip0_2050_2598">
<rect width="47.9968" height="47.9968" fill="white" transform="translate(25 24)"/>
</clipPath>
</defs>
</svg>
