<svg width="98" height="286" viewBox="0 0 98 286" fill="none" xmlns="http://www.w3.org/2000/svg">
<path d="M49.1719 43.6667C46.2264 43.6667 43.8385 46.0545 43.8385 49C43.8385 51.9455 46.2264 54.3333 49.1719 54.3333C52.1174 54.3333 54.5052 51.9455 54.5052 49C54.5052 46.0545 52.1174 43.6667 49.1719 43.6667ZM48.1719 49L48.1719 286H50.1719L50.1719 49H48.1719Z" fill="black" fill-opacity="0.8"/>
<path d="M11.2129 90.7687L25.5242 53.1914H71.8251L86.1334 90.7687H11.2129Z" fill="#484746"/>
<path d="M0.390625 6.44601L21.7995 0.217773H75.5464L96.9553 6.44601H0.390625Z" fill="#484746"/>
<path d="M0 6.06396H97.3469L86.3689 91H10.9779L0 6.06396ZM86.1337 90.7687L96.9558 6.44946H0.391086L11.2132 90.7687H86.1306" fill="#E0E0E0"/>
<path d="M96.9553 6.44629L86.1332 90.7689H11.2127L0.390625 6.44629H96.9553Z" fill="#E0E0E0"/>
<path d="M0 6.06398L21.5953 0H75.7516L97.3469 6.06398H0Z" fill="white"/>
<g clip-path="url(#clip0_969_3206)">
<path d="M75.6567 66.2082H72.4865C72.2762 66.2082 72.1061 66.0323 72.1061 65.8149V61.8382H51.732V65.8149C51.732 66.0323 51.5618 66.2082 51.3516 66.2082H48.1813C47.971 66.2082 47.8009 66.0323 47.8009 65.8149V61.4449C47.8009 61.4198 47.803 61.3946 47.8072 61.3717C47.1647 60.9041 46.7441 60.1317 46.7441 59.2599V50.5199C46.7441 49.1991 47.71 48.1066 48.9496 47.9591L51.8176 38.0763C52.0015 37.4427 52.5552 37.0166 53.1945 37.0166H70.6435C71.2829 37.0166 71.8366 37.4427 72.0205 38.0752L74.8885 47.958C76.1291 48.1055 77.095 49.198 77.095 50.5188V59.2588C77.095 60.1306 76.6744 60.903 76.0308 61.3706C76.035 61.3936 76.0382 61.4187 76.0382 61.4438V65.8138C76.0372 66.0323 75.867 66.2082 75.6567 66.2082ZM72.8669 65.4216H75.2752V61.7421C75.0607 61.8054 74.8335 61.8393 74.5989 61.8393H72.8659L72.8669 65.4216ZM48.5617 65.4216H50.9711V61.8382H49.2381C49.0035 61.8382 48.7763 61.8043 48.5617 61.741V65.4216ZM72.4865 61.0516H74.6C75.5553 61.0516 76.333 60.2486 76.333 59.2599V50.5199C76.333 49.5345 75.5606 48.7326 74.6084 48.7282C74.6 48.7271 74.5958 48.7282 74.5905 48.7282H49.2465C49.2423 48.7282 49.2349 48.7282 49.2296 48.7282C48.2785 48.7326 47.505 49.5345 47.505 50.5199V59.2599C47.505 60.2475 48.2828 61.0516 49.2381 61.0516H72.4865ZM49.7495 47.9416H74.0896L71.7806 39.9882H52.0575L49.7495 47.9416ZM52.2857 39.2016H71.5523L71.2913 38.3014C71.2057 38.0075 70.9394 37.8021 70.6435 37.8021H53.1945C52.8934 37.8021 52.6334 38.0031 52.5467 38.3014L52.2857 39.2016ZM71.4297 56.3757C70.0539 56.3757 68.9358 55.2187 68.9358 53.7974C68.9358 52.3761 70.0549 51.2191 71.4297 51.2191C72.8046 51.2191 73.9237 52.375 73.9237 53.7974C73.9237 55.2198 72.8056 56.3757 71.4297 56.3757ZM71.4297 52.0057C70.4744 52.0057 69.6967 52.8087 69.6967 53.7974C69.6967 54.7861 70.4734 55.5891 71.4297 55.5891C72.3861 55.5891 73.1628 54.7861 73.1628 53.7974C73.1628 52.8087 72.385 52.0057 71.4297 52.0057ZM52.4083 56.3757C51.0335 56.3757 49.9144 55.2187 49.9144 53.7974C49.9144 52.3761 51.0335 51.2191 52.4083 51.2191C53.7831 51.2191 54.9022 52.375 54.9022 53.7974C54.9022 55.2198 53.7831 56.3757 52.4083 56.3757ZM52.4083 52.0057C51.453 52.0057 50.6752 52.8087 50.6752 53.7974C50.6752 54.7861 51.453 55.5891 52.4083 55.5891C53.3636 55.5891 54.1414 54.785 54.1414 53.7974C54.1414 52.8098 53.3636 52.0057 52.4083 52.0057ZM68.2595 46.5432C68.1454 46.5432 68.0312 46.4897 67.9562 46.387L64.786 42.0563C64.6592 41.8826 64.6919 41.6368 64.86 41.5057C65.0237 41.3746 65.2636 41.4063 65.3926 41.5822L68.5628 45.9128C68.6896 46.0865 68.6568 46.3323 68.4888 46.4634C68.4201 46.517 68.3398 46.5432 68.2595 46.5432ZM69.3162 44.5549C69.2011 44.5549 69.0859 44.5002 69.0119 44.3964L66.8984 41.4685C66.7727 41.2948 66.8065 41.0479 66.9756 40.9179C67.1425 40.789 67.3813 40.8229 67.5071 40.9977L69.6206 43.9256C69.7463 44.0993 69.7125 44.3462 69.5435 44.4762C69.4748 44.5297 69.3955 44.5549 69.3162 44.5549ZM76.7135 59.6532H47.1246V58.8666H76.7135V59.6532ZM67.2028 55.2832H56.6353V54.4966H67.2028V55.2832ZM67.2028 53.0982H56.6353V52.3116H67.2028V53.0982ZM76.0372 46.1499H75.2763V42.8724H76.0382L76.0372 46.1499ZM48.5617 46.1499H47.8009V42.8724H48.5617V46.1499Z" fill="black"/>
<rect x="56.7168" y="34.5601" width="10.4049" height="3.04" fill="black"/>
<path d="M60.8256 36.5601L60.3726 35.5101H60.6351L61.0311 36.4401H60.8766L61.2786 35.5101H61.5201L61.0656 36.5601H60.8256ZM61.8042 36.5601V35.7081H61.4682V35.5101H62.3832V35.7081H62.0472V36.5601H61.8042ZM62.9793 36.5781C62.8983 36.5781 62.8228 36.5651 62.7528 36.5391C62.6838 36.5121 62.6238 36.4741 62.5728 36.4251C62.5218 36.3761 62.4818 36.3186 62.4528 36.2526C62.4248 36.1866 62.4108 36.1141 62.4108 36.0351C62.4108 35.9561 62.4248 35.8836 62.4528 35.8176C62.4818 35.7516 62.5218 35.6941 62.5728 35.6451C62.6248 35.5961 62.6853 35.5586 62.7543 35.5326C62.8233 35.5056 62.8988 35.4921 62.9808 35.4921C63.0718 35.4921 63.1538 35.5081 63.2268 35.5401C63.3008 35.5711 63.3628 35.6171 63.4128 35.6781L63.2568 35.8221C63.2208 35.7811 63.1808 35.7506 63.1368 35.7306C63.0928 35.7096 63.0448 35.6991 62.9928 35.6991C62.9438 35.6991 62.8988 35.7071 62.8578 35.7231C62.8168 35.7391 62.7813 35.7621 62.7513 35.7921C62.7213 35.8221 62.6978 35.8576 62.6808 35.8986C62.6648 35.9396 62.6568 35.9851 62.6568 36.0351C62.6568 36.0851 62.6648 36.1306 62.6808 36.1716C62.6978 36.2126 62.7213 36.2481 62.7513 36.2781C62.7813 36.3081 62.8168 36.3311 62.8578 36.3471C62.8988 36.3631 62.9438 36.3711 62.9928 36.3711C63.0448 36.3711 63.0928 36.3611 63.1368 36.3411C63.1808 36.3201 63.2208 36.2886 63.2568 36.2466L63.4128 36.3906C63.3628 36.4516 63.3008 36.4981 63.2268 36.5301C63.1538 36.5621 63.0713 36.5781 62.9793 36.5781Z" fill="white"/>
<path d="M52.4814 37.7933C52.5761 37.6714 52.7218 37.6001 52.8762 37.6001H71.2391C71.4577 37.6001 71.651 37.7422 71.7163 37.9509L72.1165 39.2309C72.2172 39.5529 71.9766 39.8801 71.6393 39.8801H51.8813C51.4653 39.8801 51.2312 39.4017 51.4865 39.0733L52.4814 37.7933Z" fill="black"/>
<path d="M47.486 59.6032C47.3201 59.2708 47.5619 58.8799 47.9334 58.8799H76.0167C76.4004 58.8799 76.6411 59.2943 76.451 59.6276L75.7208 60.9076C75.6318 61.0636 75.4661 61.1599 75.2865 61.1599H62.5708H48.5723C48.3828 61.1599 48.2096 61.0527 48.1249 60.8832L47.486 59.6032Z" fill="black"/>
</g>
<g clip-path="url(#clip1_969_3206)">
<path d="M43.386 67.2398H25.8277C25.6336 67.2398 25.4766 67.0486 25.4766 66.8123V31.1873C25.4766 30.951 25.6336 30.7598 25.8277 30.7598H43.386C43.5801 30.7598 43.7371 30.951 43.7371 31.1873V66.8123C43.7371 67.0486 43.5801 67.2398 43.386 67.2398ZM26.1789 66.3848H43.0348V58.9273H26.1789V66.3848ZM26.1789 58.0723H43.0348V31.6148H26.1789V58.0723ZM35.5823 62.656C35.5823 62.0005 35.1453 61.4685 34.6069 61.4685C34.0684 61.4685 33.6314 62.0005 33.6314 62.656C33.6314 63.3115 34.0684 63.8435 34.6069 63.8435C35.1453 63.8435 35.5823 63.3115 35.5823 62.656Z" fill="black"/>
</g>
<defs>
<clipPath id="clip0_969_3206">
<rect width="33.8159" height="34.96" fill="white" transform="translate(45.0117 33.04)"/>
</clipPath>
<clipPath id="clip1_969_3206">
<rect width="31.2147" height="38" fill="white" transform="translate(19 30)"/>
</clipPath>
</defs>
</svg>
