<svg width="98" height="290" viewBox="0 0 98 290" fill="none" xmlns="http://www.w3.org/2000/svg">
<path d="M49 47.6667C46.0545 47.6667 43.6667 50.0545 43.6667 53C43.6667 55.9455 46.0545 58.3333 49 58.3333C51.9455 58.3333 54.3333 55.9455 54.3333 53C54.3333 50.0545 51.9455 47.6667 49 47.6667ZM48 53L48 290H50L50 53H48Z" fill="black" fill-opacity="0.8"/>
<path d="M11.2129 90.7687L25.5247 53.1914H71.8271L86.1358 90.7687H11.2129Z" fill="#8C52FF"/>
<path d="M0.390625 6.44601L21.8002 0.217773H75.5488L96.9584 6.44601H0.390625Z" fill="#8C52FF"/>
<path d="M0 6.06348H97.35L86.3717 90.9995H10.9783L0 6.06348ZM86.1365 90.7682L96.9589 6.44897H0.391099L11.2135 90.7682H86.1334" fill="#8C52FF"/>
<path d="M96.9584 6.44629L86.136 90.7689H11.2131L0.390625 6.44629H96.9584Z" fill="#8C52FF"/>
<path d="M0 6.06398L21.596 0H75.754L97.35 6.06398H0Z" fill="#B28AFF"/>
<path d="M65.9257 66.72C62.9957 66.72 60.5752 64.8184 60.2705 62.385H39.4204C39.1157 64.8184 36.6953 66.72 33.7653 66.72C30.8353 66.72 28.4148 64.8184 28.1101 62.385H26.9947C24.7925 62.385 23 60.8548 23 58.9749V48.86C23 48.7617 23.0322 48.6707 23.0863 48.5927L29.923 38.485C30.0313 38.3246 30.2327 38.2249 30.4511 38.2249H43.3135V31.5202C43.3135 31.2326 43.586 31 43.9229 31H74.3906C74.7275 31 75 31.2326 75 31.5202V61.8649C75 62.1524 74.7275 62.385 74.3906 62.385H71.5825C71.2762 64.8184 68.8557 66.72 65.9257 66.72ZM65.9257 58.0501C63.4612 58.0501 61.4571 59.761 61.4571 61.8649C61.4571 63.9688 63.4612 65.6796 65.9257 65.6796C68.3902 65.6796 70.3943 63.9688 70.3943 61.8649C70.3943 59.761 68.3902 58.0501 65.9257 58.0501ZM33.7653 58.0501C31.3008 58.0501 29.2967 59.761 29.2967 61.8649C29.2967 63.9688 31.3008 65.6796 33.7653 65.6796C36.2298 65.6796 38.2339 63.9688 38.2339 61.8649C38.2339 59.761 36.2298 58.0501 33.7653 58.0501ZM71.5808 61.3447H73.7796V32.0404H44.5305V61.3447H60.2705C60.5752 58.9113 62.994 57.0097 65.9257 57.0097C68.8574 57.0097 71.2762 58.9113 71.5808 61.3447ZM39.4204 61.3447H43.3118V49.3802H24.2187V58.9749C24.2187 60.2812 25.4645 61.3447 26.9947 61.3447H28.1101C28.4148 58.9113 30.8353 57.0097 33.7653 57.0097C36.6953 57.0097 39.1157 58.9113 39.4204 61.3447ZM39.4526 48.3398H43.3118V39.2653H39.4526V48.3398ZM24.6656 48.3398H38.2339V39.2653H30.8031L24.6656 48.3398ZM40.5359 52.2702H37.1506V51.2298H40.5359V52.2702Z" fill="white"/>
<path d="M62.9559 39.0381V36.9835C62.9559 36.8711 62.8488 36.7803 62.7165 36.7803H56.0668C55.9344 36.7803 55.8274 36.8711 55.8274 36.9835V39.0381H50.082V39.4445H52.5025V53.9169C52.5025 54.0292 52.6096 54.1201 52.7419 54.1201H66.0413C66.1737 54.1201 66.2807 54.0292 66.2807 53.9169V39.4445H68.7012V39.0381H62.9559ZM56.3062 37.1867H62.4771V39.0381H56.3062V37.1867ZM65.8019 53.7137H52.9813V39.4445H65.8019V53.7137ZM62.9579 47.6696L63.3775 47.4743L64.1362 48.6512C64.3437 48.9723 64.3357 49.3516 64.1162 49.6666C63.8961 49.9816 63.5078 50.1695 63.0769 50.1695H59.9701L60.9716 51.0196L60.6325 51.3074L59.0532 49.9657L60.6325 48.6246L60.9716 48.9125L59.9701 49.7625H63.0762C63.3369 49.7625 63.571 49.6497 63.7033 49.4594C63.8363 49.2692 63.8409 49.0406 63.7166 48.8465L62.9579 47.6696ZM57.6314 44.8654L57.2112 44.6701L58.3011 42.9779C58.5185 42.6319 58.9268 42.4242 59.3916 42.4242C59.8558 42.4242 60.2641 42.6319 60.4822 42.9796L62.4485 46.031L62.8089 44.8897L63.2711 44.9952L62.6932 46.8269L60.5347 46.3364L60.6584 45.9441L62.0515 46.2613L60.0612 43.1732C59.9256 42.9581 59.6756 42.8306 59.391 42.8306C59.1063 42.8306 58.8557 42.9581 58.722 43.1715L57.6314 44.8654ZM54.6677 49.6655C54.4476 49.3505 54.4396 48.9706 54.6471 48.6489L56.3035 46.0784L54.9071 46.3956L54.7834 46.0028L56.9412 45.5123L57.5197 47.3445L57.0576 47.4494L56.6992 46.3132L55.068 48.8442C54.943 49.0384 54.9476 49.2681 55.0806 49.4583C55.2136 49.6491 55.449 49.7625 55.7097 49.7625H58.0617V50.1695H55.7083C55.2768 50.169 54.8884 49.9804 54.6677 49.6655Z" fill="white"/>
</svg>
