<svg width="98" height="286" viewBox="0 0 98 286" fill="none" xmlns="http://www.w3.org/2000/svg">
<path d="M49 43.6667C46.0545 43.6667 43.6667 46.0545 43.6667 49C43.6667 51.9455 46.0545 54.3333 49 54.3333C51.9455 54.3333 54.3333 51.9455 54.3333 49C54.3333 46.0545 51.9455 43.6667 49 43.6667ZM48 49L48 286H50L50 49H48Z" fill="black" fill-opacity="0.8"/>
<path d="M11.2129 90.7687L25.5242 53.1914H71.8251L86.1334 90.7687H11.2129Z" fill="#484746"/>
<path d="M0.390625 6.44601L21.7995 0.217773H75.5464L96.9553 6.44601H0.390625Z" fill="#484746"/>
<path d="M0 6.06445H97.3469L86.3689 91.0005H10.9779L0 6.06445ZM86.1337 90.7692L96.9558 6.44995H0.391086L11.2132 90.7692H86.1306" fill="#252423"/>
<path d="M96.9553 6.44629L86.1332 90.7689H11.2127L0.390625 6.44629H96.9553Z" fill="#252423"/>
<path d="M0 6.06398L21.5953 0H75.7516L97.3469 6.06398H0Z" fill="#484746"/>
<g clip-path="url(#clip0_966_5850)">
<path d="M56.035 34.0898V29.3123C56.035 29.0512 55.8237 28.8398 55.5625 28.8398H42.4375C42.1763 28.8398 41.965 29.0512 41.965 29.3123V34.0898H30.625V35.0348H35.4025V68.6873C35.4025 68.9485 35.6138 69.1598 35.875 69.1598H62.125C62.3862 69.1598 62.5975 68.9485 62.5975 68.6873V35.0348H67.375V34.0898H56.035ZM42.91 29.7848H55.09V34.0898H42.91V29.7848ZM61.6525 68.2148H36.3475V35.0348H61.6525V68.2148ZM56.0389 54.1606L56.8671 53.7065L58.3647 56.443C58.7742 57.1898 58.7584 58.0718 58.3253 58.8042C57.8909 59.5366 57.1244 59.9737 56.2739 59.9737H50.1419L52.1185 61.9503L51.4491 62.6197L48.3319 59.4998L51.4491 56.3813L52.1185 57.0507L50.1419 59.0273H56.2726C56.7871 59.0273 57.2491 58.7648 57.5102 58.3225C57.7727 57.8802 57.7819 57.3487 57.5365 56.8972L56.0389 54.1606ZM45.5258 47.6401L44.6963 47.186L46.8475 43.2511C47.2767 42.4465 48.0826 41.9635 49 41.9635C49.9161 41.9635 50.722 42.4465 51.1525 43.255L55.0336 50.3504L55.7449 47.6965L56.6571 47.942L55.5166 52.201L51.2562 51.0605L51.5003 50.1483L54.25 50.8859L50.3217 43.7052C50.0539 43.2052 49.5604 42.9085 48.9987 42.9085C48.4369 42.9085 47.9421 43.2052 47.6783 43.7013L45.5258 47.6401ZM39.676 58.8016C39.2416 58.0692 39.2258 57.1859 39.6353 56.4378L42.9047 50.4607L40.1485 51.1983L39.9044 50.2848L44.1634 49.1442L45.3053 53.4046L44.3931 53.6487L43.6857 51.0067L40.4661 56.8919C40.2194 57.3434 40.2286 57.8776 40.4911 58.3199C40.7536 58.7635 41.2182 59.0273 41.7327 59.0273H46.375V59.9737H41.7301C40.8783 59.9723 40.1117 59.534 39.676 58.8016Z" fill="white"/>
</g>
<defs>
<clipPath id="clip0_966_5850">
<rect width="42" height="42" fill="white" transform="translate(28 28)"/>
</clipPath>
</defs>
</svg>
