<svg width="98" height="286" viewBox="0 0 98 286" fill="none" xmlns="http://www.w3.org/2000/svg">
<path d="M49 43.6667C46.0545 43.6667 43.6667 46.0545 43.6667 49C43.6667 51.9455 46.0545 54.3333 49 54.3333C51.9455 54.3333 54.3333 51.9455 54.3333 49C54.3333 46.0545 51.9455 43.6667 49 43.6667ZM48 49L48 286H50L50 49H48Z" fill="black" fill-opacity="0.8"/>
<path d="M11.2129 90.7687L25.5242 53.1914H71.8251L86.1334 90.7687H11.2129Z" fill="#484746"/>
<path d="M0.390625 6.44601L21.7995 0.217773H75.5464L96.9553 6.44601H0.390625Z" fill="#484746"/>
<path d="M0 6.06445H97.3469L86.3689 91.0005H10.9779L0 6.06445ZM86.1337 90.7692L96.9558 6.44995H0.391086L11.2132 90.7692H86.1306" fill="#252423"/>
<path d="M96.9553 6.44629L86.1332 90.7689H11.2127L0.390625 6.44629H96.9553Z" fill="#252423"/>
<path d="M0 6.06398L21.5953 0H75.7516L97.3469 6.06398H0Z" fill="#484746"/>
<path d="M49.0568 32.0461C49.185 32.0465 49.3147 32.089 49.4174 32.1751C50.0929 32.7377 65.9608 46.1186 65.9271 58.4433C65.9037 66.9691 58.2845 73.8845 48.9424 73.8589C39.6002 73.8333 32.019 66.8764 32.0423 58.3505C32.0723 47.3842 47.9988 32.8041 48.6776 32.188C48.7807 32.0944 48.9196 32.0458 49.0568 32.0461ZM48.945 72.8789C57.6951 72.9029 64.8314 66.4259 64.8533 58.4403C64.883 47.5788 51.5056 35.3562 49.07 33.2235C46.6596 35.4981 33.1426 48.6856 33.1161 58.3535C33.0942 66.339 40.195 72.855 48.945 72.8789Z" fill="white"/>
</svg>
